<?xml version="1.0" encoding="utf-8"?>
<!-- Generator: Adobe Illustrator 20.0.0, SVG Export Plug-In . SVG Version: 6.00 Build 0)  -->
<svg version="1.1" id="Layer_1" xmlns="http://www.w3.org/2000/svg" xmlns:xlink="http://www.w3.org/1999/xlink" x="0px" y="0px"
	 viewBox="0 0 100 26.7" style="enable-background:new 0 0 100 26.7;" xml:space="preserve">
<style type="text/css">
	.st0{fill:#FFFFFF;}
</style>
<title>Group 2</title>
<desc>Created with Sketch.</desc>
<g id="Page-1">
	<g id="Desk" transform="translate(-25.000000, -57.000000)">
		<g id="Group-2" transform="translate(25.000000, 57.000000)">
			<g id="Group">
				<polygon id="Fill-1" class="st0" points="0,0 0,25 25,0 				"/>
				<polygon id="Fill-2" class="st0" points="1.8,26.8 26.8,26.8 26.8,1.8 				"/>
			</g>
			<path id="Fill-3" class="st0" d="M40.8,12.8c2.9,0,4.5-1.4,4.5-4.1V8.6c0-2.8-1.6-4-4.5-4h-3v8.2H40.8z M31.9,0H41
				c6.4,0,10,2.9,10,8.5v0.1c0,5.7-3.9,8.4-9.9,8.4h-3.3v9.7h-5.9V0z"/>
			<path id="Fill-5" class="st0" d="M62.8,22.2c2.9,0,4.3-1.3,4.3-3.7v-0.1c0-2.4-1.4-3.7-4.4-3.7h-3.3v7.6H62.8z M63,26.8h-9.5V0
				h16.8v4.7h-11l0,5.6h3.9c6,0,9.5,2.7,9.5,8v0.2C72.7,23.8,69.4,26.8,63,26.8L63,26.8z"/>
			<polygon id="Fill-8" class="st0" points="77,0 83.3,0 83.3,11.6 92.9,0 99.5,0 88.6,12.7 100,26.8 92.7,26.8 83.3,14.8 
				83.3,26.8 77,26.8 			"/>
		</g>
	</g>
</g>
</svg>
