<?xml version="1.0" encoding="utf-8"?>
<!-- Generator: Adobe Illustrator 20.0.0, SVG Export Plug-In . SVG Version: 6.00 Build 0)  -->
<svg version="1.1" id="Layer_1" xmlns="http://www.w3.org/2000/svg" xmlns:xlink="http://www.w3.org/1999/xlink" x="0px" y="0px"
	 viewBox="0 0 100 30.9" style="enable-background:new 0 0 100 30.9;" xml:space="preserve">
<style type="text/css">
	.st0{fill:#FFFFFF;}
</style>
<path class="st0" d="M10.5,4.3c1.7,0,3.2,0.7,4.4,1.9l0,0c0-0.6,0.4-1,0.9-1h0.1c0.8,0,1,0.8,1,1v8.6c-0.1,0.6,0.6,0.8,0.9,0.5
	c1.4-1.4,3-7.3-0.9-10.6C13.3,1.5,8.4,2,5.9,3.8c-2.7,1.9-4.5,6.1-2.8,10c1.9,4.3,7.2,5.6,10.3,4.3c1.6-0.6,2.3,1.5,0.7,2.2
	c-2.5,1.1-9.5,1-12.7-4.7c-2.2-3.8-2.1-10.5,3.8-14C9.5-1.1,15.4-0.3,19,3.4c3.7,3.9,3.5,11.1-0.1,14c-1.6,1.3-4.1,0-4.1-1.8V15
	c-1.1,1.1-2.7,1.8-4.3,1.8c-3.3,0-6.1-2.9-6.1-6.1C4.3,7.2,7.2,4.3,10.5,4.3L10.5,4.3z M14.6,10.3c-0.1-2.4-1.9-3.8-4-3.8h-0.1
	c-2.5,0-3.9,1.9-3.9,4.2c0,2.5,1.7,4,3.8,4c2.4,0,4-1.8,4.1-3.9L14.6,10.3L14.6,10.3z M74.4,16.8c0,0.5-0.6,1.1-1.4,1.1
	s-1.3-0.6-1.3-1.1v-0.9c0-0.5,0.5-1.1,1.3-1.1c0.9,0,1.3,0.6,1.3,1.2L74.4,16.8L74.4,16.8z M83.2,4c-3.7,0-6.9,3.3-6.9,6.9v5.7
	c0,0.7,0.6,1.3,1.2,1.3c0.8,0,1.3-0.6,1.3-1.2V11c0-2.1,1.8-4.3,4.3-4.3c0.8,0,1.4-0.6,1.4-1.3C84.5,4.7,84.1,4,83.2,4L83.2,4z
	 M98.7,4c-0.8,0-1.3,0.7-1.3,1.3V11c0,2.2-1.8,4.3-4.4,4.3c-2.1,0-4.3-1.8-4.3-4.3V5.3c0-0.6-0.4-1.3-1.3-1.3C86.7,4,86,4.5,86,5.2
	v5.7c0,3.7,3.3,6.9,6.9,6.9c4,0,7-3.4,7-6.9V5.2C100,4.6,99.5,4,98.7,4z"/>
<g>
	<path class="st0" d="M80.8,22.7c-1.6,0-2.9,1.4-2.9,2.9V28c0,0.3,0.3,0.5,0.5,0.5c0.3,0,0.6-0.2,0.6-0.5v-2.4
		c0-0.9,0.8-1.8,1.8-1.8c0.4,0,0.6-0.3,0.6-0.6C81.4,23,81.2,22.7,80.8,22.7L80.8,22.7z"/>
	<path class="st0" d="M93.1,22.7c-0.3,0-0.6,0.3-0.6,0.5v2.4c0,0.9-0.8,1.8-1.9,1.8c-0.9,0-1.8-0.8-1.8-1.8v-2.4
		c0-0.3-0.2-0.5-0.6-0.5c-0.3,0-0.5,0.2-0.5,0.5v2.4c0,1.6,1.4,2.9,2.9,2.9c1.7,0,3-1.4,3-2.9v-2.4C93.7,22.9,93.4,22.7,93.1,22.7
		L93.1,22.7z"/>
</g>
<g>
	<path class="st0" d="M97.1,22.7c-0.7,0-1.4,0.3-1.9,0.7v-0.2c0-0.3-0.2-0.5-0.5-0.5s-0.6,0.3-0.6,0.5v7.1c0,0.3,0.2,0.6,0.6,0.6
		s0.6-0.3,0.6-0.6v-2.4c0.5,0.4,1.2,0.7,1.9,0.7c1.6,0,2.9-1.4,2.9-2.9C100,24,98.6,22.7,97.1,22.7L97.1,22.7z M97.1,27.5
		c-0.9,0-1.7-0.7-1.8-1.6v-0.5c0.1-0.9,0.9-1.6,1.8-1.6c1,0,1.9,0.8,1.9,1.9C98.9,26.7,98.1,27.5,97.1,27.5z M76.9,22.7
		c-0.3,0-0.5,0.3-0.5,0.5v0.2c-0.5-0.4-1.2-0.7-1.9-0.7c-1.6,0-2.9,1.3-2.9,2.9c0,1.5,1.3,2.9,2.9,2.9c0.7,0,1.4-0.3,1.9-0.7
		c0,0,0,0.2,0,0.3c-0.1,0.7-0.6,1.3-1.4,1.6c-0.6,0.2-2.2-0.2-2.3-0.2c-0.4-0.1-0.6,0.3-0.6,0.6c0,0.2,0.2,0.4,0.6,0.5
		c0.5,0.2,1.3,0.2,2.1,0.3c0.6,0,2.7-0.4,2.8-2.8v-4.8C77.5,23,77.2,22.7,76.9,22.7L76.9,22.7z M74.5,27.5c-1,0-1.9-0.8-1.9-1.9
		c0-1,0.8-1.9,1.9-1.9c1,0,1.9,0.8,1.9,1.9C76.3,26.7,75.5,27.5,74.5,27.5L74.5,27.5z"/>
	<path class="st0" d="M60.9,1.9c0,0.6-0.6,1-1.4,1c-0.8,0-1.3-0.6-1.3-1.1V1.2c0-0.5,0.5-1.2,1.3-1.2c0.9,0,1.4,0.6,1.4,1.2V1.9
		L60.9,1.9z M36.7,4C35,4,33.8,4.9,33,5.6c-0.9-0.9-2-1.5-3.1-1.6c-1.2-0.1-2.3,0.3-3,0.9C26.6,4.3,26.3,4,25.7,4
		c-0.6,0-1.3,0.5-1.3,1.4s0,11.2,0,11.2c0,0.6,0.5,1.3,1.3,1.3c0.9,0,1.3-0.7,1.3-1.3V8.3c0-0.8,1.4-1.8,2.5-1.7
		c0.7,0,1.6,0.7,1.6,1.9v8.1c0,0.7,0.7,1.3,1.4,1.3c0.8,0,1.4-0.6,1.4-1.3V8.3c0-1,1.5-1.9,2.6-1.8c0.8,0,1.6,0.9,1.6,1.8v8.2
		c0,0.7,0.7,1.3,1.4,1.3c0.6,0,1.4-0.4,1.4-1.3V8.4C41,5.4,38,4,36.7,4L36.7,4z M59.5,4c-0.8,0-1.3,0.7-1.3,1.3v11.2
		c0,0.7,0.6,1.3,1.3,1.3c0.8,0,1.4-0.6,1.4-1.4V5.3C60.9,4.7,60.2,4,59.5,4L59.5,4z M54.9,4c-0.8,0-1.3,0.6-1.3,1.2v0.5
		c-1.2-1-2.7-1.6-4.4-1.6c-3.7,0-6.9,3.1-6.9,6.9c0,3.5,3.1,6.9,6.9,6.9c1.5,0,3.2-0.6,4.4-1.6v0.3c0,0.6,0.5,1.3,1.3,1.3
		c0.9,0,1.3-0.7,1.3-1.3V5.2C56.2,4.7,55.7,4,54.9,4L54.9,4z M49.2,15.3c-2.4,0-4.4-2-4.4-4.4s2-4.4,4.4-4.4s4.4,2,4.4,4.4
		C53.6,13.3,51.6,15.3,49.2,15.3z M68.7,15.2c-1.7,0-3.2-1.3-3.2-3.2V1.3c0-0.7-0.6-1.3-1.3-1.3c-0.9,0-1.3,0.6-1.3,1.3V12
		c0,3.3,2.7,5.9,5.9,5.9c0.9,0,1.4-0.8,1.4-1.4C70,15.9,69.6,15.2,68.7,15.2L68.7,15.2z"/>
	<path class="st0" d="M87.3,25.6c0-1.5-1.3-2.9-2.9-2.9c0,0,0,0-0.1,0c-1.5,0-2.9,1.3-2.9,2.9c0,1.5,1.3,2.9,2.9,2.9c0,0,0,0,0.1,0
		C85.9,28.6,87.3,27.3,87.3,25.6L87.3,25.6z M84.4,27.5c-1,0-1.8-0.8-1.9-1.8l0,0c0-0.8,0.6-1.5,1.3-1.7c0.2-0.1,0.4-0.1,0.6-0.1
		c1,0,1.8,0.8,1.9,1.8l0,0c0,0.8-0.6,1.5-1.3,1.7C84.7,27.5,84.5,27.5,84.4,27.5L84.4,27.5z"/>
</g>
</svg>
