<?xml version="1.0" encoding="utf-8"?>
<!-- Generator: Adobe Illustrator 20.0.0, SVG Export Plug-In . SVG Version: 6.00 Build 0)  -->
<svg version="1.1" id="Layer_1" xmlns="http://www.w3.org/2000/svg" xmlns:xlink="http://www.w3.org/1999/xlink" x="0px" y="0px"
	 viewBox="0 0 60 20.3" style="enable-background:new 0 0 60 20.3;" xml:space="preserve">
<style type="text/css">
	.st0{fill:#FFFFFF;}
</style>
<g>
	<polygon class="st0" points="0,0 0,4.8 2.7,4.8 2.7,15.9 0,15.9 0,20.3 14.2,20.3 14.2,15.9 11.5,15.9 11.5,4.8 14.2,4.8 14.2,0 	
		"/>
	<path class="st0" d="M46.9,4.9c-4.9,0-9.8,2.4-9.8,7.9c0,1.2,0.2,2.2,0.6,3.1l0,0V16c1.5,3.3,5.3,4.8,9.1,4.8
		c3.1,0,7.5-0.8,8.5-5.6v-0.5h-5.8h-0.2c0,1.6-1.2,2.4-2.5,2.4c-2.6,0-2.8-2.1-2.8-4.2l0,0l0,0c0-2.1,0.2-4.2,2.8-4.2
		c2,0,2.4,1.8,2.4,3.4l6-0.7c-0.6-6.1-6.6-6.5-8.1-6.5C47,4.9,46.9,4.9,46.9,4.9"/>
	<path class="st0" d="M14.9,4.8v4.4h2v6.7h-2v4.4H26v-4.4h-2.1v-3.8c0-1.6,1.2-2.8,2.9-2.8c1.3,0,2.3,0.6,2.3,2v4.6H27v4.4h10.8V16
		c0,0,0,0,0-0.1H36V10c0-3.7-2.7-5.1-6.1-5.1c-2.4,0-4.2,0.7-5.8,2.5c-0.1,0.1-0.3,0.3-0.4,0.4v-3H14.9z"/>
</g>
<circle class="st0" cx="57.4" cy="17.9" r="2.6"/>
</svg>
