<?xml version="1.0" encoding="utf-8"?>
<!-- Generator: Adobe Illustrator 22.0.1, SVG Export Plug-In . SVG Version: 6.00 Build 0)  -->
<svg version="1.1" id="Layer_1" xmlns="http://www.w3.org/2000/svg" xmlns:xlink="http://www.w3.org/1999/xlink" x="0px" y="0px"
	 viewBox="0 0 2800 2800" style="enable-background:new 0 0 2800 2800;" xml:space="preserve">
<style type="text/css">
	.st0{fill:#231F20;}
	.st1{fill:#25A9E0;}
</style>
<g>
	<g>
		<path class="st0" d="M2508.7,1172.4l0.8-0.2l1.7,9.1l5.5-1l-1.7-9.1l0.8-0.2l1.7,9.1l1-0.2l0.5,3.1l-0.8,0.1l-0.4-2.4l-7.3,1.4
			L2508.7,1172.4z"/>
		<path class="st0" d="M2525,1169.4l0.8-0.2l1.8,9.8l-0.8,0.2l-1.5-8.4l-4,9.4l-0.8,0.2l-1.8-9.8l0.8-0.2l1.5,8.4L2525,1169.4z"/>
		<path class="st0" d="M2532.8,1169l0.2,0c0.8-0.1,1.5-0.1,2.1,0.1c0.7,0.2,1.2,0.6,1.7,1.1c0.5,0.5,0.7,1.2,0.9,1.9
			c0.1,0.7,0.1,1.4-0.1,2.1c-0.2,0.7-0.6,1.2-1.2,1.7s-1.2,0.7-2,0.9l-0.2,0l0.3,1.4l-0.8,0.1l-0.3-1.4l-0.2,0
			c-0.8,0.1-1.5,0.1-2.2-0.1c-0.7-0.2-1.2-0.6-1.7-1.1c-0.5-0.5-0.7-1.2-0.9-1.9c-0.1-0.7-0.1-1.4,0.1-2.1c0.2-0.7,0.6-1.2,1.2-1.7
			s1.2-0.7,2-0.9l0.2,0l-0.3-1.4l0.8-0.1L2532.8,1169z M2532,1169.8c-1,0.2-1.7,0.6-2.2,1.3c-0.5,0.7-0.6,1.5-0.4,2.5
			c0.2,0.9,0.6,1.6,1.2,2.1c0.6,0.5,1.4,0.6,2.4,0.5l0.4-0.1l-1.2-6.4L2532,1169.8z M2533,1169.7l1.2,6.4l0.2,0
			c1-0.2,1.7-0.6,2.2-1.3c0.5-0.7,0.6-1.5,0.4-2.5c-0.2-0.9-0.6-1.6-1.2-2.1c-0.6-0.5-1.4-0.7-2.4-0.5L2533,1169.7z"/>
		<path class="st0" d="M2540.5,1172.5l0.7,4l-0.8,0.2l-1.8-9.8l3.3-0.6c1-0.2,1.9-0.1,2.6,0.3c0.7,0.4,1.1,1.1,1.3,2
			c0.2,0.9,0,1.7-0.5,2.3s-1.2,1-2.3,1.2L2540.5,1172.5z M2540.3,1171.8l2.5-0.5c0.8-0.1,1.4-0.5,1.7-0.9c0.4-0.5,0.5-1,0.3-1.7
			c-0.1-0.7-0.4-1.2-0.9-1.5c-0.5-0.3-1.1-0.4-1.9-0.3l-2.6,0.5L2540.3,1171.8z"/>
		<path class="st0" d="M2555.3,1169.4c0.2,0.9,0.2,1.7,0,2.5c-0.2,0.7-0.5,1.3-1,1.8c-0.5,0.5-1.1,0.8-1.9,0.9c-1.1,0.2-2.1,0-3-0.7
			c-0.9-0.7-1.4-1.7-1.7-3.1l-0.2-1c-0.2-0.9-0.2-1.7,0-2.5c0.2-0.7,0.5-1.4,1-1.8c0.5-0.5,1.1-0.8,1.9-0.9c0.8-0.1,1.5-0.1,2.1,0.2
			c0.6,0.3,1.2,0.7,1.6,1.3c0.4,0.6,0.7,1.3,0.9,2.2L2555.3,1169.4z M2554.3,1168.5c-0.2-1.2-0.7-2.1-1.3-2.6
			c-0.7-0.6-1.4-0.8-2.4-0.6c-0.9,0.2-1.6,0.6-2,1.4c-0.4,0.8-0.5,1.8-0.3,3l0.2,1c0.2,1.2,0.7,2,1.3,2.6c0.7,0.6,1.5,0.8,2.4,0.6
			c0.9-0.2,1.6-0.6,2-1.4s0.5-1.7,0.3-2.9L2554.3,1168.5z"/>
		<path class="st0" d="M2558.2,1173.4l-1.8-9.8l2.9-0.5c1-0.2,1.9-0.1,2.5,0.2c0.6,0.3,1,0.9,1.2,1.8c0.1,0.5,0,1-0.2,1.4
			c-0.2,0.4-0.5,0.8-1,1c0.6,0,1.1,0.2,1.5,0.6s0.7,0.8,0.8,1.4c0.2,0.9,0,1.6-0.5,2.2c-0.5,0.6-1.2,1-2.2,1.2L2558.2,1173.4z
			 M2558,1167.8l2.3-0.4c0.7-0.1,1.2-0.4,1.5-0.8s0.4-0.9,0.3-1.5c-0.1-0.6-0.4-1.1-0.8-1.3c-0.4-0.2-1.1-0.3-1.9-0.1l-2.1,0.4
			L2558,1167.8z M2558.1,1168.5l0.7,4l2.5-0.5c0.7-0.1,1.2-0.4,1.6-0.9c0.3-0.4,0.5-1,0.3-1.6c-0.1-0.6-0.4-1-0.9-1.3
			c-0.5-0.3-1-0.4-1.7-0.2L2558.1,1168.5z"/>
		<path class="st0" d="M2573,1166.1c0.2,0.9,0.2,1.7,0,2.5c-0.2,0.7-0.5,1.3-1,1.8c-0.5,0.5-1.1,0.8-1.9,0.9c-1.1,0.2-2.1,0-3-0.7
			c-0.9-0.7-1.4-1.7-1.7-3.1l-0.2-1c-0.2-0.9-0.2-1.7,0-2.5c0.2-0.7,0.5-1.4,1-1.8c0.5-0.5,1.1-0.8,1.9-0.9c0.8-0.1,1.4-0.1,2.1,0.2
			c0.6,0.3,1.2,0.7,1.6,1.3c0.4,0.6,0.7,1.3,0.9,2.2L2573,1166.1z M2572,1165.2c-0.2-1.2-0.7-2.1-1.3-2.6c-0.7-0.6-1.4-0.8-2.4-0.6
			c-0.9,0.2-1.6,0.6-2,1.4c-0.4,0.8-0.5,1.8-0.3,3l0.2,1c0.2,1.2,0.7,2,1.3,2.6c0.7,0.6,1.5,0.8,2.4,0.6c0.9-0.2,1.6-0.6,2-1.4
			c0.4-0.8,0.5-1.7,0.3-2.9L2572,1165.2z"/>
		<path class="st0" d="M2580.5,1159.1l0.8-0.2l1.8,9.8l-0.8,0.2l-1.5-8.4l-4,9.4l-0.8,0.2l-1.8-9.8l0.8-0.2l1.5,8.4L2580.5,1159.1z
			 M2579.3,1156.9c0.1,0.5,0,1-0.3,1.3c-0.3,0.4-0.7,0.6-1.3,0.7c-0.6,0.1-1.1,0-1.5-0.2c-0.4-0.2-0.7-0.6-0.8-1.2l0.7-0.1
			c0.1,0.4,0.2,0.6,0.5,0.8c0.3,0.2,0.6,0.2,1,0.1c0.4-0.1,0.7-0.2,0.9-0.5c0.2-0.2,0.2-0.5,0.2-0.9L2579.3,1156.9z"/>
		<path class="st0" d="M2588.3,1157.7l5.2,8l2-9.3l1.1-0.2l1.8,9.8l-0.8,0.2l-0.8-4.3l-0.7-4.4l-2.1,9.3l-0.6,0.1l-5.2-7.9l0.9,4.3
			l0.8,4.3l-0.8,0.2l-1.8-9.8L2588.3,1157.7z"/>
		<path class="st0" d="M2605.9,1161.7l-4.4,0.8l-0.5,2.9l-0.9,0.2l1.9-10.5l0.8-0.1l5.5,9.1l-0.9,0.2L2605.9,1161.7z M2601.6,1161.8
			l3.9-0.7l-2.9-5L2601.6,1161.8z"/>
		<path class="st0" d="M2609.8,1159.7l0.7,4l-0.8,0.2l-1.8-9.8l3.3-0.6c1-0.2,1.9-0.1,2.6,0.3c0.7,0.4,1.1,1.1,1.3,2
			c0.2,0.9,0,1.7-0.5,2.3c-0.5,0.6-1.2,1-2.3,1.2L2609.8,1159.7z M2609.7,1159l2.5-0.5c0.8-0.1,1.4-0.5,1.7-0.9
			c0.4-0.5,0.5-1,0.3-1.7c-0.1-0.7-0.4-1.2-0.9-1.5c-0.5-0.3-1.1-0.4-1.9-0.3l-2.6,0.5L2609.7,1159z"/>
		<path class="st0" d="M2619.5,1157.3l-1.3,0.2l0.8,4.6l-0.8,0.2l-1.8-9.8l0.8-0.2l0.8,4.5l1.3-0.2l3-5.2l1-0.2l-3.1,5.6l5.2,4.2
			l-1,0.2L2619.5,1157.3z"/>
		<path class="st0" d="M2631.5,1155l-4.6,0.8l0.7,4l5.3-1l0.1,0.7l-6.1,1.1l-1.8-9.8l6.1-1.1l0.1,0.7l-5.2,1l0.7,3.7l4.6-0.8
			L2631.5,1155z"/>
		<path class="st0" d="M2639.9,1148.9l-3.4,0.6l1.7,9.1l-0.8,0.2l-1.7-9.1l-3.3,0.6l-0.1-0.7l7.5-1.4L2639.9,1148.9z"/>
		<path class="st0" d="M2647.8,1146.7l0.8-0.2l1.8,9.8l-0.8,0.2l-1.5-8.4l-4,9.4l-0.8,0.2l-1.8-9.8l0.8-0.2l1.5,8.4L2647.8,1146.7z"
			/>
		<path class="st0" d="M2660.2,1154.6l-0.8,0.2l-0.9-4.7l-5.6,1l0.9,4.7l-0.8,0.2l-1.8-9.8l0.8-0.2l0.8,4.4l5.6-1l-0.8-4.4l0.8-0.2
			L2660.2,1154.6z"/>
		<path class="st0" d="M2666.9,1143.9l-5.1,0.9l1.7,9.1l-0.8,0.2l-1.8-9.8l5.9-1.1L2666.9,1143.9z"/>
	</g>
	<g>
		<path class="st0" d="M2529.7,1226.2c0,1.1-0.2,1.9-0.8,2.5c-0.6,0.6-1.4,1-2.4,1.2c-0.7,0.1-1.4,0-2-0.3c-0.6-0.3-1.1-0.7-1.5-1.4
			c-0.4-0.6-0.7-1.4-0.8-2.2l-0.2-1.3c-0.1-0.9-0.1-1.7,0.1-2.4c0.2-0.7,0.6-1.3,1.1-1.8c0.5-0.4,1.2-0.7,1.9-0.8
			c1.1-0.1,1.9,0,2.6,0.5c0.7,0.5,1.2,1.2,1.4,2.2l-0.8,0.1c-0.4-1.6-1.5-2.4-3.1-2.1c-0.9,0.1-1.6,0.6-2,1.3
			c-0.4,0.7-0.6,1.7-0.4,2.9l0.2,1.2c0.2,1.1,0.5,2,1.2,2.6c0.6,0.6,1.4,0.8,2.2,0.7c0.9-0.1,1.5-0.4,1.9-0.9c0.4-0.5,0.6-1.1,0.6-2
			L2529.7,1226.2z"/>
		<path class="st0" d="M2539.5,1228l-0.8,0.1l-0.7-4.7l-5.6,0.8l0.7,4.7l-0.8,0.1l-1.4-9.9l0.8-0.1l0.6,4.4l5.6-0.8l-0.6-4.4
			l0.8-0.1L2539.5,1228z"/>
		<path class="st0" d="M2543,1227.5l-0.8,0.1l-1.4-9.9l0.8-0.1L2543,1227.5z"/>
		<path class="st0" d="M2550.5,1221.6l-4.6,0.6l0.6,4l5.3-0.7l0.1,0.7l-6.1,0.9l-1.4-9.9l6.1-0.9l0.1,0.7l-5.3,0.7l0.5,3.7l4.6-0.6
			L2550.5,1221.6z"/>
		<path class="st0" d="M2558.3,1220.6l-4.6,0.6l0.6,4.6l-0.8,0.1l-1.4-9.9l6.1-0.9l0.1,0.7l-5.3,0.7l0.5,3.8l4.6-0.6L2558.3,1220.6z
			"/>
		<path class="st0" d="M2564.7,1224.4l-1.4-9.9l2.8-0.4c0.8-0.1,1.6,0,2.3,0.2s1.3,0.7,1.7,1.4c0.5,0.6,0.7,1.4,0.9,2.3l0.1,0.9
			c0.1,0.9,0.1,1.7-0.2,2.4c-0.3,0.7-0.7,1.3-1.3,1.8c-0.6,0.5-1.3,0.7-2.2,0.9L2564.7,1224.4z M2564.3,1215.2l1.2,8.5l1.9-0.3
			c1-0.1,1.8-0.6,2.4-1.4c0.5-0.8,0.7-1.8,0.6-2.9l-0.1-0.9c-0.2-1.1-0.6-2-1.3-2.6c-0.7-0.6-1.6-0.8-2.6-0.7L2564.3,1215.2z"/>
		<path class="st0" d="M2578.6,1219.7l-4.5,0.6l-0.6,2.9l-0.9,0.1l2.4-10.4l0.8-0.1l5.1,9.3l-0.9,0.1L2578.6,1219.7z M2574.3,1219.6
			l4-0.6l-2.7-5.1L2574.3,1219.6z"/>
		<path class="st0" d="M2586.9,1212l-3.4,0.5l1.3,9.2l-0.8,0.1l-1.3-9.2l-3.4,0.5l-0.1-0.7l7.6-1.1L2586.9,1212z"/>
		<path class="st0" d="M2594.2,1217.5l-4.5,0.6l-0.6,2.9l-0.9,0.1l2.4-10.4l0.8-0.1l5.1,9.3l-0.9,0.1L2594.2,1217.5z M2589.9,1217.4
			l4-0.6l-2.7-5.1L2589.9,1217.4z"/>
		<path class="st0" d="M2607.9,1213.9c0.1,0.9,0.1,1.7-0.1,2.5s-0.6,1.3-1.1,1.8s-1.2,0.7-1.9,0.8c-1.2,0.2-2.1-0.1-3-0.8
			s-1.3-1.8-1.5-3.2l-0.1-1c-0.1-0.9-0.1-1.7,0.1-2.5s0.6-1.3,1.1-1.8c0.5-0.5,1.2-0.7,1.9-0.8c0.8-0.1,1.5,0,2.1,0.3
			c0.6,0.3,1.2,0.7,1.6,1.4c0.4,0.6,0.7,1.4,0.8,2.3L2607.9,1213.9z M2606.9,1213c-0.2-1.2-0.6-2.1-1.2-2.7s-1.4-0.8-2.3-0.7
			c-0.9,0.1-1.6,0.6-2,1.3c-0.4,0.8-0.6,1.7-0.4,2.9l0.1,1c0.2,1.2,0.6,2.1,1.2,2.7c0.6,0.6,1.4,0.8,2.3,0.7
			c0.9-0.1,1.6-0.6,2.1-1.3c0.4-0.7,0.6-1.7,0.4-2.9L2606.9,1213z"/>
		<path class="st0" d="M2615.4,1212.7l-4.6,0.6l0.6,4.6l-0.8,0.1l-1.4-9.9l6.1-0.9l0.1,0.7l-5.3,0.7l0.5,3.8l4.6-0.6L2615.4,1212.7z
			"/>
		<path class="st0" d="M2623.2,1211.6l-4.6,0.6l0.6,4.6l-0.8,0.1l-1.4-9.9l6.1-0.9l0.1,0.7l-5.3,0.7l0.5,3.8l4.6-0.6L2623.2,1211.6z
			"/>
		<path class="st0" d="M2627.3,1215.7l-0.8,0.1l-1.4-9.9l0.8-0.1L2627.3,1215.7z"/>
		<path class="st0" d="M2636.5,1211.3c0,1.1-0.2,1.9-0.8,2.5c-0.6,0.6-1.4,1-2.4,1.2c-0.7,0.1-1.4,0-2-0.3c-0.6-0.3-1.1-0.7-1.5-1.4
			c-0.4-0.6-0.7-1.4-0.8-2.2l-0.2-1.3c-0.1-0.9-0.1-1.7,0.1-2.4c0.2-0.7,0.6-1.3,1.1-1.8c0.5-0.4,1.2-0.7,1.9-0.8
			c1.1-0.1,1.9,0,2.6,0.5c0.7,0.5,1.2,1.2,1.4,2.2l-0.8,0.1c-0.4-1.6-1.5-2.4-3.1-2.1c-0.9,0.1-1.6,0.6-2,1.3
			c-0.4,0.7-0.6,1.7-0.4,2.9l0.2,1.2c0.2,1.1,0.5,2,1.2,2.6c0.6,0.6,1.4,0.8,2.2,0.7c0.9-0.1,1.5-0.4,1.9-0.9s0.6-1.1,0.6-2
			L2636.5,1211.3z"/>
		<path class="st0" d="M2643.7,1208.6l-4.6,0.6l0.6,4l5.3-0.7l0.1,0.7l-6.1,0.9l-1.4-9.9l6.1-0.9l0.1,0.7l-5.3,0.7l0.5,3.7l4.6-0.6
			L2643.7,1208.6z"/>
		<path class="st0" d="M2649.9,1208.3l-2.9,0.4l0.6,4.1l-0.8,0.1l-1.4-9.9l3.2-0.4c1.1-0.1,1.9,0,2.6,0.4c0.7,0.4,1.1,1.1,1.2,2
			c0.1,0.6,0,1.2-0.3,1.7c-0.3,0.5-0.8,0.9-1.3,1.2l3.1,3.9l0,0.1l-0.9,0.1L2649.9,1208.3z M2647,1208l2.6-0.4
			c0.7-0.1,1.2-0.4,1.6-0.8c0.4-0.5,0.5-1,0.4-1.6c-0.1-0.7-0.4-1.2-0.9-1.5c-0.5-0.3-1.1-0.4-1.9-0.3l-2.3,0.3L2647,1208z"/>
	</g>
	<g>
		<path class="st0" d="M2532.2,1269.2l0.8-0.1l0.9,9.2l5.6-0.5l-0.9-9.2l0.8-0.1l0.9,9.2l1-0.1l0.2,3.1l-0.8,0.1l-0.2-2.4l-7.4,0.7
			L2532.2,1269.2z"/>
		<path class="st0" d="M2548.7,1267.6l0.8-0.1l0.9,9.9l-0.8,0.1l-0.8-8.5l-4.8,9l-0.8,0.1l-0.9-9.9l0.8-0.1l0.8,8.5L2548.7,1267.6z"
			/>
		<path class="st0" d="M2556.5,1267.9l0.2,0c0.8-0.1,1.5,0,2.1,0.3c0.6,0.3,1.2,0.7,1.6,1.3c0.4,0.6,0.6,1.2,0.7,2
			c0.1,0.7,0,1.4-0.3,2.1c-0.3,0.6-0.7,1.1-1.3,1.5c-0.6,0.4-1.3,0.6-2,0.7l-0.3,0l0.1,1.4l-0.8,0.1l-0.1-1.4l-0.2,0
			c-0.8,0.1-1.5,0-2.1-0.3c-0.7-0.3-1.2-0.7-1.6-1.3c-0.4-0.6-0.6-1.2-0.7-2c-0.1-0.7,0-1.4,0.3-2.1c0.3-0.6,0.7-1.2,1.3-1.5
			c0.6-0.4,1.3-0.6,2-0.7l0.2,0l-0.1-1.4l0.8-0.1L2556.5,1267.9z M2555.5,1268.7c-1,0.1-1.8,0.5-2.3,1.1c-0.5,0.6-0.8,1.5-0.7,2.4
			c0.1,0.9,0.4,1.7,1,2.2c0.6,0.5,1.4,0.8,2.3,0.7l0.4,0l-0.6-6.5L2555.5,1268.7z M2556.5,1268.6l0.6,6.5l0.2,0
			c1-0.1,1.8-0.5,2.3-1.1c0.5-0.7,0.8-1.5,0.7-2.4c-0.1-0.9-0.4-1.7-1-2.2c-0.6-0.5-1.4-0.8-2.3-0.7L2556.5,1268.6z"/>
		<path class="st0" d="M2563.8,1272.1l0.4,4l-0.8,0.1l-0.9-9.9l3.4-0.3c1-0.1,1.9,0.1,2.5,0.6c0.6,0.5,1,1.2,1.1,2.1
			c0.1,0.9-0.1,1.7-0.7,2.2c-0.5,0.6-1.3,0.9-2.4,1L2563.8,1272.1z M2563.7,1271.4l2.5-0.2c0.8-0.1,1.4-0.3,1.8-0.8s0.6-1,0.5-1.7
			c-0.1-0.7-0.3-1.2-0.8-1.6c-0.5-0.4-1.1-0.5-1.9-0.5l-2.6,0.2L2563.7,1271.4z"/>
		<path class="st0" d="M2578.8,1270.3c0.1,0.9,0,1.7-0.2,2.4c-0.2,0.7-0.6,1.3-1.2,1.7c-0.5,0.4-1.2,0.7-2,0.8
			c-1.2,0.1-2.1-0.2-2.9-1c-0.8-0.8-1.3-1.8-1.4-3.2l-0.1-1c-0.1-0.9,0-1.7,0.3-2.4c0.3-0.7,0.7-1.3,1.2-1.7c0.5-0.4,1.2-0.7,2-0.8
			c0.8-0.1,1.5,0,2.1,0.4c0.6,0.3,1.1,0.8,1.5,1.4c0.4,0.6,0.6,1.4,0.7,2.3L2578.8,1270.3z M2577.9,1269.3c-0.1-1.2-0.5-2.1-1.1-2.7
			c-0.6-0.6-1.4-0.9-2.3-0.8c-0.9,0.1-1.6,0.5-2.1,1.2c-0.5,0.7-0.7,1.7-0.5,2.9l0.1,1c0.1,1.2,0.5,2.1,1.1,2.7
			c0.6,0.6,1.4,0.9,2.3,0.8c0.9-0.1,1.7-0.5,2.1-1.2c0.5-0.7,0.6-1.7,0.5-2.9L2577.9,1269.3z"/>
		<path class="st0" d="M2581.4,1274.5l-0.9-9.9l2.9-0.3c1.1-0.1,1.9,0,2.5,0.4s0.9,1,1,1.9c0,0.5,0,1-0.3,1.4s-0.6,0.7-1.1,0.9
			c0.6,0.1,1.1,0.3,1.5,0.7s0.6,0.9,0.7,1.5c0.1,0.9-0.1,1.6-0.7,2.1s-1.3,0.9-2.3,1L2581.4,1274.5z M2581.7,1268.9l2.3-0.2
			c0.7-0.1,1.2-0.3,1.6-0.6c0.4-0.4,0.5-0.8,0.4-1.4c-0.1-0.6-0.3-1.1-0.7-1.4c-0.4-0.3-1-0.4-1.8-0.3l-2.1,0.2L2581.7,1268.9z
			 M2581.8,1269.6l0.4,4l2.5-0.2c0.7-0.1,1.3-0.3,1.7-0.7c0.4-0.4,0.5-0.9,0.5-1.6c-0.1-0.6-0.3-1.1-0.7-1.4s-1-0.4-1.7-0.4
			L2581.8,1269.6z"/>
		<path class="st0" d="M2595,1270.4l-4.5,0.4l-0.8,2.9l-0.9,0.1l2.8-10.3l0.8-0.1l4.7,9.6l-0.9,0.1L2595,1270.4z M2590.7,1270.1
			l4-0.4l-2.5-5.2L2590.7,1270.1z"/>
		<path class="st0" d="M2603.9,1272.3l-0.4-4l-2.9,0.3l-1.8,4.2l-0.9,0.1l1.9-4.5c-0.7-0.2-1.2-0.4-1.6-0.9
			c-0.4-0.4-0.6-0.9-0.7-1.6c-0.1-0.9,0.1-1.7,0.7-2.3c0.5-0.6,1.4-0.9,2.4-1l3-0.3l0.9,9.9L2603.9,1272.3z M2598.6,1265.8
			c0.1,0.7,0.3,1.2,0.8,1.5c0.4,0.4,1,0.5,1.8,0.4l2.4-0.2l-0.4-4.5l-2.2,0.2c-0.8,0.1-1.4,0.3-1.8,0.8
			C2598.7,1264.5,2598.5,1265.1,2598.6,1265.8z"/>
		<path class="st0" d="M2615.6,1261.9l-5.1,0.5l0.9,9.2l-0.8,0.1l-0.9-9.9l6-0.6L2615.6,1261.9z"/>
		<path class="st0" d="M2623.8,1260.4l0.8-0.1l0.9,9.9l-0.8,0.1l-0.8-8.5l-4.8,9l-0.8,0.1l-0.9-9.9l0.8-0.1l0.8,8.5L2623.8,1260.4z"
			/>
		<path class="st0" d="M2633.2,1260.2l-5.1,0.5l0.9,9.2l-0.8,0.1l-0.9-9.9l6-0.6L2633.2,1260.2z"/>
		<path class="st0" d="M2641.4,1258.7l0.8-0.1l0.9,9.9l-0.8,0.1l-0.8-8.5l-4.8,9l-0.8,0.1l-0.9-9.9l0.8-0.1l0.8,8.5L2641.4,1258.7z"
			/>
		<path class="st0" d="M2650.7,1263.1l-4.6,0.4l0.4,4l5.3-0.5l0.1,0.7l-6.2,0.6l-0.9-9.9l6.1-0.6l0.1,0.7l-5.3,0.5l0.4,3.7l4.6-0.4
			L2650.7,1263.1z"/>
		<path class="st0" d="M2661,1266.9l-0.8,0.1l-0.5-4.8l-5.7,0.5l0.5,4.8l-0.8,0.1l-0.9-9.9l0.8-0.1l0.4,4.4l5.7-0.5l-0.4-4.5
			l0.8-0.1L2661,1266.9z"/>
		<path class="st0" d="M2668.7,1263.3l-4.5,0.4l-0.8,2.9l-0.9,0.1l2.8-10.3l0.8-0.1l4.7,9.5l-0.9,0.1L2668.7,1263.3z M2664.4,1263
			l4-0.4l-2.5-5.2L2664.4,1263z"/>
	</g>
	<g>
		<path class="st0" d="M2536,1318.8l0.8,0l0.5,9.2l5.6-0.3l-0.5-9.2l0.8,0l0.5,9.2l1-0.1l0.1,3.1l-0.8,0l-0.1-2.4l-7.4,0.4
			L2536,1318.8z"/>
		<path class="st0" d="M2552.5,1317.9l0.8,0l0.5,9.9l-0.8,0l-0.4-8.5l-5.2,8.8l-0.8,0l-0.5-9.9l0.8,0l0.4,8.5L2552.5,1317.9z"/>
		<path class="st0" d="M2560.3,1318.5l0.2,0c0.8,0,1.5,0.1,2.1,0.4c0.6,0.3,1.1,0.7,1.5,1.3c0.4,0.6,0.6,1.2,0.6,2
			c0,0.7-0.1,1.4-0.4,2c-0.3,0.6-0.8,1.1-1.4,1.5c-0.6,0.4-1.3,0.6-2,0.6l-0.3,0l0.1,1.5l-0.8,0l-0.1-1.5l-0.2,0
			c-0.8,0-1.5-0.1-2.1-0.4c-0.6-0.3-1.1-0.7-1.5-1.3c-0.4-0.6-0.6-1.3-0.6-2c0-0.7,0.1-1.4,0.4-2.1c0.3-0.6,0.8-1.1,1.4-1.5
			s1.3-0.6,2.1-0.6l0.2,0l-0.1-1.4l0.8,0L2560.3,1318.5z M2559.3,1319.3c-1,0.1-1.8,0.4-2.3,1c-0.6,0.6-0.8,1.4-0.8,2.4
			c0,1,0.4,1.7,0.9,2.3c0.6,0.6,1.3,0.8,2.3,0.8l0.4,0l-0.3-6.5L2559.3,1319.3z M2560.3,1319.2l0.3,6.5l0.2,0c1-0.1,1.8-0.4,2.3-1
			c0.6-0.6,0.8-1.4,0.8-2.4c0-0.9-0.4-1.7-0.9-2.2c-0.6-0.6-1.3-0.8-2.3-0.8L2560.3,1319.2z"/>
		<path class="st0" d="M2567.4,1323.1l0.2,4l-0.8,0l-0.5-9.9l3.4-0.2c1-0.1,1.9,0.2,2.5,0.7c0.6,0.5,1,1.2,1,2.1
			c0,0.9-0.2,1.7-0.8,2.2c-0.5,0.5-1.4,0.8-2.5,0.9L2567.4,1323.1z M2567.4,1322.4l2.5-0.1c0.8,0,1.4-0.3,1.8-0.7
			c0.4-0.4,0.6-1,0.6-1.7c0-0.7-0.3-1.2-0.7-1.6c-0.4-0.4-1.1-0.6-1.8-0.5l-2.6,0.1L2567.4,1322.4z"/>
		<path class="st0" d="M2582.5,1321.9c0,0.9-0.1,1.7-0.3,2.4c-0.3,0.7-0.7,1.3-1.3,1.7c-0.6,0.4-1.2,0.6-2,0.7
			c-1.2,0.1-2.1-0.3-2.9-1.1c-0.8-0.8-1.2-1.9-1.2-3.3l-0.1-1c0-0.9,0.1-1.7,0.4-2.4c0.3-0.7,0.7-1.3,1.3-1.7c0.6-0.4,1.2-0.6,2-0.7
			c0.8,0,1.4,0.1,2.1,0.4c0.6,0.3,1.1,0.8,1.4,1.5s0.6,1.4,0.6,2.3L2582.5,1321.9z M2581.6,1320.9c-0.1-1.2-0.4-2.1-1-2.8
			c-0.6-0.7-1.3-1-2.3-0.9c-0.9,0-1.6,0.4-2.2,1.1c-0.5,0.7-0.7,1.7-0.7,2.9l0.1,1c0.1,1.2,0.4,2.1,1,2.8c0.6,0.7,1.3,1,2.3,0.9
			c1,0,1.7-0.4,2.2-1.1c0.5-0.7,0.7-1.7,0.7-2.9L2581.6,1320.9z"/>
		<path class="st0" d="M2584.9,1326.2l-0.5-9.9l2.9-0.2c1.1-0.1,1.9,0.1,2.5,0.5c0.6,0.4,0.9,1,0.9,1.9c0,0.5-0.1,1-0.4,1.4
			c-0.3,0.4-0.6,0.7-1.1,0.9c0.6,0.1,1.1,0.4,1.4,0.8c0.4,0.4,0.6,0.9,0.6,1.5c0,0.9-0.2,1.6-0.7,2.1c-0.5,0.5-1.3,0.8-2.3,0.9
			L2584.9,1326.2z M2585.4,1320.7l2.3-0.1c0.7,0,1.2-0.2,1.6-0.6c0.4-0.3,0.5-0.8,0.5-1.4c0-0.6-0.3-1.1-0.7-1.4
			c-0.4-0.3-1-0.4-1.8-0.4l-2.1,0.1L2585.4,1320.7z M2585.5,1321.4l0.2,4.1l2.5-0.1c0.7,0,1.3-0.2,1.7-0.6c0.4-0.4,0.6-0.9,0.6-1.6
			c0-0.6-0.3-1.1-0.7-1.4c-0.4-0.3-1-0.5-1.7-0.4L2585.5,1321.4z"/>
		<path class="st0" d="M2598.7,1322.7l-4.5,0.2l-0.9,2.8l-0.9,0l3.2-10.1l0.8,0l4.3,9.7l-0.9,0L2598.7,1322.7z M2594.4,1322.2l4-0.2
			l-2.3-5.3L2594.4,1322.2z"/>
		<path class="st0" d="M2607.5,1325.1l-0.2-4.1l-2.9,0.1l-2,4.2l-0.9,0l2.1-4.4c-0.7-0.2-1.2-0.5-1.5-0.9c-0.4-0.4-0.6-1-0.6-1.6
			c0-0.9,0.2-1.7,0.8-2.2c0.6-0.6,1.4-0.9,2.5-0.9l3-0.2l0.5,9.9L2607.5,1325.1z M2602.4,1318.3c0,0.7,0.3,1.2,0.7,1.6
			c0.4,0.4,1,0.6,1.7,0.5l2.4-0.1l-0.2-4.5l-2.2,0.1c-0.8,0-1.4,0.3-1.8,0.7C2602.6,1317,2602.4,1317.6,2602.4,1318.3z"/>
		<path class="st0" d="M2621.5,1324.3l-0.8,0l-0.5-9.2l-5.6,0.3l0.5,9.2l-0.8,0l-0.5-9.9l7.3-0.4L2621.5,1324.3z"/>
		<path class="st0" d="M2630.8,1313.9l0.5,9.9l-0.8,0l-0.5-9.2l-4.2,0.2l0,4.1c0,1.5-0.1,2.6-0.3,3.2c-0.2,0.7-0.4,1.2-0.7,1.5
			c-0.3,0.3-0.8,0.5-1.4,0.5l-0.4,0l0-0.7l0.3,0c0.5,0,0.8-0.2,1-0.5c0.2-0.3,0.4-0.7,0.5-1.4c0.1-0.6,0.2-1.6,0.2-2.9l0-4.6
			L2630.8,1313.9z"/>
		<path class="st0" d="M2639.2,1320.6l-4.5,0.2l-0.9,2.8l-0.9,0l3.2-10.1l0.8,0l4.3,9.7l-0.9,0L2639.2,1320.6z M2634.9,1320.1l4-0.2
			l-2.3-5.3L2634.9,1320.1z"/>
		<path class="st0" d="M2648.1,1313.7l-3.4,0.2l0.5,9.2l-0.8,0l-0.5-9.2l-3.4,0.2l0-0.7l7.6-0.4L2648.1,1313.7z"/>
		<path class="st0" d="M2654.1,1313.7l0.2,0c0.8,0,1.5,0.1,2.1,0.4c0.6,0.3,1.1,0.7,1.5,1.3c0.4,0.6,0.6,1.2,0.6,2
			c0,0.7-0.1,1.4-0.4,2s-0.8,1.1-1.4,1.5s-1.3,0.6-2.1,0.6l-0.3,0l0.1,1.5l-0.8,0l-0.1-1.5l-0.2,0c-0.8,0-1.5-0.1-2.1-0.4
			c-0.6-0.3-1.1-0.7-1.5-1.3c-0.4-0.6-0.6-1.3-0.6-2c0-0.7,0.1-1.4,0.4-2.1c0.3-0.6,0.8-1.1,1.4-1.5c0.6-0.4,1.3-0.6,2.1-0.6l0.2,0
			l-0.1-1.4l0.8,0L2654.1,1313.7z M2653.1,1314.5c-1,0.1-1.8,0.4-2.3,1c-0.6,0.6-0.8,1.4-0.8,2.4c0,1,0.4,1.7,0.9,2.3
			c0.6,0.6,1.3,0.8,2.3,0.8l0.4,0l-0.3-6.5L2653.1,1314.5z M2654.1,1314.4l0.3,6.5l0.2,0c1-0.1,1.8-0.4,2.3-1
			c0.6-0.6,0.8-1.4,0.8-2.4c0-0.9-0.4-1.7-0.9-2.2c-0.6-0.6-1.3-0.8-2.3-0.8L2654.1,1314.4z"/>
		<path class="st0" d="M2667.7,1317.5c0,0.9-0.1,1.7-0.4,2.4c-0.3,0.7-0.7,1.3-1.3,1.7c-0.6,0.4-1.2,0.6-2,0.7
			c-1.2,0.1-2.1-0.3-2.9-1.1c-0.8-0.8-1.2-1.9-1.2-3.3l-0.1-1c0-0.9,0.1-1.7,0.4-2.4c0.3-0.7,0.7-1.3,1.3-1.7s1.2-0.6,2-0.7
			c0.8,0,1.5,0.1,2.1,0.4c0.6,0.3,1.1,0.8,1.4,1.5c0.4,0.7,0.6,1.4,0.6,2.3L2667.7,1317.5z M2666.8,1316.5c-0.1-1.2-0.4-2.1-1-2.8
			c-0.6-0.6-1.3-1-2.3-0.9c-0.9,0-1.6,0.4-2.2,1.1c-0.5,0.7-0.7,1.7-0.7,2.9l0.1,1c0.1,1.2,0.4,2.1,1,2.8c0.6,0.7,1.3,1,2.3,0.9
			c1,0,1.7-0.4,2.2-1.1c0.5-0.7,0.7-1.7,0.7-2.9L2666.8,1316.5z"/>
		<path class="st0" d="M2670.7,1317.7l0.2,4l-0.8,0l-0.5-9.9l3.4-0.2c1-0.1,1.9,0.2,2.5,0.7c0.6,0.5,1,1.2,1,2.1
			c0,0.9-0.2,1.7-0.8,2.2c-0.5,0.5-1.4,0.8-2.5,0.9L2670.7,1317.7z M2670.6,1317l2.5-0.1c0.8,0,1.4-0.3,1.8-0.7
			c0.4-0.4,0.6-1,0.6-1.7c0-0.7-0.3-1.2-0.7-1.6c-0.4-0.4-1.1-0.6-1.8-0.5l-2.6,0.1L2670.6,1317z"/>
		<path class="st0" d="M2679.3,1311.4l4.1,8.6l3.2-9l1.1-0.1l0.5,9.9l-0.8,0l-0.2-4.3l-0.2-4.4l-3.2,9l-0.6,0l-4.1-8.5l0.3,4.4
			l0.2,4.4l-0.8,0l-0.5-9.9L2679.3,1311.4z"/>
		<path class="st0" d="M2696.1,1317.7l-4.5,0.2l-0.9,2.8l-0.9,0l3.2-10.1l0.8,0l4.3,9.7l-0.9,0L2696.1,1317.7z M2691.8,1317.2l4-0.2
			l-2.3-5.3L2691.8,1317.2z"/>
	</g>
	<g>
		<path class="st0" d="M2548.6,1378.4l-0.8,0l0-4.8l-5.7,0l0,4.8l-0.8,0l-0.1-10l0.8,0l0,4.5l5.7,0l0-4.5l0.8,0L2548.6,1378.4z"/>
		<path class="st0" d="M2557.6,1369l-3.4,0l0.1,9.2l-0.8,0l-0.1-9.2l-3.4,0l0-0.7l7.7-0.1L2557.6,1369z"/>
		<path class="st0" d="M2565.8,1368.3l0.8,0l0.1,10l-0.8,0l-0.1-8.5l-5.6,8.6l-0.8,0l-0.1-10l0.8,0l0.1,8.5L2565.8,1368.3z"/>
	</g>
	<g>
		<path class="st0" d="M2540.1,1418.3l0.8,0l-0.3,9.2l5.6,0.2l0.3-9.2l0.8,0l-0.3,9.2l1,0l-0.2,3.1l-0.8,0l0.1-2.4l-7.5-0.3
			L2540.1,1418.3z"/>
		<path class="st0" d="M2556.7,1418.9l0.8,0l-0.4,9.9l-0.8,0l0.3-8.5l-6,8.3l-0.8,0l0.4-9.9l0.8,0l-0.3,8.5L2556.7,1418.9z"/>
		<path class="st0" d="M2564.4,1420.2l0.2,0c0.8,0,1.5,0.2,2.1,0.6c0.6,0.4,1.1,0.8,1.4,1.5c0.3,0.6,0.5,1.3,0.4,2
			c0,0.7-0.2,1.4-0.6,2c-0.4,0.6-0.9,1-1.5,1.4c-0.6,0.3-1.3,0.5-2.1,0.5l-0.3,0l-0.1,1.5l-0.8,0l0.1-1.5l-0.2,0
			c-0.8,0-1.5-0.2-2.1-0.6c-0.6-0.4-1.1-0.8-1.4-1.5c-0.3-0.6-0.5-1.3-0.4-2c0-0.7,0.2-1.4,0.6-2c0.4-0.6,0.9-1.1,1.5-1.4
			c0.6-0.3,1.3-0.5,2.1-0.4l0.2,0l0.1-1.4l0.8,0L2564.4,1420.2z M2563.4,1420.9c-1,0-1.8,0.2-2.4,0.8c-0.6,0.6-0.9,1.3-1,2.3
			c0,1,0.2,1.7,0.7,2.3c0.5,0.6,1.3,0.9,2.2,1l0.4,0l0.2-6.5L2563.4,1420.9z M2564.4,1420.9l-0.2,6.5l0.2,0c1,0,1.8-0.2,2.4-0.8
			s0.9-1.4,1-2.3c0-0.9-0.2-1.7-0.7-2.3c-0.5-0.6-1.3-1-2.2-1L2564.4,1420.9z"/>
		<path class="st0" d="M2571.1,1425.3l-0.1,4.1l-0.8,0l0.4-9.9l3.4,0.1c1,0,1.8,0.3,2.4,0.9c0.6,0.5,0.9,1.3,0.8,2.2
			c0,0.9-0.3,1.6-0.9,2.1c-0.6,0.5-1.4,0.7-2.5,0.7L2571.1,1425.3z M2571.1,1424.6l2.5,0.1c0.8,0,1.4-0.1,1.9-0.5
			c0.4-0.4,0.7-0.9,0.7-1.6c0-0.7-0.2-1.2-0.6-1.7c-0.4-0.4-1-0.7-1.8-0.7l-2.6-0.1L2571.1,1424.6z"/>
		<path class="st0" d="M2586.2,1425.5c0,0.9-0.2,1.7-0.6,2.4c-0.3,0.7-0.8,1.2-1.4,1.6c-0.6,0.4-1.3,0.5-2.1,0.5
			c-1.2,0-2.1-0.5-2.8-1.3c-0.7-0.9-1-2-1-3.4l0-1c0-0.9,0.2-1.7,0.6-2.4c0.3-0.7,0.8-1.2,1.4-1.6c0.6-0.4,1.3-0.5,2-0.5
			c0.8,0,1.4,0.2,2,0.6c0.6,0.4,1,0.9,1.3,1.6c0.3,0.7,0.4,1.5,0.4,2.4L2586.2,1425.5z M2585.4,1424.4c0-1.2-0.2-2.1-0.7-2.8
			c-0.5-0.7-1.2-1.1-2.2-1.1c-0.9,0-1.7,0.3-2.2,0.9c-0.6,0.7-0.9,1.6-0.9,2.8l0,1c0,1.2,0.2,2.1,0.7,2.8s1.3,1.1,2.2,1.1
			c1,0,1.7-0.3,2.3-0.9c0.6-0.7,0.9-1.6,0.9-2.8L2585.4,1424.4z"/>
		<path class="st0" d="M2588.2,1430l0.4-9.9l2.9,0.1c1.1,0,1.9,0.3,2.4,0.7c0.5,0.5,0.8,1.1,0.8,2c0,0.5-0.2,1-0.5,1.3
			s-0.7,0.6-1.2,0.8c0.6,0.1,1,0.5,1.4,0.9c0.3,0.5,0.5,1,0.5,1.5c0,0.9-0.3,1.6-0.9,2c-0.6,0.5-1.4,0.7-2.4,0.7L2588.2,1430z
			 M2589.2,1425.3l-0.1,4.1l2.5,0.1c0.7,0,1.3-0.1,1.7-0.5c0.4-0.4,0.7-0.9,0.7-1.5c0-0.6-0.2-1.1-0.6-1.5c-0.4-0.4-0.9-0.6-1.7-0.6
			L2589.2,1425.3z M2589.2,1424.5l2.3,0.1c0.7,0,1.2-0.1,1.6-0.4c0.4-0.3,0.6-0.8,0.6-1.4c0-0.6-0.2-1.1-0.5-1.4
			c-0.4-0.3-1-0.5-1.8-0.5l-2.1-0.1L2589.2,1424.5z"/>
		<path class="st0" d="M2602.2,1427.7l-4.5-0.2l-1.1,2.8l-0.9,0l4.1-9.8l0.8,0l3.4,10.1l-0.9,0L2602.2,1427.7z M2598,1426.8l4,0.1
			l-1.8-5.5L2598,1426.8z"/>
		<path class="st0" d="M2610.8,1430.8l0.1-4.1l-2.9-0.1l-2.3,4l-0.9,0l2.5-4.2c-0.6-0.2-1.1-0.6-1.4-1.1c-0.3-0.5-0.5-1-0.4-1.7
			c0-0.9,0.4-1.7,1-2.2c0.6-0.5,1.5-0.7,2.5-0.7l3,0.1l-0.4,9.9L2610.8,1430.8z M2606.4,1423.7c0,0.7,0.2,1.2,0.6,1.6
			c0.4,0.4,1,0.6,1.7,0.7l2.4,0.1l0.2-4.5l-2.2-0.1c-0.8,0-1.4,0.1-1.9,0.5C2606.6,1422.4,2606.4,1423,2606.4,1423.7z"/>
		<path class="st0" d="M2618.1,1428c0.1,0.9,0.3,1.5,0.8,1.9c0.4,0.4,1.1,0.7,1.9,0.7c0.9,0,1.6-0.3,2.2-1c0.5-0.7,0.8-1.6,0.9-2.8
			l0-0.2l-4.2-0.1l0-0.7l4.2,0.1l0-0.2c0-1.2-0.2-2.1-0.7-2.8c-0.5-0.7-1.2-1.1-2.1-1.1c-1.6-0.1-2.6,0.8-2.9,2.4l-0.8,0
			c0.1-1,0.5-1.8,1.2-2.4c0.6-0.5,1.5-0.8,2.5-0.8c1.1,0,2,0.5,2.7,1.3c0.7,0.8,1,2,0.9,3.4l0,1.2c0,0.9-0.2,1.7-0.6,2.3
			c-0.3,0.7-0.8,1.2-1.4,1.5c-0.6,0.3-1.2,0.5-2,0.5c-1.1,0-1.9-0.3-2.5-0.9s-1-1.4-1-2.4L2618.1,1428z"/>
		<path class="st0" d="M2629.1,1426.8l-1.4,0l-0.2,4.7l-0.8,0l0.4-9.9l0.8,0l-0.2,4.6l1.3,0l4-4.4l1.1,0l-4.3,4.7l4.2,5.2l-1,0
			L2629.1,1426.8z"/>
		<path class="st0" d="M2642.9,1427.5c0,0.9-0.2,1.7-0.6,2.4c-0.3,0.7-0.8,1.2-1.4,1.6c-0.6,0.4-1.3,0.5-2.1,0.5
			c-1.2,0-2.1-0.5-2.8-1.3c-0.7-0.9-1-2-1-3.4l0-1c0-0.9,0.2-1.7,0.6-2.4c0.3-0.7,0.8-1.2,1.4-1.6c0.6-0.4,1.3-0.5,2-0.5
			c0.8,0,1.4,0.2,2,0.6c0.6,0.4,1,0.9,1.3,1.6c0.3,0.7,0.4,1.5,0.4,2.4L2642.9,1427.5z M2642.1,1426.4c0-1.2-0.2-2.1-0.7-2.8
			c-0.5-0.7-1.2-1.1-2.2-1.1c-0.9,0-1.7,0.3-2.2,0.9c-0.6,0.7-0.9,1.6-0.9,2.8l0,1c0,1.2,0.2,2.1,0.7,2.8c0.5,0.7,1.3,1.1,2.2,1.1
			c1,0,1.7-0.3,2.3-0.9c0.6-0.7,0.9-1.6,0.9-2.8L2642.1,1426.4z"/>
		<path class="st0" d="M2652.3,1432.3l-0.8,0l0.2-4.8l-5.7-0.2l-0.2,4.8l-0.8,0l0.4-9.9l0.8,0l-0.2,4.5l5.7,0.2l0.2-4.5l0.8,0
			L2652.3,1432.3z"/>
		<path class="st0" d="M2662.3,1428.2c0,0.9-0.2,1.7-0.6,2.4c-0.3,0.7-0.8,1.2-1.4,1.6c-0.6,0.4-1.3,0.5-2.1,0.5
			c-1.2,0-2.1-0.5-2.8-1.3c-0.7-0.9-1-2-1-3.4l0-1c0-0.9,0.2-1.7,0.6-2.4c0.3-0.7,0.8-1.2,1.4-1.6c0.6-0.4,1.3-0.5,2-0.5
			c0.8,0,1.4,0.2,2,0.6c0.6,0.4,1,0.9,1.3,1.6c0.3,0.7,0.4,1.5,0.4,2.4L2662.3,1428.2z M2661.5,1427.1c0-1.2-0.2-2.1-0.7-2.8
			c-0.5-0.7-1.2-1.1-2.2-1.1c-0.9,0-1.7,0.3-2.2,0.9c-0.6,0.7-0.9,1.6-0.9,2.8l0,1c0,1.2,0.2,2.1,0.7,2.8c0.5,0.7,1.3,1.1,2.2,1.1
			c1,0,1.7-0.3,2.3-0.9c0.6-0.7,0.9-1.6,0.9-2.8L2661.5,1427.1z"/>
		<path class="st0" d="M2665.8,1422.8l3.4,8.9l4-8.6l1.1,0l-0.4,9.9l-0.8,0l0.2-4.3l0.2-4.4l-4,8.6l-0.6,0l-3.4-8.9l-0.1,4.4
			l-0.2,4.4l-0.8,0l0.4-9.9L2665.8,1422.8z"/>
		<path class="st0" d="M2683.3,1423.4l0.8,0l-0.4,9.9l-0.8,0l0.3-8.5l-6,8.3l-0.8,0l0.4-9.9l0.8,0l-0.3,8.5L2683.3,1423.4z"/>
		<path class="st0" d="M2688.8,1428.9l-1.4,0l-0.2,4.7l-0.8,0l0.4-9.9l0.8,0l-0.2,4.6l1.3,0l4-4.4l1.1,0l-4.3,4.7l4.2,5.2l-1,0
			L2688.8,1428.9z"/>
		<path class="st0" d="M2700.7,1431.2l-4.5-0.2l-1.1,2.8l-0.9,0l4.1-9.8l0.8,0l3.4,10.1l-0.9,0L2700.7,1431.2z M2696.5,1430.4l4,0.1
			l-1.8-5.5L2696.5,1430.4z"/>
	</g>
	<g>
		<path class="st0" d="M2536.5,1473.9l-0.3,4l-0.8-0.1l0.8-9.9l3.4,0.3c1,0.1,1.8,0.4,2.4,1c0.6,0.6,0.8,1.3,0.7,2.2
			c-0.1,0.9-0.4,1.6-1,2.1c-0.6,0.5-1.5,0.6-2.6,0.6L2536.5,1473.9z M2536.5,1473.2l2.5,0.2c0.8,0.1,1.4-0.1,1.9-0.4
			c0.5-0.4,0.7-0.9,0.8-1.6c0.1-0.7-0.1-1.3-0.5-1.7c-0.4-0.4-1-0.7-1.8-0.8l-2.6-0.2L2536.5,1473.2z"/>
		<path class="st0" d="M2549.7,1474.3l-4.6-0.4l-0.3,4l5.3,0.4l-0.1,0.7l-6.2-0.5l0.8-9.9l6.1,0.5l-0.1,0.7l-5.3-0.4l-0.3,3.7
			l4.6,0.4L2549.7,1474.3z"/>
		<path class="st0" d="M2559.1,1476.7c-0.2,1-0.6,1.8-1.3,2.3s-1.5,0.7-2.6,0.6c-0.7-0.1-1.4-0.3-1.9-0.7c-0.5-0.4-0.9-1-1.2-1.7
			c-0.3-0.7-0.4-1.5-0.3-2.4l0.1-1.3c0.1-0.9,0.3-1.7,0.7-2.3c0.4-0.7,0.8-1.1,1.5-1.5c0.6-0.3,1.3-0.5,2-0.4
			c1.1,0.1,1.9,0.4,2.5,1.1c0.6,0.6,0.9,1.4,0.9,2.5l-0.8-0.1c-0.1-1.7-0.9-2.6-2.5-2.7c-0.9-0.1-1.6,0.2-2.2,0.8
			c-0.6,0.6-0.9,1.5-1,2.7l-0.1,1.2c-0.1,1.1,0.1,2.1,0.6,2.8c0.5,0.7,1.1,1.1,2,1.2c0.9,0.1,1.6-0.1,2-0.5s0.8-1,1-1.8
			L2559.1,1476.7z"/>
		<path class="st0" d="M2564.5,1476.7l3.3-6.1l1,0.1l-4.5,8l-0.3,0.5c-0.6,0.8-1.3,1.2-2.2,1.1c-0.3,0-0.5-0.1-0.6-0.1l0.1-0.7
			c0.1,0,0.3,0.1,0.6,0.1c0.6,0,1-0.2,1.4-0.8l0.2-0.3l0.5-0.9l-3.2-7.6l1,0.1L2564.5,1476.7z"/>
		<path class="st0" d="M2570.8,1476.7l-0.3,4l-0.8-0.1l0.8-9.9l3.4,0.3c1,0.1,1.8,0.4,2.4,1c0.6,0.6,0.8,1.3,0.7,2.2
			c-0.1,0.9-0.4,1.6-1,2.1c-0.6,0.5-1.5,0.6-2.6,0.6L2570.8,1476.7z M2570.9,1476l2.5,0.2c0.8,0.1,1.4-0.1,1.9-0.4
			c0.5-0.4,0.7-0.9,0.8-1.6c0.1-0.7-0.1-1.3-0.5-1.7c-0.4-0.4-1-0.7-1.8-0.8l-2.6-0.2L2570.9,1476z"/>
		<path class="st0" d="M2585.5,1478.8c-0.2,1-0.6,1.8-1.3,2.3c-0.7,0.5-1.5,0.7-2.6,0.6c-0.7-0.1-1.4-0.3-1.9-0.7
			c-0.5-0.4-0.9-1-1.2-1.7c-0.3-0.7-0.4-1.5-0.3-2.4l0.1-1.3c0.1-0.9,0.3-1.7,0.7-2.3c0.4-0.7,0.8-1.1,1.5-1.5
			c0.6-0.3,1.3-0.5,2-0.4c1.1,0.1,1.9,0.4,2.4,1.1c0.6,0.6,0.9,1.4,0.9,2.5l-0.8-0.1c-0.1-1.7-0.9-2.6-2.5-2.7
			c-0.9-0.1-1.6,0.2-2.2,0.8c-0.6,0.6-0.9,1.5-1,2.7l-0.1,1.2c-0.1,1.1,0.1,2.1,0.6,2.8c0.5,0.7,1.1,1.1,2,1.2
			c0.9,0.1,1.6-0.1,2-0.5c0.5-0.4,0.8-1,1-1.8L2585.5,1478.8z"/>
		<path class="st0" d="M2594.7,1482.6l-0.8-0.1l0.4-4.8l-5.7-0.5l-0.4,4.8l-0.8-0.1l0.8-9.9l0.8,0.1l-0.4,4.5l5.7,0.5l0.4-4.5
			l0.8,0.1L2594.7,1482.6z"/>
		<path class="st0" d="M2598.5,1477.3l2.5,0.2c0.7,0.1,1.3,0.2,1.7,0.5s0.8,0.6,1.1,1.1c0.2,0.4,0.3,0.9,0.3,1.5
			c-0.1,0.9-0.4,1.5-1,2c-0.6,0.5-1.5,0.6-2.5,0.6l-3.3-0.3l0.8-9.9l0.8,0.1L2598.5,1477.3z M2598.4,1478l-0.3,4.2l2.5,0.2
			c0.8,0.1,1.4-0.1,1.8-0.4c0.5-0.3,0.7-0.8,0.8-1.5c0-0.6-0.1-1.1-0.5-1.5c-0.4-0.4-1-0.6-1.7-0.7L2598.4,1478z M2606.3,1483.6
			l-0.8-0.1l0.8-9.9l0.8,0.1L2606.3,1483.6z"/>
		<path class="st0" d="M2614.7,1479.4l-4.6-0.4l-0.3,4l5.3,0.4l-0.1,0.7l-6.2-0.5l0.8-9.9l6.1,0.5l-0.1,0.7l-5.3-0.4l-0.3,3.7
			l4.6,0.4L2614.7,1479.4z"/>
		<path class="st0" d="M2627.5,1482.1c-0.2,1-0.6,1.8-1.3,2.3c-0.7,0.5-1.5,0.7-2.6,0.6c-0.7-0.1-1.4-0.3-1.9-0.7
			c-0.5-0.4-0.9-1-1.2-1.7c-0.3-0.7-0.4-1.5-0.3-2.4l0.1-1.3c0.1-0.9,0.3-1.7,0.6-2.3c0.4-0.7,0.8-1.1,1.5-1.5
			c0.6-0.3,1.3-0.5,2-0.4c1.1,0.1,1.9,0.4,2.5,1.1c0.6,0.6,0.9,1.4,0.9,2.5l-0.8-0.1c-0.1-1.7-0.9-2.6-2.5-2.7
			c-0.9-0.1-1.6,0.2-2.2,0.8c-0.6,0.6-0.9,1.5-1,2.7l-0.1,1.2c-0.1,1.1,0.1,2.1,0.6,2.8c0.5,0.7,1.1,1.1,2,1.2
			c0.9,0.1,1.6-0.1,2-0.5c0.5-0.4,0.8-1,1-1.8L2627.5,1482.1z"/>
		<path class="st0" d="M2636.9,1481.5c-0.1,0.9-0.3,1.7-0.7,2.4c-0.4,0.7-0.9,1.2-1.5,1.5c-0.6,0.3-1.3,0.5-2.1,0.4
			c-1.2-0.1-2.1-0.6-2.7-1.5c-0.6-0.9-0.9-2-0.8-3.4l0.1-1c0.1-0.9,0.3-1.7,0.7-2.4c0.4-0.7,0.9-1.2,1.5-1.5
			c0.6-0.3,1.3-0.5,2.1-0.4c0.8,0.1,1.4,0.3,2,0.7c0.6,0.4,1,1,1.2,1.7c0.3,0.7,0.4,1.5,0.3,2.4L2636.9,1481.5z M2636.2,1480.4
			c0.1-1.2-0.1-2.2-0.6-2.9c-0.5-0.7-1.2-1.1-2.1-1.2c-0.9-0.1-1.7,0.2-2.3,0.8s-1,1.6-1,2.8l-0.1,1c-0.1,1.2,0.1,2.1,0.6,2.9
			c0.5,0.7,1.2,1.1,2.1,1.2c0.9,0.1,1.7-0.2,2.3-0.8c0.6-0.6,0.9-1.6,1-2.8L2636.2,1480.4z"/>
		<path class="st0" d="M2646,1483.6c-0.2,1-0.6,1.8-1.3,2.3s-1.5,0.7-2.6,0.6c-0.7-0.1-1.4-0.3-1.9-0.7c-0.5-0.4-0.9-1-1.2-1.7
			c-0.3-0.7-0.4-1.5-0.3-2.4l0.1-1.3c0.1-0.9,0.3-1.7,0.6-2.3c0.4-0.7,0.8-1.1,1.5-1.5c0.6-0.3,1.3-0.5,2-0.4
			c1.1,0.1,1.9,0.4,2.5,1.1s0.9,1.4,0.9,2.5l-0.8-0.1c-0.1-1.7-0.9-2.6-2.5-2.7c-0.9-0.1-1.6,0.2-2.2,0.8c-0.6,0.6-0.9,1.5-1,2.7
			l-0.1,1.2c-0.1,1.1,0.1,2.1,0.6,2.8c0.5,0.7,1.1,1.1,2,1.2c0.9,0.1,1.6-0.1,2-0.5c0.5-0.4,0.8-1,1-1.8L2646,1483.6z"/>
		<path class="st0" d="M2655,1478.2l-3.4-0.3l-0.7,9.2l-0.8-0.1l0.7-9.2l-3.4-0.3l0.1-0.7l7.6,0.6L2655,1478.2z"/>
		<path class="st0" d="M2663.4,1483.7c-0.1,0.9-0.3,1.7-0.7,2.4c-0.4,0.7-0.9,1.2-1.5,1.5c-0.6,0.3-1.3,0.5-2.1,0.4
			c-1.2-0.1-2.1-0.6-2.7-1.5c-0.6-0.9-0.9-2-0.8-3.4l0.1-1c0.1-0.9,0.3-1.7,0.7-2.4c0.4-0.7,0.9-1.2,1.5-1.5
			c0.6-0.3,1.3-0.5,2.1-0.4c0.8,0.1,1.4,0.3,2,0.7c0.6,0.4,1,1,1.2,1.7c0.3,0.7,0.4,1.5,0.3,2.4L2663.4,1483.7z M2662.6,1482.5
			c0.1-1.2-0.1-2.2-0.6-2.9s-1.2-1.1-2.1-1.2c-0.9-0.1-1.7,0.2-2.3,0.8c-0.6,0.6-1,1.6-1,2.8l-0.1,1c-0.1,1.2,0.1,2.1,0.6,2.9
			c0.5,0.7,1.2,1.1,2.1,1.2c0.9,0.1,1.7-0.2,2.3-0.8c0.6-0.6,0.9-1.6,1-2.8L2662.6,1482.5z"/>
		<path class="st0" d="M2670.5,1488.7l0.3-4l-2.9-0.2l-2.5,3.9l-0.9-0.1l2.7-4.1c-0.6-0.3-1.1-0.6-1.4-1.1c-0.3-0.5-0.4-1-0.4-1.7
			c0.1-0.9,0.4-1.6,1.1-2.1c0.6-0.5,1.5-0.7,2.6-0.6l3,0.2l-0.8,9.9L2670.5,1488.7z M2666.3,1481.4c-0.1,0.7,0.1,1.2,0.5,1.6
			c0.4,0.4,0.9,0.7,1.7,0.7l2.4,0.2l0.4-4.5l-2.2-0.2c-0.8-0.1-1.4,0.1-1.9,0.4C2666.6,1480.1,2666.4,1480.6,2666.3,1481.4z"/>
		<path class="st0" d="M2681.1,1489.5l-0.8-0.1l0.4-4.8l-5.7-0.5l-0.4,4.8l-0.8-0.1l0.8-9.9l0.8,0.1l-0.4,4.5l5.7,0.5l0.4-4.5
			l0.8,0.1L2681.1,1489.5z"/>
		<path class="st0" d="M2690.9,1480.3l0.8,0.1l-0.8,9.9l-0.8-0.1l0.7-8.5l-6.3,8l-0.8-0.1l0.8-9.9l0.8,0.1l-0.7,8.5L2690.9,1480.3z"
			/>
		<path class="st0" d="M2698.8,1490.9l0.3-4l-2.9-0.2l-2.5,3.9l-0.9-0.1l2.7-4.1c-0.6-0.3-1.1-0.6-1.4-1.1s-0.4-1-0.4-1.7
			c0.1-0.9,0.4-1.6,1.1-2.1c0.6-0.5,1.5-0.7,2.6-0.6l3,0.2l-0.8,9.9L2698.8,1490.9z M2694.6,1483.6c-0.1,0.7,0.1,1.2,0.5,1.6
			c0.4,0.4,0.9,0.7,1.7,0.7l2.4,0.2l0.4-4.5l-2.2-0.2c-0.8-0.1-1.4,0.1-1.9,0.4C2694.9,1482.3,2694.7,1482.9,2694.6,1483.6z"/>
	</g>
	<g>
		<path class="st0" d="M2536.7,1528.2l-0.8-0.1l1.1-9.2l-5.6-0.7l-1.1,9.2l-0.8-0.1l1.2-9.9l7.3,0.9L2536.7,1528.2z"/>
		<path class="st0" d="M2540.6,1524.6l-0.5,4l-0.8-0.1l1.2-9.9l3.4,0.4c1,0.1,1.8,0.5,2.3,1.1c0.5,0.6,0.7,1.4,0.6,2.3
			c-0.1,0.9-0.5,1.6-1.1,2c-0.6,0.4-1.5,0.6-2.6,0.5L2540.6,1524.6z M2540.7,1523.9l2.5,0.3c0.8,0.1,1.5,0,1.9-0.3
			c0.5-0.3,0.8-0.8,0.8-1.5c0.1-0.7-0.1-1.3-0.4-1.7c-0.4-0.5-0.9-0.7-1.7-0.8l-2.6-0.3L2540.7,1523.9z"/>
		<path class="st0" d="M2552.5,1527.4l-4.5-0.6l-1.4,2.6l-0.9-0.1l5-9.4l0.8,0.1l2.5,10.3l-0.9-0.1L2552.5,1527.4z M2548.4,1526.1
			l4,0.5l-1.3-5.6L2548.4,1526.1z"/>
		<path class="st0" d="M2558.3,1526.2l-1.4-0.2l-0.6,4.6l-0.8-0.1l1.2-9.9l0.8,0.1l-0.6,4.5l1.3,0.2l4.4-4.1l1.1,0.1l-4.7,4.4
			l3.7,5.6l-1-0.1L2558.3,1526.2z"/>
		<path class="st0" d="M2572.2,1523.3l-3.4-0.4l-1.1,9.2l-0.8-0.1l1.1-9.2l-3.4-0.4l0.1-0.7l7.6,0.9L2572.2,1523.3z"/>
		<path class="st0" d="M2580.4,1523.6l0.8,0.1l-1.2,9.9l-0.8-0.1l1-8.5l-6.7,7.8l-0.8-0.1l1.2-9.9l0.8,0.1l-1,8.4L2580.4,1523.6z"/>
		<path class="st0" d="M2585.4,1529.5l-1.4-0.2l-0.6,4.6l-0.8-0.1l1.2-9.9l0.8,0.1l-0.6,4.5l1.3,0.2l4.4-4.1l1.1,0.1l-4.7,4.4
			l3.7,5.6l-1-0.1L2585.4,1529.5z"/>
		<path class="st0" d="M2599.2,1525.9l0.8,0.1l-1.2,9.9l-0.8-0.1l1-8.5l-6.7,7.8l-0.8-0.1l1.2-9.9l0.8,0.1l-1,8.4L2599.2,1525.9z"/>
		<path class="st0" d="M2607,1526.9l2.6,9.2l4.7-8.3l1.1,0.1l-1.2,9.9l-0.8-0.1l0.5-4.3l0.6-4.4l-4.8,8.3l-0.6-0.1l-2.6-9.1
			l-0.5,4.4l-0.5,4.3l-0.8-0.1l1.2-9.9L2607,1526.9z"/>
		<path class="st0" d="M2618.3,1532.7l2.4,0.3c0.7,0.1,1.2,0.3,1.7,0.6c0.5,0.3,0.8,0.7,1,1.1c0.2,0.5,0.3,1,0.2,1.5
			c-0.1,0.9-0.5,1.5-1.1,1.9c-0.6,0.4-1.5,0.6-2.5,0.5l-3.3-0.4l1.2-9.9l0.8,0.1L2618.3,1532.7z M2618.2,1533.4l-0.5,4.2l2.4,0.3
			c0.8,0.1,1.4,0,1.9-0.3s0.8-0.8,0.8-1.5c0.1-0.6-0.1-1.1-0.4-1.6c-0.4-0.4-0.9-0.7-1.7-0.8L2618.2,1533.4z M2625.8,1539.3
			l-0.8-0.1l1.2-9.9l0.8,0.1L2625.8,1539.3z"/>
		<path class="st0" d="M2630.4,1529.8l-1.1,9.2l3.9,0.5l1.1-9.2l0.8,0.1l-1.1,9.2l3.9,0.5l1.1-9.2l0.8,0.1l-1.2,9.9l-10.4-1.3
			l1.2-9.9L2630.4,1529.8z"/>
		<path class="st0" d="M2649.8,1532.2l-1.2,9.9l-0.8-0.1l1.1-9.2l-4.2-0.5l-0.7,4.1c-0.3,1.5-0.5,2.5-0.8,3.1
			c-0.3,0.6-0.6,1.1-1,1.3c-0.4,0.3-0.9,0.3-1.5,0.3l-0.4,0l0.1-0.7l0.3,0c0.5,0,0.8-0.1,1.1-0.3c0.3-0.2,0.5-0.7,0.7-1.3
			c0.2-0.6,0.4-1.5,0.7-2.8l0.8-4.6L2649.8,1532.2z"/>
		<path class="st0" d="M2657.1,1538.3l-4.6-0.6l-0.5,4l5.3,0.7l-0.1,0.7l-6.1-0.8l1.2-9.9l6.1,0.8l-0.1,0.7l-5.3-0.7l-0.5,3.7
			l4.6,0.6L2657.1,1538.3z"/>
		<path class="st0" d="M2666.3,1544.3l-0.8-0.1l0.6-4.7l-5.6-0.7l-0.6,4.7l-0.8-0.1l1.2-9.9l0.8,0.1l-0.5,4.4l5.6,0.7l0.5-4.4
			l0.8,0.1L2666.3,1544.3z"/>
		<path class="st0" d="M2676.5,1535.5l0.8,0.1l-1.2,9.9l-0.8-0.1l1-8.5l-6.7,7.8l-0.8-0.1l1.2-9.9l0.8,0.1l-1,8.4L2676.5,1535.5z"/>
		<path class="st0" d="M2683.9,1546.4l0.5-4l-2.8-0.4l-2.7,3.8l-0.9-0.1l2.9-4c-0.6-0.3-1.1-0.7-1.3-1.2s-0.4-1.1-0.3-1.7
			c0.1-0.9,0.5-1.6,1.2-2.1c0.7-0.5,1.5-0.6,2.6-0.5l3,0.4l-1.2,9.9L2683.9,1546.4z M2680.1,1539c-0.1,0.7,0.1,1.2,0.4,1.7
			c0.4,0.4,0.9,0.7,1.6,0.8l2.4,0.3l0.5-4.4l-2.2-0.3c-0.8-0.1-1.5,0-1.9,0.4C2680.5,1537.7,2680.2,1538.2,2680.1,1539z"/>
	</g>
	<g>
		<path class="st0" d="M2526.5,1572.5l-1.3-0.2l-0.8,4.6l-0.8-0.1l1.7-9.8l0.8,0.1l-0.8,4.5l1.3,0.2l4.6-3.9l1,0.2l-4.8,4.1l3.5,5.7
			l-1-0.2L2526.5,1572.5z"/>
		<path class="st0" d="M2538.1,1576.4l-4.5-0.8l-1.5,2.6l-0.9-0.1l5.4-9.2l0.8,0.1l2.1,10.4l-0.9-0.1L2538.1,1576.4z M2534,1575
			l3.9,0.7l-1.1-5.7L2534,1575z"/>
		<path class="st0" d="M2542.5,1575.9l-0.7,4l-0.8-0.1l1.7-9.8l3.3,0.6c1,0.2,1.8,0.6,2.3,1.2c0.5,0.6,0.7,1.4,0.5,2.3
			c-0.2,0.9-0.6,1.6-1.2,2c-0.7,0.4-1.5,0.5-2.6,0.3L2542.5,1575.9z M2542.6,1575.2l2.5,0.4c0.8,0.1,1.5,0,1.9-0.3
			c0.5-0.3,0.8-0.8,0.9-1.5c0.1-0.7,0-1.3-0.4-1.7c-0.4-0.5-0.9-0.8-1.7-0.9l-2.6-0.4L2542.6,1575.2z"/>
		<path class="st0" d="M2557.7,1573.2l-3.4-0.6l-1.5,9.1l-0.8-0.1l1.5-9.1l-3.4-0.6l0.1-0.7l7.5,1.3L2557.7,1573.2z"/>
		<path class="st0" d="M2565.8,1573.8l0.8,0.1l-1.7,9.8l-0.8-0.1l1.4-8.4l-7,7.5l-0.8-0.1l1.7-9.8l0.8,0.1l-1.4,8.4L2565.8,1573.8z"
			/>
		<path class="st0" d="M2574.8,1585.4l-0.8-0.1l0.8-4.7l-5.6-0.9l-0.8,4.7l-0.8-0.1l1.7-9.8l0.8,0.1l-0.7,4.4l5.6,0.9l0.7-4.4
			l0.8,0.1L2574.8,1585.4z"/>
		<path class="st0" d="M2579.1,1580.4l2.4,0.4c0.7,0.1,1.2,0.3,1.7,0.6c0.5,0.3,0.8,0.7,1,1.1c0.2,0.5,0.2,1,0.1,1.5
			c-0.1,0.9-0.5,1.5-1.2,1.9c-0.7,0.4-1.5,0.5-2.5,0.3l-3.2-0.5l1.7-9.8l0.8,0.1L2579.1,1580.4z M2579,1581.1l-0.7,4.2l2.4,0.4
			c0.8,0.1,1.4,0,1.9-0.3c0.5-0.3,0.8-0.8,0.9-1.4c0.1-0.6,0-1.1-0.4-1.6c-0.4-0.4-0.9-0.7-1.6-0.9L2579,1581.1z M2586.3,1587.3
			l-0.8-0.1l1.7-9.8l0.8,0.1L2586.3,1587.3z"/>
		<path class="st0" d="M2599.6,1580.2l-5.1-0.9l-0.6,3.6l2.4,0.4c0.7,0.1,1.2,0.3,1.7,0.6c0.5,0.3,0.8,0.7,1,1.1
			c0.2,0.5,0.2,1,0.1,1.5c-0.1,0.9-0.5,1.5-1.2,1.9c-0.7,0.4-1.5,0.5-2.5,0.3l-3.2-0.5l1.7-9.8l5.9,1L2599.6,1580.2z M2593.8,1583.6
			l-0.7,4.2l2.4,0.4c0.8,0.1,1.4,0,1.9-0.3c0.5-0.3,0.8-0.8,0.9-1.4c0.1-0.6,0-1.2-0.4-1.6c-0.4-0.4-0.9-0.7-1.6-0.9L2593.8,1583.6z
			"/>
		<path class="st0" d="M2604.6,1586.8l3.8-5.8l1,0.2l-5.2,7.6l-0.3,0.4c-0.6,0.8-1.4,1.1-2.3,0.9c-0.3,0-0.5-0.1-0.6-0.2l0.2-0.7
			c0.1,0,0.3,0.1,0.6,0.1c0.6,0.1,1.1-0.1,1.5-0.6l0.2-0.3l0.6-0.8l-2.5-7.8l1,0.2L2604.6,1586.8z"/>
		<path class="st0" d="M2616.2,1591.7l1,0.2l-0.5,3.1l-0.8-0.1l0.4-2.4l-7.4-1.2l-0.4,2.4l-0.8-0.1l0.5-3.1l0.7,0.1
			c0.6-0.4,1.1-1.1,1.6-2.1c0.5-0.9,0.8-2,1.1-3.2l0.8-3.5l5.4,0.9L2616.2,1591.7z M2609.8,1590.6l5.6,0.9l1.4-8.4l-3.8-0.6
			l-0.6,2.8c-0.3,1.2-0.6,2.2-1.1,3.1S2610.4,1590.1,2609.8,1590.6z"/>
		<path class="st0" d="M2622.7,1589.8l3.8-5.8l1,0.2l-5.2,7.6l-0.3,0.4c-0.6,0.8-1.4,1.1-2.3,0.9c-0.3,0-0.5-0.1-0.6-0.2l0.2-0.7
			c0.1,0,0.3,0.1,0.6,0.1c0.6,0.1,1.1-0.1,1.5-0.6l0.2-0.3l0.6-0.8l-2.5-7.8l1,0.2L2622.7,1589.8z"/>
		<path class="st0" d="M2630,1584.6l-1.5,9.1l3.9,0.7l1.5-9.1l0.8,0.1l-1.5,9.1l3.9,0.7l1.5-9.1l0.8,0.1l-1.5,9.1l0.9,0.2l-0.6,3
			l-0.7-0.1l0.4-2.4l-10.5-1.8l1.7-9.8L2630,1584.6z"/>
		<path class="st0" d="M2646.7,1592.7l-4.6-0.8l-0.7,4l5.3,0.9l-0.1,0.7l-6.1-1l1.7-9.8l6.1,1l-0.1,0.7l-5.2-0.9l-0.6,3.7l4.6,0.8
			L2646.7,1592.7z"/>
		<path class="st0" d="M2655.9,1589.7l-5.1-0.9l-1.5,9.1l-0.8-0.1l1.7-9.8l5.9,1L2655.9,1589.7z"/>
		<path class="st0" d="M2663.6,1595.8c-0.2,0.9-0.4,1.7-0.9,2.3c-0.4,0.6-1,1.1-1.6,1.4c-0.6,0.3-1.3,0.3-2.1,0.2
			c-1.1-0.2-2-0.8-2.6-1.7c-0.6-0.9-0.7-2.1-0.5-3.5l0.2-1c0.2-0.9,0.4-1.7,0.9-2.3c0.4-0.6,1-1.1,1.6-1.4c0.6-0.3,1.3-0.3,2.1-0.2
			s1.4,0.4,1.9,0.9c0.5,0.5,0.9,1,1.1,1.8c0.2,0.7,0.2,1.5,0.1,2.4L2663.6,1595.8z M2662.9,1594.6c0.2-1.2,0.1-2.2-0.3-2.9
			c-0.4-0.8-1.1-1.2-2-1.4c-0.9-0.2-1.7,0.1-2.3,0.6c-0.7,0.6-1.1,1.5-1.3,2.7l-0.2,1c-0.2,1.2-0.1,2.1,0.3,2.9
			c0.4,0.8,1.1,1.2,2,1.4c0.9,0.2,1.7-0.1,2.4-0.6c0.6-0.6,1.1-1.5,1.3-2.7L2662.9,1594.6z"/>
	</g>
	<g>
		<path class="st0" d="M2521.6,1622.5l-1.3-0.3l-1,4.6l-0.8-0.2l2.1-9.7l0.8,0.2l-1,4.5l1.3,0.3l4.7-3.7l1,0.2l-5,3.9l3.2,5.9
			l-1-0.2L2521.6,1622.5z"/>
		<path class="st0" d="M2535.1,1625.6c-0.2,0.9-0.5,1.6-1,2.3c-0.5,0.6-1,1-1.7,1.3c-0.7,0.2-1.4,0.3-2.1,0.1
			c-1.1-0.2-2-0.8-2.5-1.8c-0.5-1-0.6-2.1-0.3-3.5l0.2-1c0.2-0.9,0.5-1.6,1-2.3c0.5-0.6,1-1,1.7-1.3c0.7-0.2,1.4-0.3,2.1-0.1
			c0.7,0.2,1.4,0.5,1.9,1c0.5,0.5,0.8,1.1,1,1.8c0.2,0.7,0.2,1.5,0,2.4L2535.1,1625.6z M2534.5,1624.4c0.3-1.2,0.2-2.1-0.2-2.9
			c-0.4-0.8-1-1.3-2-1.5c-0.9-0.2-1.7,0-2.4,0.5s-1.1,1.4-1.4,2.6l-0.2,1c-0.2,1.2-0.2,2.1,0.2,2.9c0.4,0.8,1,1.3,2,1.5
			c0.9,0.2,1.7,0,2.4-0.5s1.1-1.4,1.4-2.6L2534.5,1624.4z"/>
		<path class="st0" d="M2539.4,1620.9l1.8,9.4l5.4-7.8l1.1,0.2l-2.1,9.7l-0.8-0.2l0.9-4.2l1-4.3l-5.5,7.8l-0.6-0.1l-1.8-9.3
			l-0.8,4.3l-0.9,4.3l-0.8-0.2l2.1-9.7L2539.4,1620.9z"/>
		<path class="st0" d="M2554.1,1631.4l-4.4-0.9l-1.6,2.5l-0.9-0.2l5.8-8.9l0.8,0.2l1.6,10.5l-0.9-0.2L2554.1,1631.4z M2550.1,1629.8
			l3.9,0.8l-0.8-5.7L2550.1,1629.8z"/>
		<path class="st0" d="M2564,1636.3l-0.8-0.2l1-4.7l-5.6-1.2l-1,4.7l-0.8-0.2l2.1-9.7l0.8,0.2l-0.9,4.4l5.6,1.2l0.9-4.4l0.8,0.2
			L2564,1636.3z"/>
		<path class="st0" d="M2574,1637.7l1,0.2l-0.7,3.1l-0.8-0.2l0.5-2.4l-7.3-1.6l-0.5,2.4l-0.8-0.2l0.7-3.1l0.6,0.1
			c0.6-0.4,1.2-1.1,1.7-2c0.5-0.9,0.9-2,1.2-3.1l0.9-3.5l5.4,1.2L2574,1637.7z M2567.6,1636.4l5.5,1.2l1.8-8.3l-3.8-0.8l-0.7,2.8
			c-0.3,1.1-0.7,2.2-1.2,3.1C2568.8,1635.2,2568.2,1635.9,2567.6,1636.4z"/>
		<path class="st0" d="M2582.5,1637.4l-4.4-0.9l-1.6,2.5l-0.9-0.2l5.8-8.9l0.8,0.2l1.6,10.5l-0.9-0.2L2582.5,1637.4z M2578.5,1635.8
			l3.9,0.8l-0.8-5.7L2578.5,1635.8z"/>
	</g>
	<path class="st1" d="M2522,1401.5l0-3l-10,0c0-16.5-0.3-33-1.1-49.5l7.2-0.4l-0.2-3l-7.2,0.4c-0.7-15.9-1.8-31.7-3.2-47.4l7.1-0.7
		l-0.3-3l-7.1,0.7c-1.3-14.5-3-29-4.9-43.4l7-1l-0.4-3l-7,1c-2.1-15.7-4.6-31.4-7.4-47l6.9-1.3l-0.6-2.9l-6.9,1.3
		c-2.6-14.3-5.5-28.6-8.7-42.8l6.8-1.6l-0.7-2.9l-6.8,1.6c-3.5-15.4-7.3-30.8-11.5-46.2l6.7-1.9l-0.8-2.9l-6.7,1.9
		c-3.8-14-8-28-12.4-41.9l8.3-2.7l-0.9-2.8l-8.2,2.7c-0.3-1.1-0.7-2.2-1-3.3c-4.5-14-9.4-27.9-14.4-41.7l8.1-3.1l-1.1-2.8l-8.1,3.1
		c-5.1-13.6-10.4-27.2-16-40.6l-1.1-2.8c-6.1-14.6-12.6-29.1-19.4-43.4l-1.3-2.7c-10.2-21.5-21-42.6-32.5-63.3
		c-34.6-62.2-75.3-121.5-121.1-176.1c-45.8-54.6-97.1-105-152.4-149.9c-55.8-45.3-116.2-85.2-179.5-118.8
		c-131.7-69.8-274.5-111.9-424.3-125c-112.5-9.8-242,9.4-374.7,55.6c-132.3,46.1-264,117.7-380.7,207c-60.5,46.3-116.6,97.1-167,151
		c-52.5,56.2-98.8,116-137.8,177.8C350.3,1015.1,301,1156.8,288.3,1302c-13.1,149.8,3.5,297.7,49.4,439.6
		c22.1,68.2,50.9,134.6,85.8,197.4c34.6,62.2,75.3,121.5,121.1,176.1s97.1,105,152.4,149.9c55.8,45.3,116.2,85.2,179.5,118.8
		c131.7,69.8,274.5,111.9,424.3,125c33.1,2.9,66.1,4.3,98.9,4.3c115.9,0,230.1-18,340.7-53.8c68.2-22.1,134.6-50.9,197.4-85.8
		c62.2-34.6,121.5-75.3,176.1-121.1c54.6-45.8,105-97.1,149.9-152.4c45.3-55.8,85.2-116.2,118.8-179.5
		c32.5-61.3,58.9-124.9,79.3-190.5l0.9-2.9c4.3-13.9,8.2-27.8,11.9-41.9l0.8-2.9c3.9-15.1,7.6-30.2,10.9-45.5l0.6-2.9
		c3-14.2,5.8-28.5,8.3-42.9l7.3,1.3l0.5-3l-7.3-1.3c2.7-15.6,5-31.3,7-47l7.4,0.9l0.4-3l-7.4-0.9c1.7-13.9,3.2-27.9,4.4-42
		c0.2-1.8,0.3-3.6,0.4-5.3l9.8,0.8l0.2-3l-9.8-0.8c1.2-14.6,2.1-29.2,2.7-43.7l10.4,0.4l0.1-3l-10.4-0.4c0.5-13.2,0.8-26.4,0.8-39.6
		L2522,1401.5z M2509,1401.6c-0.1,13.1-0.3,26.3-0.8,39.5l-11-0.4c0,1-0.1,2-0.1,3l11,0.4c-0.6,14.5-1.5,29-2.7,43.6l-11-0.9
		c-0.1,1-0.2,2-0.2,3l11,0.9c-0.1,1.8-0.3,3.5-0.4,5.3c-1.2,14-2.7,28-4.4,41.8l-10.9-1.4c-0.1,1-0.3,2-0.4,3l10.9,1.4
		c-2,15.7-4.3,31.3-7,46.9l-10.8-1.9c-0.2,1-0.3,2-0.5,3l10.8,1.9c-2.5,14.3-5.2,28.6-8.3,42.7l-0.6,2.9
		c-3.3,15.2-6.9,30.3-10.8,45.4l-0.7,2.9c-3.7,14-7.7,27.9-11.9,41.7l-0.9,2.9c-62.3,201.9-181.3,382-347.1,521
		c-201.9,169.4-451.7,260-712.2,260c-32.8,0-65.7-1.4-98.7-4.3c-295.6-25.9-563.5-165.3-754.2-392.6
		c-190.7-227.3-281.5-515.3-255.7-810.9c24.4-278.7,184.3-544.3,450.2-747.9c217.2-166.3,477.7-264.5,694.8-264.5
		c19.9,0,39.4,0.8,58.5,2.5c295.6,25.9,563.5,165.3,754.2,392.6c61.9,73.8,113.3,153.9,153.6,238.7l1.3,2.7
		c6.8,14.3,13.2,28.8,19.3,43.3l1.2,2.8c5.6,13.4,10.9,26.9,16,40.5l-10.4,4c0.3,0.9,0.7,1.9,1,2.8l10.4-4
		c5.5,14.8,10.6,29.8,15.4,44.9l-10.6,3.5c0.3,1,0.6,1.9,0.9,2.9l10.6-3.5c4.4,13.8,8.5,27.8,12.3,41.8l-10.7,3
		c0.3,1,0.5,1.9,0.8,2.9l10.7-3c4.1,15.3,7.9,30.6,11.4,46l-10.9,2.5c0.2,1,0.4,2,0.7,2.9l10.9-2.5c3.1,14.2,6,28.4,8.6,42.7
		l-10.9,2.1c0.2,1,0.4,2,0.5,3l10.9-2.1c2.8,15.5,5.2,31.2,7.3,46.9l-11,1.6c0.1,1,0.3,2,0.4,3l11-1.6c1.9,14.4,3.5,28.8,4.8,43.3
		l-11,1.1c0.1,1,0.2,2,0.3,3l11-1.1c1.4,15.7,2.5,31.5,3.2,47.3l-11.1,0.6c0,1,0.1,2,0.1,3l11-0.6c0.7,16.4,1.1,32.8,1,49.3l-11,0
		c0,1,0,2,0,3L2509,1401.6z"/>
	<g>
		<path class="st0" d="M2494.6,1081c0.2,1,0,1.9-0.4,2.6c-0.5,0.7-1.2,1.2-2.2,1.5c-0.7,0.2-1.4,0.2-2,0c-0.6-0.2-1.2-0.6-1.7-1.2
			c-0.5-0.6-0.8-1.3-1.1-2.1l-0.3-1.2c-0.2-0.9-0.3-1.6-0.2-2.4c0.1-0.7,0.4-1.4,0.9-1.9c0.5-0.5,1.1-0.9,1.8-1.1
			c1-0.3,1.9-0.2,2.7,0.2c0.7,0.4,1.3,1.1,1.7,2l-0.8,0.2c-0.7-1.6-1.8-2.1-3.3-1.7c-0.9,0.2-1.5,0.8-1.8,1.6
			c-0.3,0.8-0.3,1.8,0,2.9l0.3,1.2c0.3,1.1,0.8,1.9,1.5,2.4c0.7,0.5,1.5,0.7,2.3,0.4c0.8-0.2,1.4-0.6,1.8-1.1s0.4-1.2,0.3-2
			L2494.6,1081z"/>
		<path class="st0" d="M2498.3,1078.4l-1.3,0.4l1.2,4.5l-0.8,0.2l-2.7-9.6l0.8-0.2l1.2,4.4l1.3-0.4l2.5-5.4l1-0.3l-2.6,5.8l5.6,3.7
			l-1,0.3L2498.3,1078.4z"/>
		<path class="st0" d="M2506,1081.1l-2.7-9.6l2.8-0.8c1-0.3,1.9-0.3,2.5,0c0.6,0.3,1.1,0.8,1.3,1.7c0.1,0.5,0.1,1,0,1.4
			c-0.2,0.4-0.5,0.8-0.9,1.1c0.6,0,1.1,0.1,1.6,0.4c0.5,0.3,0.8,0.8,0.9,1.3c0.2,0.8,0.1,1.6-0.3,2.2c-0.4,0.6-1.1,1.1-2.1,1.3
			L2506,1081.1z M2505.4,1075.6l2.2-0.6c0.7-0.2,1.2-0.5,1.4-0.9c0.3-0.4,0.3-0.9,0.2-1.5c-0.2-0.6-0.5-1-1-1.2
			c-0.5-0.2-1.1-0.2-1.9,0l-2,0.6L2505.4,1075.6z M2505.6,1076.3l1.1,3.9l2.4-0.7c0.7-0.2,1.2-0.5,1.5-1c0.3-0.5,0.4-1,0.2-1.6
			c-0.2-0.6-0.5-1-1-1.2c-0.5-0.2-1.1-0.3-1.8-0.1L2505.6,1076.3z"/>
		<path class="st0" d="M2520.2,1072.6c0.2,0.9,0.3,1.7,0.2,2.5s-0.4,1.4-0.9,1.9c-0.5,0.5-1.1,0.9-1.8,1.1c-1.1,0.3-2.1,0.2-3-0.5
			c-0.9-0.6-1.6-1.6-1.9-3l-0.3-1c-0.2-0.9-0.3-1.7-0.2-2.5c0.1-0.8,0.4-1.4,0.9-1.9c0.5-0.5,1.1-0.9,1.8-1.1s1.4-0.2,2.1,0
			c0.7,0.2,1.2,0.6,1.7,1.1c0.5,0.6,0.9,1.3,1.1,2.1L2520.2,1072.6z M2519.1,1071.8c-0.3-1.2-0.8-2-1.5-2.5
			c-0.7-0.5-1.5-0.6-2.4-0.4c-0.9,0.2-1.5,0.8-1.9,1.6c-0.3,0.8-0.4,1.8,0,3l0.3,1c0.3,1.1,0.8,2,1.5,2.5c0.7,0.5,1.5,0.7,2.4,0.4
			c0.9-0.3,1.5-0.8,1.9-1.6c0.3-0.8,0.3-1.8,0-3L2519.1,1071.8z"/>
		<path class="st0" d="M2526.7,1067.7c-0.2-0.6-0.5-1-1-1.2s-1.2-0.2-2,0c-0.7,0.2-1.2,0.5-1.6,1c-0.3,0.5-0.4,1-0.3,1.6l-0.8,0.2
			c-0.1-0.5-0.1-1,0-1.5c0.2-0.5,0.5-0.9,0.9-1.3c0.4-0.4,0.9-0.6,1.5-0.8c1-0.3,1.9-0.3,2.6,0c0.7,0.3,1.2,0.9,1.4,1.7
			c0.1,0.5,0.1,1-0.1,1.4c-0.2,0.5-0.5,0.9-1,1.2c1.3,0,2.2,0.6,2.5,1.8c0.2,0.8,0.1,1.6-0.4,2.2c-0.5,0.7-1.3,1.1-2.3,1.4
			c-0.6,0.2-1.3,0.2-1.9,0.1c-0.6-0.1-1.1-0.3-1.5-0.7c-0.4-0.3-0.6-0.8-0.8-1.3l0.8-0.2c0.2,0.6,0.5,1.1,1.1,1.3
			c0.6,0.3,1.2,0.3,2,0.1c0.8-0.2,1.4-0.6,1.8-1.1c0.4-0.5,0.5-1.1,0.3-1.7c-0.2-0.7-0.5-1.1-1-1.3s-1.2-0.2-2.1,0l-1.2,0.3
			l-0.2-0.7l1.2-0.3c0.8-0.2,1.4-0.6,1.7-1C2526.8,1068.9,2526.9,1068.4,2526.7,1067.7z"/>
		<path class="st0" d="M2538.6,1072.1l-0.8,0.2l-1.3-4.6l-5.5,1.5l1.3,4.6l-0.8,0.2l-2.7-9.6l0.8-0.2l1.2,4.3l5.5-1.5l-1.2-4.3
			l0.8-0.2L2538.6,1072.1z"/>
		<path class="st0" d="M2540.3,1065.8l2.4-0.7c0.7-0.2,1.3-0.2,1.8-0.1c0.5,0.1,1,0.3,1.4,0.6c0.4,0.3,0.6,0.8,0.8,1.3
			c0.2,0.8,0.1,1.6-0.3,2.2c-0.4,0.6-1.1,1.1-2.2,1.4l-3.2,0.9l-2.7-9.6l0.8-0.2L2540.3,1065.8z M2540.5,1066.5l1.1,4.1l2.4-0.7
			c0.7-0.2,1.3-0.5,1.6-1c0.3-0.5,0.4-1,0.2-1.7c-0.2-0.6-0.5-1-1-1.3c-0.5-0.2-1.1-0.3-1.9-0.1L2540.5,1066.5z M2549.8,1069
			l-0.8,0.2l-2.7-9.6l0.8-0.2L2549.8,1069z"/>
		<path class="st0" d="M2556.3,1062.3l-4.5,1.2l1.1,3.9l5.2-1.4l0.2,0.7l-6,1.7l-2.7-9.6l5.9-1.6l0.2,0.7l-5.1,1.4l1,3.6l4.5-1.2
			L2556.3,1062.3z"/>
		<path class="st0" d="M2567,1054.7l-3.3,0.9l2.5,8.9l-0.8,0.2l-2.5-8.9l-3.3,0.9l-0.2-0.7l7.4-2L2567,1054.7z"/>
		<path class="st0" d="M2575.1,1057.1l-4.5,1.2l1.1,3.9l5.2-1.4l0.2,0.7l-6,1.6l-2.7-9.6l5.9-1.6l0.2,0.7l-5.1,1.4l1,3.6l4.5-1.2
			L2575.1,1057.1z"/>
		<path class="st0" d="M2580.1,1054.7l1.6-4.8l1-0.3l-1.9,5.6l4.6,4l-1,0.3l-4-3.4l-1.6,5l-1,0.3l1.9-5.8l-4.5-3.9l1-0.3
			L2580.1,1054.7z"/>
		<path class="st0" d="M2594.1,1056.8l-0.8,0.2l-1.3-4.6l-5.5,1.5l1.3,4.6l-0.8,0.2l-2.7-9.6l0.8-0.2l1.2,4.3l5.5-1.5l-1.2-4.3
			l0.8-0.2L2594.1,1056.8z"/>
		<path class="st0" d="M2602.4,1049.9c0.2,0.9,0.3,1.7,0.2,2.5s-0.4,1.4-0.9,1.9c-0.5,0.5-1.1,0.9-1.8,1.1c-1.1,0.3-2.1,0.2-3-0.5
			c-0.9-0.6-1.6-1.6-1.9-3l-0.3-1c-0.2-0.9-0.3-1.7-0.2-2.5c0.1-0.8,0.4-1.4,0.9-1.9c0.5-0.5,1.1-0.9,1.8-1.1s1.4-0.2,2.1,0
			c0.7,0.2,1.2,0.6,1.7,1.1c0.5,0.6,0.9,1.3,1.1,2.1L2602.4,1049.9z M2601.3,1049c-0.3-1.2-0.8-2-1.5-2.5c-0.7-0.5-1.5-0.6-2.4-0.4
			c-0.9,0.2-1.5,0.8-1.9,1.6s-0.4,1.8,0,3l0.3,1c0.3,1.1,0.8,2,1.5,2.5c0.7,0.5,1.5,0.7,2.4,0.4c0.9-0.3,1.5-0.8,1.9-1.6
			c0.3-0.8,0.3-1.8,0-3L2601.3,1049z"/>
		<path class="st0" d="M2609.8,1042.1l2.7,9.6l-0.8,0.2l-2.5-8.9l-4.1,1.1l0.9,4c0.3,1.4,0.5,2.5,0.5,3.2c0,0.7-0.1,1.2-0.4,1.6
			c-0.3,0.4-0.7,0.7-1.2,0.8l-0.3,0.1l-0.2-0.7l0.3-0.1c0.4-0.1,0.7-0.4,0.9-0.7c0.2-0.3,0.2-0.8,0.2-1.4c0-0.6-0.2-1.6-0.5-2.8
			l-1-4.5L2609.8,1042.1z"/>
		<path class="st0" d="M2620.8,1044.8c0.2,0.9,0.3,1.7,0.2,2.5c-0.1,0.8-0.4,1.4-0.9,1.9c-0.5,0.5-1.1,0.9-1.8,1.1
			c-1.1,0.3-2.1,0.2-3-0.5c-0.9-0.6-1.6-1.6-1.9-3l-0.3-1c-0.2-0.9-0.3-1.7-0.2-2.5c0.1-0.8,0.4-1.4,0.9-1.9
			c0.5-0.5,1.1-0.9,1.8-1.1s1.4-0.2,2.1,0c0.7,0.2,1.2,0.6,1.7,1.1c0.5,0.6,0.9,1.3,1.1,2.1L2620.8,1044.8z M2619.7,1043.9
			c-0.3-1.2-0.8-2-1.5-2.5c-0.7-0.5-1.5-0.6-2.4-0.4c-0.9,0.2-1.5,0.8-1.9,1.6c-0.3,0.8-0.4,1.8,0,3l0.3,1c0.3,1.1,0.8,2,1.5,2.5
			c0.7,0.5,1.5,0.7,2.4,0.4c0.9-0.3,1.5-0.8,1.9-1.6c0.3-0.8,0.3-1.8,0-3L2619.7,1043.9z"/>
		<path class="st0" d="M2627.4,1038l-5,1.4l2.5,8.9l-0.8,0.2l-2.7-9.6l5.8-1.6L2627.4,1038z"/>
		<path class="st0" d="M2635.2,1035.1l0.8-0.2l2.7,9.6l-0.8,0.2l-2.3-8.2l-3.2,9.7l-0.8,0.2l-2.7-9.6l0.8-0.2l2.3,8.2L2635.2,1035.1
			z"/>
		<path class="st0" d="M2644.8,1032.4l0.8-0.2l2.7,9.6l-0.8,0.2l-2.3-8.2l-3.2,9.7l-0.8,0.2l-2.7-9.6l0.8-0.2l2.3,8.2L2644.8,1032.4
			z"/>
	</g>
	<g>
		<path class="st0" d="M2475.2,1028.7l-4.9,1.6l1.1,3.4l2.3-0.8c0.6-0.2,1.2-0.3,1.8-0.2c0.5,0.1,1,0.3,1.4,0.6
			c0.4,0.3,0.7,0.8,0.8,1.3c0.3,0.8,0.2,1.6-0.2,2.2c-0.4,0.7-1.1,1.2-2.1,1.5l-3.1,1l-3.1-9.5l5.7-1.8L2475.2,1028.7z
			 M2471.6,1034.4l1.3,4l2.3-0.8c0.7-0.2,1.2-0.6,1.5-1.1c0.3-0.5,0.3-1.1,0.1-1.7c-0.2-0.6-0.5-1-1.1-1.2c-0.5-0.2-1.1-0.2-1.9,0
			L2471.6,1034.4z"/>
		<path class="st0" d="M2486.3,1030.1c0.3,0.9,0.4,1.7,0.3,2.4c-0.1,0.8-0.4,1.4-0.8,1.9c-0.4,0.5-1,0.9-1.8,1.2
			c-1.1,0.4-2.1,0.3-3.1-0.3c-0.9-0.6-1.6-1.5-2.1-2.9l-0.3-1c-0.3-0.9-0.4-1.7-0.3-2.4c0.1-0.8,0.4-1.4,0.8-2
			c0.4-0.5,1-0.9,1.8-1.2c0.7-0.2,1.4-0.3,2.1-0.1s1.3,0.5,1.8,1.1c0.5,0.5,0.9,1.2,1.2,2.1L2486.3,1030.1z M2485.2,1029.3
			c-0.4-1.1-0.9-2-1.6-2.4c-0.7-0.5-1.5-0.6-2.4-0.3c-0.9,0.3-1.5,0.8-1.8,1.7c-0.3,0.8-0.3,1.8,0.1,3l0.3,1
			c0.4,1.1,0.9,1.9,1.6,2.4c0.7,0.5,1.5,0.6,2.4,0.3c0.9-0.3,1.5-0.8,1.8-1.7c0.3-0.8,0.3-1.8-0.1-3L2485.2,1029.3z"/>
		<path class="st0" d="M2493.4,1022l3.1,9.5l-0.8,0.3l-2.8-8.8l-4,1.3l1,4c0.4,1.4,0.6,2.5,0.6,3.2c0,0.7-0.1,1.2-0.3,1.6
			c-0.2,0.4-0.6,0.7-1.2,0.9l-0.3,0.1l-0.2-0.7l0.3-0.1c0.4-0.2,0.7-0.4,0.9-0.8c0.1-0.3,0.2-0.8,0.1-1.4s-0.3-1.6-0.6-2.8l-1.2-4.5
			L2493.4,1022z"/>
		<path class="st0" d="M2497.9,1025.1l2.3-0.8c0.6-0.2,1.2-0.3,1.8-0.2c0.5,0.1,1,0.3,1.4,0.6c0.4,0.3,0.7,0.8,0.8,1.3
			c0.3,0.8,0.2,1.6-0.2,2.2c-0.4,0.7-1.1,1.1-2.1,1.5l-3.1,1l-3.1-9.5l0.8-0.3L2497.9,1025.1z M2498.1,1025.8l1.3,4l2.3-0.8
			c0.7-0.2,1.2-0.6,1.5-1.1c0.3-0.5,0.3-1.1,0.1-1.7c-0.2-0.6-0.5-1-1.1-1.2c-0.5-0.2-1.1-0.2-1.9,0L2498.1,1025.8z"/>
		<path class="st0" d="M2504.7,1018.3l2.8,8.8l3.8-1.2l-2.8-8.8l0.8-0.3l2.8,8.8l3.8-1.2l-2.8-8.8l0.8-0.3l3.1,9.5l-10,3.2l-3.1-9.5
			L2504.7,1018.3z"/>
		<path class="st0" d="M2522.5,1012.6l0.8-0.3l3.1,9.5l-0.8,0.3l-2.6-8.1l-2.8,9.8l-0.8,0.3l-3.1-9.5l0.8-0.3l2.6,8.1L2522.5,1012.6
			z"/>
		<path class="st0" d="M2532.6,1014.8l-4.4,1.4l1.3,3.9l5.1-1.7l0.2,0.7l-5.9,1.9l-3.1-9.5l5.9-1.9l0.2,0.7l-5.1,1.6l1.2,3.6
			l4.4-1.4L2532.6,1014.8z"/>
		<path class="st0" d="M2546.4,1014.6l1-0.3l1,3l-0.8,0.3l-0.7-2.3l-7.1,2.3l0.7,2.3l-0.8,0.3l-1-3l0.6-0.2c0.3-0.7,0.5-1.5,0.5-2.6
			c0-1.1-0.2-2.2-0.5-3.3l-0.9-3.5l5.2-1.7L2546.4,1014.6z M2540.2,1016.6l5.4-1.7l-2.6-8.1l-3.7,1.2l0.8,2.8
			c0.3,1.1,0.5,2.2,0.5,3.3C2540.6,1015,2540.5,1015.8,2540.2,1016.6z"/>
		<path class="st0" d="M2553.6,1010l-4.3,1.4l-0.1,3l-0.8,0.3l0.5-10.6l0.8-0.2l6.7,8.3l-0.8,0.3L2553.6,1010z M2549.4,1010.7
			l3.8-1.2l-3.6-4.5L2549.4,1010.7z"/>
		<path class="st0" d="M2564.7,1009.4l-0.8,0.3l-1.5-4.5l-5.4,1.8l1.5,4.5l-0.8,0.3l-3.1-9.5l0.8-0.3l1.4,4.3l5.4-1.8l-1.4-4.3
			l0.8-0.3L2564.7,1009.4z"/>
		<path class="st0" d="M2574.2,1006.3l-0.8,0.3l-1.5-4.5l-5.4,1.8l1.5,4.5l-0.8,0.3l-3.1-9.5l0.8-0.3l1.4,4.3l5.4-1.8l-1.4-4.3
			l0.8-0.3L2574.2,1006.3z"/>
		<path class="st0" d="M2575.6,999.9l2.3-0.8c0.6-0.2,1.2-0.3,1.8-0.2c0.5,0.1,1,0.3,1.4,0.6c0.4,0.3,0.7,0.8,0.8,1.3
			c0.3,0.8,0.2,1.6-0.2,2.2c-0.4,0.7-1.1,1.2-2.1,1.5l-3.1,1l-3.1-9.5l0.8-0.3L2575.6,999.9z M2575.9,1000.6l1.3,4l2.3-0.8
			c0.7-0.2,1.2-0.6,1.5-1.1c0.3-0.5,0.3-1.1,0.1-1.7c-0.2-0.6-0.5-1-1.1-1.2c-0.5-0.2-1.1-0.2-1.9,0L2575.9,1000.6z M2585.2,1002.7
			l-0.8,0.3l-3.1-9.5l0.8-0.3L2585.2,1002.7z"/>
		<path class="st0" d="M2591.4,995.7l-4.4,1.4l1.2,3.9l5.1-1.7l0.2,0.7l-5.9,1.9l-3.1-9.5l5.9-1.9l0.2,0.7l-5.1,1.6l1.2,3.6l4.4-1.4
			L2591.4,995.7z"/>
	</g>
	<g>
		<path class="st0" d="M2451.5,983.9l0.8-0.3l3.2,8.7l5.3-2l-3.2-8.7l0.8-0.3l3.2,8.6l0.9-0.3l1,2.9l-0.7,0.3l-0.8-2.2l-7,2.6
			L2451.5,983.9z"/>
		<path class="st0" d="M2467,978.1l0.8-0.3l3.5,9.3l-0.8,0.3l-3-8l-2.3,10l-0.8,0.3l-3.5-9.3l0.8-0.3l3,8L2467,978.1z"/>
		<path class="st0" d="M2474.7,976.3l0.2-0.1c0.7-0.3,1.4-0.3,2.1-0.2c0.7,0.1,1.3,0.4,1.9,0.8c0.5,0.4,0.9,1,1.2,1.7
			c0.3,0.7,0.3,1.4,0.2,2.1c-0.1,0.7-0.4,1.3-0.9,1.8c-0.5,0.5-1,0.9-1.8,1.2l-0.2,0.1l0.5,1.4l-0.8,0.3l-0.5-1.4l-0.2,0.1
			c-0.7,0.3-1.5,0.4-2.2,0.3c-0.7-0.1-1.3-0.4-1.9-0.8c-0.5-0.4-0.9-1-1.2-1.7c-0.3-0.7-0.3-1.4-0.2-2.1c0.1-0.7,0.4-1.3,0.9-1.8
			c0.5-0.5,1.1-0.9,1.8-1.2l0.2-0.1l-0.5-1.3l0.8-0.3L2474.7,976.3z M2474,977.3c-0.9,0.3-1.6,0.9-1.9,1.7c-0.3,0.8-0.4,1.6,0,2.5
			c0.3,0.9,0.9,1.5,1.6,1.9c0.7,0.4,1.5,0.4,2.4,0.1l0.4-0.1l-2.3-6.1L2474,977.3z M2474.9,977l2.3,6.1l0.2-0.1
			c0.9-0.3,1.6-0.9,1.9-1.7c0.3-0.8,0.3-1.6,0-2.5c-0.3-0.9-0.9-1.5-1.6-1.9c-0.7-0.4-1.5-0.4-2.4-0.1L2474.9,977z"/>
		<path class="st0" d="M2482.8,978.5l1.4,3.8l-0.8,0.3l-3.5-9.3l3.2-1.2c1-0.4,1.8-0.4,2.6-0.1s1.3,0.9,1.6,1.7
			c0.3,0.9,0.3,1.7-0.1,2.3c-0.4,0.7-1.1,1.2-2.1,1.6L2482.8,978.5z M2482.6,977.8l2.4-0.9c0.8-0.3,1.3-0.7,1.5-1.2
			c0.3-0.5,0.3-1.1,0-1.7c-0.2-0.6-0.6-1.1-1.2-1.3s-1.2-0.2-1.9,0l-2.4,0.9L2482.6,977.8z"/>
		<path class="st0" d="M2496.9,972.8c0.3,0.9,0.5,1.7,0.4,2.4c-0.1,0.8-0.3,1.4-0.7,2c-0.4,0.6-1,1-1.7,1.2
			c-1.1,0.4-2.1,0.3-3.1-0.2c-1-0.5-1.7-1.5-2.2-2.8l-0.4-1c-0.3-0.8-0.4-1.7-0.4-2.4c0.1-0.8,0.3-1.4,0.7-2c0.4-0.6,1-1,1.7-1.2
			c0.7-0.3,1.4-0.3,2.1-0.2s1.3,0.5,1.8,1c0.5,0.5,1,1.2,1.3,2L2496.9,972.8z M2495.7,972.1c-0.4-1.1-1-1.9-1.7-2.4
			c-0.7-0.4-1.6-0.5-2.4-0.2c-0.9,0.3-1.4,0.9-1.7,1.7s-0.2,1.8,0.2,3l0.4,1c0.4,1.1,1,1.9,1.7,2.3c0.8,0.5,1.6,0.5,2.4,0.2
			c0.9-0.3,1.5-0.9,1.7-1.7c0.3-0.8,0.2-1.8-0.2-2.9L2495.7,972.1z"/>
		<path class="st0" d="M2500.4,976.3l-3.5-9.3l2.8-1c1-0.4,1.8-0.4,2.5-0.2c0.7,0.2,1.2,0.7,1.5,1.5c0.2,0.5,0.2,1,0.1,1.4
			c-0.1,0.5-0.4,0.8-0.8,1.2c0.6-0.1,1.1,0,1.6,0.3c0.5,0.3,0.8,0.7,1,1.2c0.3,0.8,0.3,1.6-0.1,2.2c-0.4,0.7-1,1.2-2,1.5
			L2500.4,976.3z M2499.3,970.8l2.2-0.8c0.7-0.3,1.1-0.6,1.4-1s0.3-0.9,0.1-1.5c-0.2-0.6-0.6-1-1.1-1.1c-0.5-0.1-1.1-0.1-1.9,0.2
			l-2,0.7L2499.3,970.8z M2499.5,971.5l1.4,3.8l2.4-0.9c0.7-0.3,1.1-0.6,1.4-1.1c0.3-0.5,0.3-1,0.1-1.7c-0.2-0.6-0.6-1-1.1-1.2
			c-0.5-0.2-1.1-0.2-1.8,0.1L2499.5,971.5z"/>
		<path class="st0" d="M2513.8,966.5c0.3,0.9,0.5,1.7,0.4,2.4s-0.3,1.4-0.7,2s-1,1-1.7,1.2c-1.1,0.4-2.1,0.3-3.1-0.2
			c-1-0.5-1.7-1.5-2.2-2.8l-0.4-1c-0.3-0.8-0.4-1.7-0.4-2.4c0.1-0.8,0.3-1.4,0.7-2s1-1,1.7-1.2c0.7-0.3,1.4-0.3,2.1-0.2
			c0.7,0.1,1.3,0.5,1.8,1c0.5,0.5,1,1.2,1.3,2L2513.8,966.5z M2512.6,965.8c-0.4-1.1-1-1.9-1.7-2.4c-0.7-0.4-1.6-0.5-2.4-0.2
			c-0.9,0.3-1.4,0.9-1.7,1.7c-0.3,0.8-0.2,1.8,0.2,3l0.4,1c0.4,1.1,1,1.9,1.7,2.3c0.8,0.5,1.6,0.5,2.5,0.2c0.9-0.3,1.5-0.9,1.7-1.7
			c0.3-0.8,0.2-1.8-0.2-2.9L2512.6,965.8z"/>
		<path class="st0" d="M2520,958.3l0.8-0.3l3.5,9.3l-0.8,0.3l-3-8l-2.3,10l-0.8,0.3l-3.5-9.3l0.8-0.3l3,8L2520,958.3z M2518.4,956.3
			c0.2,0.5,0.2,1-0.1,1.4c-0.2,0.4-0.6,0.7-1.2,1c-0.6,0.2-1.1,0.2-1.5,0c-0.5-0.2-0.8-0.5-1-1l0.7-0.2c0.1,0.4,0.3,0.6,0.6,0.7
			c0.3,0.1,0.6,0.1,1,0c0.4-0.1,0.6-0.3,0.8-0.6c0.1-0.3,0.1-0.6,0-0.9L2518.4,956.3z"/>
		<path class="st0" d="M2535.4,959.9c0.3,1,0.2,1.9-0.2,2.6c-0.4,0.7-1.1,1.3-2.1,1.7c-0.7,0.3-1.4,0.3-2,0.2
			c-0.7-0.1-1.3-0.5-1.8-1c-0.5-0.5-0.9-1.2-1.3-2l-0.5-1.2c-0.3-0.8-0.4-1.6-0.4-2.4c0.1-0.7,0.3-1.4,0.7-1.9c0.4-0.6,1-1,1.7-1.2
			c1-0.4,1.9-0.4,2.7-0.1c0.8,0.3,1.4,0.9,1.8,1.9l-0.8,0.3c-0.8-1.5-1.9-2-3.5-1.4c-0.8,0.3-1.4,0.9-1.7,1.7
			c-0.3,0.8-0.2,1.8,0.2,2.9l0.4,1.1c0.4,1.1,1,1.8,1.7,2.3c0.7,0.5,1.5,0.5,2.3,0.2c0.8-0.3,1.4-0.7,1.6-1.3
			c0.3-0.6,0.3-1.2,0.1-2.1L2535.4,959.9z"/>
		<path class="st0" d="M2541.7,950.2l3.5,9.3l-0.8,0.3l-3.2-8.7l-3.9,1.5l1.2,3.9c0.4,1.4,0.7,2.5,0.7,3.2c0.1,0.7,0,1.2-0.2,1.6
			c-0.2,0.4-0.6,0.7-1.2,0.9l-0.3,0.1l-0.2-0.7l0.3-0.1c0.4-0.2,0.7-0.4,0.8-0.8c0.1-0.3,0.1-0.8,0.1-1.4c-0.1-0.6-0.3-1.5-0.7-2.8
			l-1.4-4.4L2541.7,950.2z"/>
		<path class="st0" d="M2551.1,952.3l-4.4,1.6l1.4,3.8l5-1.9l0.2,0.7l-5.8,2.2l-3.5-9.3l5.8-2.2l0.2,0.7l-5,1.9l1.3,3.5l4.4-1.6
			L2551.1,952.3z"/>
		<path class="st0" d="M2561.7,952.6l1-0.4l1.1,2.9l-0.8,0.3l-0.8-2.3l-7,2.6l0.8,2.3l-0.8,0.3l-1.1-2.9l0.6-0.2
			c0.3-0.7,0.4-1.5,0.3-2.6c-0.1-1.1-0.3-2.2-0.6-3.3l-1.1-3.4l5.2-1.9L2561.7,952.6z M2555.6,954.9l5.3-2l-3-8l-3.6,1.3l0.9,2.7
			c0.4,1.1,0.6,2.2,0.7,3.3C2555.9,953.3,2555.8,954.2,2555.6,954.9z"/>
	</g>
	<g>
		<path class="st0" d="M2498.3,1124.4l0.8-0.2l2.1,9l5.5-1.3l-2.1-9l0.8-0.2l2.1,9l1-0.2l0.6,3.1l-0.8,0.2l-0.5-2.3l-7.3,1.7
			L2498.3,1124.4z"/>
		<path class="st0" d="M2514.5,1120.7l0.8-0.2l2.2,9.7l-0.8,0.2l-1.9-8.3l-3.6,9.6l-0.8,0.2l-2.2-9.7l0.8-0.2l1.9,8.3L2514.5,1120.7
			z"/>
		<path class="st0" d="M2522.3,1119.9l0.2-0.1c0.8-0.2,1.5-0.2,2.1,0c0.7,0.2,1.3,0.5,1.7,1c0.5,0.5,0.8,1.1,1,1.8
			c0.2,0.7,0.2,1.4,0,2.1c-0.2,0.7-0.6,1.2-1.1,1.7c-0.5,0.5-1.2,0.8-1.9,1l-0.2,0.1l0.3,1.4l-0.8,0.2l-0.3-1.4l-0.2,0
			c-0.8,0.2-1.5,0.2-2.2,0c-0.7-0.2-1.3-0.5-1.7-1c-0.5-0.5-0.8-1.1-1-1.9c-0.2-0.7-0.1-1.4,0.1-2.1c0.2-0.7,0.6-1.2,1.1-1.7
			c0.5-0.5,1.2-0.8,1.9-1l0.2,0l-0.3-1.4l0.8-0.2L2522.3,1119.9z M2521.5,1120.8c-1,0.2-1.7,0.7-2.1,1.4c-0.4,0.7-0.6,1.5-0.3,2.5
			c0.2,0.9,0.7,1.6,1.3,2.1c0.7,0.4,1.5,0.6,2.4,0.4l0.4-0.1l-1.5-6.3L2521.5,1120.8z M2522.4,1120.6l1.5,6.3l0.2,0
			c1-0.2,1.7-0.7,2.1-1.4c0.4-0.7,0.6-1.6,0.3-2.5c-0.2-0.9-0.6-1.6-1.3-2c-0.7-0.4-1.5-0.6-2.4-0.4L2522.4,1120.6z"/>
		<path class="st0" d="M2530.1,1123.1l0.9,4l-0.8,0.2l-2.2-9.7l3.3-0.8c1-0.2,1.9-0.2,2.6,0.2c0.7,0.4,1.2,1,1.4,1.9
			c0.2,0.9,0.1,1.7-0.4,2.3c-0.4,0.6-1.2,1.1-2.3,1.3L2530.1,1123.1z M2529.9,1122.4l2.5-0.6c0.8-0.2,1.4-0.5,1.7-1
			c0.3-0.5,0.4-1,0.3-1.7c-0.2-0.7-0.5-1.2-1-1.5c-0.5-0.3-1.1-0.4-1.9-0.2l-2.5,0.6L2529.9,1122.4z"/>
		<path class="st0" d="M2544.7,1119.4c0.2,0.9,0.2,1.7,0.1,2.5c-0.2,0.7-0.5,1.4-1,1.9c-0.5,0.5-1.1,0.8-1.9,1
			c-1.1,0.3-2.1,0.1-3-0.6c-0.9-0.7-1.5-1.7-1.8-3l-0.2-1c-0.2-0.9-0.2-1.7-0.1-2.5c0.2-0.8,0.5-1.4,1-1.9c0.5-0.5,1.1-0.8,1.9-1
			c0.7-0.2,1.4-0.1,2.1,0.1c0.7,0.2,1.2,0.6,1.7,1.2s0.8,1.3,1,2.2L2544.7,1119.4z M2543.7,1118.5c-0.3-1.2-0.7-2-1.4-2.6
			c-0.7-0.5-1.5-0.7-2.4-0.5c-0.9,0.2-1.5,0.7-1.9,1.5s-0.4,1.8-0.2,3l0.2,1c0.3,1.2,0.7,2,1.4,2.6c0.7,0.6,1.5,0.7,2.4,0.5
			c0.9-0.2,1.6-0.7,1.9-1.5c0.4-0.8,0.4-1.8,0.1-3L2543.7,1118.5z"/>
		<path class="st0" d="M2547.8,1123.2l-2.2-9.7l2.9-0.7c1-0.2,1.9-0.2,2.5,0.1c0.6,0.3,1.1,0.9,1.2,1.7c0.1,0.5,0.1,1-0.1,1.4
			c-0.2,0.4-0.5,0.8-0.9,1.1c0.6,0,1.1,0.2,1.6,0.5c0.4,0.4,0.7,0.8,0.9,1.4c0.2,0.9,0.1,1.6-0.4,2.2c-0.4,0.6-1.2,1-2.1,1.3
			L2547.8,1123.2z M2547.4,1117.7l2.2-0.5c0.7-0.2,1.2-0.5,1.5-0.8c0.3-0.4,0.4-0.9,0.3-1.5c-0.1-0.6-0.4-1-0.9-1.2
			c-0.5-0.2-1.1-0.2-1.9,0l-2,0.5L2547.4,1117.7z M2547.5,1118.4l0.9,4l2.5-0.6c0.7-0.2,1.2-0.5,1.5-0.9c0.3-0.5,0.4-1,0.3-1.6
			c-0.1-0.6-0.4-1-0.9-1.3c-0.5-0.3-1.1-0.3-1.7-0.1L2547.5,1118.4z"/>
		<path class="st0" d="M2562.3,1115.3c0.2,0.9,0.2,1.7,0.1,2.5c-0.2,0.7-0.5,1.4-1,1.9c-0.5,0.5-1.1,0.8-1.9,1
			c-1.1,0.3-2.1,0.1-3-0.6c-0.9-0.7-1.5-1.7-1.8-3l-0.2-1c-0.2-0.9-0.2-1.7-0.1-2.5c0.2-0.8,0.5-1.4,1-1.9c0.5-0.5,1.1-0.8,1.9-1
			c0.7-0.2,1.4-0.1,2.1,0.1s1.2,0.6,1.7,1.2c0.5,0.6,0.8,1.3,1,2.2L2562.3,1115.3z M2561.3,1114.5c-0.3-1.2-0.7-2-1.4-2.6
			c-0.7-0.5-1.5-0.7-2.4-0.5c-0.9,0.2-1.5,0.7-1.9,1.5c-0.4,0.8-0.4,1.8-0.2,3l0.2,1c0.3,1.1,0.7,2,1.4,2.6c0.7,0.6,1.5,0.7,2.4,0.5
			c0.9-0.2,1.6-0.7,1.9-1.5c0.4-0.8,0.4-1.8,0.1-3L2561.3,1114.5z"/>
		<path class="st0" d="M2569.5,1108l0.8-0.2l2.2,9.7l-0.8,0.2l-1.9-8.3l-3.6,9.6l-0.8,0.2l-2.2-9.7l0.8-0.2l1.9,8.3L2569.5,1108z
			 M2568.2,1105.8c0.1,0.5,0,1-0.2,1.4c-0.3,0.4-0.7,0.7-1.3,0.8c-0.6,0.1-1.1,0.1-1.5-0.2c-0.4-0.2-0.7-0.6-0.8-1.1l0.7-0.2
			c0.1,0.4,0.3,0.6,0.5,0.8c0.3,0.1,0.6,0.2,1,0.1s0.7-0.3,0.8-0.5c0.2-0.3,0.2-0.6,0.1-0.9L2568.2,1105.8z"/>
		<path class="st0" d="M2585.6,1114.5l-0.8,0.2l-2.1-9l-5.5,1.3l2.1,9l-0.8,0.2l-2.2-9.7l7.1-1.6L2585.6,1114.5z"/>
		<path class="st0" d="M2588,1109.8l0.9,4l-0.8,0.2l-2.2-9.7l3.3-0.8c1-0.2,1.9-0.2,2.6,0.2c0.7,0.4,1.2,1,1.4,1.9
			c0.2,0.9,0.1,1.7-0.4,2.3s-1.2,1.1-2.3,1.3L2588,1109.8z M2587.8,1109.1l2.5-0.6c0.8-0.2,1.4-0.5,1.7-1c0.3-0.5,0.4-1,0.3-1.7
			c-0.2-0.7-0.5-1.2-1-1.5c-0.5-0.3-1.1-0.4-1.9-0.2l-2.5,0.6L2587.8,1109.1z"/>
		<path class="st0" d="M2602.6,1106.1c0.2,0.9,0.2,1.7,0.1,2.5c-0.2,0.7-0.5,1.4-1,1.9c-0.5,0.5-1.1,0.8-1.9,1
			c-1.1,0.3-2.1,0.1-3-0.6c-0.9-0.6-1.5-1.7-1.8-3l-0.2-1c-0.2-0.9-0.2-1.7-0.1-2.5c0.2-0.8,0.5-1.4,1-1.9c0.5-0.5,1.1-0.8,1.9-1
			c0.7-0.2,1.4-0.1,2.1,0.1c0.7,0.2,1.2,0.6,1.7,1.2c0.5,0.6,0.8,1.3,1,2.2L2602.6,1106.1z M2601.6,1105.2c-0.3-1.2-0.7-2-1.4-2.6
			c-0.7-0.5-1.5-0.7-2.4-0.5c-0.9,0.2-1.5,0.7-1.9,1.5c-0.4,0.8-0.4,1.8-0.2,3l0.2,1c0.3,1.1,0.7,2,1.4,2.6c0.7,0.5,1.5,0.7,2.4,0.5
			c0.9-0.2,1.6-0.7,1.9-1.5c0.4-0.8,0.4-1.8,0.1-3L2601.6,1105.2z"/>
		<path class="st0" d="M2608,1100.2l0.2-0.1c0.8-0.2,1.5-0.2,2.1,0c0.7,0.2,1.3,0.5,1.7,1.1c0.5,0.5,0.8,1.1,1,1.8
			c0.2,0.7,0.1,1.4,0,2.1c-0.2,0.7-0.6,1.2-1.1,1.7c-0.5,0.5-1.2,0.8-1.9,1l-0.2,0.1l0.3,1.4l-0.8,0.2l-0.3-1.4l-0.2,0
			c-0.8,0.2-1.5,0.2-2.2,0c-0.7-0.2-1.3-0.5-1.7-1c-0.5-0.5-0.8-1.1-1-1.9c-0.2-0.7-0.1-1.4,0.1-2.1c0.2-0.7,0.6-1.2,1.1-1.7
			c0.5-0.5,1.2-0.8,1.9-1l0.2,0l-0.3-1.4l0.8-0.2L2608,1100.2z M2607.1,1101.1c-1,0.2-1.7,0.7-2.1,1.4c-0.4,0.7-0.6,1.5-0.3,2.5
			c0.2,0.9,0.7,1.6,1.3,2.1c0.7,0.4,1.5,0.6,2.4,0.4l0.4-0.1l-1.5-6.3L2607.1,1101.1z M2608.1,1100.9l1.5,6.3l0.2,0
			c1-0.2,1.7-0.7,2.1-1.4c0.4-0.7,0.6-1.6,0.3-2.5c-0.2-0.9-0.6-1.6-1.3-2c-0.7-0.5-1.5-0.6-2.4-0.4L2608.1,1100.9z"/>
		<path class="st0" d="M2620,1096.4l0.8-0.2l2.2,9.7l-0.8,0.2l-1.9-8.3l-3.6,9.6l-0.8,0.2l-2.2-9.7l0.8-0.2l1.9,8.3L2620,1096.4z"/>
		<path class="st0" d="M2630.6,1094l2.2,9.7l-0.8,0.2l-2.1-9l-4.1,0.9l0.7,4.1c0.2,1.5,0.3,2.5,0.3,3.2s-0.2,1.2-0.5,1.6
			c-0.3,0.4-0.7,0.6-1.3,0.8l-0.3,0.1l-0.2-0.7l0.3-0.1c0.5-0.1,0.8-0.4,0.9-0.7c0.2-0.3,0.2-0.8,0.2-1.4c0-0.6-0.1-1.6-0.3-2.8
			l-0.8-4.6L2630.6,1094z"/>
		<path class="st0" d="M2634.8,1097.5l2.4-0.6c0.7-0.2,1.3-0.2,1.8-0.1c0.5,0.1,1,0.3,1.3,0.7c0.3,0.4,0.6,0.8,0.7,1.4
			c0.2,0.9,0.1,1.6-0.4,2.2c-0.5,0.6-1.2,1.1-2.2,1.3l-3.2,0.7l-2.2-9.7l0.8-0.2L2634.8,1097.5z M2634.9,1098.2l0.9,4.1l2.4-0.6
			c0.8-0.2,1.3-0.5,1.6-1c0.3-0.5,0.4-1,0.3-1.7c-0.1-0.6-0.5-1.1-0.9-1.3c-0.5-0.3-1.1-0.3-1.8-0.2L2634.9,1098.2z"/>
	</g>
</g>
</svg>
