<?xml version="1.0" encoding="utf-8"?>
<!-- Generator: Adobe Illustrator 22.0.1, SVG Export Plug-In . SVG Version: 6.00 Build 0)  -->
<svg version="1.1" id="Layer_1" xmlns="http://www.w3.org/2000/svg" xmlns:xlink="http://www.w3.org/1999/xlink" x="0px" y="0px"
	 viewBox="0 0 2800 2800" style="enable-background:new 0 0 2800 2800;" xml:space="preserve">
<style type="text/css">
	.st0{fill:#231F20;}
	.st1{fill:#D6DE23;}
</style>
<g>
	<g>
		<path class="st0" d="M2245.6,1140.9l2.7,9.6l-0.8,0.2l-2.5-8.9l-4,1.1l0.9,4c0.3,1.4,0.5,2.5,0.5,3.2c0,0.7-0.1,1.2-0.4,1.6
			c-0.3,0.4-0.7,0.7-1.2,0.8l-0.3,0.1l-0.2-0.7l0.3-0.1c0.4-0.1,0.7-0.4,0.9-0.7c0.2-0.3,0.2-0.8,0.2-1.4c0-0.6-0.2-1.6-0.5-2.8
			l-1-4.5L2245.6,1140.9z"/>
		<path class="st0" d="M2255.3,1145.6l-4.4,1.2l-0.2,3l-0.8,0.2l1-10.6l0.8-0.2l6.3,8.6l-0.8,0.2L2255.3,1145.6z M2251,1146.1
			l3.8-1.1l-3.4-4.7L2251,1146.1z"/>
		<path class="st0" d="M2262.5,1136.9l-5,1.4l1,3.5l2.4-0.7c0.7-0.2,1.3-0.2,1.8-0.1s1,0.3,1.4,0.6c0.4,0.3,0.6,0.8,0.8,1.3
			c0.2,0.8,0.1,1.6-0.3,2.2c-0.4,0.6-1.1,1.1-2.1,1.4l-3.2,0.9l-2.7-9.6l5.8-1.6L2262.5,1136.9z M2258.7,1142.4l1.1,4.1l2.4-0.7
			c0.7-0.2,1.3-0.6,1.6-1s0.4-1,0.2-1.7c-0.2-0.6-0.5-1-1-1.3c-0.5-0.2-1.1-0.3-1.9-0.1L2258.7,1142.4z"/>
		<path class="st0" d="M2273.6,1138.8c0.2,0.9,0.3,1.7,0.2,2.5c-0.1,0.8-0.4,1.4-0.9,1.9c-0.5,0.5-1.1,0.9-1.8,1.1
			c-1.1,0.3-2.1,0.2-3-0.4s-1.6-1.6-1.9-3l-0.3-1c-0.2-0.9-0.3-1.7-0.2-2.5c0.1-0.8,0.4-1.4,0.9-1.9c0.5-0.5,1.1-0.9,1.8-1.1
			c0.7-0.2,1.4-0.2,2.1,0c0.7,0.2,1.2,0.6,1.7,1.1c0.5,0.6,0.9,1.3,1.1,2.1L2273.6,1138.8z M2272.5,1138c-0.3-1.2-0.8-2-1.5-2.5
			c-0.7-0.5-1.5-0.6-2.4-0.4c-0.9,0.2-1.5,0.8-1.9,1.6s-0.4,1.8,0,3l0.3,1c0.3,1.1,0.8,2,1.5,2.5s1.5,0.7,2.4,0.4
			c0.9-0.3,1.5-0.8,1.9-1.6c0.3-0.8,0.3-1.8,0-3L2272.5,1138z"/>
		<path class="st0" d="M2276.6,1138.4l1.1,3.9l-0.8,0.2l-2.7-9.6l3.3-0.9c1-0.3,1.9-0.2,2.6,0.1c0.7,0.3,1.2,1,1.5,1.9
			c0.2,0.9,0.2,1.7-0.3,2.3c-0.4,0.6-1.2,1.1-2.2,1.4L2276.6,1138.4z M2276.4,1137.7l2.5-0.7c0.8-0.2,1.3-0.6,1.6-1.1
			c0.3-0.5,0.4-1.1,0.2-1.7c-0.2-0.7-0.5-1.1-1.1-1.4c-0.5-0.3-1.2-0.3-1.9-0.1l-2.5,0.7L2276.4,1137.7z"/>
		<path class="st0" d="M2288.7,1136.3l-4.4,1.2l-0.2,3l-0.8,0.2l1-10.6l0.8-0.2l6.3,8.6l-0.8,0.2L2288.7,1136.3z M2284.4,1136.8
			l3.8-1.1l-3.4-4.7L2284.4,1136.8z"/>
		<path class="st0" d="M2295.9,1127.6l-3.3,0.9l2.5,8.9l-0.8,0.2l-2.5-8.9l-3.3,0.9l-0.2-0.7l7.4-2.1L2295.9,1127.6z"/>
		<path class="st0" d="M2305.6,1129.9c0.2,0.9,0.3,1.7,0.2,2.5c-0.1,0.8-0.4,1.4-0.9,1.9c-0.5,0.5-1.1,0.9-1.8,1.1
			c-1.1,0.3-2.1,0.2-3-0.4s-1.6-1.6-1.9-3l-0.3-1c-0.2-0.9-0.3-1.7-0.2-2.5c0.1-0.8,0.4-1.4,0.9-1.9c0.5-0.5,1.1-0.9,1.8-1.1
			c0.7-0.2,1.4-0.2,2.1,0c0.7,0.2,1.2,0.6,1.7,1.1c0.5,0.6,0.9,1.3,1.1,2.1L2305.6,1129.9z M2304.5,1129.1c-0.3-1.2-0.8-2-1.5-2.5
			c-0.7-0.5-1.5-0.6-2.4-0.4c-0.9,0.2-1.5,0.8-1.9,1.6s-0.4,1.8,0,3l0.3,1c0.3,1.1,0.8,2,1.5,2.5s1.5,0.7,2.4,0.4
			c0.9-0.3,1.5-0.8,1.9-1.6c0.3-0.8,0.3-1.8,0-3L2304.5,1129.1z"/>
		<path class="st0" d="M2308.6,1129.5l1.1,3.9l-0.8,0.2l-2.7-9.6l3.3-0.9c1-0.3,1.9-0.2,2.6,0.1c0.7,0.3,1.2,1,1.5,1.9
			c0.2,0.9,0.2,1.7-0.3,2.3c-0.4,0.6-1.2,1.1-2.2,1.4L2308.6,1129.5z M2308.4,1128.8l2.5-0.7c0.8-0.2,1.3-0.6,1.6-1.1
			c0.3-0.5,0.4-1.1,0.2-1.7c-0.2-0.7-0.5-1.1-1.1-1.4c-0.5-0.3-1.2-0.3-1.9-0.1l-2.5,0.7L2308.4,1128.8z"/>
		<path class="st0" d="M2320.8,1119.9l0.8-0.2l2.7,9.6l-0.8,0.2l-2.3-8.2l-3.2,9.7l-0.8,0.2l-2.7-9.6l0.8-0.2l2.3,8.2L2320.8,1119.9
			z"/>
		<path class="st0" d="M2330.4,1117.3l0.8-0.2l2.7,9.6l-0.8,0.2l-2.3-8.2l-3.2,9.7l-0.8,0.2l-2.7-9.6l0.8-0.2l2.3,8.2L2330.4,1117.3
			z"/>
	</g>
	<g>
		<path class="st0" d="M2261,1187l-0.8,0.2l-2.1-9l-5.5,1.3l2.1,9l-0.8,0.2l-2.2-9.7l7.1-1.7L2261,1187z"/>
		<path class="st0" d="M2267.6,1175.3l0.8-0.2l2.2,9.7l-0.8,0.2l-1.9-8.3l-3.6,9.6l-0.8,0.2l-2.2-9.7l0.8-0.2l1.9,8.3L2267.6,1175.3
			z"/>
		<path class="st0" d="M2277.4,1173.7l-3.3,0.8l2.1,9l-0.8,0.2l-2.1-9l-3.3,0.8l-0.2-0.7l7.5-1.7L2277.4,1173.7z"/>
		<path class="st0" d="M2285.4,1171.1l2.2,9.7l-0.8,0.2l-1-4.4c-0.9,0.5-1.7,0.8-2.5,1c-1.1,0.3-2,0.2-2.6-0.1c-0.6-0.4-1.1-1-1.3-2
			l-0.6-2.8l0.8-0.2l0.6,2.7c0.2,0.8,0.5,1.3,1,1.6c0.5,0.3,1.1,0.3,2,0.1c0.8-0.2,1.7-0.5,2.5-1l-1.1-4.6L2285.4,1171.1z"/>
		<path class="st0" d="M2291.5,1175.8l-3.2,0.7l-0.2-0.7l3.2-0.7L2291.5,1175.8z"/>
		<path class="st0" d="M2300.2,1174.7c0.1,1-0.1,1.9-0.6,2.6c-0.5,0.7-1.3,1.1-2.3,1.4c-0.7,0.2-1.4,0.1-2-0.1
			c-0.6-0.2-1.2-0.6-1.6-1.2c-0.5-0.6-0.8-1.3-1-2.2l-0.3-1.3c-0.2-0.9-0.2-1.7-0.1-2.4c0.1-0.7,0.5-1.4,0.9-1.8
			c0.5-0.5,1.1-0.8,1.8-1c1-0.2,1.9-0.2,2.7,0.3s1.3,1.1,1.6,2.1l-0.8,0.2c-0.6-1.6-1.7-2.2-3.3-1.8c-0.9,0.2-1.5,0.7-1.9,1.5
			c-0.4,0.8-0.4,1.7-0.2,2.9l0.3,1.2c0.3,1.1,0.7,2,1.4,2.5c0.7,0.5,1.4,0.7,2.3,0.5c0.9-0.2,1.5-0.6,1.8-1.1c0.3-0.5,0.5-1.2,0.4-2
			L2300.2,1174.7z"/>
		<path class="st0" d="M2307.2,1171.4l-4.5,1.1l0.9,4l5.2-1.2l0.2,0.7l-6,1.4l-2.2-9.7l6-1.4l0.2,0.7l-5.2,1.2l0.8,3.7l4.5-1.1
			L2307.2,1171.4z"/>
		<path class="st0" d="M2316.8,1170.9c0.1,1-0.1,1.9-0.6,2.6c-0.5,0.7-1.3,1.1-2.3,1.4c-0.7,0.2-1.4,0.1-2-0.1
			c-0.6-0.2-1.2-0.6-1.6-1.2c-0.5-0.6-0.8-1.3-1-2.2l-0.3-1.3c-0.2-0.9-0.2-1.7-0.1-2.4c0.1-0.7,0.5-1.4,0.9-1.8
			c0.5-0.5,1.1-0.8,1.8-1c1-0.2,1.9-0.2,2.7,0.3s1.3,1.1,1.6,2.1l-0.8,0.2c-0.6-1.6-1.7-2.2-3.3-1.8c-0.9,0.2-1.5,0.7-1.9,1.5
			c-0.4,0.8-0.4,1.7-0.2,2.9l0.3,1.2c0.3,1.1,0.7,2,1.4,2.5c0.7,0.5,1.4,0.7,2.3,0.5c0.9-0.2,1.5-0.6,1.8-1.1c0.3-0.5,0.5-1.2,0.4-2
			L2316.8,1170.9z"/>
		<path class="st0" d="M2325.7,1168.8c0.1,1-0.1,1.9-0.6,2.6c-0.5,0.7-1.3,1.1-2.3,1.4c-0.7,0.2-1.4,0.1-2-0.1
			c-0.6-0.2-1.2-0.6-1.6-1.2c-0.5-0.6-0.8-1.3-1-2.2l-0.3-1.3c-0.2-0.9-0.2-1.7-0.1-2.4c0.1-0.7,0.5-1.4,0.9-1.8
			c0.5-0.5,1.1-0.8,1.8-1c1-0.2,1.9-0.2,2.7,0.3s1.3,1.1,1.6,2.1l-0.8,0.2c-0.6-1.6-1.7-2.2-3.3-1.8c-0.9,0.2-1.5,0.7-1.9,1.5
			c-0.4,0.8-0.4,1.7-0.2,2.9l0.3,1.2c0.3,1.1,0.7,2,1.4,2.5c0.7,0.5,1.4,0.7,2.3,0.5c0.9-0.2,1.5-0.6,1.8-1.1c0.3-0.5,0.5-1.2,0.4-2
			L2325.7,1168.8z"/>
		<path class="st0" d="M2332.5,1160.2l0.8-0.2l2.2,9.7l-0.8,0.2l-1.9-8.3l-3.6,9.6l-0.8,0.2l-2.2-9.7l0.8-0.2l1.9,8.3L2332.5,1160.2
			z"/>
		<path class="st0" d="M2342.2,1158l0.8-0.2l2.2,9.7l-0.8,0.2l-1.9-8.3l-3.6,9.6l-0.8,0.2l-2.2-9.7l0.8-0.2l1.9,8.3L2342.2,1158z"/>
	</g>
	<g>
		<path class="st0" d="M2266.3,1216.2l0.2,0c0.8-0.1,1.5-0.1,2.1,0.1c0.7,0.2,1.2,0.6,1.7,1.1s0.7,1.2,0.9,1.9
			c0.1,0.7,0.1,1.4-0.1,2.1c-0.2,0.7-0.6,1.2-1.2,1.7c-0.5,0.4-1.2,0.7-2,0.9l-0.2,0l0.3,1.4l-0.8,0.1l-0.3-1.4l-0.2,0
			c-0.8,0.1-1.5,0.1-2.2-0.1s-1.2-0.6-1.7-1.1c-0.5-0.5-0.7-1.2-0.9-1.9c-0.1-0.7-0.1-1.4,0.1-2.1c0.2-0.7,0.6-1.2,1.2-1.7
			c0.6-0.4,1.2-0.7,2-0.9l0.2,0l-0.3-1.4l0.8-0.2L2266.3,1216.2z M2265.4,1217.1c-1,0.2-1.7,0.6-2.2,1.3c-0.5,0.7-0.6,1.5-0.4,2.5
			c0.2,0.9,0.6,1.6,1.2,2.1c0.6,0.5,1.4,0.6,2.4,0.5l0.4-0.1l-1.2-6.4L2265.4,1217.1z M2266.4,1216.9l1.2,6.4l0.2,0
			c1-0.2,1.7-0.6,2.2-1.3c0.5-0.7,0.6-1.5,0.4-2.5c-0.2-0.9-0.6-1.6-1.2-2.1c-0.6-0.5-1.4-0.7-2.4-0.5L2266.4,1216.9z"/>
		<path class="st0" d="M2280.3,1218.2c0.2,0.9,0.2,1.7,0,2.5c-0.2,0.7-0.5,1.3-1,1.8c-0.5,0.5-1.1,0.8-1.9,0.9c-1.1,0.2-2.1,0-3-0.7
			c-0.9-0.7-1.4-1.7-1.7-3.1l-0.2-1c-0.2-0.9-0.2-1.7,0-2.5c0.2-0.7,0.5-1.4,1-1.8c0.5-0.5,1.1-0.8,1.9-0.9c0.8-0.1,1.5-0.1,2.1,0.2
			c0.6,0.3,1.2,0.7,1.6,1.3c0.4,0.6,0.7,1.3,0.9,2.2L2280.3,1218.2z M2279.3,1217.3c-0.2-1.2-0.7-2.1-1.3-2.6
			c-0.7-0.6-1.5-0.8-2.4-0.6c-0.9,0.2-1.6,0.6-2,1.4c-0.4,0.8-0.5,1.8-0.3,3l0.2,1c0.2,1.2,0.7,2,1.3,2.6c0.7,0.6,1.5,0.8,2.4,0.6
			c0.9-0.2,1.6-0.6,2-1.4c0.4-0.8,0.5-1.8,0.3-2.9L2279.3,1217.3z"/>
		<path class="st0" d="M2283.3,1218l0.7,4l-0.8,0.2l-1.8-9.8l3.3-0.6c1-0.2,1.9-0.1,2.6,0.3c0.7,0.4,1.1,1.1,1.3,2
			c0.2,0.9,0,1.7-0.5,2.3c-0.5,0.6-1.2,1-2.3,1.2L2283.3,1218z M2283.1,1217.3l2.5-0.5c0.8-0.1,1.4-0.5,1.7-0.9
			c0.4-0.5,0.5-1,0.3-1.7c-0.1-0.7-0.4-1.2-0.9-1.5c-0.5-0.3-1.1-0.4-1.9-0.3l-2.6,0.5L2283.1,1217.3z"/>
		<path class="st0" d="M2298,1216.3c0.1,1.1-0.1,1.9-0.7,2.6c-0.5,0.7-1.3,1.1-2.3,1.3c-0.7,0.1-1.4,0.1-2-0.2
			c-0.6-0.3-1.2-0.7-1.6-1.3c-0.4-0.6-0.7-1.3-0.9-2.2l-0.2-1.3c-0.2-0.9-0.2-1.7,0-2.4c0.2-0.7,0.5-1.3,1-1.8s1.1-0.8,1.9-0.9
			c1-0.2,1.9-0.1,2.6,0.4c0.7,0.5,1.2,1.2,1.5,2.1l-0.8,0.2c-0.5-1.6-1.6-2.3-3.2-2c-0.9,0.2-1.5,0.6-1.9,1.4
			c-0.4,0.8-0.5,1.7-0.3,2.9l0.2,1.2c0.2,1.1,0.6,2,1.3,2.6c0.6,0.6,1.4,0.8,2.3,0.6c0.9-0.2,1.5-0.5,1.8-1s0.5-1.2,0.5-2
			L2298,1216.3z"/>
		<path class="st0" d="M2305.4,1215.2l-4.4,0.8l-0.5,2.9l-0.9,0.2l1.9-10.5l0.8-0.1l5.5,9.1l-0.9,0.2L2305.4,1215.2z M2301.1,1215.3
			l3.9-0.7l-3-5L2301.1,1215.3z"/>
		<path class="st0" d="M2313.8,1206.4l0.8-0.2l1.8,9.8l-0.8,0.2l-1.6-8.4l-4,9.4l-0.8,0.2l-1.8-9.8l0.8-0.2l1.6,8.4L2313.8,1206.4z
			 M2312.6,1204.1c0.1,0.5,0,1-0.3,1.3c-0.3,0.4-0.7,0.6-1.3,0.7c-0.6,0.1-1.1,0-1.5-0.2c-0.4-0.2-0.7-0.6-0.8-1.2l0.7-0.1
			c0.1,0.4,0.2,0.6,0.5,0.8c0.3,0.2,0.6,0.2,1,0.1s0.7-0.2,0.9-0.5c0.2-0.2,0.2-0.5,0.2-0.9L2312.6,1204.1z"/>
		<path class="st0" d="M2323.9,1205.2l-3.4,0.6l1.7,9.1l-0.8,0.2l-1.7-9.1l-3.3,0.6l-0.1-0.7l7.5-1.4L2323.9,1205.2z"/>
		<path class="st0" d="M2327,1208.3l2.4-0.5c0.7-0.1,1.3-0.1,1.8,0s1,0.4,1.3,0.7c0.3,0.4,0.6,0.8,0.7,1.4c0.2,0.9,0,1.6-0.5,2.2
			c-0.5,0.6-1.2,1-2.3,1.2l-3.2,0.6l-1.8-9.8l0.8-0.2L2327,1208.3z M2327.1,1209l0.8,4.1l2.4-0.5c0.8-0.1,1.3-0.4,1.7-0.9
			c0.4-0.5,0.5-1,0.4-1.7c-0.1-0.6-0.4-1.1-0.9-1.4c-0.5-0.3-1.1-0.4-1.8-0.2L2327.1,1209z M2336.1,1212.3l-0.8,0.2l-1.8-9.8
			l0.8-0.2L2336.1,1212.3z"/>
	</g>
	<g>
		<path class="st0" d="M2280.6,1252.9l-3.4,0.5l1.3,9.2l-0.8,0.1l-1.3-9.2l-3.4,0.5l-0.1-0.7l7.6-1.1L2280.6,1252.9z"/>
		<path class="st0" d="M2283.7,1257.7l0.6,4l-0.8,0.1l-1.4-9.9l3.4-0.5c1-0.1,1.9,0,2.5,0.4s1.1,1.1,1.2,2c0.1,0.9-0.1,1.7-0.6,2.3
			c-0.5,0.6-1.3,1-2.4,1.1L2283.7,1257.7z M2283.6,1257l2.5-0.4c0.8-0.1,1.4-0.4,1.8-0.8c0.4-0.4,0.5-1,0.4-1.7
			c-0.1-0.7-0.4-1.2-0.9-1.5c-0.5-0.3-1.1-0.5-1.9-0.4l-2.6,0.4L2283.6,1257z"/>
		<path class="st0" d="M2296.8,1255.1l-4.6,0.7l0.6,4l5.3-0.7l0.1,0.7l-6.1,0.9l-1.4-9.9l6.1-0.9l0.1,0.7l-5.3,0.7l0.5,3.7l4.6-0.7
			L2296.8,1255.1z"/>
		<path class="st0" d="M2307.2,1258.5l-0.8,0.1l-0.7-4.7l-5.6,0.8l0.7,4.7l-0.8,0.1l-1.4-9.9l0.8-0.1l0.6,4.4l5.6-0.8l-0.6-4.4
			l0.8-0.1L2307.2,1258.5z"/>
		<path class="st0" d="M2314.8,1247.3l0.8-0.1l1.4,9.9l-0.8,0.1l-1.2-8.4l-4.4,9.2l-0.8,0.1l-1.4-9.9l0.8-0.1l1.2,8.4L2314.8,1247.3
			z"/>
		<path class="st0" d="M2326.8,1255.7l-0.8,0.1l-0.7-4.7l-5.6,0.8l0.7,4.7l-0.8,0.1l-1.4-9.9l0.8-0.1l0.6,4.4l5.6-0.8l-0.6-4.4
			l0.8-0.1L2326.8,1255.7z"/>
		<path class="st0" d="M2334,1245.3l-5.1,0.7l1.3,9.2l-0.8,0.1l-1.4-9.9l5.9-0.8L2334,1245.3z"/>
		<path class="st0" d="M2342.1,1243.5l0.8-0.1l1.4,9.9l-0.8,0.1l-1.2-8.4l-4.4,9.2l-0.8,0.1l-1.4-9.9l0.8-0.1l1.2,8.4L2342.1,1243.5
			z"/>
	</g>
	<g>
		<path class="st0" d="M2288.6,1300.5l-0.8,0.1l-0.9-9.2l-5.6,0.5l0.9,9.2l-0.8,0.1l-1-9.9l7.3-0.7L2288.6,1300.5z"/>
		<path class="st0" d="M2291.5,1296.1l0.4,4l-0.8,0.1l-1-9.9l3.4-0.3c1-0.1,1.9,0.1,2.5,0.6c0.6,0.5,1,1.2,1.1,2.1
			c0.1,0.9-0.1,1.7-0.7,2.2c-0.5,0.6-1.3,0.9-2.4,1L2291.5,1296.1z M2291.5,1295.4l2.5-0.2c0.8-0.1,1.4-0.3,1.8-0.8
			c0.4-0.4,0.5-1,0.5-1.7c-0.1-0.7-0.3-1.2-0.8-1.6c-0.5-0.4-1.1-0.5-1.9-0.4l-2.6,0.3L2291.5,1295.4z"/>
		<path class="st0" d="M2306.6,1294.3c0.1,0.9,0,1.7-0.2,2.4c-0.2,0.7-0.6,1.3-1.2,1.7c-0.5,0.4-1.2,0.7-2,0.8
			c-1.2,0.1-2.1-0.2-2.9-1c-0.8-0.8-1.3-1.8-1.4-3.2l-0.1-1c-0.1-0.9,0-1.7,0.2-2.4s0.7-1.3,1.2-1.7s1.2-0.7,2-0.8
			c0.8-0.1,1.5,0,2.1,0.4c0.6,0.3,1.1,0.8,1.5,1.4s0.6,1.4,0.7,2.3L2306.6,1294.3z M2305.6,1293.3c-0.1-1.2-0.5-2.1-1.1-2.7
			c-0.6-0.6-1.4-0.9-2.3-0.8c-0.9,0.1-1.6,0.5-2.1,1.2s-0.7,1.7-0.5,2.9l0.1,1c0.1,1.2,0.5,2.1,1.1,2.7c0.6,0.6,1.4,0.9,2.3,0.8
			c0.9-0.1,1.7-0.5,2.1-1.2s0.6-1.7,0.5-2.9L2305.6,1293.3z"/>
		<path class="st0" d="M2314.1,1293.2l-4.6,0.5l0.4,4l5.3-0.5l0.1,0.7l-6.2,0.6l-1-9.9l6.1-0.6l0.1,0.7l-5.3,0.5l0.4,3.7l4.6-0.5
			L2314.1,1293.2z"/>
		<path class="st0" d="M2318.8,1292.9l-1.4,0.1l0.5,4.7l-0.8,0.1l-1-9.9l0.8-0.1l0.4,4.5l1.3-0.1l3.4-4.9l1.1-0.1l-3.6,5.3l4.9,4.6
			l-1,0.1L2318.8,1292.9z"/>
		<path class="st0" d="M2331.8,1287l-3.4,0.3l0.9,9.2l-0.8,0.1l-0.9-9.2l-3.4,0.3l-0.1-0.7l7.6-0.7L2331.8,1287z"/>
		<path class="st0" d="M2341.6,1295.4l-0.8,0.1l-0.5-4.7l-5.7,0.5l0.5,4.7l-0.8,0.1l-1-9.9l0.8-0.1l0.4,4.5l5.7-0.5l-0.4-4.5
			l0.8-0.1L2341.6,1295.4z"/>
		<path class="st0" d="M2344.4,1289.4l2.5-0.2c0.7-0.1,1.3,0,1.8,0.2c0.5,0.2,0.9,0.5,1.2,0.9c0.3,0.4,0.5,0.9,0.5,1.4
			c0.1,0.9-0.1,1.6-0.7,2.2c-0.5,0.6-1.3,0.9-2.4,1l-3.3,0.3l-1-9.9l0.8-0.1L2344.4,1289.4z M2344.5,1290.1l0.4,4.2l2.4-0.2
			c0.8-0.1,1.3-0.3,1.7-0.7c0.4-0.4,0.6-1,0.5-1.6c-0.1-0.6-0.3-1.1-0.8-1.4s-1.1-0.5-1.8-0.4L2344.5,1290.1z M2353.2,1294.2
			l-0.8,0.1l-1-9.9l0.8-0.1L2353.2,1294.2z"/>
		<path class="st0" d="M2360.8,1288.7l-4.6,0.5l0.4,4l5.3-0.5l0.1,0.7l-6.2,0.6l-1-9.9l6.1-0.6l0.1,0.7l-5.3,0.5l0.4,3.7l4.6-0.5
			L2360.8,1288.7z"/>
		<path class="st0" d="M2373.8,1289.1c0,1.1-0.3,1.9-0.9,2.5c-0.6,0.6-1.4,1-2.4,1.1c-0.7,0.1-1.4,0-2-0.4c-0.6-0.3-1.1-0.8-1.5-1.4
			s-0.6-1.4-0.7-2.3l-0.1-1.3c-0.1-0.9,0-1.7,0.2-2.4c0.2-0.7,0.6-1.3,1.2-1.7c0.5-0.4,1.2-0.7,1.9-0.7c1.1-0.1,1.9,0.1,2.6,0.6
			c0.7,0.5,1.1,1.3,1.3,2.3l-0.8,0.1c-0.4-1.7-1.4-2.4-3-2.3c-0.9,0.1-1.6,0.5-2,1.2s-0.6,1.7-0.5,2.9l0.1,1.2c0.1,1.1,0.5,2,1,2.7
			c0.6,0.6,1.3,0.9,2.2,0.8c0.9-0.1,1.5-0.4,1.9-0.8c0.4-0.5,0.6-1.1,0.6-2L2373.8,1289.1z"/>
		<path class="st0" d="M2381.2,1286.7l-4.6,0.5l0.4,4l5.3-0.5l0.1,0.7l-6.2,0.6l-1-9.9l6.1-0.6l0.1,0.7l-5.3,0.5l0.4,3.7l4.6-0.5
			L2381.2,1286.7z"/>
		<path class="st0" d="M2390.8,1287.5c0,1.1-0.3,1.9-0.9,2.5c-0.6,0.6-1.4,1-2.4,1.1c-0.7,0.1-1.4,0-2-0.4c-0.6-0.3-1.1-0.8-1.5-1.4
			s-0.6-1.4-0.7-2.3l-0.1-1.3c-0.1-0.9,0-1.7,0.2-2.4c0.2-0.7,0.6-1.3,1.2-1.7c0.5-0.4,1.2-0.7,1.9-0.7c1.1-0.1,1.9,0.1,2.6,0.6
			c0.7,0.5,1.1,1.3,1.3,2.3l-0.8,0.1c-0.4-1.7-1.4-2.4-3-2.3c-0.9,0.1-1.6,0.5-2,1.2s-0.6,1.7-0.5,2.9l0.1,1.2c0.1,1.1,0.5,2,1,2.7
			s1.3,0.9,2.2,0.8c0.9-0.1,1.5-0.4,1.9-0.8c0.4-0.5,0.6-1.1,0.6-2L2390.8,1287.5z"/>
		<path class="st0" d="M2399.9,1286.6c0,1.1-0.3,1.9-0.9,2.5c-0.6,0.6-1.4,1-2.4,1.1c-0.7,0.1-1.4,0-2-0.4c-0.6-0.3-1.1-0.8-1.5-1.4
			s-0.6-1.4-0.7-2.3l-0.1-1.3c-0.1-0.9,0-1.7,0.2-2.4c0.2-0.7,0.6-1.3,1.2-1.7c0.5-0.4,1.2-0.7,1.9-0.7c1.1-0.1,1.9,0.1,2.6,0.6
			c0.7,0.5,1.1,1.3,1.3,2.3l-0.8,0.1c-0.4-1.7-1.4-2.4-3-2.3c-0.9,0.1-1.6,0.5-2,1.2s-0.6,1.7-0.5,2.9l0.1,1.2c0.1,1.1,0.5,2,1,2.7
			s1.3,0.9,2.2,0.8c0.9-0.1,1.5-0.4,1.9-0.8c0.4-0.5,0.6-1.1,0.6-2L2399.9,1286.6z"/>
		<path class="st0" d="M2407.7,1278.9l0.8-0.1l1,9.9l-0.8,0.1l-0.8-8.5l-4.8,9l-0.8,0.1l-1-9.9l0.8-0.1l0.8,8.5L2407.7,1278.9z"/>
		<path class="st0" d="M2417.7,1278l0.8-0.1l1,9.9l-0.8,0.1l-0.8-8.5l-4.8,9l-0.8,0.1l-1-9.9l0.8-0.1l0.8,8.5L2417.7,1278z"/>
	</g>
	<g>
		<path class="st0" d="M2284.7,1329.8l4.1,8.6l3.2-9l1.1-0.1l0.5,9.9l-0.8,0l-0.2-4.3l-0.2-4.4l-3.2,9l-0.6,0l-4.2-8.5l0.3,4.4
			l0.2,4.4l-0.8,0l-0.5-9.9L2284.7,1329.8z"/>
		<path class="st0" d="M2301.5,1336.1l-4.5,0.2l-0.9,2.8l-0.9,0l3.2-10.1l0.8,0l4.3,9.7l-0.9,0L2301.5,1336.1z M2297.2,1335.6l4-0.2
			l-2.3-5.3L2297.2,1335.6z"/>
		<path class="st0" d="M2311.9,1335.2c-0.1,1.1-0.4,1.9-1,2.5s-1.4,0.9-2.5,1c-0.7,0-1.4-0.1-2-0.4c-0.6-0.3-1.1-0.8-1.4-1.5
			s-0.5-1.4-0.6-2.3l-0.1-1.3c0-0.9,0.1-1.7,0.3-2.4c0.3-0.7,0.7-1.2,1.3-1.7c0.6-0.4,1.2-0.6,2-0.7c1.1-0.1,1.9,0.2,2.6,0.7
			c0.6,0.5,1,1.3,1.2,2.3l-0.8,0c-0.3-1.7-1.3-2.5-2.9-2.4c-0.9,0-1.6,0.4-2.1,1.1c-0.5,0.7-0.7,1.6-0.7,2.8l0.1,1.2
			c0.1,1.1,0.4,2,0.9,2.7s1.3,1,2.2,0.9c0.9,0,1.5-0.3,2-0.7c0.4-0.4,0.7-1.1,0.7-1.9L2311.9,1335.2z"/>
		<path class="st0" d="M2320.1,1328.6l-3.4,0.2l0.5,9.2l-0.8,0l-0.5-9.2l-3.4,0.2l0-0.7l7.6-0.4L2320.1,1328.6z"/>
		<path class="st0" d="M2327.5,1332.7l-4.6,0.2l0.2,4.1l5.3-0.3l0,0.7l-6.2,0.3l-0.5-9.9l6.2-0.3l0,0.7l-5.3,0.3l0.2,3.8l4.6-0.2
			L2327.5,1332.7z"/>
		<path class="st0" d="M2330.8,1333.3l0.2,4l-0.8,0l-0.5-9.9l3.4-0.2c1-0.1,1.9,0.2,2.5,0.7c0.6,0.5,1,1.2,1,2.1
			c0,0.9-0.2,1.7-0.7,2.2s-1.4,0.8-2.5,0.9L2330.8,1333.3z M2330.8,1332.6l2.5-0.1c0.8,0,1.4-0.3,1.8-0.7c0.4-0.4,0.6-1,0.6-1.7
			c0-0.7-0.3-1.2-0.7-1.6c-0.4-0.4-1.1-0.6-1.8-0.5l-2.6,0.1L2330.8,1332.6z"/>
		<path class="st0" d="M2340.9,1332.7l-3.3,0.2l0-0.7l3.3-0.2L2340.9,1332.7z"/>
		<path class="st0" d="M2344.8,1331.9l-1.4,0.1l0.2,4.7l-0.8,0l-0.5-9.9l0.8,0l0.2,4.6l1.3-0.1l3.6-4.8l1.1-0.1l-3.8,5.1l4.7,4.8
			l-1,0.1L2344.8,1331.9z"/>
		<path class="st0" d="M2358.5,1325.9l0.5,9.9l-0.8,0l-0.5-9.2l-4.2,0.2l0,4.1c0,1.5-0.1,2.6-0.2,3.2c-0.2,0.7-0.4,1.2-0.7,1.5
			c-0.3,0.3-0.8,0.5-1.4,0.5l-0.4,0l0-0.7l0.3,0c0.5,0,0.8-0.2,1-0.5c0.2-0.3,0.4-0.7,0.5-1.4c0.1-0.6,0.1-1.6,0.2-2.9v-4.6
			L2358.5,1325.9z"/>
		<path class="st0" d="M2366.9,1332.6l-4.5,0.2l-0.9,2.8l-0.9,0l3.2-10.1l0.8,0l4.3,9.7l-0.9,0L2366.9,1332.6z M2362.6,1332.1l4-0.2
			l-2.3-5.3L2362.6,1332.1z"/>
		<path class="st0" d="M2377.2,1331.8c-0.1,1.1-0.4,1.9-1,2.5s-1.4,0.9-2.5,1c-0.7,0-1.4-0.1-2-0.4c-0.6-0.3-1.1-0.8-1.4-1.5
			s-0.5-1.4-0.6-2.3l-0.1-1.3c0-0.9,0.1-1.7,0.3-2.4c0.3-0.7,0.7-1.2,1.3-1.7c0.6-0.4,1.2-0.6,2-0.7c1.1-0.1,1.9,0.2,2.6,0.7
			c0.6,0.5,1,1.3,1.2,2.3l-0.8,0c-0.3-1.7-1.3-2.5-2.9-2.4c-0.9,0-1.6,0.4-2.1,1.1c-0.5,0.7-0.7,1.6-0.7,2.8l0.1,1.2
			c0.1,1.1,0.4,2,0.9,2.7s1.3,1,2.2,0.9c0.9,0,1.5-0.3,2-0.7c0.4-0.4,0.7-1.1,0.7-1.9L2377.2,1331.8z"/>
		<path class="st0" d="M2386.3,1331.3c-0.1,1.1-0.4,1.9-1,2.5s-1.4,0.9-2.5,1c-0.7,0-1.4-0.1-2-0.4c-0.6-0.3-1.1-0.8-1.4-1.5
			s-0.5-1.4-0.6-2.3l-0.1-1.3c0-0.9,0.1-1.7,0.3-2.4c0.3-0.7,0.7-1.2,1.3-1.7c0.6-0.4,1.2-0.6,2-0.7c1.1-0.1,1.9,0.2,2.6,0.7
			c0.6,0.5,1,1.3,1.2,2.3l-0.8,0c-0.3-1.7-1.3-2.5-2.9-2.4c-0.9,0-1.6,0.4-2.1,1.1c-0.5,0.7-0.7,1.6-0.7,2.8l0.1,1.2
			c0.1,1.1,0.4,2,0.9,2.7s1.3,1,2.2,0.9c0.9,0,1.5-0.3,2-0.7c0.4-0.4,0.7-1.1,0.7-1.9L2386.3,1331.3z"/>
		<path class="st0" d="M2389.1,1328.6l2.5-0.1c0.7,0,1.3,0,1.8,0.2c0.5,0.2,0.9,0.5,1.2,0.9c0.3,0.4,0.4,0.9,0.5,1.5
			c0,0.9-0.2,1.6-0.8,2.1s-1.4,0.8-2.4,0.9l-3.3,0.2l-0.5-9.9l0.8,0L2389.1,1328.6z M2389.1,1329.3l0.2,4.2l2.5-0.1
			c0.8,0,1.4-0.3,1.8-0.7c0.4-0.4,0.6-0.9,0.6-1.6c0-0.6-0.3-1.1-0.7-1.5c-0.4-0.3-1-0.5-1.8-0.5L2389.1,1329.3z M2397.6,1333.8
			l-0.8,0l-0.5-9.9l0.8,0L2397.6,1333.8z"/>
	</g>
	<g>
		<path class="st0" d="M2285.6,1378.5l-0.1-10l2.9,0c1.1,0,1.9,0.2,2.4,0.6c0.6,0.4,0.8,1.1,0.8,1.9c0,0.5-0.1,1-0.4,1.3
			c-0.3,0.4-0.7,0.7-1.1,0.8c0.6,0.1,1,0.4,1.4,0.8s0.5,0.9,0.5,1.5c0,0.9-0.3,1.6-0.8,2.1c-0.6,0.5-1.3,0.8-2.4,0.8L2285.6,1378.5z
			 M2286.4,1373l2.3,0c0.7,0,1.2-0.2,1.6-0.5c0.4-0.3,0.6-0.8,0.6-1.4c0-0.6-0.2-1.1-0.6-1.4c-0.4-0.3-1-0.4-1.8-0.4l-2.1,0
			L2286.4,1373z M2286.4,1373.7l0,4.1l2.5,0c0.7,0,1.3-0.2,1.7-0.6s0.6-0.9,0.6-1.5c0-0.6-0.2-1.1-0.6-1.5c-0.4-0.4-1-0.5-1.7-0.5
			L2286.4,1373.7z"/>
		<path class="st0" d="M2301.5,1373.9c0,0.9-0.1,1.7-0.5,2.4c-0.3,0.7-0.8,1.2-1.3,1.6c-0.6,0.4-1.3,0.6-2,0.6
			c-1.2,0-2.1-0.4-2.8-1.2c-0.7-0.8-1.1-1.9-1.1-3.4l0-1c0-0.9,0.1-1.7,0.5-2.4c0.3-0.7,0.8-1.2,1.3-1.6c0.6-0.4,1.3-0.6,2-0.6
			c0.8,0,1.4,0.2,2,0.5c0.6,0.4,1,0.9,1.4,1.6c0.3,0.7,0.5,1.5,0.5,2.3L2301.5,1373.9z M2300.6,1372.9c0-1.2-0.3-2.1-0.8-2.8
			s-1.3-1-2.2-1c-0.9,0-1.7,0.4-2.2,1c-0.5,0.7-0.8,1.6-0.8,2.9l0,1c0,1.2,0.3,2.1,0.8,2.8s1.3,1,2.2,1c1,0,1.7-0.4,2.2-1
			c0.5-0.7,0.8-1.6,0.8-2.9L2300.6,1372.9z"/>
		<path class="st0" d="M2304.5,1374.3l0,4.1l-0.8,0l-0.1-10l3.4,0c1,0,1.9,0.2,2.5,0.8c0.6,0.5,0.9,1.2,0.9,2.2
			c0,0.9-0.3,1.7-0.8,2.2s-1.4,0.8-2.5,0.8L2304.5,1374.3z M2304.5,1373.6l2.5,0c0.8,0,1.4-0.2,1.9-0.6c0.4-0.4,0.6-0.9,0.6-1.6
			c0-0.7-0.2-1.2-0.7-1.6s-1-0.6-1.8-0.6l-2.6,0L2304.5,1373.6z"/>
		<path class="st0" d="M2314.5,1373.6l-1.4,0l0,4.7l-0.8,0l-0.1-10l0.8,0l0,4.6l1.3,0l3.8-4.6l1.1,0l-4,4.9l4.4,5l-1,0
			L2314.5,1373.6z"/>
		<path class="st0" d="M2322,1368.2l0.1,9.2l4,0l-0.1-9.2l0.8,0l0.1,9.2l4,0l-0.1-9.2l0.8,0l0.1,10l-10.5,0.1l-0.1-10L2322,1368.2z"
			/>
		<path class="st0" d="M2341.5,1373.5c0,0.9-0.1,1.7-0.5,2.4c-0.3,0.7-0.8,1.2-1.3,1.6c-0.6,0.4-1.3,0.6-2,0.6
			c-1.2,0-2.1-0.4-2.8-1.2c-0.7-0.8-1.1-1.9-1.1-3.4l0-1c0-0.9,0.1-1.7,0.5-2.4c0.3-0.7,0.8-1.2,1.3-1.6c0.6-0.4,1.3-0.6,2-0.6
			c0.8,0,1.4,0.2,2,0.5c0.6,0.4,1,0.9,1.4,1.6c0.3,0.7,0.5,1.5,0.5,2.3L2341.5,1373.5z M2340.7,1372.5c0-1.2-0.3-2.1-0.8-2.8
			s-1.3-1-2.2-1c-0.9,0-1.7,0.4-2.2,1s-0.8,1.6-0.8,2.9l0,1c0,1.2,0.3,2.1,0.8,2.8s1.3,1,2.2,1c1,0,1.7-0.4,2.2-1
			c0.5-0.7,0.8-1.6,0.8-2.9L2340.7,1372.5z"/>
		<path class="st0" d="M2351,1377.9l-0.8,0l-0.1-9.2l-5.6,0.1l0.1,9.2l-0.8,0l-0.1-10l7.3-0.1L2351,1377.9z"/>
		<path class="st0" d="M2354.4,1372.2l2.5,0c0.7,0,1.3,0.1,1.8,0.3s0.9,0.5,1.1,1c0.3,0.4,0.4,0.9,0.4,1.5c0,0.9-0.3,1.6-0.9,2.1
			c-0.6,0.5-1.4,0.8-2.4,0.8l-3.3,0l-0.1-10l0.8,0L2354.4,1372.2z M2354.4,1372.9l0,4.2l2.5,0c0.8,0,1.4-0.2,1.8-0.6
			c0.4-0.4,0.6-0.9,0.6-1.6c0-0.6-0.2-1.1-0.6-1.5s-1-0.6-1.8-0.6L2354.4,1372.9z M2362.7,1377.8l-0.8,0l-0.1-10l0.8,0
			L2362.7,1377.8z"/>
	</g>
	<g>
		<path class="st0" d="M2290.1,1407.4l-0.3,9.9l-0.8,0l0.3-9.2l-4.2-0.1l-0.4,4.1c-0.1,1.5-0.3,2.5-0.5,3.2
			c-0.2,0.7-0.5,1.1-0.9,1.4c-0.4,0.3-0.8,0.4-1.4,0.4l-0.4,0l0-0.7l0.3,0c0.5,0,0.8-0.1,1.1-0.4c0.2-0.3,0.4-0.7,0.6-1.3
			s0.3-1.6,0.4-2.8l0.4-4.6L2290.1,1407.4z"/>
		<path class="st0" d="M2298,1412.9l-4.7-0.2l-0.1,4.1l5.3,0.2l0,0.7l-6.2-0.2l0.3-9.9l6.2,0.2l0,0.7l-5.3-0.2l-0.1,3.8l4.7,0.2
			L2298,1412.9z"/>
		<path class="st0" d="M2302.7,1413.2l-1.4,0l-0.2,4.7l-0.8,0l0.3-9.9l0.8,0l-0.2,4.6l1.3,0l4-4.4l1.1,0l-4.3,4.7l4.2,5.2l-1,0
			L2302.7,1413.2z"/>
		<path class="st0" d="M2309.5,1408.1l0.8,0l-0.3,9.2l5.6,0.2l0.3-9.2l0.8,0l-0.3,9.2l1,0l-0.2,3.1l-0.8,0l0.1-2.4l-7.5-0.3
			L2309.5,1408.1z"/>
		<path class="st0" d="M2326,1408.7l0.8,0l-0.3,9.9l-0.8,0l0.3-8.5l-6,8.3l-0.8,0l0.3-9.9l0.8,0l-0.3,8.5L2326,1408.7z"/>
		<path class="st0" d="M2336,1409l0.8,0l-0.3,9.9l-0.8,0l0.3-8.5l-6,8.3l-0.8,0l0.3-9.9l0.8,0l-0.3,8.5L2336,1409z"/>
	</g>
	<g>
		<path class="st0" d="M2288.2,1447l-3.4-0.3l-0.7,9.2l-0.8-0.1l0.7-9.2l-3.4-0.3l0.1-0.7l7.6,0.6L2288.2,1447z"/>
		<path class="st0" d="M2294.9,1452l-4.6-0.4l-0.3,4l5.3,0.4l-0.1,0.7l-6.2-0.5l0.8-9.9l6.1,0.5l-0.1,0.7l-5.3-0.4l-0.3,3.7l4.6,0.4
			L2294.9,1452z"/>
		<path class="st0" d="M2304.3,1454.4c-0.2,1-0.6,1.8-1.3,2.3c-0.7,0.5-1.5,0.7-2.6,0.6c-0.7-0.1-1.4-0.3-1.9-0.7s-0.9-1-1.2-1.7
			c-0.3-0.7-0.4-1.5-0.3-2.3l0.1-1.3c0.1-0.9,0.3-1.7,0.6-2.3c0.4-0.7,0.8-1.1,1.5-1.5s1.3-0.5,2-0.4c1.1,0.1,1.9,0.4,2.5,1.1
			c0.6,0.6,0.9,1.4,0.9,2.5l-0.8-0.1c-0.1-1.7-0.9-2.6-2.5-2.7c-0.9-0.1-1.6,0.2-2.2,0.8c-0.6,0.6-0.9,1.5-1,2.7l-0.1,1.2
			c-0.1,1.1,0.1,2.1,0.6,2.8s1.1,1.1,2,1.2c0.9,0.1,1.6-0.1,2-0.5c0.5-0.4,0.8-1,1-1.8L2304.3,1454.4z"/>
		<path class="st0" d="M2313.3,1449l-3.4-0.3l-0.7,9.2l-0.8-0.1l0.7-9.2l-3.4-0.3l0.1-0.7l7.6,0.6L2313.3,1449z"/>
		<path class="st0" d="M2315.5,1452.8l2.5,0.2c0.7,0.1,1.3,0.2,1.7,0.5s0.8,0.6,1.1,1.1s0.3,0.9,0.3,1.5c-0.1,0.9-0.4,1.5-1,2
			c-0.6,0.5-1.5,0.6-2.5,0.6l-3.3-0.3l0.8-9.9l0.8,0.1L2315.5,1452.8z M2315.5,1453.5l-0.3,4.2l2.5,0.2c0.8,0.1,1.4-0.1,1.8-0.4
			c0.5-0.3,0.7-0.8,0.8-1.5c0-0.6-0.1-1.1-0.5-1.5c-0.4-0.4-1-0.6-1.7-0.7L2315.5,1453.5z M2323.3,1459l-0.8-0.1l0.8-9.9l0.8,0.1
			L2323.3,1459z"/>
	</g>
	<g>
		<path class="st0" d="M2282.5,1484.8l0.8,0.1l-1.2,9.9l-0.8-0.1l1-8.5l-6.7,7.8l-0.8-0.1l1.2-9.9l0.8,0.1l-1,8.4L2282.5,1484.8z"/>
		<path class="st0" d="M2291.7,1486.7l-5.1-0.6l-1.1,9.2l-0.8-0.1l1.2-9.9l6,0.7L2291.7,1486.7z"/>
		<path class="st0" d="M2293.6,1492.1l-0.5,4l-0.8-0.1l1.2-9.9l3.4,0.4c1,0.1,1.8,0.5,2.3,1.1c0.5,0.6,0.7,1.4,0.6,2.3
			c-0.1,0.9-0.5,1.6-1.1,2s-1.5,0.6-2.6,0.5L2293.6,1492.1z M2293.7,1491.4l2.5,0.3c0.8,0.1,1.5,0,1.9-0.4c0.5-0.3,0.8-0.8,0.8-1.5
			c0.1-0.7-0.1-1.3-0.4-1.7c-0.4-0.5-0.9-0.7-1.7-0.8l-2.6-0.3L2293.7,1491.4z"/>
		<path class="st0" d="M2308.7,1493.6c-0.1,0.9-0.4,1.7-0.8,2.3s-0.9,1.1-1.5,1.4c-0.6,0.3-1.3,0.4-2.1,0.3c-1.2-0.1-2-0.7-2.6-1.6
			s-0.8-2.1-0.7-3.5l0.1-1c0.1-0.9,0.4-1.7,0.8-2.3c0.4-0.7,0.9-1.1,1.5-1.4c0.6-0.3,1.3-0.4,2.1-0.3c0.8,0.1,1.4,0.4,1.9,0.8
			c0.5,0.4,0.9,1,1.2,1.7s0.3,1.5,0.2,2.4L2308.7,1493.6z M2308,1492.4c0.1-1.2,0-2.2-0.5-2.9c-0.5-0.7-1.2-1.2-2.1-1.3
			c-0.9-0.1-1.7,0.1-2.3,0.7c-0.6,0.6-1,1.5-1.2,2.7l-0.1,1c-0.1,1.2,0,2.1,0.5,2.9c0.5,0.8,1.2,1.2,2.1,1.3
			c0.9,0.1,1.7-0.1,2.3-0.7c0.6-0.6,1-1.5,1.1-2.7L2308,1492.4z"/>
		<path class="st0" d="M2317.6,1499.1l-0.8-0.1l1.1-9.2l-5.6-0.7l-1.1,9.2l-0.8-0.1l1.2-9.9l7.3,0.9L2317.6,1499.1z"/>
		<path class="st0" d="M2321.4,1495.5l-0.5,4l-0.8-0.1l1.2-9.9l3.4,0.4c1,0.1,1.8,0.5,2.3,1.1c0.5,0.6,0.7,1.4,0.6,2.3
			c-0.1,0.9-0.5,1.6-1.1,2s-1.5,0.6-2.6,0.5L2321.4,1495.5z M2321.5,1494.8l2.5,0.3c0.8,0.1,1.5,0,1.9-0.4c0.5-0.3,0.8-0.8,0.8-1.5
			c0.1-0.7-0.1-1.3-0.4-1.7c-0.4-0.5-0.9-0.7-1.7-0.8l-2.6-0.3L2321.5,1494.8z"/>
		<path class="st0" d="M2333.4,1498.2l-4.5-0.5l-1.4,2.7l-0.9-0.1l4.9-9.4l0.8,0.1l2.5,10.3l-0.9-0.1L2333.4,1498.2z M2329.3,1497
			l4,0.5l-1.3-5.6L2329.3,1497z"/>
		<path class="st0" d="M2339.2,1497l-1.4-0.2l-0.6,4.6l-0.8-0.1l1.2-9.9l0.8,0.1l-0.6,4.5l1.3,0.2l4.4-4.1l1.1,0.1l-4.7,4.4l3.7,5.6
			l-1-0.1L2339.2,1497z"/>
		<path class="st0" d="M2353.1,1494.1l-3.4-0.4l-1.1,9.2l-0.8-0.1l1.1-9.2l-3.4-0.4l0.1-0.7l7.6,0.9L2353.1,1494.1z"/>
		<path class="st0" d="M2361.3,1494.4l0.8,0.1l-1.2,9.9l-0.8-0.1l1-8.5l-6.7,7.8l-0.8-0.1l1.2-9.9l0.8,0.1l-1,8.4L2361.3,1494.4z"/>
		<path class="st0" d="M2366.3,1500.4l-1.4-0.2l-0.6,4.6l-0.8-0.1l1.2-9.9l0.8,0.1l-0.6,4.5l1.3,0.2l4.4-4.1l1.1,0.1l-4.7,4.4
			l3.7,5.6l-1-0.1L2366.3,1500.4z"/>
		<path class="st0" d="M2380.1,1496.7l0.8,0.1l-1.2,9.9l-0.8-0.1l1-8.5l-6.7,7.8l-0.8-0.1l1.2-9.9l0.8,0.1l-1,8.4L2380.1,1496.7z"/>
	</g>
	<path class="st1" d="M1401.4,2262c-25.4,0-50.9-1.1-76.5-3.4c-115.9-10.1-226.4-42.7-328.4-96.7
		c-98.5-52.2-184.9-122.1-256.9-207.9c-72-85.8-125.8-183-160.1-289.1c-35.5-109.8-48.4-224.2-38.2-340.2
		c10.1-115.9,42.7-226.4,96.7-328.4c52.2-98.5,122.1-184.9,207.9-256.9c85.8-72,183-125.8,289.1-160.1
		c109.8-35.5,224.2-48.4,340.2-38.2c115.9,10.1,226.4,42.7,328.4,96.7c98.5,52.2,184.9,122.1,256.9,207.9
		c72,85.8,125.8,183,160.1,289.1c35.5,109.8,48.4,224.2,38.2,340.2c-10.1,115.9-42.7,226.4-96.7,328.4
		c-52.2,98.5-122.1,184.9-207.9,256.9c-85.8,72-183,125.8-289.1,160.1C1579.5,2248,1491.1,2262,1401.4,2262z M1398.6,552.8
		c-88.1,0-175,13.7-259,40.9c-104.2,33.7-199.8,86.7-284,157.4c-84.3,70.7-153,155.6-204.3,252.4c-53.1,100.2-85.1,208.7-95,322.6
		c-10,113.9,2.7,226.4,37.6,334.2c33.7,104.2,86.7,199.8,157.4,284s155.6,153,252.4,204.3c100.2,53.1,208.7,85.1,322.6,95
		c113.9,10,226.4-2.7,334.2-37.6c104.2-33.7,199.8-86.7,284-157.4c84.3-70.7,153-155.6,204.3-252.4c53.1-100.2,85.1-208.7,95-322.6
		l7.5,0.7l-7.5-0.7c10-113.9-2.7-226.4-37.6-334.2c-33.7-104.2-86.7-199.8-157.4-284c-70.7-84.3-155.6-153-252.4-204.3
		c-100.2-53.1-208.7-85.1-322.6-95C1448.7,553.9,1423.6,552.8,1398.6,552.8z"/>
	<g>
		<path class="st0" d="M2280.7,1530.8c-0.3,1-0.8,1.7-1.5,2.2c-0.7,0.4-1.6,0.6-2.6,0.4c-0.7-0.1-1.3-0.4-1.8-0.9s-0.8-1-1-1.8
			s-0.2-1.5-0.1-2.4l0.2-1.3c0.1-0.9,0.4-1.6,0.8-2.2c0.4-0.6,0.9-1.1,1.6-1.3c0.6-0.3,1.3-0.3,2.1-0.2c1.1,0.2,1.8,0.6,2.4,1.3
			s0.7,1.5,0.7,2.5l-0.8-0.1c0.1-1.7-0.7-2.7-2.3-3c-0.9-0.1-1.7,0.1-2.3,0.6c-0.6,0.6-1.1,1.5-1.3,2.6l-0.2,1.2
			c-0.2,1.1-0.1,2.1,0.3,2.8c0.4,0.8,1,1.2,1.9,1.4c0.9,0.1,1.6,0,2.1-0.3c0.5-0.3,0.9-0.9,1.1-1.7L2280.7,1530.8z"/>
		<path class="st0" d="M2289.4,1535.4l-0.8-0.1l1.5-9.1l-5.6-0.9l-1.5,9.1l-0.8-0.1l1.6-9.8l7.2,1.2L2289.4,1535.4z"/>
		<path class="st0" d="M2299.9,1532.7c-0.2,0.9-0.4,1.7-0.9,2.3c-0.4,0.6-1,1.1-1.6,1.4c-0.6,0.3-1.3,0.3-2.1,0.2
			c-1.1-0.2-2-0.8-2.6-1.7c-0.6-0.9-0.7-2.1-0.5-3.5l0.2-1c0.1-0.9,0.4-1.7,0.9-2.3c0.4-0.6,1-1.1,1.6-1.4c0.6-0.3,1.3-0.3,2.1-0.2
			c0.8,0.1,1.4,0.4,1.9,0.9c0.5,0.5,0.9,1,1.1,1.8c0.2,0.7,0.2,1.5,0.1,2.4L2299.9,1532.7z M2299.3,1531.4c0.2-1.2,0.1-2.2-0.3-2.9
			c-0.4-0.8-1.1-1.2-2-1.4c-0.9-0.2-1.7,0.1-2.3,0.6c-0.7,0.6-1.1,1.5-1.3,2.7l-0.2,1c-0.2,1.2-0.1,2.1,0.3,2.9
			c0.4,0.8,1.1,1.2,2,1.4c0.9,0.2,1.7-0.1,2.4-0.6c0.6-0.6,1.1-1.5,1.3-2.7L2299.3,1531.4z"/>
		<path class="st0" d="M2302.8,1533.5l-0.7,4l-0.8-0.1l1.6-9.8l3.3,0.6c1,0.2,1.8,0.6,2.3,1.2c0.5,0.6,0.7,1.4,0.5,2.3
			c-0.2,0.9-0.6,1.6-1.2,2c-0.7,0.4-1.5,0.5-2.6,0.3L2302.8,1533.5z M2303,1532.8l2.5,0.4c0.8,0.1,1.5,0,1.9-0.3
			c0.5-0.3,0.8-0.8,0.9-1.5c0.1-0.7,0-1.3-0.4-1.7c-0.4-0.5-0.9-0.8-1.7-0.9l-2.6-0.4L2303,1532.8z"/>
		<path class="st0" d="M2318,1530.8l-3.4-0.6l-1.5,9.1l-0.8-0.1l1.5-9.1l-3.4-0.6l0.1-0.7l7.6,1.3L2318,1530.8z"/>
	</g>
</g>
</svg>
