<?xml version="1.0" encoding="utf-8"?>
<!-- Generator: Adobe Illustrator 22.0.1, SVG Export Plug-In . SVG Version: 6.00 Build 0)  -->
<svg version="1.1" id="Layer_1" xmlns="http://www.w3.org/2000/svg" xmlns:xlink="http://www.w3.org/1999/xlink" x="0px" y="0px"
	 viewBox="0 0 2800 2800" style="enable-background:new 0 0 2800 2800;" xml:space="preserve">
<style type="text/css">
	.st0{fill:#ED1C24;}
</style>
<g>
	<g>
		<path d="M1998.9,1548.2l-0.7-0.2l1.9-7.2l-4.4-1.1l-1.9,7.2l-0.7-0.2l2-7.8l5.7,1.5L1998.9,1548.2z"/>
		<path d="M2002.4,1545.7l-0.8,3.2l-0.7-0.2l2-7.8l2.6,0.7c0.8,0.2,1.4,0.6,1.8,1.1c0.4,0.5,0.5,1.2,0.3,1.9
			c-0.2,0.7-0.6,1.2-1.1,1.5c-0.6,0.3-1.3,0.3-2.1,0.1L2002.4,1545.7z M2002.5,1545.1l2,0.5c0.6,0.2,1.2,0.1,1.6-0.1
			s0.7-0.6,0.8-1.1c0.1-0.5,0.1-1-0.2-1.4s-0.7-0.7-1.3-0.9l-2-0.5L2002.5,1545.1z"/>
		<path d="M2012.9,1547.8l-3.6-0.9l-0.8,3.2l4.2,1.1l-0.1,0.6l-4.8-1.2l2-7.8l4.8,1.2l-0.1,0.6l-4.2-1.1l-0.8,2.9l3.6,0.9
			L2012.9,1547.8z"/>
		<path d="M2019.8,1553l0.8,0.2l-0.6,2.4l-0.7-0.2l0.5-1.9l-5.9-1.5l-0.5,1.9l-0.7-0.2l0.6-2.4l0.5,0.1c0.5-0.3,1-0.8,1.4-1.6
			s0.8-1.6,1.1-2.5l0.9-2.8l4.3,1.1L2019.8,1553z M2014.7,1551.6l4.4,1.1l1.7-6.7l-3-0.8l-0.7,2.2c-0.3,0.9-0.6,1.7-1.1,2.5
			C2015.6,1550.7,2015.2,1551.3,2014.7,1551.6z"/>
		<path d="M2027.8,1553c-0.3,0.8-0.8,1.3-1.4,1.7c-0.6,0.3-1.3,0.4-2.2,0.1c-0.6-0.1-1.1-0.4-1.4-0.8c-0.4-0.4-0.6-0.9-0.7-1.5
			c-0.1-0.6-0.1-1.2,0.1-1.9l0.3-1c0.2-0.7,0.5-1.3,0.8-1.7s0.8-0.8,1.4-1c0.5-0.2,1.1-0.2,1.7,0c0.8,0.2,1.4,0.6,1.8,1.2
			c0.4,0.6,0.5,1.3,0.4,2.1l-0.7-0.2c0.2-1.4-0.4-2.2-1.6-2.5c-0.7-0.2-1.3-0.1-1.9,0.4c-0.6,0.4-1,1.1-1.2,2l-0.2,1
			c-0.2,0.9-0.2,1.7,0.1,2.3c0.3,0.6,0.8,1,1.4,1.2c0.7,0.2,1.2,0.1,1.7-0.1c0.4-0.2,0.8-0.7,1-1.3L2027.8,1553z"/>
		<path d="M2035.8,1550l-2.7-0.7l-1.9,7.2l-0.7-0.2l1.9-7.2l-2.7-0.7l0.1-0.6l6,1.5L2035.8,1550z"/>
		<path d="M2039.5,1556.3l-3.5-0.9l-1.4,2l-0.7-0.2l4.9-7l0.6,0.2l0.9,8.5l-0.7-0.2L2039.5,1556.3z M2036.3,1554.9l3.1,0.8l-0.5-4.6
			L2036.3,1554.9z"/>
		<path d="M2041.6,1559.2l2-7.8l2.3,0.6c0.8,0.2,1.4,0.5,1.8,1c0.3,0.5,0.4,1,0.3,1.7c-0.1,0.4-0.3,0.7-0.6,1s-0.7,0.4-1.1,0.4
			c0.4,0.2,0.7,0.5,0.9,0.9c0.2,0.4,0.2,0.9,0.1,1.3c-0.2,0.7-0.5,1.2-1.1,1.4c-0.5,0.3-1.2,0.3-2,0.1L2041.6,1559.2z
			 M2043.2,1555.6l-0.8,3.2l2,0.5c0.6,0.1,1,0.1,1.4-0.1s0.7-0.6,0.8-1.1c0.1-0.5,0.1-0.9-0.2-1.3s-0.6-0.6-1.2-0.8L2043.2,1555.6z
			 M2043.3,1555l1.8,0.5c0.6,0.1,1,0.1,1.4-0.1c0.4-0.2,0.6-0.5,0.7-1c0.1-0.5,0.1-0.9-0.2-1.2c-0.3-0.3-0.7-0.6-1.3-0.7l-1.6-0.4
			L2043.3,1555z"/>
		<path d="M2055.4,1554.4l0.7,0.2l-2,7.8l-0.7-0.2l1.7-6.7l-6.1,5.5l-0.7-0.2l2-7.8l0.7,0.2l-1.7,6.7L2055.4,1554.4z"/>
		<path d="M2063,1557l-2.7-0.7l-1.9,7.2l-0.7-0.2l1.9-7.2l-2.7-0.7l0.1-0.6l6,1.5L2063,1557z"/>
		<path d="M2067.7,1561.9l-3.6-0.9l-0.8,3.2l4.2,1.1l-0.1,0.6l-4.8-1.2l2-7.8l4.8,1.2l-0.1,0.6l-4.2-1.1l-0.8,2.9l3.6,0.9
			L2067.7,1561.9z"/>
		<path d="M2076.4,1559.8l-2,7.8l-0.7-0.2l1.9-7.2l-3.3-0.8l-1,3.2c-0.4,1.1-0.7,1.9-1,2.4c-0.3,0.5-0.6,0.8-0.9,1
			c-0.3,0.2-0.7,0.2-1.2,0.1l-0.3-0.1l0.1-0.5l0.2,0c0.4,0.1,0.7,0,0.9-0.1c0.2-0.2,0.5-0.5,0.7-0.9c0.2-0.5,0.5-1.2,0.8-2.2
			l1.1-3.6L2076.4,1559.8z"/>
		<path d="M2083.5,1561.7l0.7,0.2l-2,7.8l-0.7-0.2l1.7-6.7l-6.1,5.5l-0.7-0.2l2-7.8l0.7,0.2l-1.7,6.7L2083.5,1561.7z"/>
		<path d="M2093.3,1564.8l-4-1l-1.9,7.2l-0.7-0.2l2-7.8l4.7,1.2L2093.3,1564.8z"/>
		<path d="M2099.1,1570.3c-0.2,0.7-0.5,1.3-0.9,1.8c-0.4,0.5-0.8,0.8-1.4,1c-0.5,0.2-1.1,0.2-1.7,0c-0.9-0.2-1.6-0.7-2-1.5
			c-0.4-0.8-0.4-1.7-0.2-2.8l0.2-0.8c0.2-0.7,0.5-1.3,0.9-1.8c0.4-0.5,0.9-0.8,1.4-1s1.1-0.2,1.7,0c0.6,0.2,1.1,0.4,1.5,0.8
			c0.4,0.4,0.6,0.9,0.7,1.5c0.1,0.6,0.1,1.2-0.1,1.9L2099.1,1570.3z M2098.7,1569.3c0.2-0.9,0.2-1.7-0.1-2.4
			c-0.3-0.6-0.8-1.1-1.5-1.2c-0.7-0.2-1.4-0.1-1.9,0.4s-1,1.1-1.2,2.1l-0.2,0.8c-0.2,0.9-0.2,1.7,0.1,2.4c0.3,0.6,0.8,1.1,1.5,1.3
			c0.7,0.2,1.4,0.1,1.9-0.4c0.6-0.4,1-1.1,1.2-2.1L2098.7,1569.3z"/>
		<path d="M2106,1573.2c-0.3,0.8-0.8,1.3-1.4,1.7c-0.6,0.3-1.3,0.4-2.2,0.1c-0.6-0.1-1.1-0.4-1.4-0.8c-0.4-0.4-0.6-0.9-0.7-1.5
			c-0.1-0.6-0.1-1.2,0.1-1.9l0.3-1c0.2-0.7,0.5-1.3,0.8-1.7s0.8-0.8,1.4-1c0.5-0.2,1.1-0.2,1.7,0c0.8,0.2,1.4,0.6,1.8,1.2
			c0.4,0.6,0.5,1.3,0.4,2.1l-0.7-0.2c0.2-1.4-0.4-2.2-1.6-2.5c-0.7-0.2-1.3-0.1-1.9,0.4c-0.6,0.4-1,1.1-1.2,2l-0.2,1
			c-0.2,0.9-0.2,1.7,0.1,2.3c0.3,0.6,0.8,1,1.4,1.2c0.7,0.2,1.2,0.1,1.7-0.1c0.4-0.2,0.8-0.7,1-1.3L2106,1573.2z"/>
		<path d="M2109.7,1572.8l-1.1-0.3l-0.9,3.7l-0.7-0.2l2-7.8l0.7,0.2l-0.9,3.6l1,0.3l3.9-2.8l0.8,0.2l-4.2,3l2.4,4.8l-0.8-0.2
			L2109.7,1572.8z"/>
		<path d="M2120.4,1575.8c-0.2,0.7-0.5,1.3-0.9,1.8c-0.4,0.5-0.8,0.8-1.4,1c-0.5,0.2-1.1,0.2-1.7,0c-0.9-0.2-1.6-0.7-2-1.5
			c-0.4-0.8-0.4-1.7-0.2-2.8l0.2-0.8c0.2-0.7,0.5-1.3,0.9-1.8c0.4-0.5,0.9-0.8,1.4-1s1.1-0.2,1.7,0c0.6,0.2,1.1,0.4,1.5,0.8
			c0.4,0.4,0.6,0.9,0.7,1.5c0.1,0.6,0.1,1.2-0.1,1.9L2120.4,1575.8z M2120,1574.8c0.2-0.9,0.2-1.7-0.1-2.4c-0.3-0.6-0.8-1.1-1.5-1.2
			c-0.7-0.2-1.4-0.1-1.9,0.4s-1,1.1-1.2,2.1l-0.2,0.8c-0.2,0.9-0.2,1.7,0.1,2.4c0.3,0.6,0.8,1.1,1.5,1.3c0.7,0.2,1.4,0.1,1.9-0.4
			c0.6-0.4,1-1.1,1.2-2.1L2120,1574.8z"/>
		<path d="M2122.7,1576.7l-0.8,3.2l-0.7-0.2l2-7.8l2.6,0.7c0.8,0.2,1.4,0.6,1.8,1.1c0.4,0.5,0.5,1.2,0.3,1.9
			c-0.2,0.7-0.6,1.2-1.1,1.5c-0.6,0.3-1.3,0.3-2.1,0.1L2122.7,1576.7z M2122.8,1576.1l2,0.5c0.6,0.2,1.2,0.1,1.6-0.1
			s0.7-0.6,0.8-1.1c0.1-0.5,0.1-1-0.2-1.4s-0.7-0.7-1.3-0.9l-2-0.5L2122.8,1576.1z"/>
		<path d="M2133.7,1582.9l-0.7-0.2l1.9-7.2l-4.4-1.1l-1.9,7.2l-0.7-0.2l2-7.8l5.7,1.5L2133.7,1582.9z"/>
		<path d="M2142.4,1581.4c-0.2,0.7-0.5,1.3-0.9,1.8c-0.4,0.5-0.8,0.8-1.4,1c-0.5,0.2-1.1,0.2-1.7,0c-0.9-0.2-1.6-0.7-2-1.5
			c-0.4-0.8-0.4-1.7-0.2-2.8l0.2-0.8c0.2-0.7,0.5-1.3,0.9-1.8c0.4-0.5,0.9-0.8,1.4-1s1.1-0.2,1.7,0c0.6,0.2,1.1,0.4,1.5,0.8
			c0.4,0.4,0.6,0.9,0.7,1.5c0.1,0.6,0.1,1.2-0.1,1.9L2142.4,1581.4z M2141.9,1580.4c0.2-0.9,0.2-1.7-0.1-2.4
			c-0.3-0.6-0.8-1.1-1.5-1.2c-0.7-0.2-1.4-0.1-1.9,0.4s-1,1.1-1.2,2.1l-0.2,0.8c-0.2,0.9-0.2,1.7,0.1,2.4c0.3,0.6,0.8,1.1,1.5,1.3
			c0.7,0.2,1.4,0.1,1.9-0.4c0.6-0.4,1-1.1,1.2-2.1L2141.9,1580.4z"/>
		<path d="M2144.6,1582.3l-0.8,3.2l-0.7-0.2l2-7.8l2.6,0.7c0.8,0.2,1.4,0.6,1.8,1.1c0.4,0.5,0.5,1.2,0.3,1.9
			c-0.2,0.7-0.6,1.2-1.1,1.5c-0.6,0.3-1.3,0.3-2.1,0.1L2144.6,1582.3z M2144.7,1581.8l2,0.5c0.6,0.2,1.2,0.1,1.6-0.1
			s0.7-0.6,0.8-1.1c0.1-0.5,0.1-1-0.2-1.4s-0.7-0.7-1.3-0.9l-2-0.5L2144.7,1581.8z"/>
		<path d="M2153.9,1585.8l-3.5-0.9l-1.4,2l-0.7-0.2l4.9-7l0.6,0.2l0.9,8.5l-0.7-0.2L2153.9,1585.8z M2150.7,1584.4l3.1,0.8l-0.5-4.6
			L2150.7,1584.4z"/>
		<path d="M2157.9,1580.9l0.7,0.2l-1.9,7.2l4.4,1.1l1.9-7.2l0.7,0.2l-1.9,7.2l0.8,0.2l-0.7,2.4l-0.6-0.2l0.5-1.9l-5.8-1.5
			L2157.9,1580.9z"/>
		<path d="M2170.9,1584.2l0.7,0.2l-2,7.8l-0.7-0.2l1.7-6.7l-6.1,5.5l-0.7-0.2l2-7.8l0.7,0.2l-1.7,6.7L2170.9,1584.2z"/>
		<path d="M2178.6,1586.2l0.7,0.2l-2,7.8l-0.7-0.2l1.7-6.7l-6.1,5.5l-0.7-0.2l2-7.8l0.7,0.2l-1.7,6.7L2178.6,1586.2z M2178.5,1584.1
			c-0.1,0.4-0.3,0.7-0.7,0.9s-0.8,0.2-1.2,0.1c-0.5-0.1-0.8-0.3-1-0.7c-0.2-0.3-0.3-0.7-0.2-1.1l0.5,0.1c-0.1,0.3,0,0.5,0.1,0.7
			c0.1,0.2,0.4,0.3,0.7,0.4s0.6,0.1,0.8-0.1c0.2-0.1,0.4-0.3,0.4-0.6L2178.5,1584.1z"/>
	</g>
	<g>
		<path d="M1902.1,1218.9l-3.2,1.1l2.9,8.8l-0.8,0.3l-2.9-8.8l-3.2,1.1l-0.2-0.7l7.3-2.4L1902.1,1218.9z"/>
		<path d="M1910.3,1221l-4.4,1.4l1.3,3.9l5.1-1.7l0.2,0.7l-5.9,1.9l-3.1-9.5l5.9-1.9l0.2,0.7l-5.1,1.6l1.2,3.6l4.4-1.4L1910.3,1221z
			"/>
		<path d="M1915.2,1218.4l1.4-4.9l1-0.3l-1.6,5.7l4.8,3.7l-1,0.3l-4.1-3.2l-1.4,5l-0.9,0.3l1.7-5.9l-4.7-3.6l1-0.3L1915.2,1218.4z"
			/>
		<path d="M1929.2,1219.8l-0.8,0.3l-1.5-4.5l-5.4,1.8l1.5,4.5l-0.8,0.3l-3.1-9.5l0.8-0.3l1.4,4.2l5.4-1.8l-1.4-4.3l0.8-0.3
			L1929.2,1219.8z"/>
		<path d="M1937.3,1212.5c0.3,0.9,0.4,1.7,0.3,2.4c-0.1,0.8-0.4,1.4-0.8,1.9c-0.4,0.5-1,0.9-1.8,1.2c-1.1,0.4-2.1,0.3-3.1-0.3
			c-0.9-0.6-1.6-1.5-2.1-2.9l-0.3-1c-0.3-0.9-0.4-1.7-0.3-2.4s0.4-1.4,0.8-2c0.4-0.5,1-0.9,1.8-1.2c0.7-0.2,1.4-0.3,2.1-0.1
			c0.7,0.2,1.3,0.5,1.8,1.1c0.5,0.5,0.9,1.2,1.2,2.1L1937.3,1212.5z M1936.1,1211.8c-0.4-1.1-0.9-1.9-1.6-2.4
			c-0.7-0.5-1.5-0.6-2.4-0.3c-0.9,0.3-1.5,0.8-1.8,1.7c-0.3,0.8-0.3,1.8,0.1,3l0.3,1c0.4,1.1,0.9,1.9,1.6,2.4
			c0.7,0.5,1.5,0.6,2.4,0.3c0.9-0.3,1.5-0.8,1.8-1.7c0.3-0.8,0.3-1.8-0.1-3L1936.1,1211.8z"/>
		<path d="M1944.3,1204.4l3.1,9.5l-0.8,0.3l-2.9-8.8l-4,1.3l1.1,4c0.4,1.4,0.6,2.5,0.6,3.2c0,0.7-0.1,1.2-0.3,1.6s-0.6,0.7-1.2,0.9
			l-0.3,0.1l-0.2-0.7l0.3-0.1c0.4-0.2,0.7-0.4,0.9-0.8c0.1-0.3,0.2-0.8,0.1-1.4c-0.1-0.6-0.3-1.6-0.6-2.8l-1.2-4.5L1944.3,1204.4z"
			/>
		<path d="M1955.4,1206.6c0.3,0.9,0.4,1.7,0.3,2.4c-0.1,0.8-0.4,1.4-0.8,1.9s-1,0.9-1.8,1.2c-1.1,0.4-2.1,0.3-3.1-0.3
			c-0.9-0.6-1.6-1.5-2.1-2.9l-0.3-1c-0.3-0.9-0.4-1.7-0.3-2.4s0.4-1.4,0.8-2c0.4-0.5,1-0.9,1.8-1.2c0.7-0.2,1.4-0.3,2.1-0.1
			c0.7,0.2,1.3,0.5,1.8,1.1c0.5,0.5,0.9,1.2,1.2,2.1L1955.4,1206.6z M1954.3,1205.9c-0.4-1.1-0.9-1.9-1.6-2.4
			c-0.7-0.5-1.5-0.6-2.4-0.3c-0.9,0.3-1.5,0.8-1.8,1.7c-0.3,0.8-0.3,1.8,0.1,3l0.3,1c0.4,1.1,0.9,1.9,1.6,2.4
			c0.7,0.5,1.5,0.6,2.4,0.3c0.9-0.3,1.5-0.8,1.8-1.7c0.3-0.8,0.3-1.8-0.1-3L1954.3,1205.9z"/>
		<path d="M1961.7,1199.5l-4.9,1.6l2.9,8.8l-0.8,0.3l-3.1-9.5l5.7-1.9L1961.7,1199.5z"/>
		<path d="M1969.3,1196.3l0.8-0.3l3.1,9.5l-0.8,0.3l-2.6-8.1l-2.7,9.9l-0.8,0.3l-3.1-9.5l0.8-0.3l2.6,8.1L1969.3,1196.3z"/>
		<path d="M1978.8,1193.2l3.1,9.5l-0.8,0.3l-1.4-4.3c-0.8,0.5-1.6,0.9-2.4,1.2c-1.1,0.3-1.9,0.4-2.6,0.1s-1.2-0.9-1.5-1.9l-0.9-2.7
			l0.8-0.3l0.9,2.7c0.3,0.8,0.6,1.3,1.1,1.5s1.1,0.2,2-0.1c0.8-0.3,1.6-0.7,2.4-1.2l-1.5-4.5L1978.8,1193.2z"/>
		<path d="M1988.1,1195.6l-4.4,1.4l1.3,3.9l5.1-1.7l0.2,0.7l-5.9,1.9l-3.1-9.5l5.9-1.9l0.2,0.7l-5.1,1.6l1.2,3.6l4.4-1.4
			L1988.1,1195.6z"/>
		<path d="M1997.6,1194.3c0.2,1,0.1,1.9-0.3,2.6c-0.4,0.7-1.2,1.3-2.2,1.6c-0.7,0.2-1.4,0.3-2,0.1c-0.7-0.2-1.2-0.5-1.7-1.1
			c-0.5-0.5-0.9-1.2-1.2-2.1l-0.4-1.2c-0.3-0.8-0.4-1.6-0.3-2.4s0.3-1.4,0.8-1.9c0.4-0.5,1-0.9,1.7-1.2c1-0.3,1.9-0.3,2.7,0
			c0.8,0.4,1.4,1,1.8,1.9l-0.8,0.3c-0.7-1.5-1.9-2.1-3.4-1.6c-0.9,0.3-1.4,0.8-1.7,1.6c-0.3,0.8-0.3,1.8,0.1,2.9l0.4,1.2
			c0.4,1.1,0.9,1.9,1.6,2.4c0.7,0.5,1.5,0.6,2.3,0.3c0.8-0.3,1.4-0.7,1.7-1.2s0.4-1.2,0.2-2.1L1997.6,1194.3z"/>
		<path d="M2001.2,1191.5l-1.3,0.4l1.4,4.4l-0.8,0.3l-3.1-9.5l0.8-0.3l1.4,4.3l1.3-0.4l2.2-5.5l1-0.3l-2.4,5.9l5.7,3.5l-1,0.3
			L2001.2,1191.5z"/>
		<path d="M2012.2,1182.3l0.8-0.3l3.1,9.5l-0.8,0.3l-2.6-8.1l-2.7,9.9l-0.8,0.3l-3.1-9.5l0.8-0.3l2.6,8.1L2012.2,1182.3z"/>
		<path d="M2022.2,1184.5l-4.4,1.4l1.3,3.9l5.1-1.7l0.2,0.7l-5.9,1.9l-3.1-9.5l5.9-1.9l0.2,0.7l-5.1,1.6l1.2,3.6l4.4-1.4
			L2022.2,1184.5z"/>
		<path d="M2036.3,1185l-0.8,0.3l-2.9-8.8l-5.4,1.7l2.9,8.8l-0.8,0.3l-3.1-9.5l7-2.3L2036.3,1185z"/>
		<path d="M2038.3,1180l1.3,3.9l-0.8,0.3l-3.1-9.5l3.2-1c1-0.3,1.8-0.3,2.6,0c0.7,0.3,1.2,0.9,1.5,1.8c0.3,0.9,0.2,1.7-0.2,2.3
			c-0.4,0.7-1.1,1.2-2.1,1.5L2038.3,1180z M2038,1179.4l2.4-0.8c0.8-0.3,1.3-0.6,1.6-1.1c0.3-0.5,0.3-1.1,0.1-1.7
			c-0.2-0.7-0.6-1.1-1.1-1.4c-0.5-0.3-1.2-0.3-1.9,0l-2.5,0.8L2038,1179.4z"/>
		<path d="M2050.7,1175.2l-4.4,1.4l1.3,3.9l5.1-1.7l0.2,0.7l-5.9,1.9l-3.1-9.5l5.9-1.9l0.2,0.7l-5.1,1.6l1.2,3.6l4.4-1.4
			L2050.7,1175.2z"/>
		<path d="M2061.3,1176.1l1-0.3l1,3l-0.8,0.3l-0.7-2.3l-7.1,2.3l0.7,2.3l-0.8,0.3l-1-3l0.6-0.2c0.3-0.7,0.5-1.5,0.4-2.6
			c0-1.1-0.2-2.2-0.5-3.3l-0.9-3.5l5.2-1.7L2061.3,1176.1z M2055.1,1178.1l5.4-1.8l-2.6-8.1l-3.7,1.2l0.8,2.8
			c0.3,1.1,0.5,2.2,0.5,3.3C2055.5,1176.5,2055.4,1177.3,2055.1,1178.1z"/>
		<path d="M2071.1,1173.6l-0.8,0.3l-2.9-8.8l-5.4,1.7l2.9,8.8l-0.8,0.3l-3.1-9.5l7-2.3L2071.1,1173.6z"/>
		<path d="M2073.1,1168.7l1.3,3.9l-0.8,0.3l-3.1-9.5l3.2-1c1-0.3,1.8-0.3,2.6,0c0.7,0.3,1.2,0.9,1.5,1.8c0.3,0.9,0.2,1.7-0.2,2.3
			c-0.4,0.7-1.1,1.2-2.1,1.5L2073.1,1168.7z M2072.9,1168l2.4-0.8c0.8-0.3,1.3-0.6,1.6-1.1c0.3-0.5,0.3-1.1,0.1-1.7
			c-0.2-0.7-0.6-1.1-1.1-1.4c-0.5-0.3-1.2-0.3-1.9,0l-2.5,0.8L2072.9,1168z"/>
		<path d="M2084.9,1158.6l0.8-0.3l3.1,9.5l-0.8,0.3l-2.6-8.1l-2.7,9.9l-0.8,0.3l-3.1-9.5l0.8-0.3l2.6,8.1L2084.9,1158.6z"/>
		<path d="M2098.2,1164.8l-0.8,0.3l-1.5-4.5l-5.4,1.8l1.5,4.5l-0.8,0.3l-3.1-9.5l0.8-0.3l1.4,4.2l5.4-1.8l-1.4-4.3l0.8-0.3
			L2098.2,1164.8z"/>
		<path d="M2103.8,1152.5l0.8-0.3l3.1,9.5l-0.8,0.3l-2.6-8.1l-2.7,9.9l-0.8,0.3l-3.1-9.5l0.8-0.3l2.6,8.1L2103.8,1152.5z"/>
		<path d="M2108.1,1151.1l6.2,7.2l0.8-9.5l1.1-0.3l3.1,9.5l-0.8,0.3l-1.3-4.1l-1.3-4.2l-0.8,9.5l-0.6,0.2l-6.2-7.2l1.4,4.1l1.4,4.1
			l-0.8,0.3l-3.1-9.5L2108.1,1151.1z"/>
		<path d="M2126,1152.8l-4.3,1.4l-0.1,3l-0.8,0.3l0.5-10.6l0.8-0.2l6.7,8.3l-0.8,0.3L2126,1152.8z M2121.7,1153.4l3.8-1.2l-3.6-4.5
			L2121.7,1153.4z"/>
		<path d="M2132.8,1143.8l-3.2,1.1l2.9,8.8l-0.8,0.3l-2.9-8.8l-3.2,1.1l-0.2-0.7l7.3-2.4L2132.8,1143.8z"/>
		<path d="M2140.9,1145.8l-4.4,1.4l1.3,3.9l5.1-1.7l0.2,0.7l-5.9,1.9l-3.1-9.5l5.9-1.9l0.2,0.7l-5.1,1.6l1.2,3.6l4.4-1.4
			L2140.9,1145.8z"/>
		<path d="M2148.6,1137.9l3.1,9.5l-0.8,0.3l-2.9-8.8l-4,1.3l1.1,4c0.4,1.4,0.6,2.5,0.6,3.2c0,0.7-0.1,1.2-0.3,1.6s-0.6,0.7-1.2,0.9
			l-0.3,0.1l-0.2-0.7l0.3-0.1c0.4-0.2,0.7-0.4,0.9-0.8c0.1-0.3,0.2-0.8,0.1-1.4c-0.1-0.6-0.3-1.6-0.6-2.8l-1.2-4.5L2148.6,1137.9z"
			/>
		<path d="M2157.2,1135.1l0.8-0.3l3.1,9.5l-0.8,0.3l-2.6-8.1l-2.7,9.9l-0.8,0.3l-3.1-9.5l0.8-0.3l2.6,8.1L2157.2,1135.1z"/>
	</g>
	<g>
		<path d="M1993.3,1224.1c0.2,1,0,1.9-0.4,2.6c-0.5,0.7-1.2,1.2-2.2,1.5c-0.7,0.2-1.4,0.2-2,0c-0.6-0.2-1.2-0.6-1.7-1.2
			c-0.5-0.6-0.8-1.3-1.1-2.1l-0.3-1.2c-0.2-0.9-0.3-1.6-0.2-2.4c0.1-0.7,0.4-1.4,0.9-1.9c0.5-0.5,1.1-0.9,1.8-1.1
			c1-0.3,1.9-0.2,2.7,0.2s1.3,1.1,1.7,2l-0.8,0.2c-0.7-1.6-1.8-2.1-3.3-1.7c-0.9,0.2-1.5,0.8-1.8,1.6c-0.3,0.8-0.3,1.8,0,2.9
			l0.3,1.2c0.3,1.1,0.8,1.9,1.5,2.4c0.7,0.5,1.5,0.7,2.3,0.4c0.8-0.2,1.4-0.6,1.7-1.1c0.3-0.5,0.4-1.2,0.3-2L1993.3,1224.1z"/>
		<path d="M2003.2,1224.6l-0.8,0.2l-2.5-8.9l-5.4,1.5l2.5,8.9l-0.8,0.2l-2.7-9.6l7-2L2003.2,1224.6z"/>
		<path d="M2009.7,1217.8l-4.5,1.2l1.1,3.9l5.2-1.4l0.2,0.7l-6,1.7l-2.7-9.6l5.9-1.7l0.2,0.7l-5.1,1.4l1,3.6l4.5-1.2L2009.7,1217.8z
			"/>
		<path d="M2010.6,1212.2l0.8-0.2l2.5,8.9l5.4-1.5l-2.5-8.9l0.8-0.2l2.5,8.9l0.9-0.3l0.8,3l-0.8,0.2l-0.6-2.3l-7.2,2L2010.6,1212.2z
			"/>
		<path d="M2026.6,1207.8l0.8-0.2l2.7,9.6l-0.8,0.2l-2.3-8.2l-3.2,9.7l-0.8,0.2l-2.7-9.6l0.8-0.2l2.3,8.2L2026.6,1207.8z"/>
		<path d="M2037,1212.3l-4.4,1.2l-0.2,3l-0.8,0.2l1-10.6l0.8-0.2l6.3,8.6l-0.8,0.2L2037,1212.3z M2032.8,1212.7l3.8-1.1l-3.4-4.7
			L2032.8,1212.7z"/>
		<path d="M2045.5,1202.5l2.7,9.6l-0.8,0.2l-2.5-8.9l-4.1,1.1l0.9,4c0.3,1.4,0.5,2.5,0.5,3.2c0,0.7-0.1,1.2-0.4,1.6
			c-0.3,0.4-0.7,0.7-1.2,0.8l-0.3,0.1l-0.2-0.7l0.3-0.1c0.4-0.1,0.7-0.4,0.9-0.7c0.2-0.3,0.2-0.8,0.2-1.4c0-0.6-0.2-1.6-0.5-2.8
			l-1-4.5L2045.5,1202.5z"/>
		<path d="M2054.3,1200l0.8-0.2l2.7,9.6l-0.8,0.2l-2.3-8.2l-3.2,9.7l-0.8,0.2l-2.7-9.6l0.8-0.2l2.3,8.2L2054.3,1200z"/>
		<path d="M2066.2,1203.8c0.2,1,0,1.9-0.4,2.6c-0.5,0.7-1.2,1.2-2.2,1.5c-0.7,0.2-1.4,0.2-2,0c-0.6-0.2-1.2-0.6-1.7-1.2
			c-0.5-0.6-0.8-1.3-1.1-2.1l-0.3-1.2c-0.2-0.9-0.3-1.6-0.2-2.4c0.1-0.7,0.4-1.4,0.9-1.9c0.5-0.5,1.1-0.9,1.8-1.1
			c1-0.3,1.9-0.2,2.7,0.2s1.3,1.1,1.7,2l-0.8,0.2c-0.7-1.6-1.8-2.1-3.3-1.7c-0.9,0.2-1.5,0.8-1.8,1.6c-0.3,0.8-0.3,1.8,0,2.9
			l0.3,1.2c0.3,1.1,0.8,1.9,1.5,2.4c0.7,0.5,1.5,0.7,2.3,0.4c0.8-0.2,1.4-0.6,1.7-1.1c0.3-0.5,0.4-1.2,0.3-2L2066.2,1203.8z"/>
		<path d="M2072.8,1195.6l-3.3,0.9l2.5,8.9l-0.8,0.2l-2.5-8.9l-3.3,0.9l-0.2-0.7l7.4-2.1L2072.8,1195.6z"/>
		<path d="M2076.2,1198.4l2.4-0.7c0.7-0.2,1.3-0.2,1.8-0.1s1,0.3,1.4,0.6c0.4,0.3,0.6,0.8,0.8,1.3c0.2,0.8,0.1,1.6-0.3,2.2
			c-0.4,0.6-1.1,1.1-2.1,1.4l-3.2,0.9l-2.7-9.6l0.8-0.2L2076.2,1198.4z M2076.4,1199.1l1.1,4.1l2.4-0.7c0.7-0.2,1.3-0.6,1.6-1
			s0.4-1,0.2-1.7c-0.2-0.6-0.5-1-1-1.3c-0.5-0.2-1.1-0.3-1.9-0.1L2076.4,1199.1z M2085.6,1201.7l-0.8,0.2l-2.7-9.6l0.8-0.2
			L2085.6,1201.7z"/>
		<path d="M2098.5,1198.1l-0.8,0.2l-2.5-8.9l-5.4,1.5l2.5,8.9l-0.8,0.2l-2.7-9.6l7-2L2098.5,1198.1z"/>
		<path d="M2106.8,1191.2c0.2,0.9,0.3,1.7,0.2,2.5c-0.1,0.8-0.4,1.4-0.9,1.9c-0.5,0.5-1.1,0.9-1.8,1.1c-1.1,0.3-2.1,0.2-3-0.4
			s-1.6-1.6-1.9-3l-0.3-1c-0.2-0.9-0.3-1.7-0.2-2.5c0.1-0.8,0.4-1.4,0.9-1.9c0.5-0.5,1.1-0.9,1.8-1.1c0.7-0.2,1.4-0.2,2.1,0
			c0.7,0.2,1.2,0.6,1.7,1.1c0.5,0.6,0.9,1.3,1.1,2.1L2106.8,1191.2z M2105.7,1190.3c-0.3-1.2-0.8-2-1.5-2.5
			c-0.7-0.5-1.5-0.6-2.4-0.4c-0.9,0.2-1.5,0.8-1.9,1.6s-0.4,1.8,0,3l0.3,1c0.3,1.1,0.8,2,1.5,2.5s1.5,0.7,2.4,0.4
			c0.9-0.3,1.5-0.8,1.9-1.6c0.3-0.8,0.3-1.8,0-3L2105.7,1190.3z"/>
		<path d="M2120.2,1191.3l1-0.3l0.8,3l-0.8,0.2l-0.6-2.3l-7.2,2l0.6,2.3l-0.8,0.2l-0.8-3l0.6-0.2c0.3-0.6,0.5-1.5,0.6-2.6
			c0-1.1-0.1-2.2-0.3-3.4l-0.8-3.5l5.3-1.5L2120.2,1191.3z M2114,1193l5.4-1.5l-2.3-8.2l-3.7,1l0.6,2.8c0.3,1.2,0.4,2.3,0.4,3.3
			S2114.3,1192.3,2114,1193z"/>
		<path d="M2127.6,1187.1l-4.4,1.2l-0.2,3l-0.8,0.2l1-10.6l0.8-0.2l6.3,8.6l-0.8,0.2L2127.6,1187.1z M2123.4,1187.5l3.8-1.1
			l-3.4-4.7L2123.4,1187.5z"/>
		<path d="M2138.8,1186.9l-0.8,0.2l-1.3-4.6l-5.5,1.5l1.3,4.6l-0.8,0.2l-2.7-9.6l0.8-0.2l1.2,4.3l5.5-1.5l-1.2-4.3l0.8-0.2
			L2138.8,1186.9z"/>
		<path d="M2148.3,1184.2l-0.8,0.2l-1.3-4.6l-5.5,1.5l1.3,4.6l-0.8,0.2l-2.7-9.6l0.8-0.2l1.2,4.3l5.5-1.5l-1.2-4.3l0.8-0.2
			L2148.3,1184.2z"/>
		<path d="M2150.1,1177.9l2.4-0.7c0.7-0.2,1.3-0.2,1.8-0.1s1,0.3,1.4,0.6c0.4,0.3,0.6,0.8,0.8,1.3c0.2,0.8,0.1,1.6-0.3,2.2
			c-0.4,0.6-1.1,1.1-2.1,1.4l-3.2,0.9l-2.7-9.6l0.8-0.2L2150.1,1177.9z M2150.2,1178.6l1.1,4.1l2.4-0.7c0.7-0.2,1.3-0.6,1.6-1
			s0.4-1,0.2-1.7c-0.2-0.6-0.5-1-1-1.3c-0.5-0.2-1.1-0.3-1.9-0.1L2150.2,1178.6z M2159.5,1181.1l-0.8,0.2l-2.7-9.6l0.8-0.2
			L2159.5,1181.1z"/>
		<path d="M2160.4,1170.5l5.9,7.5l1.2-9.5l1.1-0.3l2.7,9.6l-0.8,0.2l-1.2-4.2l-1.1-4.3l-1.2,9.4l-0.6,0.2l-5.9-7.4l1.2,4.2l1.2,4.2
			l-0.8,0.2l-2.7-9.6L2160.4,1170.5z"/>
	</g>
	<g>
		<path d="M2100.1,1230.3l-2.2-9.7l2.9-0.7c1-0.2,1.9-0.2,2.5,0.1c0.6,0.3,1.1,0.9,1.2,1.7c0.1,0.5,0.1,1-0.1,1.4
			c-0.2,0.4-0.5,0.8-0.9,1.1c0.6,0,1.1,0.2,1.6,0.5c0.4,0.4,0.7,0.8,0.9,1.4c0.2,0.9,0.1,1.6-0.4,2.2c-0.4,0.6-1.2,1-2.1,1.3
			L2100.1,1230.3z M2099.7,1224.7l2.2-0.5c0.7-0.2,1.2-0.5,1.5-0.9c0.3-0.4,0.4-0.9,0.2-1.5c-0.1-0.6-0.4-1-0.9-1.2
			c-0.5-0.2-1.1-0.2-1.9,0l-2,0.5L2099.7,1224.7z M2099.9,1225.4l0.9,4l2.5-0.6c0.7-0.2,1.2-0.5,1.5-0.9s0.4-1,0.3-1.6
			c-0.1-0.6-0.4-1-0.9-1.3s-1.1-0.3-1.8-0.1L2099.9,1225.4z"/>
		<path d="M2112.6,1217.2l0.8-0.2l2.2,9.7l-0.8,0.2l-1.9-8.3l-3.6,9.6l-0.8,0.2l-2.2-9.7l0.8-0.2l1.9,8.3L2112.6,1217.2z"/>
		<path d="M2121.8,1217.7c-0.1-0.6-0.5-1-1-1.3c-0.5-0.2-1.2-0.3-2-0.1c-0.7,0.2-1.2,0.5-1.6,1c-0.4,0.5-0.5,1-0.4,1.6l-0.8,0.2
			c-0.1-0.5-0.1-1,0.1-1.5s0.5-0.9,1-1.2s1-0.6,1.6-0.7c1-0.2,1.9-0.2,2.6,0.1c0.7,0.3,1.2,0.9,1.4,1.8c0.1,0.5,0.1,1-0.2,1.4
			s-0.6,0.8-1.1,1.2c1.3,0,2.2,0.7,2.4,1.9c0.2,0.8,0,1.6-0.5,2.2s-1.3,1.1-2.4,1.3c-0.6,0.2-1.3,0.2-1.9,0s-1.1-0.4-1.4-0.7
			c-0.4-0.4-0.6-0.8-0.7-1.4l0.8-0.2c0.1,0.6,0.5,1.1,1.1,1.4c0.6,0.3,1.2,0.3,2,0.2c0.8-0.2,1.5-0.5,1.8-1s0.5-1,0.4-1.7
			c-0.2-0.7-0.5-1.1-1-1.3c-0.5-0.2-1.2-0.2-2.1,0l-1.2,0.3l-0.2-0.7l1.2-0.3c0.8-0.2,1.4-0.5,1.7-0.9
			C2121.8,1218.8,2121.9,1218.3,2121.8,1217.7z"/>
		<path d="M2130.4,1213.1l0.8-0.2l2.2,9.7l-0.8,0.2l-1.9-8.3l-3.6,9.6l-0.8,0.2l-2.2-9.7l0.8-0.2l1.9,8.3L2130.4,1213.1z"/>
		<path d="M2142.1,1216c0.2,0.9,0.2,1.7,0.1,2.5c-0.2,0.7-0.5,1.4-1,1.9c-0.5,0.5-1.1,0.8-1.9,1c-1.1,0.3-2.1,0.1-3-0.6
			c-0.9-0.6-1.5-1.7-1.8-3l-0.2-1c-0.2-0.9-0.2-1.7-0.1-2.5s0.5-1.4,1-1.9c0.5-0.5,1.1-0.8,1.8-1c0.7-0.2,1.4-0.1,2.1,0.1
			c0.7,0.2,1.2,0.6,1.7,1.2s0.8,1.3,1,2.2L2142.1,1216z M2141,1215.1c-0.3-1.2-0.7-2-1.4-2.6s-1.5-0.7-2.4-0.5
			c-0.9,0.2-1.5,0.7-1.9,1.5c-0.4,0.8-0.4,1.8-0.2,3l0.2,1c0.3,1.2,0.7,2,1.4,2.5c0.7,0.5,1.5,0.7,2.4,0.5c0.9-0.2,1.6-0.7,1.9-1.5
			c0.4-0.8,0.4-1.8,0.1-3L2141,1215.1z"/>
		<path d="M2152.4,1218.2l-0.8,0.2l-1.1-4.6l-5.5,1.3l1.1,4.6l-0.8,0.2l-2.2-9.7l0.8-0.2l1,4.4l5.5-1.3l-1-4.4l0.8-0.2
			L2152.4,1218.2z"/>
		<path d="M2159.1,1211.7l-4.5,1.1l0.9,4l5.2-1.2l0.2,0.7l-6,1.4l-2.2-9.7l6-1.4l0.2,0.7l-5.2,1.2l0.8,3.7l4.5-1.1L2159.1,1211.7z"
			/>
		<path d="M2162.5,1211.7l0.9,3.9l-0.8,0.2l-2.2-9.7l3.3-0.8c1-0.2,1.9-0.2,2.6,0.2s1.2,1,1.4,1.9c0.2,0.9,0.1,1.7-0.4,2.3
			c-0.4,0.6-1.2,1.1-2.3,1.3L2162.5,1211.7z M2162.3,1211l2.5-0.6c0.8-0.2,1.4-0.5,1.7-1c0.3-0.5,0.4-1,0.3-1.7
			c-0.2-0.7-0.5-1.2-1-1.5c-0.5-0.3-1.1-0.4-1.9-0.2l-2.5,0.6L2162.3,1211z"/>
		<path d="M2170.6,1208.2l2.4-0.6c0.7-0.2,1.3-0.2,1.8-0.1c0.5,0.1,1,0.3,1.3,0.7s0.6,0.8,0.7,1.4c0.2,0.9,0.1,1.6-0.4,2.2
			c-0.5,0.6-1.2,1.1-2.2,1.3l-3.2,0.7l-2.2-9.7l0.8-0.2L2170.6,1208.2z M2170.7,1208.9l1,4.1l2.4-0.6c0.8-0.2,1.3-0.5,1.6-1
			s0.4-1,0.3-1.7c-0.1-0.6-0.5-1.1-1-1.3c-0.5-0.3-1.1-0.3-1.8-0.2L2170.7,1208.9z M2179.9,1211.8l-0.8,0.2l-2.2-9.7l0.8-0.2
			L2179.9,1211.8z"/>
	</g>
	<g>
		<path d="M1989.9,1272.7l0.8-0.2l1.8,9.8l-0.8,0.2l-1.6-8.4l-4,9.4l-0.8,0.2l-1.8-9.8l0.8-0.2l1.6,8.4L1989.9,1272.7z"/>
		<path d="M2002.3,1280.5l-0.8,0.2l-0.9-4.7l-5.6,1l0.9,4.7l-0.8,0.2l-1.8-9.8l0.8-0.2l0.8,4.4l5.6-1l-0.8-4.4l0.8-0.2
			L2002.3,1280.5z"/>
		<path d="M2009.6,1269.8l-3.4,0.6l1.7,9.1l-0.8,0.2l-1.7-9.1l-3.3,0.6l-0.1-0.7l7.5-1.4L2009.6,1269.8z"/>
		<path d="M2017.4,1272.8l-4.6,0.9l0.7,4l5.3-1l0.1,0.7l-6.1,1.1l-1.8-9.8l6.1-1.1l0.1,0.7l-5.2,1l0.7,3.7l4.6-0.9L2017.4,1272.8z"
			/>
		<path d="M2026,1266l1.8,9.8l-0.8,0.2l-1.7-9.1l-4.1,0.8l0.5,4.1c0.2,1.5,0.2,2.5,0.2,3.2s-0.2,1.2-0.5,1.6
			c-0.3,0.4-0.7,0.6-1.3,0.7l-0.3,0.1l-0.1-0.7l0.3-0.1c0.5-0.1,0.8-0.3,1-0.6c0.2-0.3,0.3-0.8,0.3-1.4s-0.1-1.6-0.2-2.9l-0.6-4.6
			L2026,1266z"/>
		<path d="M2035.8,1264.1l1.8,9.8l-0.8,0.2l-1.7-9.1l-4.1,0.8l0.5,4.1c0.2,1.5,0.2,2.5,0.2,3.2s-0.2,1.2-0.5,1.6
			c-0.3,0.4-0.7,0.6-1.3,0.7l-0.3,0.1l-0.1-0.7l0.3-0.1c0.5-0.1,0.8-0.3,1-0.6c0.2-0.3,0.3-0.8,0.3-1.4s-0.1-1.6-0.2-2.9l-0.6-4.6
			L2035.8,1264.1z"/>
		<path d="M2044.6,1267.8l-4.6,0.9l0.7,4l5.3-1l0.1,0.7l-6.1,1.1l-1.8-9.8l6.1-1.1l0.1,0.7l-5.2,1l0.7,3.7l4.6-0.9L2044.6,1267.8z"
			/>
		<path d="M2049.3,1267l-1.3,0.2l0.9,4.6l-0.8,0.2l-1.8-9.8l0.8-0.2l0.8,4.5l1.3-0.2l2.9-5.2l1-0.2l-3.1,5.6l5.2,4.2l-1,0.2
			L2049.3,1267z"/>
		<path d="M2061.7,1260l-3.4,0.6l1.7,9.1l-0.8,0.2l-1.7-9.1l-3.3,0.6l-0.1-0.7l7.5-1.4L2061.7,1260z"/>
		<path d="M2067.6,1264.7l1.6-6.8l1-0.2l-2.3,8.9l-0.2,0.5c-0.3,0.9-0.9,1.5-1.9,1.7c-0.3,0.1-0.5,0.1-0.6,0l-0.1-0.7
			c0.1,0,0.3,0,0.6-0.1c0.6-0.1,0.9-0.5,1.2-1.1l0.1-0.3l0.3-1l-5-6.5l0.9-0.2L2067.6,1264.7z"/>
		<path d="M2077.7,1263.6l-4.4,0.8l-0.5,2.9l-0.9,0.2l1.9-10.5l0.8-0.1l5.5,9.1l-0.9,0.2L2077.7,1263.6z M2073.4,1263.7l3.9-0.7
			l-3-5L2073.4,1263.7z"/>
		<path d="M2087,1254.6l1.8,9.8l-0.8,0.2l-1.7-9.1l-4.1,0.8l0.5,4.1c0.2,1.5,0.2,2.5,0.2,3.2s-0.2,1.2-0.5,1.6
			c-0.3,0.4-0.7,0.6-1.3,0.7l-0.3,0.1l-0.1-0.7l0.3-0.1c0.5-0.1,0.8-0.3,1-0.6c0.2-0.3,0.3-0.8,0.3-1.4s-0.1-1.6-0.2-2.9l-0.6-4.6
			L2087,1254.6z"/>
		<path d="M2091.1,1258.2l2.4-0.5c0.7-0.1,1.3-0.1,1.8,0c0.5,0.1,1,0.4,1.3,0.7c0.3,0.4,0.6,0.8,0.7,1.4c0.2,0.9,0,1.6-0.5,2.2
			c-0.5,0.6-1.2,1-2.3,1.2l-3.2,0.6l-1.8-9.8l0.8-0.2L2091.1,1258.2z M2091.2,1258.9l0.8,4.1l2.4-0.5c0.8-0.1,1.3-0.4,1.7-0.9
			c0.4-0.5,0.5-1,0.4-1.7c-0.1-0.6-0.4-1.1-0.9-1.4s-1.1-0.4-1.8-0.2L2091.2,1258.9z"/>
		<path d="M2107,1261l-0.8,0.2l-0.9-4.7l-5.6,1l0.9,4.7l-0.8,0.2l-1.8-9.8l0.8-0.2l0.8,4.4l5.6-1l-0.8-4.4l0.8-0.2L2107,1261z"/>
		<path d="M2109.3,1254.8l2.4-0.5c0.7-0.1,1.3-0.1,1.8,0s1,0.4,1.3,0.7c0.3,0.4,0.6,0.8,0.7,1.4c0.2,0.9,0,1.6-0.5,2.2
			c-0.5,0.6-1.2,1-2.3,1.2l-3.2,0.6l-1.8-9.8l0.8-0.2L2109.3,1254.8z M2109.5,1255.5l0.8,4.1l2.4-0.5c0.8-0.1,1.3-0.4,1.7-0.9
			c0.4-0.5,0.5-1,0.4-1.7c-0.1-0.6-0.4-1.1-0.9-1.4c-0.5-0.3-1.1-0.4-1.8-0.2L2109.5,1255.5z M2118.5,1258.9l-0.8,0.2l-1.8-9.8
			l0.8-0.2L2118.5,1258.9z"/>
		<path d="M2125.6,1252.7l-4.6,0.9l0.7,4l5.3-1l0.1,0.7l-6.1,1.1l-1.8-9.8l6.1-1.1l0.1,0.7l-5.2,1l0.7,3.7l4.6-0.9L2125.6,1252.7z"
			/>
		<path d="M2137.5,1245.2l1.8,9.8l-0.8,0.2l-1.7-9.1l-4.1,0.8l0.5,4.1c0.2,1.5,0.2,2.5,0.2,3.2s-0.2,1.2-0.5,1.6
			c-0.3,0.4-0.7,0.6-1.3,0.7l-0.3,0.1l-0.1-0.7l0.3-0.1c0.5-0.1,0.8-0.3,1-0.6c0.2-0.3,0.3-0.8,0.3-1.4s-0.1-1.6-0.2-2.9l-0.6-4.6
			L2137.5,1245.2z"/>
		<path d="M2146.5,1243.5l0.8-0.2l1.8,9.8l-0.8,0.2l-1.6-8.4l-4,9.4l-0.8,0.2l-1.8-9.8l0.8-0.2l1.6,8.4L2146.5,1243.5z"/>
		<path d="M2158.9,1250.6l1-0.2l0.6,3.1l-0.8,0.2l-0.4-2.4l-7.4,1.4l0.4,2.4l-0.8,0.2l-0.6-3.1l0.7-0.1c0.4-0.6,0.7-1.4,0.8-2.5
			c0.1-1.1,0.1-2.2-0.1-3.4l-0.5-3.6l5.4-1L2158.9,1250.6z M2152.5,1251.8l5.6-1l-1.6-8.4l-3.8,0.7l0.4,2.8c0.2,1.2,0.2,2.3,0.1,3.3
			S2152.9,1251.1,2152.5,1251.8z"/>
		<path d="M2166.3,1245.1l-4.6,0.9l0.7,4l5.3-1l0.1,0.7l-6.1,1.1l-1.8-9.8l6.1-1.1l0.1,0.7l-5.2,1l0.7,3.7l4.6-0.9L2166.3,1245.1z"
			/>
		<path d="M2169.7,1245.2l0.7,4l-0.8,0.2l-1.8-9.8l3.3-0.6c1-0.2,1.9-0.1,2.6,0.3c0.7,0.4,1.1,1.1,1.3,2c0.2,0.9,0,1.7-0.5,2.3
			c-0.5,0.6-1.2,1-2.3,1.2L2169.7,1245.2z M2169.5,1244.5l2.5-0.5c0.8-0.1,1.4-0.5,1.7-0.9c0.4-0.5,0.5-1,0.3-1.7
			c-0.1-0.7-0.4-1.2-0.9-1.5c-0.5-0.3-1.1-0.4-1.9-0.3l-2.6,0.5L2169.5,1244.5z"/>
		<path d="M2177.9,1242.1l2.4-0.5c0.7-0.1,1.3-0.1,1.8,0s1,0.4,1.3,0.7c0.3,0.4,0.6,0.8,0.7,1.4c0.2,0.9,0,1.6-0.5,2.2
			c-0.5,0.6-1.2,1-2.3,1.2l-3.2,0.6l-1.8-9.8l0.8-0.2L2177.9,1242.1z M2178,1242.8l0.8,4.1l2.4-0.5c0.8-0.1,1.3-0.4,1.7-0.9
			c0.4-0.5,0.5-1,0.4-1.7c-0.1-0.6-0.4-1.1-0.9-1.4c-0.5-0.3-1.1-0.4-1.8-0.2L2178,1242.8z M2187,1246.1l-0.8,0.2l-1.8-9.8l0.8-0.2
			L2187,1246.1z"/>
	</g>
	<g>
		<path d="M2010.7,1306.4l-0.8,0.1l-1.3-9.2l-5.6,0.8l1.3,9.2l-0.8,0.1l-1.4-9.9l7.2-1L2010.7,1306.4z"/>
		<path d="M2013.5,1301.9l0.6,4l-0.8,0.1l-1.4-9.9l3.4-0.5c1-0.1,1.9,0,2.5,0.4c0.7,0.4,1.1,1.1,1.2,2c0.1,0.9-0.1,1.7-0.6,2.3
			c-0.5,0.6-1.3,1-2.4,1.1L2013.5,1301.9z M2013.4,1301.2l2.5-0.4c0.8-0.1,1.4-0.4,1.8-0.8s0.5-1,0.4-1.7c-0.1-0.7-0.4-1.2-0.9-1.5
			c-0.5-0.3-1.1-0.5-1.9-0.4l-2.6,0.4L2013.4,1301.2z"/>
		<path d="M2026.6,1299.4l-4.6,0.7l0.6,4l5.3-0.7l0.1,0.7l-6.1,0.9l-1.4-9.9l6.1-0.9l0.1,0.7l-5.3,0.7l0.5,3.7l4.6-0.7
			L2026.6,1299.4z"/>
		<path d="M2037,1302.7l-0.8,0.1l-1.3-9.2l-5.6,0.8l1.3,9.2l-0.8,0.1l-1.4-9.9l7.2-1L2037,1302.7z"/>
		<path d="M2046.2,1296.9c0.1,0.9,0.1,1.7-0.1,2.5s-0.6,1.3-1.1,1.8c-0.5,0.5-1.2,0.7-1.9,0.8c-1.2,0.2-2.1-0.1-3-0.8
			c-0.8-0.7-1.3-1.8-1.5-3.2l-0.1-1c-0.1-0.9-0.1-1.7,0.1-2.5c0.2-0.7,0.6-1.3,1.1-1.8c0.5-0.5,1.2-0.7,1.9-0.8
			c0.8-0.1,1.5,0,2.1,0.3c0.6,0.3,1.2,0.7,1.6,1.4c0.4,0.6,0.7,1.4,0.8,2.3L2046.2,1296.9z M2045.2,1296c-0.2-1.2-0.6-2.1-1.2-2.7
			c-0.6-0.6-1.4-0.8-2.3-0.7c-0.9,0.1-1.6,0.6-2,1.3c-0.4,0.8-0.6,1.7-0.4,2.9l0.1,1c0.2,1.2,0.6,2.1,1.2,2.7
			c0.6,0.6,1.4,0.8,2.4,0.7c0.9-0.1,1.6-0.6,2.1-1.3c0.4-0.7,0.6-1.7,0.4-2.9L2045.2,1296z"/>
		<path d="M2055.9,1299.3l1-0.1l0.4,3.1l-0.8,0.1l-0.3-2.4l-7.4,1.1l0.3,2.4l-0.8,0.1l-0.4-3.1l0.7-0.1c0.4-0.6,0.7-1.4,0.9-2.5
			c0.2-1,0.2-2.2,0.1-3.4l-0.3-3.6l5.4-0.8L2055.9,1299.3z M2049.4,1300.2l5.6-0.8l-1.2-8.4l-3.8,0.5l0.3,2.8
			c0.1,1.2,0.1,2.3-0.1,3.3C2050.1,1298.7,2049.8,1299.6,2049.4,1300.2z"/>
		<path d="M2063.7,1296.1l-4.5,0.6l-0.6,2.9l-0.9,0.1l2.3-10.4l0.8-0.1l5.1,9.3l-0.9,0.1L2063.7,1296.1z M2059.4,1296l4-0.6
			l-2.7-5.1L2059.4,1296z"/>
		<path d="M2067.5,1298.4l-1.4-9.9l2.9-0.4c1.1-0.1,1.9,0,2.5,0.3s1,1,1.1,1.8c0.1,0.5,0,1-0.2,1.4c-0.2,0.4-0.6,0.7-1,1
			c0.6,0,1.1,0.3,1.5,0.6c0.4,0.4,0.7,0.9,0.7,1.4c0.1,0.9-0.1,1.6-0.6,2.2c-0.5,0.6-1.2,0.9-2.2,1.1L2067.5,1298.4z M2067.5,1292.8
			l2.3-0.3c0.7-0.1,1.2-0.4,1.5-0.7s0.5-0.9,0.4-1.5c-0.1-0.6-0.4-1.1-0.8-1.3c-0.4-0.2-1.1-0.3-1.9-0.2l-2.1,0.3L2067.5,1292.8z
			 M2067.6,1293.5l0.6,4l2.5-0.4c0.7-0.1,1.3-0.4,1.6-0.8c0.4-0.4,0.5-1,0.4-1.6c-0.1-0.6-0.4-1.1-0.8-1.4c-0.4-0.3-1-0.4-1.7-0.3
			L2067.6,1293.5z"/>
		<path d="M2080.9,1293.7l-4.5,0.6l-0.6,2.9l-0.9,0.1l2.3-10.4l0.8-0.1l5.1,9.3l-0.9,0.1L2080.9,1293.7z M2076.6,1293.6l4-0.6
			l-2.7-5.1L2076.6,1293.6z"/>
		<path d="M2089.1,1286l-3.4,0.5l1.3,9.2l-0.8,0.1l-1.3-9.2l-3.4,0.5l-0.1-0.7l7.6-1.1L2089.1,1286z"/>
		<path d="M2096.8,1289.4l-4.6,0.7l0.6,4l5.3-0.7l0.1,0.7l-6.1,0.9l-1.4-9.9l6.1-0.9l0.1,0.7l-5.3,0.7l0.5,3.7l4.6-0.7
			L2096.8,1289.4z"/>
		<path d="M2105.7,1282.9l1.4,9.9l-0.8,0.1l-1.3-9.2l-4.2,0.6l0.3,4.1c0.1,1.5,0.1,2.6,0,3.2c-0.1,0.7-0.3,1.2-0.6,1.5
			c-0.3,0.3-0.8,0.6-1.3,0.7l-0.4,0l-0.1-0.7l0.3,0c0.5-0.1,0.8-0.3,1-0.6s0.3-0.8,0.4-1.4c0-0.6,0-1.6-0.1-2.9l-0.4-4.6
			L2105.7,1282.9z"/>
		<path d="M2114.8,1281.7l0.8-0.1l1.4,9.9l-0.8,0.1l-1.2-8.4l-4.4,9.2l-0.8,0.1l-1.4-9.9l0.8-0.1l1.2,8.4L2114.8,1281.7z"/>
		<path d="M2121.3,1286.7l-3.2,0.5l-0.1-0.7l3.2-0.5L2121.3,1286.7z"/>
		<path d="M2130.7,1289.4l-0.8,0.1l-1.3-9.2l-5.6,0.8l1.3,9.2l-0.8,0.1l-1.4-9.9l7.2-1L2130.7,1289.4z"/>
		<path d="M2133.5,1285l0.6,4l-0.8,0.1l-1.4-9.9l3.4-0.5c1-0.1,1.9,0,2.5,0.4c0.7,0.4,1.1,1.1,1.2,2c0.1,0.9-0.1,1.7-0.6,2.3
			c-0.5,0.6-1.3,1-2.4,1.1L2133.5,1285z M2133.4,1284.3l2.5-0.4c0.8-0.1,1.4-0.4,1.8-0.8s0.5-1,0.4-1.7c-0.1-0.7-0.4-1.2-0.9-1.5
			c-0.5-0.3-1.1-0.5-1.9-0.4l-2.6,0.4L2133.4,1284.3z"/>
		<path d="M2145.8,1284.5l-4.5,0.6l-0.6,2.9l-0.9,0.1l2.3-10.4l0.8-0.1l5.1,9.3l-0.9,0.1L2145.8,1284.5z M2141.5,1284.4l4-0.6
			l-2.7-5.1L2141.5,1284.4z"/>
		<path d="M2151.1,1281.8l-1.4,0.2l0.7,4.6l-0.8,0.1l-1.4-9.9l0.8-0.1l0.6,4.5l1.3-0.2l3.2-5.1l1-0.1l-3.4,5.4l5.1,4.4l-1,0.1
			L2151.1,1281.8z"/>
		<path d="M2163.8,1275.4l-3.4,0.5l1.3,9.2l-0.8,0.1l-1.3-9.2l-3.4,0.5l-0.1-0.7l7.6-1.1L2163.8,1275.4z"/>
		<path d="M2171.8,1273.6l0.8-0.1l1.4,9.9l-0.8,0.1l-1.2-8.4l-4.4,9.2l-0.8,0.1l-1.4-9.9l0.8-0.1l1.2,8.4L2171.8,1273.6z"/>
		<path d="M2178.1,1278l-1.4,0.2l0.7,4.6l-0.8,0.1l-1.4-9.9l0.8-0.1l0.6,4.5l1.3-0.2l3.2-5.1l1-0.1l-3.4,5.4l5.1,4.4l-1,0.1
			L2178.1,1278z"/>
		<path d="M2190.5,1271l0.8-0.1l1.4,9.9l-0.8,0.1l-1.2-8.4l-4.4,9.2l-0.8,0.1l-1.4-9.9l0.8-0.1l1.2,8.4L2190.5,1271z"/>
	</g>
	<g>
		<path d="M2126.9,1312.3l0.8-0.1l1,9.9l-0.8,0.1l-0.8-8.5l-4.8,9l-0.8,0.1l-1-9.9l0.8-0.1l0.8,8.5L2126.9,1312.3z"/>
		<path d="M2138.5,1321.2l-0.8,0.1l-0.5-4.7l-5.7,0.5l0.5,4.7l-0.8,0.1l-1-9.9l0.8-0.1l0.4,4.5l5.7-0.5l-0.4-4.5l0.8-0.1
			L2138.5,1321.2z"/>
		<path d="M2147.2,1315.6l-1.1,0.1l0.5,4.7l-0.8,0.1l-0.5-4.7l-1.2,0.1l-2.9,5l-1.1,0.1l3.2-5.5l-3.9-4.5l1-0.1l3.6,4.2l1.2-0.1
			l-0.4-4.5l0.8-0.1l0.4,4.5l1.2-0.1l2.7-4.8l1-0.1l-3,5.1l4.2,4.8l-1.1,0.1L2147.2,1315.6z"/>
		<path d="M2158.5,1314.4l-4.6,0.5l0.4,4l5.3-0.5l0.1,0.7l-6.2,0.6l-1-9.9l6.1-0.6l0.1,0.7l-5.3,0.5l0.4,3.7l4.6-0.5L2158.5,1314.4z
			"/>
		<path d="M2168.7,1318.2l-0.8,0.1l-0.5-4.7l-5.7,0.5l0.5,4.7l-0.8,0.1l-1-9.9l0.8-0.1l0.4,4.5l5.7-0.5l-0.4-4.5l0.8-0.1
			L2168.7,1318.2z"/>
		<path d="M2176.3,1312.7l-4.6,0.5l0.4,4l5.3-0.5l0.1,0.7l-6.2,0.6l-1-9.9l6.1-0.6l0.1,0.7l-5.3,0.5l0.4,3.7l4.6-0.5L2176.3,1312.7z
			"/>
		<path d="M2179.6,1313.1l0.4,4l-0.8,0.1l-1-9.9l3.4-0.3c1-0.1,1.9,0.1,2.5,0.6c0.6,0.5,1,1.2,1.1,2.1c0.1,0.9-0.1,1.7-0.7,2.2
			c-0.5,0.6-1.3,0.9-2.4,1L2179.6,1313.1z M2179.5,1312.4l2.5-0.2c0.8-0.1,1.4-0.3,1.8-0.8c0.4-0.4,0.5-1,0.5-1.7
			c-0.1-0.7-0.3-1.2-0.8-1.6c-0.5-0.4-1.1-0.5-1.9-0.4l-2.6,0.3L2179.5,1312.4z"/>
		<path d="M2188.1,1310.7l2.5-0.2c0.7-0.1,1.3,0,1.8,0.2c0.5,0.2,0.9,0.5,1.2,0.9c0.3,0.4,0.5,0.9,0.5,1.4c0.1,0.9-0.1,1.6-0.7,2.2
			c-0.5,0.6-1.3,0.9-2.4,1l-3.3,0.3l-1-9.9l0.8-0.1L2188.1,1310.7z M2188.1,1311.4l0.4,4.2l2.4-0.2c0.8-0.1,1.3-0.3,1.7-0.7
			c0.4-0.4,0.6-1,0.5-1.6c-0.1-0.6-0.3-1.1-0.8-1.4s-1.1-0.5-1.8-0.4L2188.1,1311.4z M2196.8,1315.5l-0.8,0.1l-1-9.9l0.8-0.1
			L2196.8,1315.5z"/>
	</g>
	<g>
		<path d="M2033,1359.3l-0.5-9.9l2.9-0.2c1.1-0.1,1.9,0.1,2.5,0.5c0.6,0.4,0.9,1,0.9,1.9c0,0.5-0.1,1-0.3,1.4
			c-0.3,0.4-0.6,0.7-1.1,0.9c0.6,0.1,1.1,0.4,1.4,0.8c0.4,0.4,0.6,0.9,0.6,1.5c0,0.9-0.2,1.6-0.7,2.1c-0.5,0.5-1.3,0.8-2.3,0.9
			L2033,1359.3z M2033.6,1353.8l2.3-0.1c0.7-0.1,1.2-0.2,1.6-0.6c0.4-0.3,0.5-0.8,0.5-1.4c0-0.6-0.3-1.1-0.7-1.4
			c-0.4-0.3-1-0.4-1.8-0.4l-2.1,0.1L2033.6,1353.8z M2033.6,1354.5l0.2,4.1l2.5-0.1c0.7,0,1.3-0.3,1.7-0.6c0.4-0.4,0.6-0.9,0.5-1.6
			c0-0.6-0.3-1.1-0.7-1.4c-0.4-0.3-1-0.5-1.7-0.4L2033.6,1354.5z"/>
		<path d="M2046.8,1353.8l-4.6,0.2l0.2,4.1l5.3-0.3l0,0.7l-6.2,0.3l-0.5-9.9l6.2-0.3l0,0.7l-5.3,0.3l0.2,3.8l4.6-0.2L2046.8,1353.8z
			"/>
		<path d="M2056.9,1358l-0.8,0l-0.3-4.8l-5.7,0.3l0.3,4.8l-0.8,0l-0.5-9.9l0.8,0l0.2,4.5l5.7-0.3l-0.2-4.5l0.8,0L2056.9,1358z"/>
		<path d="M2065.5,1347.6l0.5,9.9l-0.8,0l-0.2-4.5c-0.9,0.3-1.8,0.5-2.7,0.5c-1.1,0.1-2-0.1-2.5-0.6c-0.6-0.5-0.9-1.2-0.9-2.2
			l-0.2-2.8l0.8,0l0.1,2.8c0,0.8,0.3,1.4,0.7,1.7c0.4,0.3,1,0.5,1.9,0.4c0.9,0,1.8-0.2,2.7-0.5l-0.2-4.7L2065.5,1347.6z"/>
		<path d="M2071.7,1353.7l2.5-6.5l1-0.1l-3.4,8.5l-0.2,0.5c-0.4,0.9-1.1,1.4-2.1,1.4c-0.3,0-0.5,0-0.6,0l0-0.7c0.1,0,0.3,0,0.6,0
			c0.6,0,1-0.3,1.3-0.9l0.2-0.3l0.4-0.9l-4.2-7.1l1-0.1L2071.7,1353.7z"/>
		<path d="M2078,1352.9l0.2,4l-0.8,0l-0.5-9.9l3.4-0.2c1-0.1,1.9,0.2,2.5,0.7c0.6,0.5,1,1.2,1,2.1c0,0.9-0.2,1.7-0.7,2.2
			s-1.4,0.8-2.5,0.9L2078,1352.9z M2077.9,1352.1l2.5-0.1c0.8,0,1.4-0.3,1.8-0.7c0.4-0.4,0.6-1,0.6-1.7c0-0.7-0.3-1.2-0.7-1.6
			c-0.4-0.4-1.1-0.6-1.8-0.5l-2.6,0.1L2077.9,1352.1z"/>
		<path d="M2093.3,1356.1l-0.8,0l-0.3-4.8l-5.7,0.3l0.3,4.8l-0.8,0l-0.5-9.9l0.8,0l0.2,4.5l5.7-0.3l-0.2-4.5l0.8,0L2093.3,1356.1z"
			/>
		<path d="M2096.4,1350.3l2.5-0.1c0.7,0,1.3,0,1.8,0.2c0.5,0.2,0.9,0.5,1.2,0.9c0.3,0.4,0.4,0.9,0.5,1.5c0,0.9-0.2,1.6-0.8,2.1
			s-1.4,0.8-2.4,0.9l-3.3,0.2l-0.5-9.9l0.8,0L2096.4,1350.3z M2096.4,1351l0.2,4.2l2.5-0.1c0.8,0,1.4-0.3,1.8-0.7
			c0.4-0.4,0.6-0.9,0.6-1.6c0-0.6-0.3-1.1-0.7-1.5c-0.4-0.3-1-0.5-1.8-0.5L2096.4,1351z M2104.9,1355.5l-0.8,0l-0.5-9.9l0.8,0
			L2104.9,1355.5z"/>
		<path d="M2112.8,1350.3l-4.6,0.2l0.2,4.1l5.3-0.3l0,0.7l-6.2,0.3l-0.5-9.9l6.2-0.3l0,0.7l-5.3,0.3l0.2,3.8l4.6-0.2L2112.8,1350.3z
			"/>
		<path d="M2124.9,1344.4l0.8,0l0.5,9.9l-0.8,0l-0.5-8.5l-5.2,8.8l-0.8,0l-0.5-9.9l0.8,0l0.5,8.5L2124.9,1344.4z"/>
		<path d="M2136.2,1353.8l-0.8,0l-0.3-4.8l-5.7,0.3l0.3,4.8l-0.8,0l-0.5-9.9l0.8,0l0.2,4.5l5.7-0.3l-0.2-4.5l0.8,0L2136.2,1353.8z"
			/>
		<path d="M2138.7,1353.7l-0.5-9.9l2.9-0.2c1.1-0.1,1.9,0.1,2.5,0.5c0.6,0.4,0.9,1,0.9,1.9c0,0.5-0.1,1-0.3,1.4
			c-0.3,0.4-0.6,0.7-1.1,0.9c0.6,0.1,1.1,0.4,1.4,0.8c0.4,0.4,0.6,0.9,0.6,1.5c0,0.9-0.2,1.6-0.7,2.1c-0.5,0.5-1.3,0.8-2.3,0.9
			L2138.7,1353.7z M2139.3,1348.2l2.3-0.1c0.7-0.1,1.2-0.2,1.6-0.6c0.4-0.3,0.5-0.8,0.5-1.4c0-0.6-0.3-1.1-0.7-1.4
			c-0.4-0.3-1-0.4-1.8-0.4l-2.1,0.1L2139.3,1348.2z M2139.3,1348.9l0.2,4.1l2.5-0.1c0.7,0,1.3-0.3,1.7-0.6c0.4-0.4,0.6-0.9,0.5-1.6
			c0-0.6-0.3-1.1-0.7-1.4c-0.4-0.3-1-0.5-1.7-0.4L2139.3,1348.9z"/>
		<path d="M2152.5,1348.2l-4.6,0.2l0.2,4.1l5.3-0.3l0,0.7l-6.2,0.3l-0.5-9.9l6.2-0.3l0,0.7l-5.3,0.3l0.2,3.8l4.6-0.2L2152.5,1348.2z
			"/>
		<path d="M2162.1,1349.3c-0.1,1.1-0.4,1.9-1,2.5s-1.4,0.9-2.5,1c-0.7,0-1.4-0.1-2-0.4c-0.6-0.3-1.1-0.8-1.4-1.5s-0.5-1.4-0.6-2.3
			l-0.1-1.3c0-0.9,0.1-1.7,0.3-2.4c0.3-0.7,0.7-1.2,1.3-1.7c0.6-0.4,1.2-0.6,2-0.7c1.1-0.1,1.9,0.2,2.6,0.7c0.6,0.5,1,1.3,1.2,2.3
			l-0.8,0c-0.3-1.7-1.3-2.5-2.9-2.4c-0.9,0-1.6,0.4-2.1,1.1c-0.5,0.7-0.7,1.6-0.7,2.8l0.1,1.2c0.1,1.1,0.4,2,0.9,2.7s1.3,1,2.2,0.9
			c0.9,0,1.5-0.3,2-0.7c0.4-0.4,0.7-1.1,0.7-1.9L2162.1,1349.3z"/>
		<path d="M2170.4,1342.7l-3.4,0.2l0.5,9.2l-0.8,0l-0.5-9.2l-3.4,0.2l0-0.7l7.6-0.4L2170.4,1342.7z"/>
		<path d="M2179.4,1347.1c0,0.9-0.1,1.7-0.3,2.4c-0.3,0.7-0.7,1.3-1.3,1.7c-0.6,0.4-1.2,0.6-2,0.7c-1.2,0.1-2.1-0.3-2.9-1.1
			c-0.8-0.8-1.2-1.9-1.3-3.3l-0.1-1c0-0.9,0.1-1.7,0.4-2.4c0.3-0.7,0.7-1.3,1.3-1.7c0.6-0.4,1.2-0.6,2-0.7s1.4,0.1,2.1,0.4
			c0.6,0.3,1.1,0.8,1.4,1.5s0.6,1.4,0.6,2.3L2179.4,1347.1z M2178.5,1346c-0.1-1.2-0.4-2.1-1-2.8c-0.6-0.6-1.3-0.9-2.3-0.9
			c-0.9,0-1.6,0.4-2.2,1.1c-0.5,0.7-0.7,1.7-0.7,2.9l0.1,1c0.1,1.2,0.4,2.1,1,2.8c0.6,0.7,1.3,1,2.3,0.9c1-0.1,1.7-0.4,2.2-1.1
			c0.5-0.7,0.7-1.7,0.6-2.9L2178.5,1346z"/>
		<path d="M2182.4,1347.3l0.2,4l-0.8,0l-0.5-9.9l3.4-0.2c1-0.1,1.9,0.2,2.5,0.7c0.6,0.5,1,1.2,1,2.1c0,0.9-0.2,1.7-0.7,2.2
			s-1.4,0.8-2.5,0.9L2182.4,1347.3z M2182.3,1346.6l2.5-0.1c0.8,0,1.4-0.3,1.8-0.7c0.4-0.4,0.6-1,0.6-1.7c0-0.7-0.3-1.2-0.7-1.6
			c-0.4-0.4-1.1-0.6-1.8-0.5l-2.6,0.1L2182.3,1346.6z"/>
		<path d="M2190.9,1345.3l2.5-0.1c0.7,0,1.3,0,1.8,0.2c0.5,0.2,0.9,0.5,1.2,0.9c0.3,0.4,0.4,0.9,0.5,1.5c0,0.9-0.2,1.6-0.8,2.1
			s-1.4,0.8-2.4,0.9l-3.3,0.2l-0.5-9.9l0.8,0L2190.9,1345.3z M2191,1346l0.2,4.2l2.5-0.1c0.8,0,1.4-0.3,1.8-0.7
			c0.4-0.4,0.6-0.9,0.6-1.6c0-0.6-0.3-1.1-0.7-1.5c-0.4-0.3-1-0.5-1.8-0.5L2191,1346z M2199.4,1350.4l-0.8,0l-0.5-9.9l0.8,0
			L2199.4,1350.4z"/>
	</g>
	<g>
		<path d="M2016.1,1383.7l2.8-6.4l1,0l-3.8,8.4l-0.2,0.5c-0.5,0.9-1.2,1.3-2.1,1.3c-0.3,0-0.5,0-0.6-0.1l0.1-0.7c0.1,0,0.3,0,0.6,0
			c0.6,0,1-0.3,1.4-0.9l0.2-0.3l0.4-0.9l-3.8-7.3l1,0L2016.1,1383.7z"/>
		<path d="M2028.3,1377.2l0.1,10l-0.8,0l0-4.5c-0.9,0.3-1.8,0.4-2.7,0.4c-1.1,0-2-0.2-2.5-0.7c-0.5-0.5-0.8-1.2-0.8-2.2l0-2.8l0.8,0
			l0,2.8c0,0.8,0.2,1.4,0.6,1.8c0.4,0.4,1,0.5,1.9,0.5c0.9,0,1.8-0.1,2.7-0.4l0-4.7L2028.3,1377.2z"/>
		<path d="M2036.4,1382.3l-4.7,0l0,4.1l5.4-0.1l0,0.7l-6.2,0.1l-0.1-10l6.2-0.1l0,0.7l-5.3,0.1l0,3.8l4.7,0L2036.4,1382.3z"/>
		<path d="M2046.3,1386.9l-0.8,0l0-4.8l-5.7,0.1l0,4.8l-0.8,0l-0.1-10l0.8,0l0,4.5l5.7-0.1l0-4.5l0.8,0L2046.3,1386.9z"/>
		<path d="M2049.6,1381.3l2.5,0c0.7,0,1.3,0.1,1.8,0.3s0.9,0.5,1.1,1c0.3,0.4,0.4,0.9,0.4,1.5c0,0.9-0.3,1.6-0.9,2.1
			c-0.6,0.5-1.4,0.8-2.4,0.8l-3.3,0l-0.1-10l0.8,0L2049.6,1381.3z M2049.6,1382l0,4.2l2.5,0c0.8,0,1.4-0.2,1.8-0.6
			c0.4-0.4,0.6-0.9,0.6-1.6c0-0.6-0.2-1.1-0.6-1.5s-1-0.6-1.8-0.6L2049.6,1382z M2057.9,1386.8l-0.8,0l-0.1-10l0.8,0L2057.9,1386.8z
			"/>
		<path d="M2065.9,1382l-4.7,0l0,4.1l5.4-0.1l0,0.7l-6.2,0.1l-0.1-10l6.2-0.1l0,0.7l-5.3,0.1l0,3.8l4.7,0L2065.9,1382z"/>
		<path d="M2078.3,1376.7l0.8,0l0.1,10l-0.8,0l-0.1-8.5l-5.6,8.6l-0.8,0l-0.1-10l0.8,0l0.1,8.5L2078.3,1376.7z"/>
		<path d="M2091.7,1376.6l0.8,0l0.1,10l-0.8,0l-0.1-8.5l-5.6,8.6l-0.8,0l-0.1-10l0.8,0l0.1,8.5L2091.7,1376.6z"/>
		<path d="M2102.2,1383.3c-0.1,1-0.5,1.9-1.1,2.4c-0.6,0.6-1.5,0.8-2.5,0.9c-0.7,0-1.4-0.2-2-0.5c-0.6-0.4-1-0.9-1.3-1.6
			c-0.3-0.7-0.5-1.4-0.5-2.3l0-1.3c0-0.9,0.1-1.7,0.4-2.4c0.3-0.7,0.7-1.2,1.3-1.6c0.6-0.4,1.2-0.6,2-0.6c1.1,0,1.9,0.3,2.5,0.8
			s1,1.4,1.1,2.4l-0.8,0c-0.2-1.7-1.2-2.5-2.8-2.5c-0.9,0-1.6,0.4-2.1,1c-0.5,0.7-0.8,1.6-0.8,2.8l0,1.2c0,1.1,0.3,2.1,0.8,2.7
			c0.5,0.7,1.2,1,2.1,1c0.9,0,1.5-0.2,2-0.7s0.7-1.1,0.8-1.9L2102.2,1383.3z"/>
		<path d="M2111.3,1383.2c-0.1,1-0.5,1.9-1.1,2.4c-0.6,0.6-1.5,0.8-2.5,0.9c-0.7,0-1.4-0.2-2-0.5c-0.6-0.4-1-0.9-1.3-1.6
			c-0.3-0.7-0.5-1.4-0.5-2.3l0-1.3c0-0.9,0.1-1.7,0.4-2.4c0.3-0.7,0.7-1.2,1.3-1.6c0.6-0.4,1.2-0.6,2-0.6c1.1,0,1.9,0.3,2.5,0.8
			s1,1.4,1.1,2.4l-0.8,0c-0.2-1.7-1.2-2.5-2.8-2.5c-0.9,0-1.6,0.4-2.1,1c-0.5,0.7-0.8,1.6-0.8,2.8l0,1.2c0,1.1,0.3,2.1,0.8,2.7
			c0.5,0.7,1.2,1,2.1,1c0.9,0,1.5-0.2,2-0.7s0.7-1.1,0.8-1.9L2111.3,1383.2z"/>
		<path d="M2120.5,1376.3l0.1,10l-0.8,0l-0.1-9.2l-4.2,0l-0.2,4.1c-0.1,1.5-0.2,2.5-0.4,3.2s-0.4,1.2-0.8,1.5
			c-0.3,0.3-0.8,0.5-1.4,0.5l-0.4,0l0-0.7l0.3,0c0.5,0,0.8-0.2,1.1-0.5c0.2-0.3,0.4-0.7,0.5-1.3c0.1-0.6,0.2-1.6,0.3-2.8l0.2-4.6
			L2120.5,1376.3z"/>
		<path d="M2128.6,1381.4l-4.7,0l0,4.1l5.4-0.1l0,0.7l-6.2,0.1l-0.1-10l6.2-0.1l0,0.7l-5.3,0.1l0,3.8l4.7,0L2128.6,1381.4z"/>
		<path d="M2138.5,1385.3l1.1,0l0,3.1l-0.8,0l0-2.4l-7.5,0.1l0,2.4l-0.8,0l0-3.1l0.7,0c0.5-0.5,0.9-1.3,1.2-2.3
			c0.3-1,0.5-2.1,0.5-3.3l0.1-3.6l5.5-0.1L2138.5,1385.3z M2132,1385.4l5.7-0.1l-0.1-8.5l-3.9,0l-0.1,2.9c0,1.2-0.2,2.3-0.5,3.3
			C2132.8,1384,2132.5,1384.8,2132,1385.4z"/>
		<path d="M2148.4,1381.5c0,0.9-0.1,1.7-0.5,2.4c-0.3,0.7-0.8,1.2-1.3,1.6c-0.6,0.4-1.3,0.6-2,0.6c-1.2,0-2.1-0.4-2.8-1.2
			c-0.7-0.8-1.1-1.9-1.1-3.4l0-1c0-0.9,0.1-1.7,0.5-2.4c0.3-0.7,0.8-1.2,1.3-1.6c0.6-0.4,1.3-0.6,2-0.6c0.8,0,1.4,0.2,2,0.5
			c0.6,0.4,1,0.9,1.4,1.6c0.3,0.7,0.5,1.5,0.5,2.3L2148.4,1381.5z M2147.6,1380.5c0-1.2-0.3-2.1-0.8-2.8s-1.3-1-2.2-1
			c-0.9,0-1.7,0.4-2.2,1s-0.8,1.6-0.8,2.9l0,1c0,1.2,0.3,2.1,0.8,2.8s1.3,1,2.2,1c1,0,1.7-0.4,2.2-1c0.5-0.7,0.8-1.6,0.8-2.9
			L2147.6,1380.5z"/>
		<path d="M2150.6,1385.9l-0.1-10l2.9,0c1.1,0,1.9,0.2,2.4,0.6c0.6,0.4,0.8,1.1,0.8,1.9c0,0.5-0.1,1-0.4,1.3
			c-0.3,0.4-0.7,0.7-1.1,0.8c0.6,0.1,1,0.4,1.4,0.8s0.5,0.9,0.5,1.5c0,0.9-0.3,1.6-0.8,2.1c-0.6,0.5-1.3,0.8-2.4,0.8L2150.6,1385.9z
			 M2151.4,1380.4l2.3,0c0.7,0,1.2-0.2,1.6-0.5c0.4-0.3,0.6-0.8,0.6-1.4c0-0.6-0.2-1.1-0.6-1.4c-0.4-0.3-1-0.4-1.8-0.4l-2.1,0
			L2151.4,1380.4z M2151.4,1381.2l0,4.1l2.5,0c0.7,0,1.3-0.2,1.7-0.6s0.6-0.9,0.6-1.5c0-0.6-0.2-1.1-0.6-1.5c-0.4-0.4-1-0.5-1.7-0.5
			L2151.4,1381.2z"/>
		<path d="M2164.5,1383l-4.5,0l-1,2.8l-0.9,0l3.7-10l0.8,0l3.9,9.9l-0.9,0L2164.5,1383z M2160.3,1382.3l4,0l-2-5.4L2160.3,1382.3z"
			/>
		<path d="M2173.7,1376.5l-3.4,0l0.1,9.2l-0.8,0l-0.1-9.2l-3.4,0l0-0.7l7.7-0.1L2173.7,1376.5z"/>
		<path d="M2180.8,1380.9l-4.7,0l0,4.1l5.4-0.1l0,0.7l-6.2,0.1l-0.1-10l6.2-0.1l0,0.7l-5.3,0.1l0,3.8l4.7,0L2180.8,1380.9z"/>
		<path d="M2190.6,1375.6l0.1,10l-0.8,0l-0.1-9.2l-4.2,0l-0.2,4.1c-0.1,1.5-0.2,2.5-0.4,3.2s-0.4,1.2-0.8,1.5s-0.8,0.5-1.4,0.5
			l-0.4,0l0-0.7l0.3,0c0.5,0,0.8-0.2,1.1-0.5c0.2-0.3,0.4-0.7,0.5-1.3c0.1-0.6,0.2-1.6,0.3-2.8l0.2-4.6L2190.6,1375.6z"/>
		<path d="M2199.7,1375.5l0.8,0l0.1,10l-0.8,0l-0.1-8.5l-5.6,8.6l-0.8,0l-0.1-10l0.8,0l0.1,8.5L2199.7,1375.5z"/>
	</g>
	<g>
		<path d="M2123.9,1407.9l-0.3,9.9l-0.8,0l0.2-4.5c-0.9,0.2-1.8,0.3-2.7,0.3c-1.1,0-2-0.3-2.5-0.8c-0.5-0.5-0.8-1.3-0.8-2.3l0.1-2.8
			l0.8,0l-0.1,2.8c0,0.8,0.2,1.4,0.5,1.8c0.4,0.4,1,0.6,1.9,0.6c0.9,0,1.8-0.1,2.7-0.3l0.2-4.7L2123.9,1407.9z"/>
		<path d="M2133,1408.3l0.8,0l-0.3,9.9l-0.8,0l0.3-8.5l-6,8.3l-0.8,0l0.3-9.9l0.8,0l-0.3,8.5L2133,1408.3z"/>
		<path d="M2143.4,1418.6l-0.8,0l0.2-4.8l-5.7-0.2l-0.2,4.8l-0.8,0l0.3-9.9l0.8,0l-0.2,4.5l5.7,0.2l0.2-4.5l0.8,0L2143.4,1418.6z"/>
		<path d="M2153.4,1414.5c0,0.9-0.2,1.7-0.6,2.4c-0.3,0.7-0.8,1.2-1.4,1.6c-0.6,0.4-1.3,0.5-2.1,0.5c-1.2,0-2.1-0.5-2.8-1.3
			c-0.7-0.9-1-2-1-3.4l0-1c0-0.9,0.2-1.7,0.6-2.4s0.8-1.2,1.4-1.6c0.6-0.4,1.3-0.5,2-0.5c0.8,0,1.4,0.2,2,0.6c0.6,0.4,1,0.9,1.3,1.6
			s0.4,1.5,0.4,2.4L2153.4,1414.5z M2152.6,1413.4c0-1.2-0.2-2.1-0.7-2.8c-0.5-0.7-1.2-1.1-2.2-1.1c-0.9,0-1.7,0.3-2.2,0.9
			c-0.6,0.7-0.9,1.6-0.9,2.8l0,1c0,1.2,0.2,2.1,0.7,2.8c0.5,0.7,1.3,1.1,2.2,1.1c1,0,1.7-0.3,2.3-0.9c0.6-0.7,0.9-1.6,0.9-2.8
			L2152.6,1413.4z"/>
		<path d="M2155.4,1419l0.3-9.9l2.9,0.1c1.1,0,1.9,0.3,2.4,0.7c0.5,0.5,0.8,1.1,0.8,2c0,0.5-0.2,1-0.5,1.3s-0.7,0.6-1.2,0.8
			c0.6,0.1,1,0.4,1.4,0.9s0.5,1,0.5,1.5c0,0.9-0.3,1.6-0.9,2s-1.4,0.7-2.4,0.7L2155.4,1419z M2156.4,1414.2l-0.1,4.1l2.5,0.1
			c0.7,0,1.3-0.1,1.7-0.5c0.4-0.4,0.7-0.9,0.7-1.5c0-0.6-0.2-1.1-0.6-1.5c-0.4-0.4-0.9-0.6-1.7-0.6L2156.4,1414.2z M2156.4,1413.5
			l2.3,0.1c0.7,0,1.3-0.1,1.6-0.4c0.4-0.3,0.6-0.8,0.6-1.4c0-0.6-0.2-1.1-0.5-1.4c-0.4-0.3-1-0.5-1.8-0.5l-2.1-0.1L2156.4,1413.5z"
			/>
		<path d="M2171.4,1419.5l-0.8,0l0.2-4.8l-5.7-0.2l-0.2,4.8l-0.8,0l0.3-9.9l0.8,0l-0.2,4.5l5.7,0.2l0.2-4.5l0.8,0L2171.4,1419.5z"/>
		<path d="M2180.8,1409.9l0.8,0l-0.3,9.9l-0.8,0l0.3-8.5l-6,8.3l-0.8,0l0.3-9.9l0.8,0l-0.3,8.5L2180.8,1409.9z"/>
		<path d="M2186.2,1415.4l-1.4,0l-0.2,4.7l-0.8,0l0.3-9.9l0.8,0l-0.2,4.6l1.3,0l4-4.4l1.1,0l-4.3,4.7l4.2,5.2l-1,0L2186.2,1415.4z"
			/>
		<path d="M2199.7,1410.5l0.8,0l-0.3,9.9l-0.8,0l0.3-8.5l-6,8.3l-0.8,0l0.3-9.9l0.8,0l-0.3,8.5L2199.7,1410.5z"/>
	</g>
	<g>
		<path d="M2087.9,1443.8c-0.2,1-0.6,1.8-1.3,2.3c-0.7,0.5-1.5,0.7-2.6,0.6c-0.7-0.1-1.4-0.3-1.9-0.7s-0.9-1-1.2-1.7
			c-0.3-0.7-0.4-1.5-0.3-2.3l0.1-1.3c0.1-0.9,0.3-1.7,0.6-2.3c0.4-0.7,0.8-1.1,1.5-1.5s1.3-0.5,2-0.4c1.1,0.1,1.9,0.4,2.5,1.1
			c0.6,0.6,0.9,1.4,0.9,2.5l-0.8-0.1c-0.1-1.7-0.9-2.6-2.5-2.7c-0.9-0.1-1.6,0.2-2.2,0.8c-0.6,0.6-0.9,1.5-1,2.7l-0.1,1.2
			c-0.1,1.1,0.1,2.1,0.6,2.8s1.1,1.1,2,1.2c0.9,0.1,1.6-0.1,2-0.5c0.5-0.4,0.8-1,1-1.8L2087.9,1443.8z"/>
		<path d="M2097,1438.3l-3.4-0.3l-0.7,9.2l-0.8-0.1l0.7-9.2l-3.4-0.3l0.1-0.7l7.6,0.6L2097,1438.3z"/>
		<path d="M2101.5,1444.4l3.3-6.1l1,0.1l-4.5,8l-0.3,0.5c-0.5,0.8-1.3,1.2-2.2,1.1c-0.3,0-0.5-0.1-0.6-0.1l0.1-0.7
			c0.1,0,0.3,0.1,0.6,0.1c0.6,0,1-0.2,1.4-0.8l0.2-0.3l0.5-0.9l-3.2-7.6l1,0.1L2101.5,1444.4z"/>
		<path d="M2113.5,1448.2l1.1,0.1l-0.2,3.1l-0.8-0.1l0.2-2.4l-7.5-0.6l-0.2,2.4l-0.8-0.1l0.2-3.1l0.7,0.1c0.5-0.5,1-1.2,1.4-2.2
			c0.4-1,0.7-2.1,0.8-3.3l0.5-3.6l5.5,0.4L2113.5,1448.2z M2107,1447.7l5.6,0.4l0.7-8.5l-3.8-0.3l-0.4,2.8c-0.2,1.2-0.4,2.3-0.8,3.2
			C2108,1446.3,2107.5,1447.1,2107,1447.7z"/>
		<path d="M2122,1444.8l-4.6-0.4l-0.3,4l5.3,0.4l-0.1,0.7l-6.2-0.5l0.8-9.9l6.1,0.5l-0.1,0.7l-5.3-0.4l-0.3,3.7l4.6,0.4L2122,1444.8
			z"/>
		<path d="M2131.5,1450.3l-0.8-0.1l0.4-4.8l-5.7-0.4l-0.4,4.8l-0.8-0.1l0.8-9.9l0.8,0.1l-0.3,4.5l5.7,0.4l0.3-4.5l0.8,0.1
			L2131.5,1450.3z"/>
		<path d="M2141.3,1441.8l-3.4-0.3l-0.7,9.2l-0.8-0.1l0.7-9.2l-3.4-0.3l0.1-0.7l7.6,0.6L2141.3,1441.8z"/>
		<path d="M2143.4,1445.6l2.5,0.2c0.7,0.1,1.3,0.2,1.7,0.5s0.8,0.6,1.1,1.1s0.3,0.9,0.3,1.5c-0.1,0.9-0.4,1.5-1,2
			c-0.6,0.5-1.5,0.6-2.5,0.6l-3.3-0.3l0.8-9.9l0.8,0.1L2143.4,1445.6z M2143.4,1446.3l-0.3,4.2l2.5,0.2c0.8,0.1,1.4-0.1,1.8-0.4
			c0.5-0.3,0.7-0.8,0.8-1.5c0-0.6-0.1-1.1-0.5-1.5c-0.4-0.4-1-0.6-1.7-0.7L2143.4,1446.3z M2151.2,1451.8l-0.8-0.1l0.8-9.9l0.8,0.1
			L2151.2,1451.8z"/>
		<path d="M2157.2,1452.3l0.8-9.9l2.9,0.2c1.1,0.1,1.9,0.4,2.4,0.8s0.7,1.2,0.7,2c0,0.5-0.2,0.9-0.5,1.3c-0.3,0.4-0.7,0.6-1.2,0.7
			c0.6,0.2,1,0.5,1.3,1c0.3,0.5,0.5,1,0.4,1.6c-0.1,0.9-0.4,1.5-1,2c-0.6,0.4-1.4,0.6-2.4,0.6L2157.2,1452.3z M2158.4,1447.6
			l-0.3,4.1l2.5,0.2c0.7,0.1,1.3-0.1,1.8-0.4c0.4-0.3,0.7-0.8,0.7-1.5c0-0.6-0.1-1.1-0.5-1.5c-0.4-0.4-0.9-0.6-1.6-0.7
			L2158.4,1447.6z M2158.5,1446.9l2.3,0.2c0.7,0,1.3-0.1,1.7-0.4c0.4-0.3,0.6-0.7,0.7-1.3c0-0.6-0.1-1.1-0.5-1.5
			c-0.4-0.3-1-0.5-1.8-0.6l-2.1-0.2L2158.5,1446.9z"/>
		<path d="M2169.3,1449.7l3.3-6.1l1,0.1l-4.5,8l-0.3,0.5c-0.5,0.8-1.3,1.2-2.2,1.1c-0.3,0-0.5-0.1-0.6-0.1l0.1-0.7
			c0.1,0,0.3,0.1,0.6,0.1c0.6,0,1-0.2,1.4-0.8l0.2-0.3l0.5-0.9l-3.2-7.6l1,0.1L2169.3,1449.7z"/>
		<path d="M2180.4,1446.7c0-0.6-0.1-1.1-0.6-1.5s-1-0.6-1.9-0.7c-0.7-0.1-1.3,0.1-1.8,0.4c-0.5,0.3-0.8,0.8-0.8,1.4l-0.8-0.1
			c0-0.5,0.2-1,0.5-1.4s0.7-0.7,1.3-0.9c0.5-0.2,1.1-0.3,1.7-0.2c1.1,0.1,1.9,0.4,2.5,0.9c0.6,0.5,0.8,1.2,0.8,2.1
			c0,0.5-0.2,0.9-0.6,1.3s-0.8,0.6-1.4,0.8c1.3,0.4,1.8,1.3,1.7,2.5c-0.1,0.9-0.4,1.5-1.1,2c-0.7,0.5-1.6,0.7-2.7,0.6
			c-0.7-0.1-1.3-0.2-1.8-0.5c-0.5-0.3-0.9-0.7-1.2-1.1c-0.2-0.5-0.3-1-0.3-1.5l0.8,0.1c0,0.6,0.2,1.2,0.6,1.6
			c0.5,0.4,1.1,0.7,1.8,0.8c0.9,0.1,1.5-0.1,2.1-0.4s0.8-0.8,0.8-1.5c0.1-0.7-0.1-1.2-0.5-1.6c-0.4-0.4-1.1-0.6-2-0.7l-1.3-0.1
			l0.1-0.7l1.2,0.1c0.8,0.1,1.5-0.1,1.9-0.3C2180.1,1447.8,2180.4,1447.4,2180.4,1446.7z"/>
		<path d="M2190.4,1450.4c-0.1,0.9-0.3,1.7-0.7,2.4c-0.4,0.7-0.9,1.2-1.5,1.5c-0.6,0.3-1.3,0.5-2.1,0.4c-1.2-0.1-2.1-0.6-2.7-1.5
			c-0.6-0.9-0.9-2-0.8-3.4l0.1-1c0.1-0.9,0.3-1.7,0.7-2.4c0.4-0.7,0.9-1.2,1.5-1.5s1.3-0.5,2.1-0.4c0.8,0.1,1.4,0.3,2,0.7
			c0.6,0.4,1,1,1.2,1.7s0.4,1.5,0.3,2.4L2190.4,1450.4z M2189.7,1449.3c0.1-1.2-0.1-2.2-0.6-2.9c-0.5-0.7-1.2-1.1-2.1-1.2
			c-0.9-0.1-1.7,0.2-2.3,0.8c-0.6,0.6-0.9,1.6-1,2.8l-0.1,1c-0.1,1.2,0.1,2.1,0.6,2.9c0.5,0.7,1.2,1.1,2.1,1.2
			c0.9,0.1,1.7-0.2,2.3-0.8s0.9-1.6,1-2.8L2189.7,1449.3z"/>
		<path d="M2192.2,1455l0.8-9.9l2.9,0.2c1.1,0.1,1.9,0.4,2.4,0.8s0.7,1.2,0.7,2c0,0.5-0.2,0.9-0.5,1.3c-0.3,0.4-0.7,0.6-1.2,0.7
			c0.6,0.2,1,0.5,1.3,1c0.3,0.5,0.5,1,0.4,1.6c-0.1,0.9-0.4,1.5-1,2c-0.6,0.4-1.4,0.6-2.4,0.6L2192.2,1455z M2193.4,1450.3l-0.3,4.1
			l2.5,0.2c0.7,0.1,1.3-0.1,1.8-0.4c0.4-0.3,0.7-0.8,0.7-1.5c0-0.6-0.1-1.1-0.5-1.5c-0.4-0.4-0.9-0.6-1.6-0.7L2193.4,1450.3z
			 M2193.5,1449.6l2.3,0.2c0.7,0,1.3-0.1,1.7-0.4c0.4-0.3,0.6-0.7,0.7-1.3c0-0.6-0.1-1.1-0.5-1.5c-0.4-0.3-1-0.5-1.8-0.6l-2.1-0.2
			L2193.5,1449.6z"/>
	</g>
	<g>
		<path d="M2013.8,1459l-3.4-0.4l-1.1,9.2l-0.8-0.1l1.1-9.2l-3.4-0.4l0.1-0.7l7.6,0.9L2013.8,1459z"/>
		<path d="M2019.4,1466.2l-4.5-0.5l-1.4,2.7l-0.9-0.1l4.9-9.4l0.8,0.1l2.5,10.3l-0.9-0.1L2019.4,1466.2z M2015.3,1465l4,0.5
			l-1.3-5.6L2015.3,1465z"/>
		<path d="M2031,1460.4l-1.2,9.9l-0.8-0.1l1.1-9.2l-4.2-0.5l-0.7,4.1c-0.3,1.5-0.5,2.5-0.8,3.1c-0.3,0.6-0.6,1.1-1,1.3
			c-0.4,0.3-0.9,0.4-1.5,0.3l-0.4,0l0.1-0.7l0.3,0c0.5,0,0.8-0.1,1.1-0.3c0.3-0.2,0.5-0.7,0.7-1.3c0.2-0.6,0.4-1.5,0.6-2.8l0.8-4.6
			L2031,1460.4z"/>
		<path d="M2038.1,1468.5l-4.5-0.5l-1.4,2.7l-0.9-0.1l4.9-9.4l0.8,0.1l2.5,10.3l-0.9-0.1L2038.1,1468.5z M2034,1467.2l4,0.5
			l-1.3-5.6L2034,1467.2z"/>
		<path d="M2048.5,1472.5l-0.8-0.1l0.6-4.7l-5.6-0.7l-0.6,4.7l-0.8-0.1l1.2-9.9l0.8,0.1l-0.5,4.4l5.6,0.7l0.5-4.4l0.8,0.1
			L2048.5,1472.5z"/>
		<path d="M2058.6,1464.5l-3.4-0.4l-1.1,9.2l-0.8-0.1l1.1-9.2l-3.4-0.4l0.1-0.7l7.6,0.9L2058.6,1464.5z"/>
		<path d="M2067.2,1464.8l-1.2,9.9l-0.8-0.1l1.1-9.2l-4.2-0.5l-0.7,4.1c-0.3,1.5-0.5,2.5-0.8,3.1c-0.3,0.6-0.6,1.1-1,1.3
			c-0.4,0.3-0.9,0.4-1.5,0.3l-0.4,0l0.1-0.7l0.3,0c0.5,0,0.8-0.1,1.1-0.3c0.3-0.2,0.5-0.7,0.7-1.3c0.2-0.6,0.4-1.5,0.6-2.8l0.8-4.6
			L2067.2,1464.8z"/>
		<path d="M2076.2,1465.9l0.8,0.1l-1.2,9.9l-0.8-0.1l1-8.5l-6.7,7.8l-0.8-0.1l1.2-9.9l0.8,0.1l-1,8.4L2076.2,1465.9z"/>
		<path d="M2078.4,1476.2l1.2-9.9l2.9,0.4c1.1,0.1,1.8,0.4,2.3,0.9s0.7,1.2,0.6,2c-0.1,0.5-0.3,0.9-0.6,1.3
			c-0.3,0.3-0.7,0.6-1.2,0.7c0.6,0.2,1,0.5,1.3,1c0.3,0.5,0.4,1,0.3,1.6c-0.1,0.9-0.5,1.5-1.1,1.9s-1.4,0.6-2.4,0.4L2078.4,1476.2z
			 M2079.8,1471.6l-0.5,4l2.5,0.3c0.7,0.1,1.3,0,1.8-0.3s0.7-0.8,0.8-1.4c0.1-0.6-0.1-1.1-0.4-1.5c-0.4-0.4-0.9-0.6-1.6-0.7
			L2079.8,1471.6z M2079.9,1470.8l2.3,0.3c0.7,0.1,1.3,0,1.7-0.3s0.7-0.7,0.7-1.3c0.1-0.6-0.1-1.1-0.4-1.5c-0.4-0.3-0.9-0.6-1.7-0.7
			l-2.1-0.3L2079.9,1470.8z"/>
		<path d="M2088.4,1471.7l2.5,0.3c0.7,0.1,1.2,0.3,1.7,0.5c0.5,0.3,0.8,0.7,1,1.1s0.3,1,0.2,1.5c-0.1,0.9-0.5,1.5-1.1,2
			s-1.5,0.6-2.5,0.5l-3.3-0.4l1.2-9.9l0.8,0.1L2088.4,1471.7z M2088.3,1472.5l-0.5,4.2l2.4,0.3c0.8,0.1,1.4,0,1.9-0.3
			s0.8-0.8,0.8-1.5c0.1-0.6-0.1-1.1-0.4-1.6c-0.4-0.4-0.9-0.7-1.7-0.8L2088.3,1472.5z M2095.9,1478.3l-0.8-0.1l1.2-9.9l0.8,0.1
			L2095.9,1478.3z"/>
		<path d="M2104.5,1474.6l-4.6-0.6l-0.5,4l5.3,0.6l-0.1,0.7l-6.1-0.8l1.2-9.9l6.1,0.7l-0.1,0.7l-5.3-0.6l-0.5,3.7l4.6,0.6
			L2104.5,1474.6z"/>
		<path d="M2111.8,1470.2l-1.1,9.2l3.9,0.5l1.1-9.2l0.8,0.1l-1.1,9.2l3.9,0.5l1.1-9.2l0.8,0.1l-1.2,9.9l-10.4-1.3l1.2-9.9
			L2111.8,1470.2z"/>
		<path d="M2125.4,1477.2l-1.4-0.2l-0.6,4.6l-0.8-0.1l1.2-9.9l0.8,0.1l-0.6,4.5l1.3,0.2l4.4-4.1l1.1,0.1l-4.7,4.4l3.7,5.6l-1-0.1
			L2125.4,1477.2z"/>
		<path d="M2139.1,1479.1c-0.1,0.9-0.4,1.7-0.8,2.3s-0.9,1.1-1.5,1.4c-0.6,0.3-1.3,0.4-2.1,0.3c-1.2-0.1-2-0.7-2.6-1.6
			s-0.8-2.1-0.7-3.5l0.1-1c0.1-0.9,0.4-1.7,0.8-2.3c0.4-0.7,0.9-1.1,1.5-1.4c0.6-0.3,1.3-0.4,2.1-0.3s1.4,0.4,1.9,0.8
			c0.5,0.4,0.9,1,1.2,1.7s0.3,1.5,0.2,2.4L2139.1,1479.1z M2138.4,1478c0.1-1.2,0-2.2-0.5-2.9c-0.5-0.7-1.2-1.2-2.1-1.3
			c-0.9-0.1-1.7,0.1-2.3,0.7c-0.6,0.6-1,1.5-1.2,2.7l-0.1,1c-0.1,1.2,0,2.1,0.5,2.9c0.5,0.8,1.2,1.2,2.1,1.3
			c0.9,0.1,1.7-0.1,2.3-0.7c0.6-0.6,1-1.5,1.1-2.7L2138.4,1478z"/>
		<path d="M2149,1474.8l-1.2,9.9l-0.8-0.1l1.1-9.2l-4.2-0.5l-0.7,4.1c-0.3,1.5-0.5,2.5-0.8,3.1c-0.3,0.6-0.6,1.1-1,1.3
			c-0.4,0.3-0.9,0.4-1.5,0.3l-0.4,0l0.1-0.7l0.3,0c0.5,0,0.8-0.1,1.1-0.3c0.3-0.2,0.5-0.7,0.7-1.3c0.2-0.6,0.4-1.5,0.6-2.8l0.8-4.6
			L2149,1474.8z"/>
		<path d="M2151.7,1479.5l2.4,0.3c0.7,0.1,1.2,0.3,1.7,0.5s0.8,0.7,1,1.1c0.2,0.5,0.3,1,0.2,1.5c-0.1,0.9-0.5,1.5-1.1,2
			s-1.5,0.6-2.5,0.5l-3.3-0.4l1.2-9.9l0.8,0.1L2151.7,1479.5z M2151.7,1480.2l-0.5,4.2l2.4,0.3c0.8,0.1,1.4,0,1.9-0.3
			c0.5-0.3,0.8-0.8,0.8-1.5c0.1-0.6-0.1-1.1-0.4-1.6c-0.4-0.4-0.9-0.7-1.7-0.8L2151.7,1480.2z"/>
		<path d="M2166.1,1486.9l-0.8-0.1l0.6-4.7l-5.6-0.7l-0.6,4.7l-0.8-0.1l1.2-9.9l0.8,0.1l-0.5,4.4l5.6,0.7l0.5-4.4l0.8,0.1
			L2166.1,1486.9z"/>
		<path d="M2176.3,1478.1l0.8,0.1l-1.2,9.9l-0.8-0.1l1-8.5l-6.7,7.8l-0.8-0.1l1.2-9.9l0.8,0.1l-1,8.4L2176.3,1478.1z"/>
		<path d="M2181.3,1484l-1.4-0.2l-0.6,4.6l-0.8-0.1l1.2-9.9l0.8,0.1l-0.6,4.5l1.3,0.2l4.4-4.1l1.1,0.1l-4.7,4.4l3.7,5.6l-1-0.1
			L2181.3,1484z"/>
		<path d="M2195.1,1480.4l0.8,0.1l-1.2,9.9l-0.8-0.1l1-8.5l-6.7,7.8l-0.8-0.1l1.2-9.9l0.8,0.1l-1,8.4L2195.1,1480.4z"/>
	</g>
	<g>
		<path d="M2057.4,1493l-1.6,9.8l-0.8-0.1l1.5-9.1l-4.1-0.7l-0.9,4c-0.3,1.4-0.6,2.5-0.9,3.1c-0.3,0.6-0.6,1.1-1,1.3
			c-0.4,0.2-0.9,0.3-1.5,0.2l-0.4-0.1l0.1-0.7l0.3,0c0.5,0.1,0.8,0,1.1-0.3c0.3-0.2,0.5-0.6,0.8-1.2c0.2-0.6,0.5-1.5,0.8-2.8l1-4.5
			L2057.4,1493z"/>
		<path d="M2066.4,1494.4l0.8,0.1l-1.6,9.8l-0.8-0.1l1.4-8.4l-7,7.5l-0.8-0.1l1.6-9.8l0.8,0.1l-1.4,8.4L2066.4,1494.4z"/>
		<path d="M2075.6,1505.4l1,0.2l-0.5,3.1l-0.8-0.1l0.4-2.4l-7.4-1.2l-0.4,2.4l-0.8-0.1l0.5-3.1l0.7,0.1c0.6-0.4,1.1-1.1,1.6-2.1
			s0.8-2,1.1-3.2l0.8-3.5l5.4,0.9L2075.6,1505.4z M2069.2,1504.3l5.6,0.9l1.4-8.4l-3.8-0.6l-0.6,2.8c-0.3,1.2-0.6,2.2-1.1,3.1
			C2070.3,1503,2069.8,1503.8,2069.2,1504.3z"/>
		<path d="M2084.4,1502.7l-4.6-0.8l-0.7,4l5.3,0.9l-0.1,0.7l-6.1-1l1.6-9.8l6.1,1l-0.1,0.7l-5.2-0.9l-0.6,3.7l4.6,0.8L2084.4,1502.7
			z"/>
		<path d="M2087.6,1504l-0.7,4l-0.8-0.1l1.6-9.8l3.3,0.6c1,0.2,1.8,0.6,2.3,1.2c0.5,0.6,0.7,1.4,0.5,2.3c-0.2,0.9-0.6,1.6-1.2,2
			c-0.7,0.4-1.5,0.5-2.6,0.3L2087.6,1504z M2087.7,1503.3l2.5,0.4c0.8,0.1,1.5,0,1.9-0.3c0.5-0.3,0.8-0.8,0.9-1.5
			c0.1-0.7,0-1.3-0.4-1.7c-0.4-0.5-0.9-0.8-1.7-0.9l-2.6-0.4L2087.7,1503.3z"/>
		<path d="M2096.4,1503.8l2.4,0.4c0.7,0.1,1.2,0.3,1.7,0.6s0.8,0.7,1,1.1c0.2,0.5,0.2,1,0.1,1.5c-0.1,0.9-0.5,1.5-1.2,1.9
			c-0.7,0.4-1.5,0.5-2.5,0.3l-3.2-0.5l1.6-9.8l0.8,0.1L2096.4,1503.8z M2096.2,1504.5l-0.7,4.2l2.4,0.4c0.8,0.1,1.4,0,1.9-0.3
			s0.8-0.8,0.9-1.4c0.1-0.6,0-1.2-0.4-1.6s-0.9-0.7-1.6-0.9L2096.2,1504.5z M2103.6,1510.7l-0.8-0.1l1.6-9.8l0.8,0.1L2103.6,1510.7z
			"/>
		<path d="M2117,1509.8c-0.3,1-0.8,1.7-1.5,2.2c-0.7,0.4-1.6,0.6-2.6,0.4c-0.7-0.1-1.3-0.4-1.8-0.9s-0.8-1-1-1.8s-0.2-1.5-0.1-2.4
			l0.2-1.3c0.1-0.9,0.4-1.6,0.8-2.2c0.4-0.6,0.9-1.1,1.6-1.3c0.6-0.3,1.3-0.3,2.1-0.2c1.1,0.2,1.8,0.6,2.4,1.3s0.7,1.5,0.7,2.5
			l-0.8-0.1c0.1-1.7-0.7-2.7-2.3-3c-0.9-0.1-1.7,0.1-2.3,0.6c-0.6,0.6-1.1,1.5-1.3,2.6l-0.2,1.2c-0.2,1.1-0.1,2.1,0.3,2.8
			c0.4,0.8,1,1.2,1.9,1.4c0.9,0.1,1.6,0,2.1-0.3c0.5-0.3,0.9-0.9,1.1-1.7L2117,1509.8z"/>
		<path d="M2126.4,1510c-0.2,0.9-0.4,1.7-0.9,2.3c-0.4,0.6-1,1.1-1.6,1.4c-0.6,0.3-1.3,0.3-2.1,0.2c-1.1-0.2-2-0.8-2.6-1.7
			c-0.6-0.9-0.7-2.1-0.5-3.5l0.2-1c0.1-0.9,0.4-1.7,0.9-2.3c0.4-0.6,1-1.1,1.6-1.4c0.6-0.3,1.3-0.3,2.1-0.2s1.4,0.4,1.9,0.9
			c0.5,0.5,0.9,1,1.1,1.8c0.2,0.7,0.2,1.5,0.1,2.4L2126.4,1510z M2125.8,1508.8c0.2-1.2,0.1-2.2-0.3-2.9c-0.4-0.8-1.1-1.2-2-1.4
			c-0.9-0.2-1.7,0.1-2.3,0.6c-0.7,0.6-1.1,1.5-1.3,2.7l-0.2,1c-0.2,1.2-0.1,2.1,0.3,2.9c0.4,0.8,1.1,1.2,2,1.4
			c0.9,0.2,1.7-0.1,2.4-0.6c0.6-0.6,1.1-1.5,1.3-2.7L2125.8,1508.8z"/>
		<path d="M2135.8,1511.6c-0.2,0.9-0.4,1.7-0.9,2.3c-0.4,0.6-1,1.1-1.6,1.4c-0.6,0.3-1.3,0.3-2.1,0.2c-1.1-0.2-2-0.8-2.6-1.7
			c-0.6-0.9-0.7-2.1-0.5-3.5l0.2-1c0.1-0.9,0.4-1.7,0.9-2.3c0.4-0.6,1-1.1,1.6-1.4c0.6-0.3,1.3-0.3,2.1-0.2s1.4,0.4,1.9,0.9
			c0.5,0.5,0.9,1,1.1,1.8c0.2,0.7,0.2,1.5,0.1,2.4L2135.8,1511.6z M2135.1,1510.4c0.2-1.2,0.1-2.2-0.3-2.9c-0.4-0.8-1.1-1.2-2-1.4
			c-0.9-0.2-1.7,0.1-2.3,0.6c-0.7,0.6-1.1,1.5-1.3,2.7l-0.2,1c-0.2,1.2-0.1,2.1,0.3,2.9c0.4,0.8,1.1,1.2,2,1.4
			c0.9,0.2,1.7-0.1,2.4-0.6c0.6-0.6,1.1-1.5,1.3-2.7L2135.1,1510.4z"/>
		<path d="M2144.6,1508.2l-5.1-0.8l-0.6,3.6l2.4,0.4c0.7,0.1,1.2,0.3,1.7,0.6c0.5,0.3,0.8,0.7,1,1.1c0.2,0.5,0.2,1,0.1,1.5
			c-0.1,0.9-0.5,1.5-1.2,1.9c-0.7,0.4-1.5,0.5-2.5,0.3l-3.2-0.5l1.6-9.8l5.9,1L2144.6,1508.2z M2138.8,1511.6l-0.7,4.2l2.4,0.4
			c0.8,0.1,1.4,0,1.9-0.3c0.5-0.3,0.8-0.8,0.9-1.4c0.1-0.6,0-1.2-0.4-1.6s-0.9-0.7-1.6-0.9L2138.8,1511.6z"/>
		<path d="M2148.3,1508.1l-1.5,9.1l3.9,0.7l1.5-9.1l0.8,0.1l-1.5,9.1l3.9,0.7l1.5-9.1l0.8,0.1l-1.5,9.1l0.9,0.2l-0.6,3l-0.7-0.1
			l0.4-2.4l-10.5-1.7l1.6-9.8L2148.3,1508.1z"/>
		<path d="M2165.1,1516.1l-4.6-0.8l-0.7,4l5.3,0.9l-0.1,0.7l-6.1-1l1.6-9.8l6.1,1l-0.1,0.7l-5.2-0.9l-0.6,3.7l4.6,0.8L2165.1,1516.1
			z"/>
		<path d="M2174.2,1519.3c-0.3,1-0.8,1.7-1.5,2.2c-0.7,0.4-1.6,0.6-2.6,0.4c-0.7-0.1-1.3-0.4-1.8-0.9s-0.8-1-1-1.8s-0.2-1.5-0.1-2.4
			l0.2-1.3c0.1-0.9,0.4-1.6,0.8-2.2c0.4-0.6,0.9-1.1,1.6-1.3c0.6-0.3,1.3-0.3,2.1-0.2c1.1,0.2,1.8,0.6,2.4,1.3s0.7,1.5,0.7,2.5
			l-0.8-0.1c0.1-1.7-0.7-2.7-2.3-3c-0.9-0.1-1.7,0.1-2.3,0.6c-0.6,0.6-1.1,1.5-1.3,2.6l-0.2,1.2c-0.2,1.1-0.1,2.1,0.3,2.8
			c0.4,0.8,1,1.2,1.9,1.4c0.9,0.1,1.6,0,2.1-0.3c0.5-0.3,0.9-0.9,1.1-1.7L2174.2,1519.3z"/>
		<path d="M2183.7,1514.7l-3.4-0.6l-1.5,9.1l-0.8-0.1l1.5-9.1l-3.4-0.6l0.1-0.7l7.6,1.3L2183.7,1514.7z"/>
		<path d="M2183.8,1524.1l1.6-9.8l2.9,0.5c1.1,0.2,1.8,0.5,2.3,1s0.6,1.2,0.5,2.1c-0.1,0.5-0.3,0.9-0.6,1.3
			c-0.3,0.3-0.8,0.5-1.3,0.6c0.5,0.2,1,0.6,1.2,1.1c0.3,0.5,0.4,1,0.3,1.6c-0.1,0.9-0.5,1.5-1.2,1.9c-0.6,0.4-1.5,0.5-2.5,0.3
			L2183.8,1524.1z M2185.4,1519.5l-0.7,4l2.5,0.4c0.7,0.1,1.3,0,1.8-0.3c0.5-0.3,0.8-0.8,0.9-1.4c0.1-0.6,0-1.1-0.4-1.5
			c-0.3-0.4-0.9-0.7-1.6-0.8L2185.4,1519.5z M2185.5,1518.8l2.3,0.4c0.7,0.1,1.3,0,1.7-0.2c0.4-0.2,0.7-0.7,0.8-1.3
			c0.1-0.6,0-1.1-0.4-1.5c-0.3-0.4-0.9-0.6-1.7-0.7l-2.1-0.3L2185.5,1518.8z"/>
	</g>
	<g>
		<path d="M2028.5,1523.6c-0.3,1-0.9,1.7-1.6,2.1c-0.7,0.4-1.6,0.5-2.7,0.3c-0.7-0.2-1.3-0.5-1.8-0.9s-0.8-1.1-1-1.8
			c-0.2-0.7-0.2-1.5,0-2.4l0.3-1.3c0.2-0.9,0.5-1.6,0.9-2.2c0.4-0.6,1-1,1.6-1.3s1.3-0.3,2.1-0.1c1,0.2,1.8,0.7,2.3,1.4
			s0.7,1.5,0.6,2.6l-0.8-0.2c0.1-1.7-0.6-2.7-2.2-3.1c-0.9-0.2-1.7,0-2.3,0.5c-0.7,0.5-1.1,1.4-1.4,2.6l-0.3,1.2
			c-0.2,1.1-0.2,2.1,0.2,2.9c0.4,0.8,1,1.3,1.9,1.4c0.9,0.2,1.6,0.1,2.1-0.2c0.5-0.3,0.9-0.9,1.2-1.7L2028.5,1523.6z"/>
		<path d="M2038,1524.2c-0.2,0.9-0.5,1.7-1,2.3s-1,1-1.7,1.3c-0.7,0.2-1.4,0.3-2.1,0.1c-1.1-0.2-2-0.8-2.5-1.8
			c-0.5-1-0.6-2.1-0.4-3.5l0.2-1c0.2-0.9,0.5-1.6,1-2.3c0.5-0.6,1-1,1.7-1.3c0.7-0.2,1.4-0.3,2.1-0.1c0.7,0.2,1.4,0.5,1.9,1
			c0.5,0.5,0.8,1.1,1,1.8c0.2,0.7,0.2,1.5,0,2.4L2038,1524.2z M2037.4,1523c0.2-1.2,0.2-2.1-0.2-2.9c-0.4-0.8-1-1.3-2-1.5
			c-0.9-0.2-1.7,0-2.4,0.5s-1.1,1.4-1.4,2.6l-0.2,1c-0.2,1.2-0.2,2.1,0.2,2.9c0.4,0.8,1,1.3,2,1.5c0.9,0.2,1.7,0,2.4-0.5
			c0.7-0.6,1.1-1.4,1.4-2.6L2037.4,1523z"/>
		<path d="M2046,1522.9c0.1-0.6,0-1.1-0.4-1.6c-0.4-0.4-1-0.8-1.8-0.9c-0.7-0.1-1.3-0.1-1.9,0.2c-0.5,0.3-0.9,0.7-1,1.3l-0.8-0.2
			c0.1-0.5,0.3-1,0.7-1.3s0.8-0.6,1.4-0.7c0.6-0.1,1.1-0.1,1.7,0c1.1,0.2,1.8,0.6,2.3,1.2c0.5,0.6,0.7,1.3,0.5,2.2
			c-0.1,0.5-0.4,0.9-0.8,1.2c-0.4,0.3-0.9,0.5-1.5,0.6c1.2,0.6,1.7,1.5,1.4,2.7c-0.2,0.8-0.6,1.4-1.4,1.8c-0.7,0.4-1.7,0.4-2.7,0.2
			c-0.7-0.1-1.2-0.4-1.7-0.7c-0.5-0.4-0.8-0.8-1-1.3c-0.2-0.5-0.2-1-0.1-1.5l0.8,0.2c-0.1,0.6,0,1.2,0.4,1.7c0.4,0.5,1,0.8,1.7,1
			c0.8,0.2,1.5,0.1,2.1-0.1s0.9-0.7,1-1.3c0.1-0.7,0-1.2-0.3-1.6s-1-0.7-1.9-0.9l-1.2-0.3l0.2-0.7l1.2,0.3c0.8,0.2,1.5,0.1,2-0.1
			C2045.6,1524,2045.9,1523.5,2046,1522.9z"/>
		<path d="M2054.6,1531.6l1,0.2l-0.7,3.1l-0.8-0.2l0.5-2.4l-7.3-1.6l-0.5,2.4l-0.8-0.2l0.6-3.1l0.6,0.1c0.6-0.4,1.2-1.1,1.7-2
			c0.5-0.9,0.9-2,1.2-3.1l0.9-3.5l5.4,1.1L2054.6,1531.6z M2048.3,1530.2l5.5,1.2l1.8-8.3l-3.8-0.8l-0.7,2.8
			c-0.3,1.1-0.7,2.2-1.2,3.1C2049.4,1529,2048.9,1529.7,2048.3,1530.2z"/>
		<path d="M2063.2,1531.2l-4.4-0.9l-1.6,2.5l-0.9-0.2l5.7-9l0.8,0.2l1.6,10.5l-0.9-0.2L2063.2,1531.2z M2059.2,1529.7l3.9,0.8
			l-0.8-5.7L2059.2,1529.7z"/>
		<path d="M2073.5,1526.8l-3.3-0.7l-1.9,9l-0.8-0.2l1.9-9l-3.3-0.7l0.1-0.7l7.5,1.6L2073.5,1526.8z"/>
		<path d="M2079.6,1532.7l-4.6-1l-0.8,4l5.2,1.1l-0.1,0.7l-6.1-1.3l2.1-9.7l6,1.3l-0.1,0.7l-5.2-1.1l-0.8,3.7l4.6,1L2079.6,1532.7z"
			/>
		<path d="M2090.2,1529.6l-2.1,9.7l-0.8-0.2l1.9-9l-4.1-0.9l-1.1,4c-0.4,1.4-0.8,2.4-1.1,3.1c-0.3,0.6-0.7,1-1.1,1.3
			c-0.4,0.2-0.9,0.3-1.5,0.2l-0.3-0.1l0.1-0.7l0.3,0c0.5,0.1,0.8,0,1.1-0.2c0.3-0.2,0.6-0.6,0.8-1.2s0.5-1.5,0.9-2.7l1.2-4.5
			L2090.2,1529.6z"/>
		<path d="M2099.1,1531.5l0.8,0.2l-2.1,9.7l-0.8-0.2l1.8-8.3l-7.3,7.2l-0.8-0.2l2.1-9.7l0.8,0.2l-1.8,8.3L2099.1,1531.5z"/>
		<path d="M2104.8,1539.7c-0.1,0.9,0.1,1.6,0.4,2.1c0.4,0.5,1,0.8,1.8,1c0.9,0.2,1.6,0,2.3-0.6c0.7-0.6,1.1-1.4,1.3-2.6l0.1-0.2
			l-4.1-0.9l0.1-0.7l4.1,0.9l0.1-0.2c0.2-1.1,0.2-2.1-0.2-2.9c-0.4-0.8-1-1.3-1.9-1.4c-1.6-0.3-2.7,0.3-3.2,1.9l-0.8-0.2
			c0.3-1,0.8-1.7,1.6-2.1s1.6-0.5,2.6-0.3c1.1,0.2,1.9,0.8,2.4,1.8c0.5,0.9,0.6,2.1,0.3,3.5l-0.2,1.2c-0.2,0.9-0.5,1.6-0.9,2.2
			c-0.4,0.6-1,1-1.6,1.3s-1.3,0.3-2,0.1c-1-0.2-1.8-0.7-2.3-1.4c-0.5-0.7-0.7-1.5-0.6-2.6L2104.8,1539.7z"/>
		<path d="M2115.9,1540.5l-1.3-0.3l-1,4.6l-0.8-0.2l2.1-9.7l0.8,0.2l-0.9,4.5l1.3,0.3l4.7-3.7l1,0.2l-5,3.9l3.2,5.9l-1-0.2
			L2115.9,1540.5z"/>
		<path d="M2129.4,1543.6c-0.2,0.9-0.5,1.7-1,2.3s-1,1-1.7,1.3c-0.7,0.2-1.4,0.3-2.1,0.1c-1.1-0.2-2-0.8-2.5-1.8
			c-0.5-1-0.6-2.1-0.4-3.5l0.2-1c0.2-0.9,0.5-1.6,1-2.3c0.5-0.6,1-1,1.7-1.3c0.7-0.2,1.4-0.3,2.1-0.1c0.7,0.2,1.4,0.5,1.9,1
			c0.5,0.5,0.8,1.1,1,1.8c0.2,0.7,0.2,1.5,0,2.4L2129.4,1543.6z M2128.8,1542.3c0.2-1.2,0.2-2.1-0.2-2.9c-0.4-0.8-1-1.3-2-1.5
			c-0.9-0.2-1.7,0-2.4,0.5s-1.1,1.4-1.4,2.6l-0.2,1c-0.2,1.2-0.2,2.1,0.2,2.9c0.4,0.8,1,1.3,2,1.5c0.9,0.2,1.7,0,2.4-0.5
			c0.7-0.6,1.1-1.4,1.4-2.6L2128.8,1542.3z"/>
		<path d="M2138.1,1546.8c-0.3,1-0.9,1.7-1.6,2.1c-0.7,0.4-1.6,0.5-2.7,0.3c-0.7-0.2-1.3-0.5-1.8-0.9s-0.8-1.1-1-1.8
			c-0.2-0.7-0.2-1.5,0-2.4l0.3-1.3c0.2-0.9,0.5-1.6,0.9-2.2c0.4-0.6,1-1,1.6-1.3s1.3-0.3,2.1-0.1c1,0.2,1.8,0.7,2.3,1.4
			s0.7,1.5,0.6,2.6l-0.8-0.2c0.1-1.7-0.6-2.7-2.2-3.1c-0.9-0.2-1.7,0-2.3,0.5c-0.7,0.5-1.1,1.4-1.4,2.6l-0.3,1.2
			c-0.2,1.1-0.2,2.1,0.2,2.9c0.4,0.8,1,1.3,1.9,1.4c0.9,0.2,1.6,0.1,2.1-0.2c0.5-0.3,0.9-0.9,1.2-1.7L2138.1,1546.8z"/>
		<path d="M2147.9,1541.8l0.8,0.2l-2.1,9.7l-0.8-0.2l1.8-8.3l-7.3,7.2l-0.8-0.2l2.1-9.7l0.8,0.2l-1.8,8.3L2147.9,1541.8z"/>
		<path d="M2156.7,1550.7c-0.3,1-0.9,1.7-1.6,2.1c-0.7,0.4-1.6,0.5-2.7,0.3c-0.7-0.2-1.3-0.5-1.8-0.9s-0.8-1.1-1-1.8
			c-0.2-0.7-0.2-1.5,0-2.4l0.3-1.3c0.2-0.9,0.5-1.6,0.9-2.2c0.4-0.6,1-1,1.6-1.3s1.3-0.3,2.1-0.1c1,0.2,1.8,0.7,2.3,1.4
			s0.7,1.5,0.6,2.6l-0.8-0.2c0.1-1.7-0.6-2.7-2.2-3.1c-0.9-0.2-1.7,0-2.3,0.5c-0.7,0.5-1.1,1.4-1.4,2.6l-0.3,1.2
			c-0.2,1.1-0.2,2.1,0.2,2.9c0.4,0.8,1,1.3,1.9,1.4c0.9,0.2,1.6,0.1,2.1-0.2c0.5-0.3,0.9-0.9,1.2-1.7L2156.7,1550.7z"/>
		<path d="M2166.4,1546.5l-3.3-0.7l-1.9,9l-0.8-0.2l1.9-9l-3.3-0.7l0.1-0.7l7.5,1.6L2166.4,1546.5z"/>
		<path d="M2172.4,1552.3l-4.6-1l-0.8,4l5.2,1.1l-0.1,0.7l-6.1-1.3l2.1-9.7l6,1.3l-0.1,0.7l-5.2-1.1l-0.8,3.7l4.6,1L2172.4,1552.3z"
			/>
		<path d="M2177,1548l1.8,9.4l5.4-7.8l1.1,0.2l-2.1,9.7l-0.8-0.2l0.9-4.2l1-4.3l-5.4,7.8l-0.6-0.1l-1.8-9.3l-0.8,4.3l-0.9,4.3
			l-0.8-0.2l2.1-9.7L2177,1548z"/>
	</g>
</g>
<path class="st0" d="M2209.1,1580.6c-2.4,10.7-5,21.3-7.8,31.8l10.6,2.9c2.8-10.7,5.5-21.4,7.9-32.3L2209.1,1580.6z"/>
<path class="st0" d="M2216.2,1545.6c-1.9,10.8-4.1,21.5-6.4,32.1l10.7,2.4c2.4-10.8,4.6-21.7,6.5-32.6L2216.2,1545.6z"/>
<path class="st0" d="M2222.1,1509.7c-1.4,10.9-3,21.7-4.8,32.4l10.9,1.9c1.8-10.9,3.4-21.9,4.8-32.9L2222.1,1509.7z"/>
<path class="st0" d="M2225.9,1474.1c-0.9,10.9-2,21.8-3.4,32.6l10.9,1.4c1.4-11,2.5-22,3.4-33.1L2225.9,1474.1z"/>
<path class="st0" d="M2228.1,1438.7c-0.4,10.8-1.1,21.6-2,32.4l11,0.9c0.9-11,1.5-22,2-32.9L2228.1,1438.7z"/>
<path class="st0" d="M2228.8,1402.7c0,11-0.2,22-0.6,33l11,0.4c0.4-11.2,0.6-22.3,0.6-33.5L2228.8,1402.7z"/>
<path class="st0" d="M2227.9,1366.7c0.5,11,0.8,22,0.8,33l11-0.1c-0.1-11.2-0.3-22.3-0.8-33.5L2227.9,1366.7z"/>
<path class="st0" d="M2225.5,1330.8c1,10.9,1.7,21.9,2.3,32.9l11-0.5c-0.5-11.2-1.3-22.3-2.3-33.4L2225.5,1330.8z"/>
<path class="st0" d="M2221.5,1295c1.4,10.9,2.7,21.8,3.7,32.8l10.9-1c-1-11.1-2.3-22.2-3.8-33.3L2221.5,1295z"/>
<path class="st0" d="M2199.5,1148.5c-0.4-1.4-0.9-2.8-1.3-4.1c-3-9.2-6.2-18.4-9.6-27.5l-10.1,3.7c3.8,10.3,7.4,20.7,10.8,31.2
	L2199.5,1148.5z"/>
<path class="st0" d="M2210,1183.4c-3-10.7-6.1-21.4-9.5-32.1l-10.3,3.3c3.3,10.5,6.5,21,9.4,31.7L2210,1183.4z"/>
<path class="st0" d="M2218.9,1218.8c-2.5-10.9-5.2-21.7-8.1-32.5l-10.4,2.9c2.9,10.6,5.5,21.3,8,32L2218.9,1218.8z"/>
<path class="st0" d="M2216,1259.4c1.9,10.8,3.6,21.7,5.1,32.6l10.8-1.5c-1.5-11.1-3.3-22.1-5.2-33.1L2216,1259.4z"/>
<path class="st0" d="M2226.2,1254.5c-2-11-4.2-21.9-6.7-32.8l-10.6,2.4c2.4,10.7,4.6,21.5,6.5,32.4L2226.2,1254.5z"/>
</svg>
