<?xml version="1.0" encoding="utf-8"?>
<!-- Generator: Adobe Illustrator 20.0.0, SVG Export Plug-In . SVG Version: 6.00 Build 0)  -->
<svg version="1.1" id="svg8" xmlns="http://www.w3.org/2000/svg" xmlns:xlink="http://www.w3.org/1999/xlink" x="0px" y="0px"
	 viewBox="0 0 1239.9 1847" style="enable-background:new 0 0 1239.9 1847;" xml:space="preserve">
<style type="text/css">
	.st0{opacity:0.2;fill:#2196F3;enable-background:new    ;}
</style>
<path class="st0" d="M412.6,7.9c-1,5.4,2.6,10.5,8,11.5c0,0,0,0,0.1,0l-1.5,123.8c-8.1,0.5-15.3,5.9-17.8,13.8l-116.4-28.8
	c0.5-5.1-2.9-9.8-8.2-10.7c-5.4-1-10.5,2.6-11.5,8s2.6,10.5,8,11.5c4.7,0.8,9.1-1.7,10.9-5.9l116.4,28.8c-1.8,10.7,5.5,21,16.2,22.9
	c5.4,1,10.7-0.3,14.9-3.3L521,288.4c-1.2,1.3-2.1,3-2.4,5c-0.7,3.9,1,7.7,4.1,9.8L413.4,517.5c-1.3-0.5-2.7-1-4.1-1.2
	c-4.4-0.8-8.8,0-12.5,1.8l-95.6-158.6c1.7-1.4,2.9-3.4,3.4-5.9c1-5.4-2.6-10.5-8-11.5c-5.3-0.9-10.5,2.7-11.5,8
	c-1,5.4,2.6,10.5,8,11.5c2,0.3,3.8,0.1,5.5-0.6l95.7,158.5c-4.1,2.9-7.1,7.4-8.1,12.8c-1.1,6.2,0.9,12.3,4.8,16.7l-120,123.9
	c-1.2-0.8-2.5-1.5-4.1-1.7c-5.3-0.9-10.5,2.7-11.5,8c-1,5.4,2.6,10.5,8,11.5c5.4,1,10.5-2.6,11.5-8c0.5-2.9-0.2-5.5-1.8-7.6L393,551
	c2.6,2.2,5.7,3.8,9.3,4.4c1.2,0.2,2.4,0.3,3.5,0.3l22.3,278.7c-8.3,1.3-15.1,7.6-16.6,16.2c-0.7,3.9-0.2,7.8,1.3,11.2l-179.1,91.8
	c-2.9-4.8-7.7-8.3-13.6-9.3c-3.6-0.6-7.3-0.3-10.4,1l-59.9-130.5c2.2-1.4,3.8-3.8,4.3-6.5c1-5.4-2.6-10.5-8-11.5
	c-5.4-1-10.5,2.7-11.5,8c-1,5.4,2.6,10.5,8,11.5c1.5,0.3,3,0.1,4.4-0.2l59.9,130.5c-5.1,2.9-8.9,7.9-10,14c-1,5.8,0.6,11.5,4,15.8
	l-106.1,96.5c-1.2-1-2.7-1.7-4.5-2c-5.4-1-10.5,2.6-11.5,8c-1,5.4,2.6,10.5,8,11.5c5.4,1,10.5-2.6,11.5-8c0.5-2.7-0.2-5.2-1.6-7.3
	l106.1-96.5c2.7,2.6,6.2,4.5,10.2,5.2c2.1,0.4,4.1,0.4,6.1,0.2l38.2,184c-3.2,1.2-5.6,4-6.2,7.5c-0.4,2.5,0,4.9,1.3,6.8
	l-139.5,117.9c-1.3-1.1-2.9-1.9-4.8-2.3c-5.4-1-10.5,2.7-11.5,8c-1,5.4,2.6,10.5,8,11.5c0.9,0.2,1.8,0.2,2.7,0.1l52.2,201.3
	c-6.7,2.3-12,7.9-13.3,15.4c-0.3,1.7-0.4,3.4-0.2,5l-126.7,19.1c-1-3.4-3.9-6.2-7.7-6.9c-5.3-0.9-10.5,2.6-11.5,8
	c-1,5.4,2.6,10.5,8,11.5s10.5-2.6,11.5-8c0.1-0.6,0.1-1.1,0.1-1.7l126.7-19.1c1.2,5.2,4.5,9.8,9.1,12.6l-74.7,146.8
	c-0.4-0.2-0.9-0.3-1.4-0.3c-5.4-1-10.5,2.6-11.5,8c-1,5.4,2.6,10.5,8,11.5c5.4,1,10.5-2.6,11.5-8c0.7-3.9-1-7.7-4.1-9.8l74.7-146.6
	c1.3,0.5,2.7,1,4.1,1.2c10.8,1.9,21.3-5.4,23.2-16.2c0.6-3.5,0.2-7.1-0.9-10.2l360.9-161.9c1.4,2.2,3.8,3.8,6.5,4.3
	c2.2,0.4,4.2,0,6-0.8l97.2,144c-3.8,2.9-6.5,7.2-7.3,12.2c-0.5,3-0.3,5.9,0.4,8.7l-339.7,119.7c-1.4-2.6-3.9-4.5-7-5.1
	c-5.4-1-10.5,2.6-11.5,8c-0.9,5.2,2.4,10.2,7.5,11.4L287,1802c-4.4,0.3-8.2,3.5-9.1,8.1c-1,5.4,2.6,10.5,8,11.5s10.5-2.6,11.5-8
	c0.9-5.2-2.4-10.1-7.4-11.4l10.6-130.1c2.3-0.2,4.5-1.1,6.1-2.7l132.4,102.5c-0.5,0.9-0.9,2-1.1,3.1c-1,5.4,2.6,10.5,8,11.5
	c5.4,1,10.5-2.6,11.5-8s-2.6-10.5-8-11.5c-3.2-0.6-6.4,0.5-8.6,2.5l-132.5-102.6c0.5-0.9,0.9-2,1.1-3.1c0.2-1.2,0.2-2.4-0.1-3.6
	l339.8-119.6c0.4,0.8,0.7,1.6,1.2,2.2l-137.7,97.6c-1.4-1.5-3.2-2.5-5.4-2.9c-5.4-1-10.5,2.6-11.5,8c-1,5.4,2.6,10.5,8,11.5
	s10.5-2.6,11.5-8c0.4-2.2,0-4.3-0.8-6.1l137.8-97.7c1.8,2.1,4,4,6.6,5.2l-73.5,183.1c-0.2,0-0.4-0.1-0.6-0.1
	c-5.3-0.9-10.5,2.6-11.5,8c-1,5.4,2.6,10.5,8,11.5c5.4,1,10.5-2.6,11.5-8c0.8-4.2-1.2-8.1-4.7-10.3l73.5-183.1
	c0.8,0.2,1.6,0.5,2.5,0.7c8.2,1.5,16.2-2.4,20.4-9.1l183.8,97.2c-0.2,0.5-0.3,1-0.4,1.6c-0.3,1.8-0.1,3.4,0.4,5.1l-143.8,77
	c-1.5-2-3.6-3.4-6.2-3.8c-5.3-0.9-10.5,2.7-11.5,8c-1,5.4,2.6,10.5,8,11.5c5.4,1,10.5-2.6,11.5-8c0.3-1.8,0.1-3.4-0.4-5.1l143.8-77
	c1.5,2,3.6,3.4,6.2,3.8c0.5,0.1,1,0.2,1.5,0.2l22.6,173.9c-3.5,1-6.3,4-7,7.8c-1,5.4,2.6,10.5,8,11.5c5.4,1,10.5-2.6,11.5-8
	c1-5.4-2.6-10.5-8-11.5c-0.5-0.1-1-0.1-1.6-0.2l-22.6-173.8c3.5-1,6.4-3.9,7.1-7.8c0.8-4.4-1.5-8.7-5.3-10.6l78.3-237.3
	c5.4,1,10.5-2.6,11.5-8c1-5.4-2.6-10.5-8-11.5c-4.5-0.8-8.8,1.6-10.7,5.6l-250.5-73.1c0.3-2.2-0.2-4.2-1.1-6l205.5-152.8
	c2.9,3.4,6.9,5.8,11.5,6.6c6.6,1.2,13.1-1.1,17.5-5.5l92.3,79.8c-0.7,1.1-1.1,2.2-1.3,3.5c-1,5.4,2.6,10.5,8,11.5
	c5.4,1,10.5-2.6,11.5-8s-2.6-10.5-8-11.5c-3-0.5-6,0.4-8.1,2.2l-92.2-80c1.8-2.4,3.1-5.2,3.6-8.4c0.8-4.6,0-9.1-2.2-13l139.6-90.2
	c1.4,1.6,3.4,2.8,5.7,3.3c5.4,1,10.5-2.6,11.5-8c1-5.4-2.6-10.5-8-11.5c-5.4-1-10.5,2.6-11.5,8c-0.4,2.1-0.1,4,0.7,5.7l-139.6,90.2
	c-3-3.9-7.2-6.8-12.4-7.7c-5.2-0.9-10.3,0.3-14.5,3l-86.9-112.1c1.2-1.3,2.2-3.1,2.5-5c0.3-1.7,0.2-3.3-0.4-4.8l192.3-97.6
	c1.5,2,3.6,3.5,6.3,4c5.4,1,10.5-2.6,11.5-8c1-5.4-2.6-10.5-8-11.5c-5.3-0.9-10.5,2.7-11.5,8c-0.3,1.7-0.2,3.3,0.4,4.8L825,997.2
	c-1.2-1.7-3-3.1-5.1-3.7L854.2,759c9.1,0.7,17.6-5.1,20.4-13.6l203.2,50.5c-0.5,5.1,2.9,9.8,8.2,10.7c5.4,1,10.5-2.6,11.5-8
	c1-5.4-2.6-10.5-8-11.5c-4.6-0.8-9.1,1.7-10.9,5.9l-203.2-50.5c0.5-2.6,0.3-5.2-0.2-7.6l248.7-73.8c1.3,2.8,3.9,5,7.2,5.6
	c5.4,1,10.5-2.6,11.5-8s-2.6-10.5-8-11.5c-5.3-0.9-10.5,2.6-11.5,8c-0.2,1.1-0.2,2.1,0,3.1L874.4,732c-0.7-1.8-1.6-3.4-2.7-4.8
	l186.9-164.9c1.2,1,2.8,1.8,4.6,2.1c5.4,1,10.5-2.6,11.5-8c0.9-5.3-2.4-10.3-7.6-11.4l11.9-197.8c5.7-0.1,11-2.6,14.7-6.7l111.5,85
	c-0.5,0.9-0.9,2-1.1,3.1c-1,5.4,2.6,10.5,8,11.5s10.5-2.6,11.5-8c1-5.4-2.6-10.5-8-11.5c-3.2-0.6-6.3,0.5-8.6,2.6l-111.5-85
	c1.4-2.2,2.4-4.6,2.9-7.4c0.8-4.2,0.1-8.4-1.7-12.1l125.7-72.2c1.4,1.8,3.5,3.1,6,3.5c5.4,1,10.5-2.6,11.5-8c1-5.4-2.6-10.5-8-11.5
	c-5.4-1-10.5,2.6-11.5,8c-0.3,1.9-0.2,3.7,0.5,5.4l-125.7,72.2c-2.9-4.3-7.5-7.5-13-8.5c-1.9-0.3-3.7-0.4-5.5-0.2l-24.3-142.1
	c3.3-1.1,5.9-3.9,6.5-7.7c1-5.4-2.6-10.5-8-11.5c-5.3-0.9-10.5,2.6-11.5,8c-1,5.4,2.6,10.5,8,11.5c0.7,0.1,1.3,0.1,2,0.2l24.3,142.1
	c-5,1.2-9.3,4.3-12,8.7l-133-71.6c0.2-0.5,0.3-1.1,0.4-1.6c1-5.4-2.6-10.5-8-11.5c-5.4-1-10.5,2.6-11.5,8c-0.6,3.2,0.5,6.3,2.6,8.5
	L789.7,405.2c-2.3-1.5-4.8-2.6-7.6-3.1c-3-0.5-5.8-0.3-8.6,0.4l-58.4-168.8c2.6-1.4,4.5-3.9,5.1-7c1-5.4-2.6-10.5-8-11.5
	c-5.4-1-10.5,2.6-11.5,8c-1,5.4,2.6,10.5,8,11.5c1.2,0.2,2.4,0.2,3.6,0l58.4,168.8c-5.9,2.6-10.6,8-11.8,14.9
	c-0.1,0.3-0.1,0.6-0.2,0.9L626,411.9c-0.4-4.3-3.7-8-8.1-8.8c-2.3-0.4-4.5,0-6.4,1l-76.3-101.8c1.4-1.4,2.3-3.1,2.7-5.2
	c1-5.4-2.6-10.5-8-11.5c-2.4-0.4-4.8,0.1-6.7,1.2l-89.1-109.1c3-2.8,5.2-6.6,6-11c0.3-2,0.4-3.8,0.2-5.7L613,128.6
	c1.1,3.3,4,5.8,7.6,6.4c5.4,1,10.5-2.6,11.5-8c1-5.4-2.6-10.5-8-11.5c-5.3-0.9-10.5,2.6-11.5,8c-0.1,0.7-0.1,1.4-0.2,2.1
	l-172.8,32.6c-2-7.3-7.9-13.2-15.8-14.6c-0.6-0.1-1.2-0.2-1.7-0.2l1.5-123.8c4.2-0.6,7.7-3.7,8.4-8c1-5.4-2.6-10.5-8-11.5
	S413.5,2.6,412.6,7.9z M525.1,304.5c0.4,0.2,0.9,0.3,1.4,0.3c2.3,0.4,4.6,0,6.5-1l76.3,101.8c-1.4,1.4-2.3,3.1-2.7,5.2
	c-0.3,1.9-0.2,3.7,0.6,5.4L422,524.6c-1.6-2.3-3.6-4.2-6.1-5.8L525.1,304.5z M782,441.3L849.6,720c-4.3,1.4-8.1,4.3-10.5,8
	l-179.5-100c0.2-0.6,0.4-1.1,0.5-1.7c0.6-3.5-0.7-6.9-3.2-9.2l112.5-177.8c1.8,0.9,3.8,1.7,5.8,2.1
	C777.4,441.8,779.7,441.8,782,441.3z M902.5,1135.1c-0.9,5.1,0.2,10.1,2.9,14.2l-205.5,152.8c-0.6-0.5-1.2-1-1.9-1.5l116.8-288
	c0.2,0,0.3,0.1,0.5,0.1c2.4,0.4,4.7-0.1,6.6-1.2l86.9,112.1C905.6,1126.6,903.3,1130.6,902.5,1135.1z M952.6,1390.8l-267.8,131.6
	c-2.8-4.8-7.6-8.3-13.4-9.5l22-193.8c3.7-0.2,7-2.3,8.5-5.7l250.5,73.1C952.1,1388,952.3,1389.4,952.6,1390.8z M267.3,1184.7
	c1-0.8,1.7-1.8,2.3-2.9l213.7,72c-0.3,2-0.1,3.8,0.6,5.5l-106.2,67.1c-2.9-4-7.3-6.9-12.5-7.8c-4.5-0.8-8.9,0-12.7,2L267.3,1184.7z
	 M647.8,634.1l-33.7,320L449,862.8c0.7-1.5,1.3-3.1,1.6-4.8c1.1-6.3-0.9-12.5-4.9-16.9l199-208.4
	C645.6,633.4,646.6,633.8,647.8,634.1z M807,1002.3c-0.3,3.8,1.6,7.4,4.8,9.3l-116.8,288c-0.2,0-0.3-0.1-0.5-0.1
	c-0.8-0.1-1.6-0.2-2.3-0.1l-74.9-340.9L807,1002.3z M503,1256.4c0.5-4-1.5-7.6-4.7-9.6L615,961.6l74.4,338.4
	c-2.4,0.9-4.5,2.8-5.5,5.2L503,1256.4z M447.7,865.4l165.8,91.8l-118.1,288.4c-0.2,0-0.4-0.1-0.6-0.1c-0.6-0.1-1.2-0.1-1.8-0.1
	l-57.6-371.5C440.4,872.8,444.8,869.7,447.7,865.4z M379.5,1328.7l106.1-67c1.4,1.7,3.5,2.8,5.8,3.3c4.6,0.8,9-1.6,10.8-5.7
	l180.8,48.9c-0.1,1.1-0.1,2.2,0.1,3.3l-120.8,47.4c-1.4-2.5-3.8-4.2-6.9-4.8c-4.9-0.9-9.8,2.1-11.2,7l-162.6-21.8
	C382,1335.5,381.1,1331.9,379.5,1328.7z M563.7,1365.5c0.2-1.4,0.2-2.6-0.1-3.9l120.8-47.4c1.2,2.2,3.4,3.9,6.1,4.6l-22,193.7
	c-3.8-0.2-7.5,0.8-10.6,2.6l-97.1-144.1C562.2,1369.6,563.3,1367.8,563.7,1365.5z M807.8,999.4L617,955.4l33.7-320.9
	c3-0.2,5.6-1.6,7.3-3.8l179.5,100c-0.7,1.5-1.3,3.1-1.6,4.9c-1.9,10.5,5,20.7,15.3,23l-34.4,234.6
	C812.9,993.2,809.4,995.6,807.8,999.4z M641.6,619.7l-216.8-78.4c0.2-0.6,0.3-1.3,0.4-1.9c0.8-4.3,0-8.6-1.8-12.3l185.1-108.3
	c1.4,1.8,3.5,3.1,6,3.5c0.6,0.1,1.2,0.1,1.8,0.1l31,192.6C644.9,615.9,642.8,617.5,641.6,619.7z M408.5,555.7
	c6.6-1.1,12.4-5.4,15.1-11.5l216.8,78.4c0,0.1,0,0.1,0,0.2c-0.5,2.9,0.3,5.6,2,7.9L443.6,839c-2.6-2.1-5.6-3.6-9.1-4.3
	c-1.2-0.2-2.5-0.3-3.6-0.3L408.5,555.7z M413.9,864.8c2.9,4.8,7.7,8.3,13.6,9.3c1.7,0.3,3.4,0.4,5,0.2l57.6,371.6
	c-1,0.3-1.9,0.8-2.7,1.4L231.3,977.5c2.4-2.7,4.2-6.1,4.9-9.9c0.7-3.9,0.2-7.8-1.3-11.2L413.9,864.8z M222.1,983.2
	c2.6-0.8,5-2.1,7.2-3.7l256.1,269.7c-0.4,0.5-0.7,1-1,1.6l-213.7-72c1-5.4-2.6-10.5-8-11.5c-0.8-0.1-1.6-0.2-2.3-0.1L222.1,983.2z
	 M110.2,1316.8c3-1.3,5.3-3.9,5.9-7.4c0.4-2.5-0.1-5-1.3-6.9l139.6-117.8c1.3,1.1,2.9,1.9,4.8,2.3c2,0.3,3.9,0.1,5.6-0.6L350,1322
	c-4,2.9-6.9,7.3-7.8,12.6c-1.1,6.2,0.9,12.2,4.8,16.7l-168,171.3c-2.7-2.2-5.8-3.8-9.4-4.4c-2.4-0.4-4.7-0.3-7,0L110.2,1316.8z
	 M183.4,1528.3c-0.7-1.3-1.6-2.5-2.5-3.6l168-171.3c2.6,2.2,5.7,3.8,9.4,4.4c10.6,1.9,20.8-5.1,23.1-15.6l162.6,21.8
	c0.1,0.8,0.1,1.6,0.4,2.5L183.4,1528.3z M685.9,1540.5c0.7-1.4,1.1-2.8,1.4-4.4c0.7-3.8,0.2-7.6-1.1-10.9L954,1393.5
	c0.9,1.3,2.1,2.4,3.6,3.2l-78.3,237.3c-3.8-0.6-7.4,0.9-9.5,3.9L685.9,1540.5z M852.4,719.4l-67.6-278.6c4.8-1.6,8.8-4.8,11.2-9.3
	l259.3,120.4c-0.1,0.4-0.2,0.7-0.3,1.1c-0.5,2.6,0.1,5.1,1.5,7.2L869.6,724.8c-2.8-2.7-6.4-4.7-10.5-5.4
	C856.9,718.9,854.6,718.9,852.4,719.4z M914.5,250.2c0.9,0.6,2,1,3.1,1.2c3.8,0.7,7.5-0.9,9.6-3.8l133.1,71.6
	c-0.7,1.4-1.1,2.9-1.4,4.5c-1.9,10.8,5.4,21.3,16.2,23.2c0.3,0.1,0.5,0.1,0.8,0.1L1064,544.7c-3,0.3-5.7,1.8-7.4,4.4L797.3,428.6
	c0.4-1.1,0.7-2.3,0.9-3.5c1.2-7-1.3-13.7-6.2-18.3L914.5,250.2z M766.8,437.7L654.2,615.5c-0.8-0.3-1.4-0.6-2.3-0.7
	c-0.6-0.1-1.2-0.1-1.8-0.1l-31-192.6c3.2-1.1,5.9-3.8,6.6-7.4l132.7,7.4C758.8,428.3,761.9,434.1,766.8,437.7z"/>
</svg>
