<?xml version="1.0" encoding="utf-8"?>
<!-- Generator: Adobe Illustrator 20.0.0, SVG Export Plug-In . SVG Version: 6.00 Build 0)  -->
<svg version="1.1" id="svg8" xmlns="http://www.w3.org/2000/svg" xmlns:xlink="http://www.w3.org/1999/xlink" x="0px" y="0px"
	 viewBox="0 0 1462.7 1878.4" style="enable-background:new 0 0 1462.7 1878.4;" xml:space="preserve">
<style type="text/css">
	.st0{opacity:0.5;fill:#2196F3;enable-background:new    ;}
</style>
<path class="st0" d="M62.6,249.3c2,5.1,7.8,7.5,12.9,5.5c0,0,0,0,0.1,0l64.8,105.5c-6.6,4.8-9.8,13.1-7.7,21.1L18.8,419
	c-2.3-4.6-7.7-6.8-12.7-4.7c-5.1,2-7.5,7.8-5.5,12.9c2,5.1,7.8,7.5,12.9,5.5c4.4-1.8,6.8-6.3,6-10.8l113.9-37.7
	c4.2,10,15.9,14.8,25.9,10.7c5.1-2,8.9-5.9,10.9-10.8L304,428.6c-0.3,1.7-0.2,3.6,0.6,5.5c1.5,3.7,4.9,5.9,8.7,6.1l21.8,239.5
	c-1.4,0.3-2.8,0.6-4.1,1.2c-4.1,1.7-7.4,4.7-9.6,8.1l-165.4-83c0.7-2.1,0.6-4.5-0.3-6.8c-2-5.1-7.8-7.5-12.9-5.5
	c-5,2.1-7.4,7.9-5.5,12.9s7.8,7.5,12.9,5.5c1.9-0.8,3.2-2,4.3-3.5l165.5,83c-1.9,4.6-2,10,0,15.2c2.4,5.8,7.3,9.9,13,11.6
	l-35.5,168.8c-1.5-0.1-3,0.1-4.3,0.8c-5,2.1-7.4,7.9-5.5,12.9c2,5.1,7.8,7.5,12.9,5.5c5.1-2,7.5-7.8,5.5-12.9
	c-1.1-2.7-3.1-4.5-5.6-5.5l35.2-169c3.4,0.5,6.8,0.2,10.2-1.2c1.1-0.5,2.2-1,3.1-1.6l167.4,223.8c-6.3,5.5-8.7,14.5-5.4,22.6
	c1.5,3.7,4,6.7,7,8.8l-102.6,173.2c-5-2.6-10.9-2.9-16.5-0.7c-3.4,1.4-6.4,3.6-8.3,6.4l-120.1-78.5c1.1-2.4,1.2-5.2,0.2-7.8
	c-2-5.1-7.8-7.5-12.9-5.5c-5.2,2-7.4,7.9-5.5,12.9c2,5.1,7.8,7.5,12.9,5.5c1.4-0.5,2.6-1.5,3.6-2.5l120.2,78.4
	c-2.7,5.1-3.3,11.4-1,17.2c2.3,5.4,6.6,9.4,11.8,11.3l-38.2,138.3c-1.6-0.2-3.2,0-4.9,0.7c-5.1,2-7.5,7.8-5.5,12.9
	c2,5.2,7.8,7.5,12.9,5.5c5.1-2,7.5-7.8,5.5-12.9c-1-2.5-2.9-4.3-5.2-5.4l38.2-138.3c3.7,0.8,7.6,0.5,11.4-1c2-0.8,3.7-1.9,5.3-3
	l130.4,135.3c-2,2.7-2.7,6.3-1.3,9.6c1,2.3,2.6,4.1,4.7,5.1l-55.1,174.1c-1.7-0.2-3.5,0-5.3,0.6c-5.1,2-7.4,7.9-5.5,12.9
	c2,5.1,7.8,7.5,12.9,5.5c0.9-0.3,1.7-0.8,2.4-1.4l151.6,142.5c-4.5,5.5-5.9,13-3,20.1c0.7,1.6,1.5,3,2.5,4.3l-97,83.8
	c-2.7-2.4-6.6-3.2-10.2-1.8c-5,2.1-7.5,7.8-5.5,12.9c2,5.2,7.8,7.5,12.9,5.5c5.1-2,7.5-7.8,5.5-12.9c-0.2-0.6-0.5-1-0.8-1.4l97-83.8
	c3.8,3.7,9,5.9,14.5,5.8l15.1,164c-0.4,0-0.9,0.2-1.3,0.5c-5.1,2-7.5,7.8-5.5,12.9c2,5.1,7.8,7.5,12.9,5.5c5.1-2,7.5-7.8,5.5-12.9
	c-1.5-3.7-4.9-5.9-8.7-6.1l-15-163.9c1.4-0.3,2.8-0.6,4.1-1.2c10.1-4.2,15.1-16,11-26.1c-1.4-3.3-3.7-6.1-6.2-8.1l219-329.4
	c2.4,1.1,5.2,1.2,7.8,0.2c2.1-0.9,3.6-2.3,4.7-3.8l159,70c-1.6,4.5-1.6,9.5,0.4,14.2c1.2,2.8,2.9,5.2,5,7.2l-223.5,282.4
	c-2.6-1.5-5.7-1.8-8.6-0.6c-5.1,2-7.5,7.8-5.5,12.9c2,4.9,7.5,7.3,12.5,5.7l60.8,115.9c-3.6,2.6-5.1,7.3-3.4,11.7
	c2,5.1,7.8,7.5,12.9,5.5c5.2-2,7.5-7.8,5.5-12.9c-2-4.9-7.4-7.2-12.4-5.7l-60.4-115.7c1.8-1.4,3.2-3.3,3.8-5.6l166.6,16.1
	c0,1,0.3,2.2,0.7,3.2c2,5.1,7.8,7.5,12.9,5.5c5.1-2,7.5-7.8,5.5-12.9c-2-5.1-7.8-7.5-12.9-5.5c-3,1.2-5.2,3.8-6,6.7l-166.8-16.1
	c0-1-0.3-2.2-0.7-3.2c-0.5-1.1-1.1-2.1-2-3l223.1-282.4c0.7,0.5,1.5,1,2.2,1.2l-64.4,156c-2-0.6-4-0.4-6.1,0.5
	c-5.1,2-7.5,7.8-5.5,12.9c2,5.1,7.8,7.5,12.9,5.5s7.5-7.8,5.5-12.9c-0.9-2.1-2.3-3.7-4-4.7l64.5-156.1c2.7,0.8,5.5,1.2,8.4,0.9
	l35.5,194.1c-0.2,0.1-0.4,0.1-0.6,0.2c-5,2.1-7.5,7.8-5.5,12.9c2,5.1,7.8,7.5,12.9,5.5c5.1-2,7.5-7.8,5.5-12.9
	c-1.5-4-5.3-6.2-9.5-6.2l-35.5-194.1c0.8-0.3,1.6-0.5,2.5-0.8c7.7-3.1,12.4-10.6,12.4-18.6l207.3-15.8c0.1,0.5,0.2,1,0.6,1.5
	c0.7,1.7,1.7,2.9,3.1,4.1l-80.6,141.9c-2.4-0.9-4.8-0.9-7.3,0.1c-5,2.1-7.4,7.9-5.5,12.9c2,5.1,7.8,7.5,12.9,5.5
	c5.1-2,7.5-7.8,5.5-12.9c-0.7-1.7-1.7-2.9-3.1-4.1l80.6-141.9c2.4,0.9,4.8,0.9,7.3-0.1c0.5-0.2,1-0.3,1.4-0.6l111.8,135
	c-2.5,2.7-3.2,6.8-1.7,10.3c2,5.1,7.8,7.5,12.9,5.5c5.1-2,7.5-7.8,5.5-12.9c-2-5.1-7.8-7.5-12.9-5.5c-0.5,0.2-0.9,0.4-1.5,0.6
	l-111.8-134.9c2.5-2.7,3.3-6.7,1.8-10.4c-1.7-4.1-5.9-6.6-10.1-6.1l-60.3-242.5c5.1-2,7.5-7.8,5.5-12.9c-2-5.1-7.8-7.5-12.9-5.5
	c-4.2,1.7-6.6,6-6,10.4l-250.9,71.8c-0.9-2.1-2.4-3.4-4.1-4.5L1091,953c4.3,1.3,8.9,1.3,13.2-0.5c6.2-2.5,10.5-7.9,11.9-14
	l120.7,18.2c0,1.3,0.2,2.4,0.7,3.6c2,5.1,7.8,7.5,12.9,5.5c5.1-2,7.5-7.8,5.5-12.9c-2-5.1-7.8-7.5-12.9-5.5
	c-2.8,1.2-4.8,3.6-5.7,6.2L1116.7,935c0.2-3-0.1-6-1.4-9c-1.8-4.3-4.8-7.7-8.8-9.8l70-150.7c2.1,0.6,4.3,0.6,6.6-0.3
	c5.1-2,7.5-7.8,5.5-12.9c-2-5.1-7.8-7.5-12.9-5.5c-5.1,2-7.5,7.8-5.5,12.9c0.8,2,2,3.4,3.7,4.4l-70,151c-4.6-1.7-9.7-1.9-14.6,0.2
	c-4.9,2-8.5,5.7-10.7,10.2l-133.2-48.5c0.3-1.7,0.2-3.8-0.5-5.5c-0.7-1.6-1.6-2.9-2.9-3.8l110.6-185.1c2.4,0.9,5,1,7.5,0
	c5.1-2,7.5-7.8,5.5-12.9c-2-5.1-7.8-7.5-12.9-5.5c-5,2.1-7.4,7.9-5.5,12.9c0.7,1.6,1.6,2.9,2.9,3.8l-110.7,185
	c-1.9-0.8-4.2-1-6.2-0.4L836.8,649c8-4.3,12.1-13.7,10-22.4l198.8-65.6c2.3,4.6,7.7,6.8,12.7,4.7c5.1-2,7.5-7.8,5.5-12.9
	c-2-5.1-7.8-7.5-12.9-5.5c-4.3,1.8-6.8,6.3-6,10.8l-198.8,65.7c-1-2.4-2.5-4.6-4.2-6.3l171-195.1c2.6,1.7,5.9,2.1,9.1,0.9
	c5.1-2,7.5-7.8,5.5-12.9s-7.8-7.5-12.9-5.5c-5,2.1-7.5,7.8-5.5,12.9c0.4,1,0.9,1.8,1.6,2.6l-171.1,195c-1.6-1.2-3.1-2.1-4.8-2.6
	l70.2-239.2c1.6,0.2,3.3,0.1,5-0.6c5.1-2,7.5-7.8,5.5-12.9c-2.1-5-7.5-7.4-12.5-5.6l-95.4-173.6c4.7-3.1,7.9-8.1,8.8-13.5
	l139.7,12.5c0,1,0.3,2.2,0.7,3.2c2,5.1,7.8,7.5,12.9,5.5c5.1-2,7.5-7.8,5.5-12.9c-2-5.1-7.8-7.5-12.9-5.5c-3,1.2-5.1,3.8-5.8,6.8
	l-139.7-12.5c0-2.6-0.5-5.1-1.5-7.8c-1.5-4-4.4-7.2-7.9-9.3L875,19.4c2.1,0.7,4.6,0.8,6.9-0.2c5.1-2,7.5-7.8,5.5-12.9
	c-2-5.1-7.8-7.5-12.9-5.5c-5.1,2-7.5,7.8-5.5,12.9c0.7,1.8,1.8,3.3,3.3,4.3L804.5,146c-4.8-2.1-10.4-2.4-15.5-0.3
	c-1.8,0.7-3.3,1.7-4.8,2.7L687.8,41.2c2.2-2.6,2.9-6.4,1.4-10c-2-5.1-7.8-7.5-12.9-5.5c-5,2.1-7.5,7.8-5.5,12.9
	c2,5.1,7.8,7.5,12.9,5.5c0.7-0.3,1.2-0.6,1.8-0.9l96.3,107.3c-3.6,3.7-5.5,8.5-5.5,13.8l-150.8,10.3c-0.1-0.5-0.3-1.1-0.6-1.5
	c-2-5.1-7.8-7.5-12.9-5.5c-5.1,2-7.5,7.8-5.5,12.9c1.2,3,3.8,5.1,6.8,5.8l-20,198c-2.8-0.1-5.5,0.3-8.1,1.4
	c-2.8,1.2-5.1,2.8-7.1,4.9L438.9,278.9c1.5-2.6,1.8-5.7,0.6-8.6c-2-5.1-7.8-7.5-12.9-5.5c-5.2,2-7.5,7.8-5.5,12.9
	c2,5.2,7.8,7.5,12.9,5.5c1.1-0.5,2.1-1.1,3-1.9l139.4,111.6c-3.6,5.3-4.7,12.4-2,18.9c0.1,0.3,0.2,0.6,0.3,0.9l-116.2,64.5
	c-2.6-3.4-7.3-4.8-11.6-3.1c-2.2,0.9-3.8,2.4-4.9,4.3l-118.9-45.4c0.5-2,0.3-3.9-0.5-5.8c-2-5.1-7.8-7.5-12.9-5.5
	c-2.3,0.9-4,2.7-5,4.6l-133.6-44.7c1.1-3.9,0.9-8.4-0.8-12.5c-0.8-1.9-1.7-3.4-2.9-4.9l128.9-119.6c2.6,2.2,6.5,2.7,9.8,1.3
	c5.1-2,7.5-7.8,5.5-12.9c-2-5.1-7.8-7.5-12.9-5.5c-5,2.1-7.5,7.8-5.5,12.9c0.3,0.7,0.7,1.3,0.9,1.8L165.5,361.9
	c-5.6-5.1-13.7-6.9-21.2-3.9c-0.6,0.2-1.1,0.5-1.6,0.8L78.2,253.2c3.3-2.8,4.5-7.2,2.9-11.2c-2-5.1-7.8-7.5-12.9-5.5
	C63,238.6,60.5,244.3,62.6,249.3z M316,440.1c0.4,0,0.9-0.2,1.3-0.5c2.2-0.9,3.9-2.4,5-4.3l118.9,45.4c-0.5,2-0.3,3.9,0.5,5.8
	c0.7,1.8,1.8,3.3,3.4,4.2l-98.9,190.5c-2.6-1-5.3-1.7-8.3-1.6L316,440.1z M606.3,418.9l205.8,199.7c-2.9,3.4-4.6,7.9-4.6,12.3
	l-205.1,11.2c-0.1-0.6-0.3-1.2-0.5-1.7c-1.4-3.3-4.3-5.5-7.6-6.1l0.3-210.4c2-0.2,4.1-0.6,6.1-1.3
	C602.6,421.7,604.6,420.5,606.3,418.9z M1078.2,941.4c1.9,4.8,5.5,8.5,10,10.4l-92.3,238.9c-0.7-0.1-1.6-0.2-2.4-0.3l-54.7-305.9
	c0.2-0.1,0.3-0.1,0.5-0.2c2.3-0.9,3.9-2.6,4.9-4.5l133.3,48.5C1076.3,932.7,1076.4,937.2,1078.2,941.4z M1256.9,1131.1l-156.3,254.1
	c-4.9-2.6-10.8-3-16.4-0.9l-84.8-175.7c3-2.1,4.7-5.7,4.1-9.4l250.9-71.8C1255,1128.9,1256,1130,1256.9,1131.1z M567.3,1322.2
	c0.4-1.2,0.5-2.5,0.4-3.7l219.2-53c0.8,1.9,2,3.2,3.5,4.3l-54,113.4c-4.6-1.8-9.9-2-14.8,0.1c-4.2,1.7-7.5,4.8-9.7,8.5L567.3,1322.2
	z M595.6,653.5l142.1,288.6L549.4,953c-0.2-1.6-0.6-3.4-1.2-5c-2.5-5.9-7.4-10.1-13.1-11.7L592.2,654
	C593.3,654,594.3,653.9,595.6,653.5z M926.6,880c1.8,3.4,5.3,5.4,9,5.3l54.7,305.9c-0.2,0.1-0.3,0.1-0.5,0.2c-0.7,0.4-1.5,0.6-2,1.2
	L742.7,944.2L926.6,880z M804.9,1257.1c-1.7-3.6-5.3-5.7-9.1-5.6l-53.4-303.5l243.4,246.6c-1.6,2-2.3,4.7-1.9,7.3L804.9,1257.1z
	 M549.6,955.9l189.2-10.7l53.9,306.9c-0.2,0.1-0.4,0.1-0.6,0.2c-0.6,0.2-1.1,0.6-1.5,0.9L543.7,969.6
	C547.4,966,549.5,961.1,549.6,955.9z M739,1384.1l54-113.2c2.1,0.7,4.4,0.5,6.7-0.3c4.3-1.8,6.8-6.2,6.1-10.6l179-55.1
	c0.5,1,1.1,1.9,1.9,2.8l-76.9,104.5c-2.6-1.4-5.5-1.5-8.4-0.3c-4.6,1.9-7.1,7-5.7,11.9l-149.2,68.3
	C744.7,1388.5,742.1,1386,739,1384.1z M914.5,1317c-0.6-1.3-1.2-2.3-2.2-3.2l76.9-104.5c2.2,1.2,5,1.5,7.6,0.6l84.7,175.6
	c-3.4,1.9-5.9,4.6-7.5,7.9l-159-70.1C915.4,1321.3,915.3,1319.2,914.5,1317z M925.7,877.1l-184.9,64.5L598.2,652.2
	c2.5-1.8,3.9-4.4,4.1-7.1l205.1-11.2c0.2,1.6,0.6,3.4,1.3,5c4,9.9,15.3,14.9,25.2,11.3L930,867C926.7,869.2,925,873.1,925.7,877.1z
	 M582.6,644.6l-225.2,49.3c-0.1-0.6-0.4-1.2-0.7-1.8c-1.6-4-4.6-7.3-8.1-9.4l98.8-190.3c2.1,0.7,4.6,0.8,6.9-0.2
	c0.6-0.2,1.1-0.6,1.5-0.9L585,637.6C583.4,639.7,582.4,642.2,582.6,644.6z M351.3,714.8c5-4.4,7.6-11.2,6.6-17.8l225.2-49.3
	c0,0.1,0,0.1,0.1,0.2c1.1,2.7,3.2,4.6,5.9,5.6l-57,282.1c-3.3-0.4-6.7,0-10,1.2c-1.1,0.5-2.3,1-3.2,1.7L351.3,714.8z M520.7,973.4
	c5,2.6,10.9,2.9,16.5,0.7c1.6-0.7,3-1.5,4.3-2.5l246.9,283.6c-0.6,0.8-1.2,1.7-1.6,2.6L426.3,1166c0.6-3.5,0.3-7.3-1.2-11
	c-1.5-3.7-4-6.7-7-8.8L520.7,973.4z M421.6,1175.8c1.8-2,3.1-4.4,4.1-7l360.5,91.6c-0.1,0.6,0,1.2,0,1.8l-219.2,53
	c-2-5.1-7.8-7.5-12.9-5.5c-0.7,0.4-1.5,0.6-2,1.2L421.6,1175.8z M504.9,1517.7c1.9-2.7,2.4-6.1,1-9.4c-1-2.3-2.8-4.2-4.8-5.2
	l55.3-174.1c1.7,0.2,3.5,0,5.3-0.6c1.9-0.8,3.3-2,4.4-3.5l144.4,69.2c-1.8,4.6-2,9.9,0.1,14.8c2.4,5.8,7.3,9.8,13,11.6l-50.9,234.5
	c-3.5-0.4-6.9-0.2-10.3,1.3c-2.3,0.9-4.1,2.3-5.9,3.7L504.9,1517.7z M679.6,1657.5c-1.3-0.7-2.6-1.2-4.1-1.7l50.8-234.4
	c3.4,0.5,6.8,0.2,10.3-1.3c10-4,14.9-15.4,11.2-25.5l149.2-68.3c0.5,0.6,0.9,1.3,1.7,1.9L679.6,1657.5z M1111.1,1399.9
	c-0.2-1.6-0.6-2.9-1.1-4.5c-1.4-3.6-3.8-6.5-6.8-8.6l156.3-254.2c1.5,0.6,3.1,0.9,4.8,0.8l60.3,242.5c-3.5,1.5-5.8,4.7-6,8.3
	L1111.1,1399.9z M814.1,616.5L608.3,416.9c3.2-3.9,4.9-8.7,4.5-13.9l283.6-36.4c0.1,0.4,0.2,0.7,0.3,1.1c1,2.4,2.8,4.3,5.1,5.3
	l-70.3,239c-3.8-0.8-7.9-0.6-11.8,1C817.7,613.7,815.7,614.9,814.1,616.5z M616.4,186.5c1,0.1,2.2-0.2,3.2-0.6
	c3.6-1.4,5.9-4.7,6.1-8.4l150.8-10.4c0.2,1.6,0.6,3,1.2,4.5c4.2,10.1,16,15.1,26.1,11c0.3-0.1,0.5-0.2,0.7-0.4l95.4,173.5
	c-2.3,1.9-3.9,4.6-3.9,7.7l-283.6,36.3c-0.3-1.2-0.6-2.3-1.1-3.4c-2.7-6.6-8.4-10.9-15-12.2L616.4,186.5z M591.4,423.9L591,634.4
	c-0.9,0.2-1.5,0.2-2.3,0.6c-0.6,0.2-1.1,0.6-1.5,0.9l-129-146.4c2.2-2.6,3-6.3,1.7-9.8L576,415.1
	C579.7,420.2,585.4,423.4,591.4,423.9z"/>
</svg>
