<?xml version="1.0" encoding="utf-8"?>
<!-- Generator: Adobe Illustrator 22.0.1, SVG Export Plug-In . SVG Version: 6.00 Build 0)  -->
<svg version="1.1" id="Layer_1" xmlns="http://www.w3.org/2000/svg" xmlns:xlink="http://www.w3.org/1999/xlink" x="0px" y="0px"
	 viewBox="0 0 476 249.4" style="enable-background:new 0 0 476 249.4;" xml:space="preserve">
<style type="text/css">
	.st0{fill:#2196F3;}
</style>
<g>
	<path class="st0" d="M80.9,90.4c9.5-11.7,17.5-24.8,17.5-45.9C98.4,16,78.7,0,51,0C14.6,0,0,26.2,0,56.1h35.7
		c0-19.7,4.4-27,13.8-27c10.2,0,13.1,6.6,13.1,17.5c0,5.8-1.5,16.8-7.3,23.3C37.9,88.9,0,113.7,0,163.3h102.1v-29.2H43
		C44.5,121,72.2,101.3,80.9,90.4z"/>
	<path class="st0" d="M212.9,121V44.5c0-22.6-9.5-44.5-49.6-44.5c-37.9,0-48.8,21.9-48.1,44.5V121c0,23.3,10.2,45.2,48.1,45.2
		C203.4,166.2,212.9,143.6,212.9,121z M176.4,123.2c0,10.9-3.6,16.8-13.8,16.8s-11.7-5.8-11.7-16.8V44.5c0-10.9,1.5-16.8,11.7-16.8
		c10.9,0,13.8,5.8,13.8,16.8V123.2z"/>
	<path class="st0" d="M340.4,75.1c19-5.1,22.6-19,22.6-34.3C363,16,344.8,0,317.1,0c-34.3,0-48.8,22.6-48.8,47.4v4.4v0.7h34.3v-8.7
		c0-10.2,5.1-16,13.1-16c8.7,0,12.4,8,12.4,16.8c0,18.2-6.6,21.9-24.1,21.9h-5.1v24.8h8c17.5,0,23.3,4.4,23.3,21.1
		c0,17.5-2.9,24.1-13.8,24.1c-10.2,0-13.8-10.9-13.8-23.3v-5.8h-34.3v8c0,35.7,20.4,51,48.1,51c31.3,0,50.3-13.8,50.3-48.1
		C366.7,96.2,363,83.8,340.4,75.1z"/>
	<path class="st0" d="M427.9,140.7c-8.7,0-13.1-5.8-13.1-25.5h-34.3c0,37.2,13.8,52.5,48.1,52.5c30.6,0,47.4-14.6,47.4-60.5
		c0-35.7-12.4-53.9-36.4-53.9c-15.3,0-21.9,5.8-27.7,12.4l2.9-35h55.4v-27h-83.8L382,92.6h32.8c1.5-6.6,4.4-11.7,12.4-11.7
		c9.5,0,13.1,6.6,13.1,28.4C440.3,134.9,436.6,140.7,427.9,140.7z"/>
	<rect x="226" y="134.1" class="st0" width="29.2" height="29.2"/>
	<path class="st0" d="M27.4,209.5c-1.6,0-2.8,0.9-3.3,2.5c-1,3.1-2.3,7-3.3,9.9c-1,2.8-2.2,6.3-3.5,9.3l-8.2-19.5
		c-0.6-1.5-1.7-2.2-3.1-2.2c-1.9,0-3.5,1.5-3.5,3.4c0,0.6,0.1,1.2,0.4,1.8l10.9,24.5c-1.6,2.6-2.9,3.5-5.1,3.5H8
		c-1.9,0-3.3,1.5-3.3,3.4c0,1.9,1.5,3.3,3.4,3.3h1.3c6.4,0,9.4-4.6,11.6-9.5c1.8-4.1,3.3-7.7,4.8-11.7c1.4-3.7,2.9-8,4.7-13.6
		c0.2-0.7,0.3-1.4,0.3-1.8C30.8,210.8,29.5,209.5,27.4,209.5z"/>
	<path class="st0" d="M58.7,209.6c-1.9,0-3.4,1.5-3.4,3.5v13.6H40.9v-13.6c0-1.9-1.5-3.5-3.4-3.5c-1.9,0-3.5,1.5-3.5,3.5V246
		c0,1.9,1.6,3.4,3.5,3.4c1.8,0,3.4-1.6,3.4-3.4v-13h14.4v13c0,1.8,1.6,3.4,3.4,3.4c1.9,0,3.5-1.5,3.5-3.4v-32.9
		C62.2,211.1,60.7,209.6,58.7,209.6z"/>
	<path class="st0" d="M95,209.5c-1.9,0-3.5,1.6-3.5,3.4v3l-15.1,17.4V213c0-1.9-1.5-3.4-3.4-3.4c-1.9,0-3.5,1.5-3.5,3.4v33
		c0,1.9,1.6,3.5,3.5,3.5c1.9,0,3.4-1.6,3.4-3.5v-3l15.1-17.5v20.4c0,1.9,1.6,3.5,3.5,3.5c1.9,0,3.5-1.6,3.5-3.5v-33
		C98.6,211.1,97,209.5,95,209.5z"/>
	<path class="st0" d="M127.2,228.9c2.7-1.5,4.1-4.1,4.1-7.4v-1.5c0-2.3-0.9-9.9-11.8-9.9h-10.1c-1.9,0-3.5,1.6-3.5,3.5v32
		c0,1.9,1.5,3.5,3.5,3.5h11.3c10,0,12.1-5.6,12.1-10.2v-1.5C132.8,233.5,130.7,230.4,127.2,228.9z M112.8,216.5h6.6
		c3.2,0,5,1.5,5,4.2v1.4c0,2.8-2.2,4.2-6.8,4.2h-4.8V216.5z M125.9,238c0,3.1-1.7,4.5-5.3,4.5h-7.8v-9.9h7.2c3.7,0,5.9,1.6,5.9,4.3
		V238z"/>
	<path class="st0" d="M159.7,242.3h-13.9v-9.6h11.9c1.8,0,3.3-1.4,3.3-3.2c0-1.8-1.5-3.3-3.3-3.3h-11.9v-9.6H159
		c1.8,0,3.3-1.5,3.3-3.3c0-1.9-1.5-3.4-3.3-3.4h-16.8c-1.8,0-3.3,1.5-3.3,3.4v32.2c0,1.8,1.5,3.3,3.3,3.3h17.5
		c1.8,0,3.3-1.5,3.3-3.3C163,243.8,161.6,242.3,159.7,242.3z"/>
	<path class="st0" d="M181.4,210h-9.9c-1.9,0-3.5,1.6-3.5,3.5v32.4c0,1.9,1.5,3.5,3.5,3.5c1.9,0,3.5-1.5,3.5-3.5v-11.5h6.8
		c7.3,0,12-4.2,12-10.8V221C193.9,218.4,193,210,181.4,210z M186.9,223.6c0,2.8-1.9,4.4-5.3,4.4H175v-11.4h5.9c5,0,6,2.5,6,4.5
		V223.6z"/>
	<path class="st0" d="M212.6,215.9c1.9,0,3.3,0.4,4.5,1.3c0.2,0.1,0.3,0.2,0.4,0.3c0.6,0.4,1.1,0.8,1.9,0.7c2.1,0,3.2-1.6,3.2-3.2
		c0-1-0.5-1.9-1.3-2.6c-1.9-1.8-5.1-2.8-8.7-2.8c-9.2,0-14.3,6-14.3,16.9v6c0,11.1,4.8,16.9,14,16.9c2.7,0,6.7-0.8,8.9-3.1
		c0.9-0.7,1.3-1.6,1.3-2.6c0-1.7-1.3-3-2.9-3c-0.8,0-1.4,0.4-2.2,0.8l-0.3,0.2c-1.3,1-3,1.5-4.9,1.5c-4.9,0-7-3.2-7-10.6v-5.8
		C205.3,219.2,207.5,215.9,212.6,215.9z"/>
	<path class="st0" d="M253.6,209.5c-1.9,0-3.5,1.6-3.5,3.4v3L235,233.4V213c0-1.9-1.5-3.4-3.4-3.4c-1.9,0-3.5,1.5-3.5,3.4v33
		c0,1.9,1.6,3.5,3.5,3.5c1.9,0,3.4-1.6,3.4-3.5v-3l15.1-17.5v20.4c0,1.9,1.6,3.5,3.5,3.5c1.9,0,3.5-1.6,3.5-3.5v-33
		C257.1,211.1,255.5,209.5,253.6,209.5z"/>
	<path class="st0" d="M287.9,210h-23.7c-1.8,0-3.4,1.5-3.4,3.4c0,1.9,1.5,3.4,3.4,3.4h8.4V246c0,1.8,1.6,3.4,3.5,3.4
		s3.5-1.6,3.5-3.4v-29.2h8.4c1.9,0,3.4-1.5,3.4-3.4C291.3,211.6,289.7,210,287.9,210z"/>
	<path class="st0" d="M315.8,242.3h-13.9v-9.6h11.9c1.8,0,3.3-1.4,3.3-3.2c0-1.8-1.5-3.3-3.3-3.3h-11.9v-9.6h13.2
		c1.8,0,3.3-1.5,3.3-3.3c0-1.9-1.5-3.4-3.3-3.4h-16.8c-1.8,0-3.3,1.5-3.3,3.4v32.2c0,1.8,1.5,3.3,3.3,3.3h17.5
		c1.8,0,3.3-1.5,3.3-3.3C319.1,243.8,317.7,242.3,315.8,242.3z"/>
	<path class="st0" d="M347.7,210h-23.7c-1.8,0-3.4,1.5-3.4,3.4c0,1.9,1.5,3.4,3.4,3.4h8.4V246c0,1.8,1.6,3.4,3.5,3.4
		s3.5-1.6,3.5-3.4v-29.2h8.4c1.9,0,3.4-1.5,3.4-3.4C351,211.6,349.5,210,347.7,210z"/>
	<path class="st0" d="M395.1,209.6c-1.9,0-3.4,1.5-3.4,3.5v13.6h-14.4v-13.6c0-1.9-1.5-3.5-3.4-3.5c-1.9,0-3.5,1.5-3.5,3.5V246
		c0,1.9,1.6,3.4,3.5,3.4c1.8,0,3.4-1.6,3.4-3.4v-13h14.4v13c0,1.8,1.6,3.4,3.4,3.4c1.9,0,3.5-1.5,3.5-3.4v-32.9
		C398.5,211.1,397,209.6,395.1,209.6z"/>
	<path class="st0" d="M429.4,210h-23.7c-1.8,0-3.4,1.5-3.4,3.4c0,1.9,1.5,3.4,3.4,3.4h8.4V246c0,1.8,1.6,3.4,3.5,3.4
		c1.9,0,3.5-1.6,3.5-3.4v-29.2h8.4c1.9,0,3.4-1.5,3.4-3.4C432.8,211.6,431.2,210,429.4,210z"/>
	<path class="st0" d="M461.9,209.5c-1.9,0-3.5,1.6-3.5,3.4v3l-15.1,17.4V213c0-1.9-1.5-3.4-3.4-3.4c-1.9,0-3.5,1.5-3.5,3.4v33
		c0,1.9,1.6,3.5,3.5,3.5c1.9,0,3.4-1.6,3.4-3.5v-3l15.1-17.5v20.4c0,1.9,1.6,3.5,3.5,3.5c1.9,0,3.5-1.6,3.5-3.5v-33
		C465.5,211.1,463.9,209.5,461.9,209.5z"/>
</g>
</svg>
