<svg id="Layer_1" data-name="Layer 1" xmlns="http://www.w3.org/2000/svg" viewBox="0 0 64 64"><defs><style>.cls-1{fill:#078cd6;}</style></defs><title>icons-new</title><path class="cls-1" d="M32,57.05A25.05,25.05,0,1,1,57,32,25.06,25.06,0,0,1,32,57.05ZM32,8.95A23.05,23.05,0,1,0,55,32,23.05,23.05,0,0,0,32,8.95Z"/><path class="cls-1" d="M32,52.51A20.51,20.51,0,1,1,52.46,32,20.51,20.51,0,0,1,32,52.51Zm0-39A18.51,18.51,0,1,0,50.46,32,18.51,18.51,0,0,0,32,13.49Z"/><path class="cls-1" d="M43.45,33H32a1,1,0,0,1-.93-.63L25.72,19a1,1,0,0,1,1.86-.74L32.68,31H43.45a1,1,0,0,1,0,2Z"/></svg>