<svg id="Layer_1" data-name="Layer 1" xmlns="http://www.w3.org/2000/svg" viewBox="0 0 64 64"><defs><style>.cls-1{fill:#2196f3;}</style></defs><title>icons-new</title><path class="cls-1" d="M41.74,21.29H22.26a1,1,0,0,0-1,1V41.74a1,1,0,0,0,1,1H41.74a1,1,0,0,0,1-1V22.26A1,1,0,0,0,41.74,21.29Zm-1,19.48H23.23V23.23H40.77Z"/><path class="cls-1" d="M55,29.72a1,1,0,0,0,0-1.94H47.34V23.23H55a1,1,0,0,0,0-1.94H47.34V17.63a1,1,0,0,0-1-1H42.71V9a1,1,0,1,0-1.94,0v7.69H36.21V9a1,1,0,1,0-1.94,0v7.69H29.72V9a1,1,0,0,0-1.94,0v7.69H23.23V9a1,1,0,0,0-1.94,0v7.69H17.63a1,1,0,0,0-1,1v3.67H9a1,1,0,0,0,0,1.94h7.69v4.55H9a1,1,0,0,0,0,1.94h7.69v4.55H9a1,1,0,1,0,0,1.94h7.69v4.55H9a1,1,0,1,0,0,1.94h7.69v3.67a1,1,0,0,0,1,1h3.67V55a1,1,0,1,0,1.94,0V47.34h4.55V55a1,1,0,0,0,1.94,0V47.34h4.55V55a1,1,0,0,0,1.94,0V47.34h4.55V55a1,1,0,1,0,1.94,0V47.34h3.67a1,1,0,0,0,1-1V42.71H55a1,1,0,1,0,0-1.94H47.34V36.21H55a1,1,0,0,0,0-1.94H47.34V29.72H55ZM45.4,45.4H18.6V18.6H45.4Z"/></svg>