<svg id="Layer_1" data-name="Layer 1" xmlns="http://www.w3.org/2000/svg" viewBox="0 0 64 64"><defs><style>.cls-1{fill:#2196f3;}</style></defs><title>icons-new</title><path class="cls-1" d="M57,56.5H7a1,1,0,0,1-1-1v-38a5,5,0,0,1,5-5H53a5,5,0,0,1,5,5v38A1,1,0,0,1,57,56.5Zm-49-2H56v-37a3,3,0,0,0-3-3H11a3,3,0,0,0-3,3Z"/><path class="cls-1" d="M57,52.5H7a1,1,0,0,1,0-2H57a1,1,0,0,1,0,2Z"/><path class="cls-1" d="M19,19.5a1,1,0,0,1,0-2,4,4,0,1,0-4-4,1,1,0,0,1-2,0,6,6,0,1,1,6,6Z"/><path class="cls-1" d="M45,19.5a1,1,0,0,1,0-2,4,4,0,1,0-4-4,1,1,0,0,1-2,0,6,6,0,1,1,6,6Z"/><circle class="cls-1" cx="32" cy="28" r="2"/><circle class="cls-1" cx="40" cy="28" r="2"/><circle class="cls-1" cx="48" cy="28" r="2"/><circle class="cls-1" cx="32" cy="36" r="2"/><circle class="cls-1" cx="40" cy="36" r="2"/><circle class="cls-1" cx="48" cy="36" r="2"/><circle class="cls-1" cx="16" cy="36" r="2"/><circle class="cls-1" cx="24" cy="36" r="2"/><circle class="cls-1" cx="32" cy="44" r="2"/><circle class="cls-1" cx="40" cy="44" r="2"/><circle class="cls-1" cx="16" cy="44" r="2"/><circle class="cls-1" cx="24" cy="44" r="2"/></svg>