<svg id="Layer_1" data-name="Layer 1" xmlns="http://www.w3.org/2000/svg" viewBox="0 0 64 64"><defs><style>.cls-1{fill:#2196f3;}</style></defs><title>icons-new</title><path class="cls-1" d="M51.64,7.56a4.36,4.36,0,0,0-2.41,8L41,37.31a4.27,4.27,0,0,0-.7-.07,4.32,4.32,0,0,0-2.75,1l-8.26-6.82a4.31,4.31,0,0,0,.53-2,4.36,4.36,0,1,0-7.24,3.26L13.77,48a4.3,4.3,0,0,0-1.41-.25,4.41,4.41,0,1,0,2.91,1.14l8.81-15.34a4.18,4.18,0,0,0,4.08-.74l8.26,6.83a4.31,4.31,0,0,0-.51,2,4.36,4.36,0,1,0,6.69-3.68l8.24-21.71a4.36,4.36,0,1,0,.79-8.65ZM12.36,54.69A2.62,2.62,0,1,1,15,52.07,2.62,2.62,0,0,1,12.36,54.69ZM25.44,32a2.62,2.62,0,1,1,2.62-2.62A2.62,2.62,0,0,1,25.44,32ZM40.28,44.22A2.62,2.62,0,1,1,42.9,41.6,2.62,2.62,0,0,1,40.28,44.22ZM51.64,14.55a2.62,2.62,0,1,1,2.62-2.62A2.62,2.62,0,0,1,51.64,14.55Z"/></svg>