<svg id="Layer_1" data-name="Layer 1" xmlns="http://www.w3.org/2000/svg" viewBox="0 0 64 64"><defs><style>.cls-1{fill:#fff;}</style></defs><title>icons-2</title><path class="cls-1" d="M32.29,17.41a7.3,7.3,0,0,0-7.59,7c0,3.71,3,10.55,7.3,10.55s7.3-6.85,7.3-10.56a1,1,0,0,0,0-.19A7.34,7.34,0,0,0,32.29,17.41ZM32,33c-2.68,0-5.3-5.41-5.3-8.51A5.3,5.3,0,0,1,32,19.4h.22a5.33,5.33,0,0,1,5.08,5.09.87.87,0,0,0,0,.09C37.22,27.74,34.64,33,32,33Z"/><path class="cls-1" d="M32,7A25,25,0,1,0,57,32,25,25,0,0,0,32,7ZM20,51.62a12,12,0,0,1,24,0,22.95,22.95,0,0,1-24,0Zm25.92-1.33a14,14,0,0,0-27.86,0,23,23,0,1,1,27.86,0Z"/></svg>