<svg id="Layer_1" data-name="Layer 1" xmlns="http://www.w3.org/2000/svg" viewBox="0 0 64 64"><defs><style>.cls-1{fill:#078cd6;}</style></defs><title>icons-new</title><path class="cls-1" d="M32,31.89c-4.2,0-7.15-6.7-7.15-10.32a7.15,7.15,0,0,1,14.28-.15.92.92,0,0,1,0,.17C39.15,25.2,36.2,31.89,32,31.89Zm0-15.22a5.16,5.16,0,0,0-5.14,4.94c0,3,2.55,8.28,5.15,8.28s5.09-5.13,5.15-8.19c0,0,0-.06,0-.09a5.18,5.18,0,0,0-4.94-4.94Z"/><path class="cls-1" d="M44.66,49.19a1,1,0,0,1-1-1,11.66,11.66,0,0,0-23.32,0,1,1,0,0,1-2,0,13.66,13.66,0,0,1,27.32,0A1,1,0,0,1,44.66,49.19Z"/><path class="cls-1" d="M48.29,34.66c-3.64,0-6.2-5.84-6.2-9a6.21,6.21,0,0,1,12.41,0,1,1,0,0,1,0,.15C54.41,29,51.88,34.66,48.29,34.66Zm0-13.21a4.21,4.21,0,0,0-4.21,4.21c0,2.51,2.12,7,4.2,7s4.2-4.49,4.2-7a1,1,0,0,1,0-.13A4.21,4.21,0,0,0,48.29,21.45Z"/><path class="cls-1" d="M59,49.34h0a1,1,0,0,1-1-1,9.72,9.72,0,0,0-15.59-7.75A1,1,0,1,1,41.21,39,11.72,11.72,0,0,1,60,48.34,1,1,0,0,1,59,49.34Z"/><path class="cls-1" d="M15.71,34.66c-3.58,0-6.12-5.65-6.2-8.85a1,1,0,0,1,0-.15,6.21,6.21,0,0,1,12.41,0C21.91,28.82,19.35,34.66,15.71,34.66ZM11.5,25.53a1.05,1.05,0,0,1,0,.13c0,2.51,2.12,7,4.2,7s4.2-4.49,4.2-7a4.21,4.21,0,0,0-8.41-.12Z"/><path class="cls-1" d="M5,49.34a1,1,0,0,1-1-1A11.72,11.72,0,0,1,22.79,39a1,1,0,1,1-1.21,1.59A9.72,9.72,0,0,0,6,48.34,1,1,0,0,1,5,49.34Z"/></svg>