<svg id="Layer_1" data-name="Layer 1" xmlns="http://www.w3.org/2000/svg" viewBox="0 0 64 64"><defs><style>.cls-1{fill:#2196f3;}</style></defs><title>icons-new</title><path class="cls-1" d="M32,17.91a5.45,5.45,0,1,1,5.45-5.45A5.46,5.46,0,0,1,32,17.91ZM32,9a3.45,3.45,0,1,0,3.45,3.45A3.46,3.46,0,0,0,32,9Z"/><path class="cls-1" d="M32,25.77a1,1,0,0,1-1-1V16.91a1,1,0,0,1,2,0v7.87A1,1,0,0,1,32,25.77Z"/><path class="cls-1" d="M47.41,46.31a5.42,5.42,0,0,1-2.71-.73h0a5.45,5.45,0,1,1,4.14.53A5.47,5.47,0,0,1,47.41,46.31Zm0-8.91a3.45,3.45,0,0,0-1.73,6.45h0a3.45,3.45,0,1,0,1.72-6.45Z"/><path class="cls-1" d="M43.55,39.64a1,1,0,0,1-.5-.13L38,36.58a1,1,0,0,1,1-1.73l5.1,2.93a1,1,0,0,1-.5,1.87Z"/><path class="cls-1" d="M16.59,46.31a5.46,5.46,0,1,1,5.26-4,5.46,5.46,0,0,1-5.26,4Zm0-8.91a3.45,3.45,0,1,0,1.72,6.45h0a3.45,3.45,0,0,0-1.73-6.45Z"/><path class="cls-1" d="M20.45,39.64a1,1,0,0,1-.5-1.87L24.8,35a1,1,0,0,1,1,1.73l-4.85,2.79A1,1,0,0,1,20.45,39.64Z"/><path class="cls-1" d="M32,40a8,8,0,1,1,8-8A8,8,0,0,1,32,40Zm0-14a6,6,0,1,0,6,6A6,6,0,0,0,32,26Z"/><path class="cls-1" d="M32,57a5.45,5.45,0,1,1,5.45-5.45A5.46,5.46,0,0,1,32,57Zm0-8.91a3.45,3.45,0,1,0,3.45,3.45A3.46,3.46,0,0,0,32,48.09Z"/><path class="cls-1" d="M32,48.09a1,1,0,0,1-1-1V39.45a1,1,0,0,1,2,0v7.64A1,1,0,0,1,32,48.09Z"/><path class="cls-1" d="M16.58,28.59A5.45,5.45,0,1,1,19.3,18.41h0a5.45,5.45,0,0,1-2.72,10.18Zm0-8.91a3.46,3.46,0,1,0,1.71.46h0A3.43,3.43,0,0,0,16.59,19.69Z"/><path class="cls-1" d="M25.52,29.27a1,1,0,0,1-.5-.13l-5.07-2.91a1,1,0,1,1,1-1.73L26,27.4a1,1,0,0,1-.5,1.87Z"/><path class="cls-1" d="M47.42,28.59a5.45,5.45,0,1,1,2.71-.72A5.46,5.46,0,0,1,47.42,28.59Zm0-8.91a3.43,3.43,0,0,0-1.71.46h0a3.43,3.43,0,1,0,1.71-.46Zm-2.21-.41h0Z"/><path class="cls-1" d="M38.06,29.51a1,1,0,0,1-.5-1.87l5.49-3.15a1,1,0,1,1,1,1.73l-5.49,3.15A1,1,0,0,1,38.06,29.51Z"/></svg>