<svg id="Layer_1" data-name="Layer 1" xmlns="http://www.w3.org/2000/svg" viewBox="0 0 64 64"><defs><style>.cls-1{fill:#fff;opacity:0.85;}</style></defs><title>icons-2</title><path class="cls-1" d="M51.62,16.53a1,1,0,0,0-.13-.49,1,1,0,0,0-.65-.45A25,25,0,0,0,12.38,47.47a1,1,0,0,0,.13.49,1,1,0,0,0,.65.45A25,25,0,0,0,51.62,16.53ZM50.19,46.05a29.92,29.92,0,0,0-6.6-2.57A44.89,44.89,0,0,0,45,33H55A22.87,22.87,0,0,1,50.19,46.05ZM9,33H19a44.89,44.89,0,0,0,1.39,10.47,29.88,29.88,0,0,0-6.6,2.58A22.87,22.87,0,0,1,9,33Zm4.78-15.05a29.92,29.92,0,0,0,6.6,2.57A44.89,44.89,0,0,0,19,31H9A22.87,22.87,0,0,1,13.81,17.95ZM33,22a46,46,0,0,0,8.61-1A42.5,42.5,0,0,1,43,31H33Zm0-2V9.1c3.29.65,6.21,4.49,8,10A44.08,44.08,0,0,1,33,20ZM31,9.1V20a44.09,44.09,0,0,1-8-.89C24.79,13.59,27.71,9.76,31,9.1ZM31,22v9H21a42.5,42.5,0,0,1,1.38-10A46,46,0,0,0,31,22ZM21,33H31v9a46,46,0,0,0-8.61,1A42.5,42.5,0,0,1,21,33ZM31,44V54.9c-3.29-.65-6.21-4.49-8-10A44.08,44.08,0,0,1,31,44ZM33,54.9V44a44.09,44.09,0,0,1,8,.89C39.21,50.41,36.29,54.24,33,54.9ZM33,42V33H43a42.5,42.5,0,0,1-1.38,10A46,46,0,0,0,33,42ZM45,31a44.89,44.89,0,0,0-1.39-10.47,29.88,29.88,0,0,0,6.6-2.58A22.87,22.87,0,0,1,55,31Zm3.89-14.61A28.37,28.37,0,0,1,43,18.61a22,22,0,0,0-4.94-8.79A23,23,0,0,1,48.87,16.39Zm-23-6.57A22,22,0,0,0,21,18.61a28.4,28.4,0,0,1-5.84-2.22A23,23,0,0,1,25.91,9.82ZM15.13,47.61A28.35,28.35,0,0,1,21,45.39a22,22,0,0,0,4.94,8.79A23,23,0,0,1,15.13,47.61Zm23,6.57A22,22,0,0,0,43,45.39a28.4,28.4,0,0,1,5.84,2.22A23,23,0,0,1,38.09,54.18Z"/></svg>