<svg id="Layer_1" data-name="Layer 1" xmlns="http://www.w3.org/2000/svg" viewBox="0 0 64 64"><defs><style>.cls-1{fill:#2196f3;}</style></defs><title>icons-new</title><path class="cls-1" d="M32,20.81a6,6,0,1,1,6-6A6,6,0,0,1,32,20.81Zm0-10a4,4,0,1,0,4,4A4,4,0,0,0,32,10.81Z"/><path class="cls-1" d="M32,30.77a1,1,0,0,1-1-1v-10a1,1,0,0,1,2,0v10A1,1,0,0,1,32,30.77Z"/><path class="cls-1" d="M50.3,51.71a6,6,0,1,1,1.58-.21A6,6,0,0,1,50.3,51.71Zm0-10a4,4,0,0,0-1.05.14,4,4,0,0,0-.95,7.33h0a4,4,0,1,0,2-7.47Z"/><path class="cls-1" d="M46,44.21a1,1,0,0,1-.52-.15l-9.63-6a1,1,0,0,1,1.05-1.7l9.63,6A1,1,0,0,1,46,44.21Z"/><path class="cls-1" d="M13.7,51.71a6,6,0,0,1-1.58-.21,6,6,0,1,1,4.55-.59h0A6,6,0,0,1,13.7,51.71Zm0-10a4,4,0,1,0,2,7.47h0a4,4,0,0,0-.95-7.33A4,4,0,0,0,13.69,41.7Z"/><path class="cls-1" d="M18,44.21a1,1,0,0,1-.53-1.85l9.63-6a1,1,0,0,1,1.05,1.7l-9.63,6A1,1,0,0,1,18,44.21Z"/><path class="cls-1" d="M43.26,37.24h-.12a1,1,0,0,1-.87-1.11,12.05,12.05,0,0,0,.09-1.42,9.92,9.92,0,0,0-6.73-9.77,1,1,0,0,1,.74-1.86,11.93,11.93,0,0,1,8,11.63,14.18,14.18,0,0,1-.11,1.66A1,1,0,0,1,43.26,37.24Z"/><path class="cls-1" d="M32,40.77a6,6,0,1,1,6-6A6,6,0,0,1,32,40.77Zm0-10a4,4,0,1,0,4,4A4,4,0,0,0,32,30.77Z"/><path class="cls-1" d="M20.79,37.21a1,1,0,0,1-1-.87,12.6,12.6,0,0,1-.12-1.64,11.91,11.91,0,0,1,7.95-11.63,1,1,0,1,1,.74,1.86,9.9,9.9,0,0,0-6.69,9.77,10.67,10.67,0,0,0,.1,1.38,1,1,0,0,1-.86,1.12Z"/><path class="cls-1" d="M32.09,47.23a12.21,12.21,0,0,1-7.62-2.64A1,1,0,0,1,25.71,43a10.23,10.23,0,0,0,6.38,2.21,10.07,10.07,0,0,0,6.3-2.17,1,1,0,0,1,1.24,1.57A12,12,0,0,1,32.09,47.23Z"/></svg>