<svg id="Layer_1" data-name="Layer 1" xmlns="http://www.w3.org/2000/svg" viewBox="0 0 64 64"><defs><style>.cls-1{fill:#fff;}</style></defs><title>icons-2</title><path class="cls-1" d="M11,49a1,1,0,0,0,0,2H53a1,1,0,0,0,0-2H50V25h1.35a1,1,0,0,0,0-2H40.65a1,1,0,0,0,0,2H42V49H36V25h1.35a1,1,0,0,0,0-2H26.65a1,1,0,0,0,0,2H28V49H22V25h1.35a1,1,0,0,0,0-2H12.65a1,1,0,0,0,0,2H14V49ZM44,25h4V49H44ZM30,25h4V49H30ZM16,25h4V49H16Z"/><path class="cls-1" d="M56,53H8a1,1,0,0,0,0,2H56a1,1,0,0,0,0-2Z"/><path class="cls-1" d="M8,21H56c.45,0,.85-.1,1-.54a.87.87,0,0,0-.46-1L32.19,5.09a1,1,0,0,0-1,0L7.48,19.53a.76.76,0,0,0-.44.93C7.16,20.9,7.55,21,8,21ZM31.68,6.77,52.35,19H11.57Z"/></svg>