<svg id="Layer_1" data-name="Layer 1" xmlns="http://www.w3.org/2000/svg" viewBox="0 0 64 64"><defs><style>.cls-1{fill:#2196f3;}</style></defs><title>icons-new</title><path class="cls-1" d="M43.16,57a1,1,0,0,1-.46-.11L42,56.54,32,50.76,21.31,56.89a1,1,0,0,1-.93,0l-.66-.35L7.85,49.69a1,1,0,0,1-.49-.86V34.47a1,1,0,0,1,.5-.87l10.65-6.14V15.19a1,1,0,0,1,.5-.87L31.5,7.13a1,1,0,0,1,1,0L45,14.32a1,1,0,0,1,.5.87V27.46L56.14,33.6a1,1,0,0,1,.5.87V48.83a1,1,0,0,1-.49.86l-.66.39-11.86,6.8A1,1,0,0,1,43.16,57ZM9.36,48.27l.18.11,11.3,6.5.2-.1,10.46-6a1,1,0,0,1,1,0l10.66,6.13.2-.1,11.28-6.5V35L44,28.91a1,1,0,0,1-.5-.87V15.77L32,9.15,20.52,15.77V28a1,1,0,0,1-.5.87L9.36,35Z"/><path class="cls-1" d="M42.87,42.43a1,1,0,0,1-.49-1.82l12.16-7a1,1,0,1,1,1,1.69l-12.16,7A1,1,0,0,1,42.87,42.43Zm-21.74,0a1,1,0,0,1-.48-.13l-12.16-7a1,1,0,0,1,1-1.69l12.16,7a1,1,0,0,1-.49,1.82Z"/><path class="cls-1" d="M32,23.36a1,1,0,0,1-.5-1.87L44,14.3A1,1,0,1,1,45,16L32.5,23.22A1,1,0,0,1,32,23.36Z"/><path class="cls-1" d="M32,23.36a1,1,0,0,1-.5-.13L19,16a1,1,0,0,1,1-1.73L32.5,21.49a1,1,0,0,1-.5,1.87Z"/><path class="cls-1" d="M32,36.3a1,1,0,0,1-.5-.13L19,29l1-1.73,12,6.9,12-6.9A1,1,0,0,1,45,29L32.5,36.17A1,1,0,0,1,32,36.3Z"/><path class="cls-1" d="M20.84,57h0a1,1,0,0,1-1-1V41.63a1,1,0,0,1,.5-.87L31.5,34.34l1,1.73L21.84,42.21V56A1,1,0,0,1,20.84,57Z"/><path class="cls-1" d="M43.16,56h-1V42.21L31.5,36.07a1,1,0,1,1,1-1.73l11.15,6.43a1,1,0,0,1,.5.87V56Z"/><path class="cls-1" d="M32,50.61a1,1,0,0,1-1-1V22.36a1,1,0,1,1,2,0V49.61A1,1,0,0,1,32,50.61Z"/><path class="cls-1" d="M41.6,27.42a1,1,0,0,1-.5-.13l-5.6-3.22a1,1,0,1,1,1-1.73l5.6,3.22a1,1,0,0,1-.5,1.87Z"/><path class="cls-1" d="M22.4,27.42a1,1,0,0,1-.5-1.87l5.6-3.22a1,1,0,0,1,1,1.73l-5.6,3.22A1,1,0,0,1,22.4,27.42Z"/><path class="cls-1" d="M11.2,48.22a1,1,0,0,1-.5-1.87l5.6-3.22a1,1,0,1,1,1,1.73l-5.6,3.22A1,1,0,0,1,11.2,48.22Z"/><path class="cls-1" d="M29.6,48.22a1,1,0,0,1-.5-.13l-5.6-3.22a1,1,0,1,1,1-1.73l5.6,3.22a1,1,0,0,1-.5,1.87Z"/><path class="cls-1" d="M52.8,48.22a1,1,0,0,1-.5-.13l-5.6-3.22a1,1,0,1,1,1-1.73l5.6,3.22a1,1,0,0,1-.5,1.87Z"/><path class="cls-1" d="M34.4,48.22a1,1,0,0,1-.5-1.87l5.6-3.22a1,1,0,0,1,1,1.73l-5.6,3.22A1,1,0,0,1,34.4,48.22Z"/></svg>