<svg id="Layer_1" data-name="Layer 1" xmlns="http://www.w3.org/2000/svg" viewBox="0 0 64 64"><defs><style>.cls-1{fill:#fff;}</style></defs><title>icons-2</title><path class="cls-1" d="M48,10h2.84L35.79,27.71l-4.27-2.56a1,1,0,0,0-1.27.21l-5.39,6.29L21.6,29.2a1,1,0,0,0-1.41.22l-5,7a1,1,0,0,0,1.63,1.16l4.4-6.17L24.4,33.8a1,1,0,0,0,1.36-.15l5.45-6.36,4.28,2.57a1,1,0,0,0,1.28-.21L52,11.72V14a1,1,0,0,0,2,0V9s0,0,0,0a1,1,0,0,0,0-.21,1,1,0,0,0,0-.17,1,1,0,0,0-.1-.14,1,1,0,0,0-.13-.17l0,0a.94.94,0,0,0-.12-.07A.69.69,0,0,0,53.13,8L53,8H48a1,1,0,0,0,0,2Z"/><path class="cls-1" d="M56,43H54V18a1,1,0,0,0-2,0V43H12V14H44.25a1,1,0,0,0,0-2H11a1,1,0,0,0-1,1V43H8a1,1,0,0,0-1,1v3a1,1,0,0,0,1,1H22.38l-3.28,6.55a1,1,0,0,0,1.79.89L24.62,48H39.38l3.72,7.45a1,1,0,0,0,1.79-.89L41.62,48H56a1,1,0,0,0,1-1V44A1,1,0,0,0,56,43Zm-1,3H9V45H55Z"/></svg>