<svg id="Layer_1" data-name="Layer 1" xmlns="http://www.w3.org/2000/svg" xmlns:xlink="http://www.w3.org/1999/xlink" viewBox="0 0 127.61 155.43"><defs><style>.cls-1,.cls-10,.cls-11,.cls-16,.cls-18,.cls-2,.cls-8,.cls-9{fill:none;}.cls-2,.cls-8{stroke:#ef4042;}.cls-10,.cls-11,.cls-16,.cls-18,.cls-19,.cls-2,.cls-8,.cls-9{stroke-miterlimit:10;}.cls-10,.cls-2,.cls-9{stroke-width:0.25px;}.cls-3{fill:#ed1c24;}.cls-4{fill:#ef4042;}.cls-5{fill:#313131;}.cls-6{clip-path:url(#clip-path);}.cls-7{fill:url(#linear-gradient);}.cls-18,.cls-9{stroke:#fff;}.cls-10,.cls-11,.cls-16,.cls-19{stroke:#231f20;}.cls-11,.cls-18{stroke-width:0.75px;}.cls-12{fill:url(#linear-gradient-2);}.cls-13{fill:url(#linear-gradient-3);}.cls-14{fill:#1b75bc;}.cls-15{fill:#f15a29;}.cls-16,.cls-19{stroke-width:2px;}.cls-17{fill:url(#linear-gradient-4);}.cls-19{fill:#488d41;}.cls-20{fill:#66a443;}.cls-21{fill:#88c140;}</style><clipPath id="clip-path" transform="translate(11.1 9.38)"><path class="cls-1" d="M52.74,8.68a45,45,0,1,0,45,45A45,45,0,0,0,52.74,8.68Zm0,77.86A32.86,32.86,0,1,1,85.61,53.68,32.86,32.86,0,0,1,52.74,86.54Z"/></clipPath><linearGradient id="linear-gradient" x1="31.23" y1="65.69" x2="35.43" y2="45.37" gradientUnits="userSpaceOnUse"><stop offset="0" stop-color="#27aae1"/><stop offset="1" stop-color="#662d91"/></linearGradient><linearGradient id="linear-gradient-2" x1="43.66" y1="38.29" x2="49.62" y2="33.87" gradientUnits="userSpaceOnUse"><stop offset="0" stop-color="#ee2a7b"/><stop offset="1" stop-color="#662d91"/></linearGradient><linearGradient id="linear-gradient-3" x1="63.84" y1="31.53" x2="98.62" y2="31.53" gradientUnits="userSpaceOnUse"><stop offset="0" stop-color="#ef4042"/><stop offset="1" stop-color="#fbb040"/></linearGradient><linearGradient id="linear-gradient-4" x1="101.28" y1="45.93" x2="87.55" y2="92.9" gradientUnits="userSpaceOnUse"><stop offset="0" stop-color="#8dc63f"/><stop offset="1" stop-color="#fbb040"/></linearGradient></defs><title>logo</title><path class="cls-2" d="M58.33-17.08" transform="translate(11.1 9.38)"/><polygon class="cls-3" points="18.63 17.84 18.63 17.94 108.97 17.94 108.97 108.18 18.72 108.18 18.72 17.84 18.63 17.84 18.63 17.94 18.63 17.84 18.53 17.84 18.53 108.37 109.16 108.37 109.16 17.75 18.53 17.75 18.53 17.84 18.63 17.84"/><polyline class="cls-3" points="18.63 85.76 109.06 85.76 109.06 85.57 18.63 85.57"/><polyline class="cls-3" points="18.63 63.16 109.06 63.16 109.06 62.96 18.63 62.96"/><polyline class="cls-3" points="18.63 40.55 109.06 40.55 109.06 40.35 18.63 40.35"/><polyline class="cls-3" points="86.36 17.84 86.36 108.28 86.55 108.28 86.55 17.84"/><polyline class="cls-3" points="63.75 17.84 63.75 108.28 63.94 108.28 63.94 17.84"/><polyline class="cls-3" points="41.14 17.84 41.14 108.28 41.33 108.28 41.33 17.84"/><path class="cls-4" d="M52.74,69.64a16,16,0,1,1,16-16A16,16,0,0,1,52.74,69.64Zm0-30A14.09,14.09,0,1,0,66.83,53.68,14.09,14.09,0,0,0,52.74,39.6Z" transform="translate(11.1 9.38)"/><path class="cls-4" d="M52.74,77.15A23.47,23.47,0,1,1,76.22,53.68,23.5,23.5,0,0,1,52.74,77.15Zm0-45.07a21.6,21.6,0,1,0,21.6,21.6A21.62,21.62,0,0,0,52.74,32.08Z" transform="translate(11.1 9.38)"/><path class="cls-4" d="M52.74,63.34a9.66,9.66,0,1,1,9.67-9.66A9.67,9.67,0,0,1,52.74,63.34Zm0-17.45a7.79,7.79,0,1,0,7.79,7.79A7.8,7.8,0,0,0,52.74,45.89Z" transform="translate(11.1 9.38)"/><rect class="cls-3" x="18.63" y="139.68" width="34.7" height="0.82"/><path class="cls-5" d="M11.44,140.67c-.3.78-.59,1.45-.88,2.1-.41.89-.94,1.65-2,1.65H8.33a.41.41,0,1,1,0-.81h.15c.56,0,.86-.29,1.19-.85l-2.07-4.7a.63.63,0,0,1,0-.22.41.41,0,0,1,.42-.41.37.37,0,0,1,.38.26l1.75,4.1c.28-.63.58-1.43.83-2.08s.48-1.4.66-2a.42.42,0,0,1,.41-.3.36.36,0,0,1,.41.37.91.91,0,0,1-.05.27C12,139.05,11.72,139.91,11.44,140.67Z" transform="translate(11.1 9.38)"/><path class="cls-5" d="M16.3,144a.42.42,0,0,1-.83,0v-1.78H13.61V144a.4.4,0,0,1-.4.4.42.42,0,0,1-.43-.4v-4a.42.42,0,0,1,.43-.41.4.4,0,0,1,.4.41v1.53h1.86V140a.42.42,0,0,1,.83,0Z" transform="translate(11.1 9.38)"/><path class="cls-5" d="M18.46,144a.4.4,0,0,1-.41.42.41.41,0,0,1-.42-.42v-4a.41.41,0,0,1,.42-.4.39.39,0,0,1,.41.4v2.67l2.14-2.36V140a.4.4,0,0,1,.42-.4.39.39,0,0,1,.41.4v4a.42.42,0,1,1-.83,0v-2.66l-2.14,2.35Z" transform="translate(11.1 9.38)"/><path class="cls-5" d="M23.17,144.33a.41.41,0,0,1-.41-.41V140a.41.41,0,0,1,.41-.41h1.3c1,0,1.47.56,1.47,1.25V141a1,1,0,0,1-.5.9,1.05,1.05,0,0,1,.68,1v.17c0,.73-.41,1.27-1.5,1.27Zm.4-4v1.33h.76c.56,0,.8-.23.8-.57v-.17c0-.34-.18-.59-.72-.59Zm0,2v1.37h1c.58,0,.74-.24.74-.61v-.16c0-.38-.3-.6-.82-.6Z" transform="translate(11.1 9.38)"/><path class="cls-5" d="M30.51,142.22H28v.25c0,.74.32,1.22,1.06,1.22a2.43,2.43,0,0,0,1.18-.26.3.3,0,0,1,.43.18.34.34,0,0,1-.16.44,3.07,3.07,0,0,1-1.48.34,1.75,1.75,0,0,1-1.84-2v-.87a1.76,1.76,0,0,1,1.84-2,1.73,1.73,0,0,1,1.85,2v.39A.31.31,0,0,1,30.51,142.22ZM30,141.4c0-.72-.26-1.19-1-1.19s-1,.48-1,1.2v.16H30Z" transform="translate(11.1 9.38)"/><path class="cls-5" d="M34,144.39a1.86,1.86,0,0,1-1.11-.36v1.61a.41.41,0,0,1-.42.41.4.4,0,0,1-.4-.41v-4.88c0-.37-.08-.48-.26-.59a.28.28,0,0,1-.16-.27c0-.24.17-.35.4-.35a.83.83,0,0,1,.5.19,1.37,1.37,0,0,1,.17.23,2,2,0,0,1,1.22-.42c1.24,0,1.75.68,1.75,1.89v.85C35.65,143.55,35.2,144.39,34,144.39Zm.86-3c0-.75-.27-1.13-1-1.13a1.52,1.52,0,0,0-.94.38v2.61a1.36,1.36,0,0,0,1,.43c.71,0,1-.47,1-1.27Z" transform="translate(11.1 9.38)"/><path class="cls-5" d="M39.39,140.44a1.59,1.59,0,0,0-.81-.19c-.7,0-1.09.54-1.09,1.34v.76c0,.83.34,1.34,1.06,1.34a1.8,1.8,0,0,0,.86-.2.34.34,0,0,1,.45.17.36.36,0,0,1-.17.46,2.39,2.39,0,0,1-1.17.27c-1.31,0-1.86-.88-1.86-2.08v-.66a1.87,1.87,0,0,1,1.86-2.1,2.29,2.29,0,0,1,1.17.27.34.34,0,0,1-.3.62Z" transform="translate(11.1 9.38)"/><path class="cls-5" d="M41.65,144a.41.41,0,0,1-.41.42.41.41,0,0,1-.43-.42v-4a.41.41,0,0,1,.43-.4.39.39,0,0,1,.41.4v2.67l2.13-2.36V140a.4.4,0,0,1,.43-.4.39.39,0,0,1,.4.4v4a.41.41,0,0,1-.41.42.42.42,0,0,1-.42-.42v-2.66l-2.13,2.35Z" transform="translate(11.1 9.38)"/><path class="cls-5" d="M48.73,139.59a.36.36,0,0,1,.35.36.36.36,0,0,1-.35.36H47.62V144a.42.42,0,0,1-.42.4.4.4,0,0,1-.41-.4v-3.72H45.68a.35.35,0,0,1-.35-.36.36.36,0,0,1,.35-.36Z" transform="translate(11.1 9.38)"/><path class="cls-5" d="M53,142.22H50.45v.25c0,.74.32,1.22,1.06,1.22a2.43,2.43,0,0,0,1.18-.26.3.3,0,0,1,.43.18.34.34,0,0,1-.16.44,3.07,3.07,0,0,1-1.48.34,1.75,1.75,0,0,1-1.84-2v-.87a1.76,1.76,0,0,1,1.84-2,1.73,1.73,0,0,1,1.85,2v.39A.31.31,0,0,1,53,142.22Zm-.49-.82c0-.72-.26-1.19-1-1.19s-1,.48-1,1.2v.16h2.07Z" transform="translate(11.1 9.38)"/><path class="cls-5" d="M57.21,139.59a.35.35,0,0,1,.34.36.35.35,0,0,1-.34.36H56.09V144a.41.41,0,0,1-.42.4.4.4,0,0,1-.4-.4v-3.72H54.15a.35.35,0,0,1-.34-.36.35.35,0,0,1,.34-.36Z" transform="translate(11.1 9.38)"/><path class="cls-5" d="M65.07,137.84a.43.43,0,0,1,.86,0V144a.43.43,0,0,1-.86,0v-2.64H62V144a.43.43,0,0,1-.42.42.41.41,0,0,1-.41-.42v-6.16a.41.41,0,0,1,.41-.42.43.43,0,0,1,.42.42v2.76h3.09Z" transform="translate(11.1 9.38)"/><path class="cls-5" d="M69.8,138.31V144a.42.42,0,1,1-.83,0v-5.69H67.19a.4.4,0,0,1-.41-.39.4.4,0,0,1,.41-.41h4.39a.4.4,0,0,1,.4.41.39.39,0,0,1-.4.39Z" transform="translate(11.1 9.38)"/><path class="cls-5" d="M73.68,144a.43.43,0,0,1-.42.43.42.42,0,0,1-.41-.43v-6.16a.42.42,0,0,1,.41-.42.43.43,0,0,1,.42.42v4.41l3.21-3.82v-.59a.43.43,0,0,1,.43-.42.44.44,0,0,1,.42.42V144a.44.44,0,0,1-.42.43.43.43,0,0,1-.43-.43v-4.4l-3.21,3.81Z" transform="translate(11.1 9.38)"/><g class="cls-6"><polygon class="cls-7" points="0 63.06 63.84 63.06 4.65 39.14 0 63.06"/><line class="cls-8" x1="18.7" y1="17.91" x2="68.55" y2="67.76"/><line class="cls-8" x1="14.94" y1="22.02" x2="68.08" y2="66.62"/><line class="cls-8" x1="8" y1="32.11" x2="76.98" y2="70.34"/><line class="cls-9" x1="1.17" y1="50.88" x2="126.52" y2="75.24"/><line class="cls-9" x1="0.48" y1="55.28" x2="127.21" y2="70.84"/><line class="cls-9" x1="0.09" y1="59.72" x2="127.6" y2="66.4"/><line class="cls-10" x1="8.55" y1="94.98" x2="119.14" y2="31.14"/><line class="cls-10" x1="12.19" y1="100.59" x2="115.5" y2="25.53"/><path class="cls-2" d="M100.19,11" transform="translate(11.1 9.38)"/><path class="cls-2" d="M5.3,96.4" transform="translate(11.1 9.38)"/><line class="cls-11" x1="25.42" y1="114.05" x2="102.27" y2="12.07"/><line class="cls-8" x1="32.89" y1="118.9" x2="94.8" y2="7.22"/><polygon class="cls-12" points="25.42 12.07 63.84 63.06 30.01 8.91 25.42 12.07"/><polygon class="cls-13" points="73.83 0 63.84 63.06 98.62 9.51 73.83 0"/><line class="cls-10" x1="10.3" y1="97.83" x2="117.39" y2="28.29"/><polygon class="cls-14" points="6.96 92.04 14.23 103.24 63.84 63.06 6.96 92.04"/><polygon class="cls-15" points="113.46 22.88 63.84 63.06 120.73 34.07 113.46 22.88"/><path class="cls-2" d="M97.89,8.54" transform="translate(11.1 9.38)"/><path class="cls-2" d="M7.6,98.83" transform="translate(11.1 9.38)"/><line class="cls-8" x1="10.92" y1="27.36" x2="72.38" y2="68.81"/><line class="cls-8" x1="6.46" y1="35.07" x2="81.7" y2="71.77"/><line class="cls-9" x1="2.47" y1="45.46" x2="125.22" y2="80.66"/><line class="cls-16" y1="63.06" x2="63.84" y2="63.06"/><polygon class="cls-17" points="122.65 83.77 122.17 37.09 63.84 63.06 63.84 63.06 100.5 111.7 122.65 83.77"/><line class="cls-18" x1="4.24" y1="85.94" x2="123.45" y2="40.18"/><polygon class="cls-19" points="63.89 63.13 63.84 63.06 36.86 120.92 49.67 120.14 63.89 63.13"/><polygon class="cls-20" points="63.94 63.47 63.94 119.27 76.7 118.48 63.94 63.47"/><polygon class="cls-21" points="83.86 118.05 97.68 117.2 63.94 63.21 63.94 63.32 83.86 118.05"/><line class="cls-8" x1="63.94" y1="137.6" x2="63.94" y2="9.91"/></g><path class="cls-5" d="M11.86,122.13c-3,0-4-2.13-4-4.3v-3.3c0-2.17,1-4.3,4-4.3s4,2.13,4,4.3v3.3C15.83,120,14.84,122.13,11.86,122.13Zm2.53-7.6c0-1.66-.6-3-2.53-3s-2.55,1.32-2.55,3v3.3c0,1.67.6,3,2.55,3s2.53-1.33,2.53-3Z" transform="translate(11.1 9.38)"/><path class="cls-5" d="M21.92,115.36a2.7,2.7,0,0,0-1.37-.32c-1.2,0-1.87.92-1.87,2.28v1.29c0,1.42.59,2.28,1.82,2.28a3,3,0,0,0,1.45-.34.56.56,0,0,1,.76.29.6.6,0,0,1-.28.78,4.13,4.13,0,0,1-2,.46c-2.21,0-3.15-1.49-3.15-3.53v-1.12c0-1.94,1-3.59,3.15-3.59a4,4,0,0,1,2,.47.58.58,0,0,1-.51,1Z" transform="translate(11.1 9.38)"/><path class="cls-5" d="M29.07,113.92a.62.62,0,0,1,.59.61.61.61,0,0,1-.59.61H27.18v6.32a.71.71,0,0,1-.72.69.69.69,0,0,1-.69-.69v-6.32H23.88a.6.6,0,0,1-.59-.61.6.6,0,0,1,.59-.61Z" transform="translate(11.1 9.38)"/><path class="cls-5" d="M34.33,122.08a3.14,3.14,0,0,1-1.89-.62v2.74a.69.69,0,0,1-.71.7.68.68,0,0,1-.68-.7v-8.28c0-.64-.14-.83-.45-1a.5.5,0,0,1-.27-.46c0-.41.29-.61.69-.61a1.42,1.42,0,0,1,.84.34,1.82,1.82,0,0,1,.29.38,3.5,3.5,0,0,1,2.09-.72c2.1,0,3,1.17,3,3.22v1.45C37.2,120.65,36.44,122.08,34.33,122.08ZM35.8,117c0-1.27-.46-1.92-1.76-1.92a2.59,2.59,0,0,0-1.6.65v4.43a2.35,2.35,0,0,0,1.65.73c1.21,0,1.71-.79,1.71-2.15Z" transform="translate(11.1 9.38)"/><path class="cls-5" d="M41.65,122.08a3,3,0,0,1-3.21-3.29v-1.65a3,3,0,0,1,3.21-3.3,3,3,0,0,1,3.2,3.3v1.65A3,3,0,0,1,41.65,122.08Zm1.81-4.92c0-1.24-.52-2-1.81-2s-1.8.78-1.8,2v1.63c0,1.24.52,2,1.8,2s1.81-.78,1.81-2Z" transform="translate(11.1 9.38)"/><path class="cls-5" d="M47.05,122a.7.7,0,0,1-.7-.7v-6.68a.69.69,0,0,1,.7-.69h2.21c1.74,0,2.51.94,2.51,2.12v.26a1.62,1.62,0,0,1-.86,1.53,1.79,1.79,0,0,1,1.16,1.7v.29c0,1.24-.7,2.17-2.55,2.17Zm.68-6.89v2.27H49c.94,0,1.35-.39,1.35-1v-.28c0-.58-.3-1-1.23-1Zm0,3.38v2.33h1.71c1,0,1.26-.42,1.26-1v-.27c0-.65-.51-1-1.39-1Z" transform="translate(11.1 9.38)"/><path class="cls-5" d="M64.47,122H58.8a.68.68,0,1,1,0-1.36h2.67v-8.44l-2.72,1.86a.68.68,0,1,1-.75-1.13l3.74-2.55a.88.88,0,0,1,.45-.14.73.73,0,0,1,.72.7v9.7h1.56a.68.68,0,1,1,0,1.36Z" transform="translate(11.1 9.38)"/><path class="cls-5" d="M69.66,122.13c-2.54,0-3.68-1.94-3.68-4.19v-3.52c0-2.25,1.14-4.19,3.68-4.19s3.69,1.94,3.69,4.19v3.52C73.35,120.19,72.21,122.13,69.66,122.13Zm2.25-7.7c0-1.73-.75-2.88-2.25-2.88s-2.24,1.15-2.24,2.88v3.51c0,1.74.73,2.87,2.24,2.87s2.25-1.13,2.25-2.87Z" transform="translate(11.1 9.38)"/><path class="cls-5" d="M80,118H75.74a.65.65,0,1,1,0-1.29H80A.65.65,0,0,1,80,118Z" transform="translate(11.1 9.38)"/><path class="cls-5" d="M88.06,122H82.47a.66.66,0,0,1-.69-.69,4.43,4.43,0,0,1,1.69-3.41c1.61-1.46,3.84-2.37,3.84-4.28a1.89,1.89,0,0,0-2-2.07,3.31,3.31,0,0,0-1.59.36c-.56.3-.72.59-1,.59a.69.69,0,0,1-.69-.68.58.58,0,0,1,.26-.53,4.49,4.49,0,0,1,3.1-1,3.21,3.21,0,0,1,3.43,3.38c0,3.58-4.75,4.14-5.42,7h4.73a.69.69,0,1,1,0,1.37Z" transform="translate(11.1 9.38)"/><path class="cls-5" d="M97.09,122H91.42a.68.68,0,1,1,0-1.36H94.1v-8.44l-2.73,1.86a.67.67,0,0,1-.94-.19.68.68,0,0,1,.19-.94l3.75-2.55a.85.85,0,0,1,.44-.14.72.72,0,0,1,.72.7v9.7h1.56a.68.68,0,1,1,0,1.36Z" transform="translate(11.1 9.38)"/></svg>