<?xml version="1.0" encoding="utf-8"?>
<!-- Generator: Adobe Illustrator 20.0.0, SVG Export Plug-In . SVG Version: 6.00 Build 0)  -->
<svg version="1.1" id="Layer_1" xmlns="http://www.w3.org/2000/svg" xmlns:xlink="http://www.w3.org/1999/xlink" x="0px" y="0px"
	 viewBox="0 0 306.6 118.7" style="enable-background:new 0 0 306.6 118.7;" xml:space="preserve">
<style type="text/css">
	.st0{fill:#FAA634;}
	.st1{fill:#1C2674;}
	.st2{fill:#EE3124;}
</style>
<g>
	<polygon class="st0" points="0,39.6 22.8,0 45.7,39.6 	"/>
	<polygon class="st1" points="68.5,79.1 45.7,39.5 91.4,39.5 	"/>
	<polygon class="st2" points="45.7,118.7 22.9,79.1 0.1,118.7 	"/>
	<polygon class="st1" points="68.6,79.1 45.7,118.7 22.9,79.1 	"/>
	<polygon class="st1" points="45.7,39.6 22.9,79.1 0,39.6 	"/>
	<path class="st1" d="M206.9,118.5h-33.1V39.3h31.8C221,39.3,230,48,230,61.6c0,8.8-5.8,14.4-9.8,16.3c4.8,2.2,10.9,7.2,10.9,17.8
		C231.1,110.5,221,118.5,206.9,118.5 M204.3,53.1h-15.1v18.2h15.1c6.6,0,10.2-3.7,10.2-9.1C214.5,56.8,210.9,53.1,204.3,53.1
		 M205.3,85.2h-16.1v19.5h16.1c7,0,10.4-4.5,10.4-9.8C215.6,89.6,212.3,85.2,205.3,85.2"/>
	<path class="st1" d="M138,88.7h-15.2v29.8h-15.4V39.3H138c16.4,0,26.1,11.2,26.1,24.7C164.1,77.5,154.4,88.7,138,88.7 M137.3,53.1
		h-14.4v21.7h14.4c7,0,11.4-4.3,11.4-10.8C148.7,57.6,144.3,53.1,137.3,53.1"/>
	<polygon class="st1" points="288.6,118.5 268.3,82.5 258.1,94.8 258.1,118.5 242.6,118.5 242.6,39.4 258.1,39.4 258.1,73.9 
		285.9,39.4 304.7,39.4 278.5,70.9 306.6,118.5 	"/>
</g>
</svg>
