<?xml version="1.0" encoding="utf-8"?>
<!-- Generator: Adobe Illustrator 20.0.0, SVG Export Plug-In . SVG Version: 6.00 Build 0)  -->
<svg version="1.1" id="Layer_1" xmlns="http://www.w3.org/2000/svg" xmlns:xlink="http://www.w3.org/1999/xlink" x="0px" y="0px"
	 viewBox="0 0 65.3 22.9" style="enable-background:new 0 0 65.3 22.9;" xml:space="preserve">
<style type="text/css">
	.st0{fill:#ED1C24;}
</style>
<g>
	<g>
		<path class="st0" d="M7.6,9.6c0.8-0.9,1-2.4,1-3.2C8.6,4.9,8.2,4,6.8,4C5.5,4,4.9,5,4.9,7.7H0C0,3.6,2,0,7,0
			c3.8,0,6.5,2.2,6.5,6.1c0,2.9-1.1,4.7-2.4,6.3c-1.2,1.5-5,4.2-5.2,6h8.1v4H0C0,15.6,5.2,12.2,7.6,9.6z"/>
		<path class="st0" d="M22.4,0c5.5,0,6.8,3,6.8,6.1v10.5c0,3.1-1.3,6.2-6.8,6.2c-5.2,0-6.6-3-6.6-6.2V6.1C15.7,3,17.2,0,22.4,0z
			 M20.7,6.1v10.8c0,1.5,0.2,2.3,1.6,2.3c1.4,0,1.9-0.8,1.9-2.3V6.1c0-1.5-0.4-2.3-1.9-2.3C20.9,3.8,20.7,4.6,20.7,6.1z"/>
		<path class="st0" d="M36.8,7.1V6.5c0-3.4,2-6.5,6.7-6.5c3.8,0,6.3,2.2,6.3,5.6c0,2.1-0.5,4-3.1,4.7c3.1,1.2,3.6,2.9,3.6,5.9
			c0,4.7-2.6,6.6-6.9,6.6c-3.8,0-6.6-2.1-6.6-7v-1.1h4.7v0.8c0,1.7,0.5,3.2,1.9,3.2c1.5,0,1.9-0.9,1.9-3.3c0-2.3-0.8-2.9-3.2-2.9
			h-1.1V9.1h0.7c2.4,0,3.3-0.5,3.3-3c0-1.2-0.5-2.3-1.7-2.3c-1.1,0-1.8,0.8-1.8,2.2v1.2H36.8z"/>
		<path class="st0" d="M56.5,9c0.8-0.9,1.7-1.7,3.8-1.7c3.3,0,5,2.5,5,7.4c0,6.3-2.3,8.3-6.5,8.3c-4.7,0-6.6-2.1-6.6-7.2h4.7
			c0,2.7,0.6,3.5,1.8,3.5c1.2,0,1.7-0.8,1.7-4.3c0-3-0.5-3.9-1.8-3.9c-1.1,0-1.5,0.7-1.7,1.6h-4.5L53,0.5h11.5v3.7h-7.6L56.5,9z"/>
	</g>
	<rect x="31" y="18.4" class="st0" width="4" height="4"/>
</g>
</svg>
