<?xml version="1.0" encoding="utf-8"?>
<!-- Generator: Adobe Illustrator 20.0.0, SVG Export Plug-In . SVG Version: 6.00 Build 0)  -->
<svg version="1.1" id="Layer_1" xmlns="http://www.w3.org/2000/svg" xmlns:xlink="http://www.w3.org/1999/xlink" x="0px" y="0px"
	 viewBox="0 0 30 30" style="enable-background:new 0 0 30 30;" xml:space="preserve">
<style type="text/css">
	.st0{fill:#333333;}
</style>
<g>
	<path class="st0" d="M29.9,8.8c-0.1-1.6-0.3-2.7-0.7-3.6c-0.4-1-0.9-1.8-1.7-2.7c-0.8-0.8-1.7-1.3-2.7-1.7c-1-0.4-2.1-0.6-3.6-0.7
		C19.6,0,19.1,0,15,0c-4.1,0-4.6,0-6.2,0.1C7.2,0.2,6.1,0.4,5.2,0.8c-1,0.4-1.8,0.9-2.7,1.7C1.7,3.4,1.2,4.2,0.8,5.2
		c-0.4,1-0.6,2.1-0.7,3.6C0,10.4,0,10.9,0,15c0,4.1,0,4.6,0.1,6.2c0.1,1.6,0.3,2.7,0.7,3.6c0.4,1,0.9,1.8,1.7,2.7
		c0.8,0.8,1.7,1.3,2.7,1.7c1,0.4,2.1,0.6,3.6,0.7C10.4,30,10.9,30,15,30s4.6,0,6.2-0.1c1.6-0.1,2.7-0.3,3.6-0.7
		c1-0.4,1.8-0.9,2.7-1.7s1.3-1.7,1.7-2.7c0.4-1,0.6-2.1,0.7-3.6C30,19.6,30,19.1,30,15C30,10.9,30,10.4,29.9,8.8z M15,22.7
		c-4.3,0-7.7-3.5-7.7-7.7s3.5-7.7,7.7-7.7s7.7,3.5,7.7,7.7S19.2,22.7,15,22.7z M23,8.8c-1,0-1.8-0.8-1.8-1.8c0-1,0.8-1.8,1.8-1.8
		S24.8,6,24.8,7C24.8,8,24,8.8,23,8.8z"/>
	<path class="st0" d="M15,10c-2.8,0-5,2.2-5,5c0,2.8,2.2,5,5,5s5-2.2,5-5C20,12.2,17.8,10,15,10z"/>
</g>
</svg>
