<?xml version="1.0" encoding="utf-8"?>
<!-- Generator: Adobe Illustrator 20.0.0, SVG Export Plug-In . SVG Version: 6.00 Build 0)  -->
<svg version="1.1" id="Layer_1" xmlns="http://www.w3.org/2000/svg" xmlns:xlink="http://www.w3.org/1999/xlink" x="0px" y="0px"
	 viewBox="0 0 30 30" style="enable-background:new 0 0 30 30;" xml:space="preserve">
<style type="text/css">
	.st0{fill:#333333;}
	.st1{fill:#FFFFFF;}
</style>
<title>vk single</title>
<desc>Created using Figma</desc>
<g id="g5856">
	<path id="rect2987" class="st0" d="M3.8,0h22.5c2,0,3.7,1.7,3.7,3.8v22.5c0,2.1-1.7,3.8-3.8,3.8H3.8C1.7,30,0,28.3,0,26.3V3.8
		C0,1.7,1.7,0,3.8,0z"/>
	<path id="path9-3" class="st1" d="M20.5,15.5c-0.6-0.6-1.4-1.1-2.4-1.3v-0.1c0.7-0.3,1.2-0.7,1.7-1.4c0.4-0.6,0.6-1.3,0.6-2.1
		c0-0.6-0.1-1.3-0.4-1.8s-0.7-0.9-1.3-1.2C18.2,7.3,17.6,7.1,17,7s-1.5-0.1-2.7-0.1H8.6v16H15c1.1,0,2-0.1,2.7-0.3
		c0.7-0.2,1.4-0.5,2-1c0.5-0.4,0.9-0.9,1.2-1.5c0.3-0.6,0.4-1.3,0.4-2.1C21.4,17,21.1,16.1,20.5,15.5L20.5,15.5z M12.6,9.9h0.2
		c0.7,0,1.2,0,1.7,0c0.4,0,0.6,0.1,0.9,0.2c0.3,0.1,0.5,0.3,0.6,0.6s0.2,0.5,0.2,0.8c0,0.4-0.1,0.6-0.2,0.9
		c-0.1,0.3-0.4,0.5-0.6,0.6c-0.3,0.1-0.6,0.2-0.9,0.2s-0.8,0-1.4,0h-0.5V9.9L12.6,9.9z M17,19.1c-0.1,0.3-0.4,0.5-0.8,0.7
		C15.8,19.9,15.4,20,15,20s-1.2,0-2.2,0h-0.2v-4h0.7c0.7,0,1.3,0,1.7,0s0.8,0.1,1,0.1c0.4,0.1,0.7,0.4,0.9,0.6
		c0.2,0.3,0.3,0.6,0.3,1.2C17.2,18.4,17.2,18.7,17,19.1L17,19.1z"/>
</g>
</svg>
