<?xml version="1.0" encoding="utf-8"?>
<!-- Generator: Adobe Illustrator 20.0.0, SVG Export Plug-In . SVG Version: 6.00 Build 0)  -->
<svg version="1.1" id="Layer_1" xmlns="http://www.w3.org/2000/svg" xmlns:xlink="http://www.w3.org/1999/xlink" x="0px" y="0px"
	 viewBox="0 0 30 30" style="enable-background:new 0 0 30 30;" xml:space="preserve">
<style type="text/css">
	.st0{fill:#333333;}
</style>
<g>
	<path class="st0" d="M20.8,9.8L10.5,16c-0.2,0.1-0.3,0.3-0.2,0.5l1.3,4.8c0,0.1,0.2,0.1,0.3,0l0.3-3.3c0-0.3,0.1-0.5,0.3-0.7L21,10
		C21.1,9.9,20.9,9.7,20.8,9.8z"/>
	<path class="st0" d="M26.7,0H3.3C1.4,0,0,1.4,0,3.3v23.3c0,2,1.4,3.4,3.3,3.4H20h6.7c1.9,0,3.3-1.4,3.3-3.3V3.3
		C30,1.4,28.6,0,26.7,0z M25.7,6.5l-3.8,17.2c-0.1,0.6-0.8,0.8-1.3,0.4l-4.4-3.5c-0.3-0.3-0.8-0.2-1.1,0.1l-2.3,2.6
		c-0.4,0.5-1.2,0.3-1.3-0.3l-2-6.2c-0.1-0.3-0.3-0.5-0.5-0.5l-4-1.1c-0.7-0.2-0.8-1.2-0.1-1.5l19.8-8.3C25.2,5.4,25.8,5.9,25.7,6.5z
		"/>
</g>
</svg>
