<?xml version="1.0" encoding="utf-8"?>
<!-- Generator: Adobe Illustrator 20.0.0, SVG Export Plug-In . SVG Version: 6.00 Build 0)  -->
<svg version="1.1" id="svg8" xmlns="http://www.w3.org/2000/svg" xmlns:xlink="http://www.w3.org/1999/xlink" x="0px" y="0px"
	 viewBox="0 0 1838.5 1217.1" style="enable-background:new 0 0 1838.5 1217.1;" xml:space="preserve">
<style type="text/css">
	.st0{opacity:0.2;fill:#FFFFFF;enable-background:new    ;}
</style>
<path class="st0" d="M1830.5,385.9c-5.4-0.9-10.5,2.8-11.3,8.2c0,0,0,0,0,0.1l-123.8,0.7c-0.6-8.1-6.2-15.2-14.1-17.5l26.8-116.8
	c5.1,0.4,9.7-3.1,10.5-8.3c0.9-5.4-2.8-10.5-8.2-11.3c-5.4-0.9-10.5,2.8-11.3,8.2c-0.8,4.7,1.9,9.1,6.1,10.8l-26.8,116.8
	c-10.8-1.6-20.9,5.9-22.6,16.6c-0.9,5.4,0.5,10.7,3.6,14.9l-107.5,91c-1.3-1.2-3-2-5-2.3c-3.9-0.6-7.7,1.1-9.7,4.2L1321,395.4
	c0.5-1.3,0.9-2.7,1.2-4.2c0.7-4.4-0.1-8.8-2.1-12.5l156.9-98.4c1.5,1.7,3.5,2.9,6,3.3c5.4,0.9,10.5-2.8,11.3-8.2
	c0.9-5.3-2.9-10.5-8.2-11.3c-5.4-0.9-10.5,2.8-11.3,8.2c-0.3,2,0,3.8,0.7,5.5l-156.8,98.4c-3-4-7.5-7-12.9-7.8
	c-6.2-1-12.3,1.1-16.6,5l-126-117.9c0.8-1.2,1.4-2.5,1.7-4.1c0.9-5.3-2.9-10.5-8.2-11.3c-5.4-0.9-10.5,2.8-11.3,8.2
	c-0.9,5.4,2.8,10.5,8.2,11.3c2.9,0.5,5.5-0.3,7.6-1.9l126,117.9c-2.1,2.6-3.7,5.8-4.2,9.3c-0.2,1.2-0.3,2.4-0.3,3.5l-278.3,27.1
	c-1.4-8.2-7.8-14.9-16.5-16.3c-3.9-0.6-7.8,0-11.2,1.5l-94.9-177.5c4.7-3,8.1-7.8,9.1-13.7c0.6-3.7,0.1-7.3-1.2-10.4l129.4-62.1
	c1.5,2.2,3.9,3.8,6.6,4.2c5.4,0.9,10.5-2.8,11.3-8.2c0.9-5.4-2.9-10.5-8.2-11.3c-5.4-0.9-10.5,2.8-11.3,8.2c-0.2,1.5-0.1,3,0.3,4.4
	l-129.4,62.1c-2.9-5-8-8.8-14.1-9.8c-5.8-0.9-11.5,0.8-15.8,4.3L760.1,86.3c1-1.3,1.7-2.8,1.9-4.6c0.9-5.4-2.8-10.5-8.2-11.3
	c-5.4-0.9-10.5,2.8-11.3,8.2s2.8,10.5,8.2,11.3c2.7,0.4,5.2-0.3,7.3-1.7l98.3,104.4c-2.6,2.7-4.3,6.3-5,10.2
	c-0.3,2.1-0.4,4.1-0.1,6.1L668,250.4c-1.2-3.1-4.1-5.5-7.6-6.1c-2.5-0.4-4.9,0.1-6.8,1.4L533.2,108.4c1.1-1.3,1.9-2.9,2.2-4.8
	c0.9-5.4-2.9-10.5-8.2-11.3c-5.4-0.9-10.5,2.8-11.3,8.2c-0.1,0.9-0.2,1.8,0,2.7l-200.4,55.6c-2.4-6.7-8.1-11.8-15.6-13
	c-1.7-0.3-3.4-0.3-5-0.1L273.4,19.3c3.4-1.1,6.1-4,6.7-7.8c0.9-5.3-2.8-10.5-8.2-11.3c-5.4-0.9-10.5,2.8-11.3,8.2
	c-0.9,5.4,2.8,10.5,8.2,11.3c0.6,0.1,1.1,0.1,1.7,0.1l21.3,126.4c-5.2,1.3-9.8,4.7-12.4,9.4L131.3,83.3c0.2-0.4,0.2-0.9,0.3-1.4
	c0.9-5.4-2.8-10.5-8.2-11.3s-10.5,2.8-11.3,8.2c-0.9,5.4,2.8,10.5,8.2,11.3c3.9,0.6,7.7-1.1,9.7-4.2L277.9,158
	c-0.5,1.3-0.9,2.7-1.2,4.2c-1.7,10.9,5.7,21.2,16.6,22.9c3.6,0.6,7.1,0.1,10.2-1.1l168.1,358c-2.2,1.5-3.8,3.9-4.2,6.6
	c-0.3,2.2,0,4.2,0.9,6l-142.3,99.7c-3-3.7-7.3-6.3-12.3-7.1c-3-0.5-5.9-0.2-8.7,0.5L179.3,310.2c2.6-1.4,4.5-3.9,5-7.1
	c0.9-5.4-2.8-10.5-8.2-11.3c-5.2-0.8-10.1,2.5-11.3,7.7l-130.3-8.4c-0.4-4.4-3.7-8.2-8.3-8.9c-5.4-0.9-10.5,2.8-11.3,8.2
	c-0.9,5.4,2.8,10.5,8.2,11.3c5.2,0.8,10-2.5,11.2-7.6l130.3,8.4c0.2,2.3,1.2,4.4,2.8,6L67.2,442.6c-0.9-0.5-2-0.8-3.1-1
	c-5.4-0.9-10.5,2.8-11.3,8.2c-0.9,5.4,2.8,10.5,8.2,11.3c5.4,0.9,10.5-2.8,11.3-8.2c0.5-3.3-0.6-6.4-2.7-8.5l100.3-134.2
	c0.9,0.5,2,0.8,3.1,1c1.2,0.2,2.4,0.2,3.6-0.1L302,648.7c-0.8,0.4-1.5,0.8-2.2,1.3l-100-136c1.4-1.4,2.4-3.3,2.8-5.4
	c0.9-5.4-2.8-10.5-8.2-11.3c-5.4-0.9-10.5,2.8-11.3,8.2c-0.9,5.4,2.8,10.5,8.2,11.3c2.2,0.3,4.3,0,6.1-0.9l100.1,136.1
	c-2.1,1.8-3.9,4-5.1,6.7L108,588.2c0-0.2,0.1-0.4,0.1-0.6c0.9-5.3-2.8-10.5-8.2-11.3c-5.4-0.9-10.5,2.8-11.3,8.2
	c-0.9,5.4,2.8,10.5,8.2,11.3c4.2,0.7,8.1-1.3,10.2-4.9l184.3,70.4c-0.2,0.8-0.5,1.6-0.6,2.5c-1.3,8.2,2.7,16.1,9.4,20.2L206,869.6
	c-0.5-0.2-1-0.3-1.6-0.4c-1.8-0.3-3.4,0-5,0.5l-79.5-142.4c2-1.5,3.3-3.6,3.7-6.3c0.9-5.3-2.9-10.5-8.2-11.3
	c-5.4-0.9-10.5,2.8-11.3,8.2c-0.9,5.4,2.8,10.5,8.2,11.3c1.8,0.3,3.4,0,5-0.5l79.5,142.4c-2,1.5-3.3,3.6-3.7,6.3
	c-0.1,0.5-0.2,1-0.1,1.5L19.4,904.6c-1.1-3.5-4.1-6.2-7.9-6.8C6,896.9,1,900.5,0.1,906s2.8,10.5,8.2,11.3s10.5-2.8,11.3-8.2
	c0.1-0.5,0.1-1,0.2-1.6l173.4-25.6c1.1,3.5,4.1,6.3,7.9,6.9c4.4,0.7,8.7-1.7,10.5-5.5l238.6,74.2c-0.9,5.4,2.8,10.5,8.2,11.3
	c5.4,0.9,10.5-2.8,11.3-8.2c0.7-4.5-1.7-8.8-5.8-10.6l68.8-251.7c2.2,0.2,4.2-0.2,6-1.2L695.1,900c-3.3,2.9-5.7,7-6.4,11.6
	c-1.1,6.6,1.4,13.1,5.8,17.4l-78.2,93.6c-1.1-0.7-2.3-1.1-3.5-1.3c-5.4-0.9-10.5,2.8-11.3,8.2c-0.9,5.4,2.8,10.5,8.2,11.3
	c5.4,0.9,10.5-2.8,11.3-8.2c0.5-3-0.5-5.9-2.4-8.1l78.4-93.6c2.5,1.7,5.3,3,8.5,3.5c4.6,0.7,9.1-0.2,12.9-2.4l92.6,138.1
	c-1.6,1.5-2.8,3.4-3.2,5.8c-0.9,5.4,2.8,10.5,8.2,11.3s10.5-2.8,11.3-8.2c0.9-5.4-2.8-10.5-8.2-11.3c-2.1-0.3-4,0-5.7,0.8
	l-92.6-138.1c3.8-3,6.6-7.3,7.5-12.6c0.8-5.2-0.5-10.3-3.3-14.4l110.6-88.8c1.3,1.2,3.1,2.1,5.1,2.4c1.7,0.3,3.3,0.1,4.8-0.4
	l100.9,190.6c-2,1.5-3.4,3.7-3.9,6.4c-0.9,5.4,2.8,10.5,8.2,11.3c5.4,0.9,10.5-2.8,11.3-8.2c0.9-5.3-2.9-10.5-8.2-11.3
	c-1.7-0.3-3.3-0.1-4.8,0.4L848.3,815.2c1.7-1.2,3-3.1,3.6-5.2l235.2,30.3c-0.5,9.1,5.4,17.5,14,20.2l-47,204
	c-5.1-0.4-9.7,3.1-10.5,8.3c-0.9,5.4,2.8,10.5,8.2,11.3c5.4,0.9,10.5-2.8,11.3-8.2c0.7-4.6-1.9-9.1-6.1-10.8l47-204
	c2.6,0.4,5.2,0.2,7.6-0.3l78.1,247.4c-2.8,1.4-4.9,4-5.4,7.3c-0.9,5.4,2.8,10.5,8.2,11.3s10.5-2.8,11.3-8.2
	c0.9-5.3-2.8-10.5-8.2-11.3c-1.1-0.2-2.1-0.1-3.1,0L1114.4,860c1.7-0.7,3.4-1.7,4.8-2.8l168,184.1c-1,1.3-1.8,2.9-2.1,4.6
	c-0.9,5.4,2.8,10.5,8.2,11.3c5.3,0.9,10.2-2.6,11.3-7.8l197.9,8.5c0.2,5.7,2.8,11,7,14.6l-83.1,112.9c-0.9-0.5-2-0.8-3.1-1
	c-5.4-0.9-10.5,2.8-11.3,8.2c-0.9,5.4,2.8,10.5,8.2,11.3c5.4,0.9,10.5-2.8,11.3-8.2c0.5-3.2-0.6-6.3-2.8-8.5l83.1-112.9
	c2.2,1.4,4.7,2.4,7.4,2.8c4.2,0.7,8.4-0.1,12.1-1.9l74.4,124.4c-1.7,1.4-3,3.6-3.4,6c-0.9,5.4,2.8,10.5,8.2,11.3
	c5.4,0.9,10.5-2.8,11.3-8.2c0.9-5.4-2.8-10.5-8.2-11.3c-1.9-0.3-3.7-0.1-5.4,0.6l-74.4-124.4c4.2-3,7.4-7.6,8.3-13.2
	c0.3-1.9,0.3-3.7,0.1-5.5l141.7-26.8c1.2,3.3,4,5.8,7.8,6.4c5.4,0.9,10.5-2.8,11.3-8.2c0.9-5.3-2.8-10.5-8.2-11.3
	c-5.4-0.9-10.5,2.8-11.3,8.2c-0.1,0.7-0.1,1.3-0.1,2l-141.7,26.8c-1.3-5-4.5-9.2-8.9-11.9l69.3-134.2c0.5,0.2,1.1,0.3,1.6,0.4
	c5.4,0.9,10.5-2.8,11.3-8.2s-2.8-10.5-8.2-11.3c-3.3-0.5-6.3,0.6-8.4,2.7l-158.8-119.7c1.5-2.3,2.5-4.9,2.9-7.6
	c0.5-3,0.2-5.8-0.5-8.6l167.8-61.3c1.4,2.6,3.9,4.5,7.1,5c5.4,0.9,10.5-2.8,11.3-8.2s-2.8-10.5-8.2-11.3c-5.4-0.9-10.5,2.8-11.3,8.2
	c-0.2,1.2-0.2,2.4,0,3.6l-167.8,61.3c-2.7-5.9-8.2-10.4-15.1-11.5c-0.3,0-0.6-0.1-0.9-0.1l5.1-132.9c4.3-0.5,7.9-3.8,8.6-8.2
	c0.4-2.3-0.1-4.5-1.1-6.4l100.5-78c1.4,1.3,3.2,2.2,5.3,2.6c5.4,0.9,10.5-2.8,11.3-8.2c0.4-2.4-0.1-4.8-1.4-6.7l107.5-91
	c2.9,3,6.7,5.1,11.1,5.8c2,0.3,3.8,0.3,5.7,0.1l35.6,172.2c-3.2,1.2-5.7,4-6.3,7.7c-0.9,5.4,2.8,10.5,8.2,11.3
	c5.4,0.9,10.5-2.8,11.3-8.2c0.9-5.3-2.8-10.5-8.2-11.3c-0.7-0.1-1.4-0.1-2.1-0.1l-35.5-172.2c7.2-2.1,13-8.1,14.3-16
	c0.1-0.6,0.2-1.2,0.2-1.7l123.8-0.7c0.7,4.2,3.8,7.6,8.2,8.3c5.4,0.9,10.5-2.8,11.3-8.2C1839.2,391.8,1835.8,386.7,1830.5,385.9z
	 M1535.8,503.5c-0.2,0.4-0.2,0.9-0.3,1.4c-0.4,2.3,0.1,4.6,1.1,6.5l-100.5,78c-1.4-1.3-3.2-2.2-5.3-2.6c-1.9-0.3-3.7-0.1-5.4,0.7
	L1314,404.2c2.3-1.7,4.1-3.7,5.6-6.2L1535.8,503.5z M1403.4,762.6L1126,835c-1.4-4.3-4.4-8-8.2-10.3l96.9-181.2
	c0.6,0.2,1.2,0.4,1.7,0.5c3.6,0.6,6.9-0.8,9.2-3.4l179.7,109.5c-0.9,1.8-1.6,3.8-2,5.9C1402.9,758.1,1402.9,760.4,1403.4,762.6z
	 M711.8,895c-5.1-0.8-10.1,0.4-14.2,3.1L541.3,695.3c0.5-0.6,1-1.3,1.4-1.9l290,111.8c0,0.2,0,0.3-0.1,0.5c-0.4,2.4,0.2,4.7,1.3,6.6
	l-110.6,88.8C720.3,898,716.3,895.8,711.8,895z M457,949.6L320.8,684c4.7-2.9,8.2-7.7,9.3-13.6l194.2,18.7c0.2,3.7,2.4,7,5.8,8.4
	l-68.8,251.7C459.8,949,458.4,949.2,457,949.6z M651.3,260.8c0.9,0.9,1.9,1.7,3,2.3L586,478c-2-0.3-3.8,0-5.5,0.7l-68.9-105
	c3.9-3,6.8-7.4,7.6-12.7c0.7-4.5-0.2-8.9-2.2-12.7L651.3,260.8z M1208.3,631.8l-320.6-28.2L976.3,437c1.5,0.6,3.1,1.2,4.8,1.5
	c6.3,1,12.4-1.1,16.8-5.2l211.8,195.4C1209.1,629.6,1208.6,630.6,1208.3,631.8z M843,797.3c-3.8-0.2-7.4,1.8-9.2,5l-290-111.8
	c0-0.2,0-0.3,0.1-0.5c0.1-0.8,0.2-1.6,0.1-2.3l339.5-80.8L843,797.3z M583.6,497.7c4,0.4,7.6-1.6,9.5-4.9l287.3,111.8l-337.1,80.2
	c-0.9-2.4-2.8-4.4-5.3-5.4L583.6,497.7z M973.6,435.7l-89,167.4L594.3,490c0-0.2,0.1-0.4,0.1-0.6c0.1-0.6,0.1-1.2,0.1-1.8l370.5-64
	C966.2,428.6,969.3,432.9,973.6,435.7z M509.2,375.4l68.8,105c-1.7,1.5-2.8,3.5-3.2,5.9c-0.7,4.6,1.8,9,5.9,10.7L535,678.6
	c-1.1-0.1-2.2-0.1-3.3,0.2l-49.5-119.9c2.5-1.4,4.2-3.9,4.7-7c0.8-4.9-2.3-9.8-7.1-11.1l19-162.9
	C502.5,378.1,506.1,377.2,509.2,375.4z M475.6,560.2c1.4,0.2,2.6,0.1,3.9-0.2L529,680c-2.2,1.3-3.9,3.4-4.5,6.2l-194.1-18.7
	c0.1-3.8-0.9-7.4-2.8-10.6L470,557.3C471.5,558.9,473.3,559.9,475.6,560.2z M845.9,798l40.7-191.5l321.5,28.2c0.2,3,1.6,5.5,3.9,7.2
	L1115,823.1c-1.5-0.6-3.1-1.2-4.9-1.5c-10.6-1.7-20.6,5.3-22.8,15.7L852.2,807C852.2,803.1,849.7,799.5,845.9,798z M1222.6,625.3
	l74.7-218.1c0.6,0.2,1.3,0.3,1.9,0.4c4.3,0.7,8.6-0.1,12.3-2l111.5,183.2c-1.7,1.4-3,3.6-3.4,6c-0.1,0.6-0.1,1.2-0.1,1.8l-192,34.3
	C1226.5,628.6,1224.8,626.5,1222.6,625.3z M1282.6,391.2c1.2,6.6,5.6,12.3,11.8,14.9l-74.7,218.1c-0.1,0-0.1,0-0.2,0
	c-2.9-0.5-5.6,0.4-7.8,2.1L1000,431.1c2-2.6,3.5-5.7,4.1-9.2c0.2-1.2,0.3-2.5,0.3-3.6L1282.6,391.2z M973.7,401.9
	c-4.7,3-8.1,7.8-9.1,13.7c-0.3,1.7-0.3,3.4-0.1,5l-370.6,64c-0.4-1-0.8-1.9-1.4-2.7l265.3-260.8c2.8,2.4,6.1,4.1,10,4.7
	c3.9,0.6,7.8,0,11.2-1.5L973.7,401.9z M852,212.1c0.8,2.6,2.1,5,3.8,7.1L590.5,479.9c-0.5-0.4-1-0.7-1.6-1L657.3,264
	c5.4,0.9,10.5-2.8,11.3-8.2c0.1-0.8,0.2-1.6,0.1-2.3L852,212.1z M516.6,106c1.4,3,4,5.2,7.5,5.8c2.5,0.4,5-0.2,6.9-1.4l120.2,137.5
	c-1.1,1.3-1.9,2.9-2.2,4.8c-0.3,2,0,3.9,0.7,5.6l-134.2,87.6c-3-3.9-7.4-6.8-12.8-7.6c-6.2-1-12.2,1.1-16.6,5L312,178.2
	c2.2-2.7,3.7-5.9,4.2-9.4c0.4-2.4,0.2-4.7-0.1-7L516.6,106z M306.3,182.9c1.3-0.7,2.5-1.6,3.6-2.6L484,345.4
	c-2.1,2.6-3.7,5.8-4.2,9.4c-1.7,10.7,5.5,20.7,16,22.8l-19,162.9c-0.8,0.1-1.6,0.1-2.5,0.4L306.3,182.9z M302.8,685.4
	c1.4,0.6,2.9,1.1,4.4,1.3c3.9,0.6,7.6,0.1,10.8-1.3L454.3,951c-1.3,0.9-2.4,2.2-3.1,3.7l-238.6-74.2c0.5-3.8-1.1-7.4-4.1-9.5
	L302.8,685.4z M1126.6,837.9l277.4-72.4c1.7,4.7,5,8.7,9.5,11l-115.9,261.4c-0.4-0.1-0.7-0.2-1.1-0.3c-2.6-0.4-5.1,0.2-7.1,1.6
	l-167.9-184c2.7-2.8,4.6-6.5,5.2-10.6C1127.1,842.3,1127.1,840.1,1126.6,837.9z M1596.8,891.9c-0.6,0.9-0.9,2-1.1,3.2
	c-0.6,3.9,1,7.5,3.9,9.5l-69.3,134.3c-1.4-0.6-3-1.1-4.5-1.3c-10.9-1.7-21.2,5.7-22.9,16.6c0,0.3-0.1,0.5-0.1,0.8l-197.8-8.6
	c-0.3-3-1.9-5.7-4.5-7.3l115.9-261.4c1.2,0.4,2.3,0.7,3.5,0.9c7,1.1,13.7-1.6,18.2-6.5L1596.8,891.9z M1406.7,747.4l-179.7-109.5
	c0.3-0.8,0.5-1.4,0.7-2.3c0.1-0.6,0.1-1.2,0.1-1.8l192-34.3c1.1,3.2,3.9,5.8,7.5,6.5l-5.1,132.9
	C1416,739.2,1410.3,742.5,1406.7,747.4z"/>
</svg>
